<?xml version="1.0" encoding="utf-8"?>
<!-- Generator: Adobe Illustrator 22.0.1, SVG Export Plug-In . SVG Version: 6.00 Build 0)  -->
<svg version="1.1" id="d1" xmlns="http://www.w3.org/2000/svg" xmlns:xlink="http://www.w3.org/1999/xlink" x="0px" y="0px"
	 viewBox="0 0 80 80" style="enable-background:new 0 0 80 80;" xml:space="preserve">
<style type="text/css">
	.st0{fill:#BECFBD;}
	.st1{fill:none;stroke:#BECFBD;stroke-width:6;stroke-miterlimit:10;}
</style>
<g id="XMLID_1_">
	<path id="XMLID_9_" class="st0" d="M66.8,12H13.1c-2.1,0-3.8,1.7-3.8,3.8v50.4c0,2.1,1.8,3.8,3.8,3.8h53.7c2.1,0,3.8-1.7,3.8-3.8
		V15.8C70.5,13.7,68.8,12,66.8,12z M68.3,66.2c0,0.9-0.7,1.6-1.6,1.6H13.1c-0.9,0-1.6-0.7-1.6-1.6V15.8c0-0.9,0.7-1.6,1.6-1.6h53.7
		c0.9,0,1.6,0.7,1.6,1.6L68.3,66.2L68.3,66.2z"/>
</g>
<polyline class="st1" points="18.5,37 30,54 75,20 "/>
</svg>
