<?xml version="1.0" encoding="utf-8"?>
<!-- Generator: Adobe Illustrator 22.0.1, SVG Export Plug-In . SVG Version: 6.00 Build 0)  -->
<svg version="1.1" id="图层_1" xmlns="http://www.w3.org/2000/svg" xmlns:xlink="http://www.w3.org/1999/xlink" x="0px" y="0px"
	 viewBox="0 0 800 500" style="enable-background:new 0 0 800 500;" xml:space="preserve">
<style type="text/css">
	.st0{opacity:0.5;}
	.st1{opacity:0.4021;fill:url(#SVGID_1_);enable-background:new    ;}
	.st2{opacity:0.4021;fill:url(#SVGID_2_);enable-background:new    ;}
	.st3{opacity:0.4021;fill:url(#SVGID_3_);enable-background:new    ;}
	.st4{fill:none;stroke:#000000;stroke-width:0.9886;stroke-opacity:1.754000e-02;}
	.st5{fill:url(#SVGID_4_);stroke:url(#SVGID_5_);stroke-width:0.9972;stroke-linecap:round;stroke-linejoin:round;}
	.st6{fill:none;stroke:url(#SVGID_6_);stroke-width:0.9972;stroke-linecap:round;stroke-linejoin:round;}
	.st7{fill:#FFFFFF;}
	.st8{fill:url(#SVGID_7_);}
	.st9{fill:url(#SVGID_8_);}
	.st10{fill:none;stroke:#FFFFFF;stroke-opacity:0.2047;}
	.st11{fill:#9B9B9B;fill-opacity:0.5497;}
	.st12{opacity:0.1711;fill:url(#SVGID_9_);enable-background:new    ;}
	.st13{fill:#DCDCDC;stroke:url(#SVGID_10_);stroke-width:3.1091;stroke-linecap:round;stroke-miterlimit:10;}
	.st14{fill:#DCDCDC;}
	.st15{fill:url(#SVGID_11_);}
	.st16{fill:none;stroke:url(#SVGID_12_);stroke-width:1.2479;stroke-linecap:round;stroke-miterlimit:10;}
	
		.st17{opacity:0.4332;fill:none;stroke:#FFFFFF;stroke-width:1.5546;stroke-linecap:round;stroke-miterlimit:10;enable-background:new    ;}
	.st18{fill:url(#SVGID_13_);stroke:#3063A3;stroke-width:1.1115;stroke-linecap:round;stroke-miterlimit:10;}
	.st19{opacity:0.8342;fill:url(#SVGID_14_);enable-background:new    ;}
	.st20{fill:#83D5D8;}
</style>
<g class="st0">
	<g transform="matrix(.021652 0 0 .014857 43.008 42.685)">
		
			<linearGradient id="SVGID_1_" gradientUnits="userSpaceOnUse" x1="1678246.75" y1="-5803492.5" x2="1678246.75" y2="-5805269.5" gradientTransform="matrix(2.165200e-02 0 0 -1.485700e-02 -20290.291 -67507.5547)">
			<stop  offset="0" style="stop-color:#000000;stop-opacity:0"/>
			<stop  offset="0.5" style="stop-color:#000000"/>
			<stop  offset="1" style="stop-color:#000000;stop-opacity:0"/>
		</linearGradient>
		<path class="st1" d="M13558.9,18714.9h4976.3v1777h-4976.3V18714.9z"/>
		
			<radialGradient id="SVGID_2_" cx="663781.9375" cy="-2957058.75" r="435.1503" gradientTransform="matrix(6.007131e-02 0 0 -2.926383e-02 -21307.0977 -66941.8984)" gradientUnits="userSpaceOnUse">
			<stop  offset="0" style="stop-color:#000000"/>
			<stop  offset="1" style="stop-color:#000000;stop-opacity:0"/>
		</radialGradient>
		<path class="st2" d="M18535.6,18715v1776.9c530.7,3.3,1283.1-398.1,1283.1-888.6S19226.4,18715,18535.6,18715z"/>
		
			<radialGradient id="SVGID_3_" cx="-592063" cy="-2957058.75" r="435.1503" gradientTransform="matrix(-6.007131e-02 0 0 -2.926383e-02 -22038.3418 -66941.8984)" gradientUnits="userSpaceOnUse">
			<stop  offset="0" style="stop-color:#000000"/>
			<stop  offset="1" style="stop-color:#000000;stop-opacity:0"/>
		</radialGradient>
		<path class="st3" d="M13558.9,18715v1776.9c-530.7,3.3-1283.1-398.1-1283.1-888.6S12868.1,18715,13558.9,18715z"/>
	</g>
	<path class="st4" d="M345,190.9v140.8"/>
	
		<radialGradient id="SVGID_4_" cx="420.3917" cy="195.1638" r="309.3787" gradientTransform="matrix(1.0036 0 0 -1.0019 1.4928 503.9272)" gradientUnits="userSpaceOnUse">
		<stop  offset="0" style="stop-color:#FAFAFA"/>
		<stop  offset="1" style="stop-color:#BBBBBB"/>
	</radialGradient>
	
		<radialGradient id="SVGID_5_" cx="344.3117" cy="315.3036" r="133.0324" gradientTransform="matrix(1.0036 0 0 -1.0019 1.4928 503.9272)" gradientUnits="userSpaceOnUse">
		<stop  offset="0" style="stop-color:#A3A3A3"/>
		<stop  offset="1" style="stop-color:#4C4C4C"/>
	</radialGradient>
	<path class="st5" d="M330.7,183.5h121.5c2.4,0,4.3,1.9,4.3,4.3c0,0,0,0,0,0v143.8c0,2.4-1.9,4.3-4.3,4.3c0,0,0,0,0,0H330.7
		c-2.4,0-4.3-1.9-4.3-4.3l0,0V187.8C326.4,185.4,328.3,183.5,330.7,183.5"/>
	
		<radialGradient id="SVGID_6_" cx="341.9745" cy="302.0171" r="134.3006" gradientTransform="matrix(1.0036 0 0 -1.0019 1.4928 503.9272)" gradientUnits="userSpaceOnUse">
		<stop  offset="0" style="stop-color:#FFFFFF"/>
		<stop  offset="1" style="stop-color:#F8F8F8"/>
	</radialGradient>
	<path class="st6" d="M330.9,187H452c0.3,0,0.6,0.2,0.6,0.6c0,0,0,0,0,0v143.8c0,0.3-0.2,0.6-0.6,0.6l0,0H330.9
		c-0.3,0-0.6-0.2-0.6-0.6l0,0V187.5C330.3,187.2,330.6,187,330.9,187"/>
	<g transform="translate(.64645 -.037989)">
		<g transform="matrix(.2297 0 0 .2297 4.9671 4.245)">
			<path class="st7" d="M1469.2,1212c0,7.3-5.9,13.3-13.3,13.3c-7.3,0-13.3-5.9-13.3-13.3s5.9-13.3,13.3-13.3
				C1463.2,1198.7,1469.2,1204.6,1469.2,1212z"/>
			<path class="st7" d="M1469.2,1026.2c0,7.3-5.9,13.3-13.3,13.3c-7.3,0-13.3-5.9-13.3-13.3c0-7.3,5.9-13.3,13.3-13.3
				C1463.2,1012.9,1469.2,1018.9,1469.2,1026.2z"/>
		</g>
		
			<radialGradient id="SVGID_7_" cx="338.3131" cy="218.291" r="4.4849" gradientTransform="matrix(1 0 0 -1 0.6464 501.2191)" gradientUnits="userSpaceOnUse">
			<stop  offset="0" style="stop-color:#F0F0F0"/>
			<stop  offset="1" style="stop-color:#9A9A9A"/>
		</radialGradient>
		<path class="st8" d="M341.1,281.6c0,1.7-1.4,3-3,3c-1.7,0-3-1.4-3-3c0-1.7,1.4-3,3-3C339.8,278.6,341.1,280,341.1,281.6z"/>
		
			<radialGradient id="SVGID_8_" cx="338.3131" cy="260.9591" r="4.486" gradientTransform="matrix(1 0 0 -1 0.6464 501.2191)" gradientUnits="userSpaceOnUse">
			<stop  offset="0" style="stop-color:#F0F0F0"/>
			<stop  offset="1" style="stop-color:#9A9A9A"/>
		</radialGradient>
		<path class="st9" d="M341.1,239c0,1.7-1.4,3-3,3c-1.7,0-3-1.4-3-3c0-1.7,1.4-3,3-3C339.8,235.9,341.1,237.3,341.1,239z"/>
	</g>
	<path class="st10" d="M348.7,189.1v141.2"/>
	<g transform="matrix(.90909 0 0 1 2.3636 0)">
		<path class="st11" d="M395.8,203.9h80.6c0.3,0,0.6,0.1,0.6,0.2v3.2c0,0.1-0.3,0.2-0.6,0.2h-80.6c-0.3,0-0.6-0.1-0.6-0.2v-3.2
			C395.2,204,395.5,203.9,395.8,203.9"/>
		<path class="st11" d="M395.8,211.3h80.6c0.3,0,0.6,0.1,0.6,0.2v3.2c0,0.1-0.3,0.2-0.6,0.2h-80.6c-0.3,0-0.6-0.1-0.6-0.2v-3.2
			C395.2,211.5,395.5,211.3,395.8,211.3"/>
		<path class="st11" d="M395.8,218.8h80.6c0.3,0,0.6,0.1,0.6,0.2v3.2c0,0.1-0.3,0.2-0.6,0.2h-80.6c-0.3,0-0.6-0.1-0.6-0.2V219
			C395.2,218.9,395.5,218.8,395.8,218.8"/>
		<path class="st11" d="M395.8,226.2h80.6c0.3,0,0.6,0.1,0.6,0.2v3.2c0,0.1-0.3,0.2-0.6,0.2h-80.6c-0.3,0-0.6-0.1-0.6-0.2v-3.2
			C395.2,226.3,395.5,226.2,395.8,226.2"/>
		<path class="st11" d="M395.8,233.6h80.6c0.3,0,0.6,0.1,0.6,0.2v3.2c0,0.1-0.3,0.2-0.6,0.2h-80.6c-0.3,0-0.6-0.1-0.6-0.2v-3.2
			C395.2,233.7,395.5,233.6,395.8,233.6"/>
		<path class="st11" d="M395.8,241.1h80.6c0.3,0,0.6,0.1,0.6,0.2v3.2c0,0.1-0.3,0.2-0.6,0.2h-80.6c-0.3,0-0.6-0.1-0.6-0.2v-3.2
			C395.2,241.2,395.5,241.1,395.8,241.1"/>
		<path class="st11" d="M395.8,248.5h80.6c0.3,0,0.6,0.1,0.6,0.2v3.2c0,0.1-0.3,0.2-0.6,0.2h-80.6c-0.3,0-0.6-0.1-0.6-0.2v-3.2
			C395.2,248.6,395.5,248.5,395.8,248.5"/>
		<path class="st11" d="M395.8,255.9h80.6c0.3,0,0.6,0.1,0.6,0.2v3.2c0,0.1-0.3,0.2-0.6,0.2h-80.6c-0.3,0-0.6-0.1-0.6-0.2v-3.2
			C395.2,256,395.5,255.9,395.8,255.9"/>
		<path class="st11" d="M395.5,263.4h36.3c0.1,0,0.3,0.1,0.3,0.2v3.2c0,0.1-0.1,0.2-0.3,0.2h-36.3c-0.1,0-0.3-0.1-0.3-0.2v-3.2
			C395.2,263.5,395.4,263.4,395.5,263.4"/>
		<path class="st11" d="M395.8,278.2h80.6c0.3,0,0.6,0.1,0.6,0.2v3.2c0,0.1-0.3,0.2-0.6,0.2h-80.6c-0.3,0-0.6-0.1-0.6-0.2v-3.2
			C395.2,278.3,395.5,278.2,395.8,278.2"/>
		<path class="st11" d="M395.8,285.6h80.6c0.3,0,0.6,0.1,0.6,0.2v3.2c0,0.1-0.3,0.2-0.6,0.2h-80.6c-0.3,0-0.6-0.1-0.6-0.2v-3.2
			C395.2,285.8,395.5,285.6,395.8,285.6"/>
		<path class="st11" d="M395.8,293.1h80.6c0.3,0,0.6,0.1,0.6,0.2l0,0v3.2c0,0.1-0.3,0.2-0.6,0.2l0,0h-80.6c-0.3,0-0.6-0.1-0.6-0.2
			l0,0v-3.2C395.2,293.2,395.5,293.1,395.8,293.1L395.8,293.1"/>
		<path class="st11" d="M395.8,300.5h80.6c0.3,0,0.6,0.1,0.6,0.2l0,0v3.2c0,0.1-0.3,0.2-0.6,0.2l0,0h-80.6c-0.3,0-0.6-0.1-0.6-0.2
			l0,0v-3.2C395.2,300.6,395.5,300.5,395.8,300.5L395.8,300.5"/>
		<path class="st11" d="M395.6,307.9h56.4c0.2,0,0.4,0.1,0.4,0.2l0,0v3.2c0,0.1-0.2,0.2-0.4,0.2c0,0,0,0,0,0h-56.4
			c-0.2,0-0.4-0.1-0.4-0.2l0,0v-3.2C395.2,308,395.4,307.9,395.6,307.9L395.6,307.9"/>
	</g>
	
		<radialGradient id="SVGID_9_" cx="401.1374" cy="-3822.8369" r="61.3989" gradientTransform="matrix(0.9624 0 0 -0.2407 -24.0418 -636.3148)" gradientUnits="userSpaceOnUse">
		<stop  offset="0" style="stop-color:#000000"/>
		<stop  offset="1" style="stop-color:#000000;stop-opacity:0"/>
	</radialGradient>
	<path class="st12" d="M421.1,283.8c0.3,8.2-26,14.8-58.6,14.9s-59.3-6.5-59.6-14.7c0-0.1,0-0.2,0-0.2c-0.3-8.2,26-14.8,58.6-14.9
		s59.3,6.5,59.6,14.7C421.1,283.6,421.1,283.7,421.1,283.8z"/>
	
		<linearGradient id="SVGID_10_" gradientUnits="userSpaceOnUse" x1="812.8041" y1="-452.2023" x2="826.5238" y2="-465.9496" gradientTransform="matrix(0.6433 0 0 -0.6433 -161.0218 -39.2604)">
		<stop  offset="0" style="stop-color:#8A8A8A"/>
		<stop  offset="1" style="stop-color:#484848"/>
	</linearGradient>
	<path class="st13" d="M371,192.8c19.4,0,35.2,15.8,35.2,35.2s-15.8,35.2-35.2,35.2c-8.3,0-15.7-3.3-21.7-8.1
		c0.5,2.4,0.2,4.9-1.8,6.6l-26.2,22.8c-2.9,2.6-7.4,2.2-9.9-0.7c-2.6-2.9-2.2-7.4,0.7-9.9l26.2-22.8c1.6-1.4,3.6-1.8,5.5-1.5
		c-4.7-6-8-13.3-8-21.5C335.8,208.6,351.6,192.8,371,192.8L371,192.8z M371.2,195.7c-18.3,0-31.8,11.4-31.8,31.8
		c0,20.7,13.9,31.8,31.8,31.8c17.5,0,31.8-13.1,31.8-31.8C403,208.4,389,195.7,371.2,195.7z"/>
	<path class="st14" d="M371.1,192.6c19.5,0,35.3,15.8,35.3,35.3s-15.8,35.3-35.3,35.3c-8.3,0-15.7-3.3-21.8-8.2
		c0.5,2.4,0.2,4.9-1.8,6.6l-26.3,22.8c-3,2.6-7.4,2.2-10-0.7s-2.2-7.4,0.7-10l26.3-22.8c1.6-1.4,3.6-1.8,5.5-1.5
		c-4.8-6-8.1-13.3-8.1-21.6C335.7,208.5,351.6,192.6,371.1,192.6L371.1,192.6z M371.3,200.2c-15,0-27.2,12.2-27.2,27.2
		s12.2,27.2,27.2,27.2s27.2-12.2,27.2-27.2S386.3,200.2,371.3,200.2z"/>
	
		<linearGradient id="SVGID_11_" gradientUnits="userSpaceOnUse" x1="487.3911" y1="-4.4036" x2="496.9122" y2="6.5104" gradientTransform="matrix(0.8585 0 0 -0.8307 -68.6494 241.9275)">
		<stop  offset="0" style="stop-color:#7D7D7D"/>
		<stop  offset="0.5" style="stop-color:#B1B1B1"/>
		<stop  offset="1" style="stop-color:#686868"/>
	</linearGradient>
	<path class="st15" d="M321.1,284.6c1.1-5.4-3.3-11.5-8.6-11.4l25.7-22.1c7-0.1,10.2,5.4,9,11L321.1,284.6L321.1,284.6z"/>
	
		<linearGradient id="SVGID_12_" gradientUnits="userSpaceOnUse" x1="579.7592" y1="-18.9713" x2="576.931" y2="-62.3265" gradientTransform="matrix(0.8014 0 0 -0.8014 -92.0895 198.0247)">
		<stop  offset="0" style="stop-color:#FFFFFF"/>
		<stop  offset="0.5" style="stop-color:#FFFFFF;stop-opacity:0.2191"/>
		<stop  offset="1" style="stop-color:#FFFFFF"/>
	</linearGradient>
	<path class="st16" d="M338.7,226.8c-0.2,18.2,14.4,33,32.6,33.2s33-14.4,33.2-32.6c0-0.2,0-0.4,0-0.6c0.2-18.2-14.4-33-32.6-33.2
		c-18.2-0.2-33,14.4-33.2,32.6C338.7,226.4,338.7,226.6,338.7,226.8z"/>
	<path class="st17" d="M337.1,254.2l-22.3,19.5c-3.3,2.9-4.4,7-2.5,9.3c1.9,2.2,6.1,1.7,9.4-1.2l22.3-19.5c3.3-2.9,4.4-7,2.5-9.3
		C344.6,250.8,340.4,251.3,337.1,254.2"/>
	
		<radialGradient id="SVGID_13_" cx="440.2776" cy="120.4789" r="30.8643" gradientTransform="matrix(0.8997 0 0 -0.8997 -49.6368 346.7444)" gradientUnits="userSpaceOnUse">
		<stop  offset="0" style="stop-color:#729FCF;stop-opacity:0.2078"/>
		<stop  offset="1" style="stop-color:#729FCF;stop-opacity:0.6762"/>
	</radialGradient>
	<path class="st18" d="M343.9,227.2c0,15.3,12.4,27.8,27.8,27.8c15.3,0,27.8-12.4,27.8-27.8s-12.4-27.8-27.8-27.8
		C356.3,199.4,343.9,211.9,343.9,227.2z"/>
	
		<radialGradient id="SVGID_14_" cx="43.1565" cy="667.7833" r="24.7264" gradientTransform="matrix(1.668 0 0 -1.4487 291.3463 1177.8192)" gradientUnits="userSpaceOnUse">
		<stop  offset="0" style="stop-color:#FFFFFF"/>
		<stop  offset="1" style="stop-color:#FFFFFF;stop-opacity:0.2476"/>
	</radialGradient>
	<path class="st19" d="M371.1,202.9c-12.4,0-22.5,10.1-22.5,22.5c0,3.6,1,6.9,2.5,9.9c3,1.1,6.2,1.9,9.5,1.9
		c14.7,0,26.5-11.6,27.4-26.1C383.9,206.2,378,202.9,371.1,202.9L371.1,202.9z"/>
</g>
<g>
	<path class="st20" d="M308.8,397l-4.1,0.7c0,0.7,0,1.2,0.1,1.8v0.1c0,0.2-0.1,0.3-0.5,0.5c-0.2,0.1-0.4,0.1-0.5,0.1
		c-0.1,0-0.2-0.1-0.2-0.3c0-0.3,0.1-1.7,0.1-2.1l-1.3,0.2c-2.6,0.5-2.8,0.5-3.3,0.9c-0.1,0-0.1,0.1-0.2,0.1c0,0-0.1,0-0.1-0.1
		L298,398l5.7-0.7v-1.8h-3.2c-0.3,0.4-0.4,0.5-0.4,0.5c0,0-0.1,0-0.1,0l-1-0.8c0.8-0.3,0.8-0.4,1.2-1.1c0.4-0.8,0.8-1.5,1-2h-1.3
		c-0.5,0-1.1,0.1-1.5,0.2l-0.6-0.8c0.6,0,1.1,0.1,1.6,0.1h2c0.7-1.4,1-2,1.4-2.9l1.2,0.6c0.1,0,0.2,0.1,0.2,0.2c0,0-0.1,0.1-0.2,0.1
		l-0.6,0.3l-0.9,1.7h3.9l0.7-1l1.1,1c0.2,0.2,0.2,0.3,0.2,0.3c0,0.1-0.1,0.1-0.3,0.1h-5.9l-1.6,3.1h3.2c0-1,0-1.9-0.1-2.5l1.4,0.6
		c0.1,0,0.2,0.1,0.2,0.1c0,0.1,0,0.1-0.5,0.4v1.3h1.8l0.8-1l1,1.1c0.1,0.1,0.1,0.2,0.1,0.2c0,0.1-0.1,0.1-0.2,0.1h-3.5v1.7l4-0.5
		L308.8,397z M314.5,401.5c0.1,0,0.1,0.1,0.1,0.2s0,0.1-0.1,0.2l-0.5,0.4v4.6c0,0.3,0.1,1.7,0.1,1.9c0,0.4-0.9,0.6-1,0.6
		c-0.1,0-0.1-0.1-0.1-0.3v-1.1h-9.2v0.8c0,0.3,0,0.4-0.5,0.6c-0.2,0.1-0.4,0.2-0.4,0.2c-0.1,0-0.2-0.1-0.2-0.4v-0.2
		c0-0.8,0.1-1.5,0.1-2.4v-3.8c0-0.6,0-1.7-0.1-2.2l1.2,0.8h8.7l0.6-0.8L314.5,401.5z M312.9,404.3v-2.4h-9.2v2.4H312.9z
		 M312.9,407.4v-2.7h-9.2v2.7H312.9z M318.1,394.6c0.2,0.2,0.2,0.2,0.2,0.3c0,0.1-0.1,0.1-0.4,0.1h-3.2v2.2c0,1,0,1.6,0.1,2.2v0.1
		c0,0.2-0.1,0.2-0.6,0.4c-0.2,0.1-0.3,0.1-0.4,0.1c-0.1,0-0.2-0.1-0.2-0.3v-0.1c0-0.8,0.1-1.7,0.1-2.5v-2.2h-3.2
		c-0.1,2.9-1,4.3-4,5.9l-0.2-0.2c3.1-2,3.3-3.4,3.3-6.9c0-1,0-2.4-0.1-3.4l1.3,0.9c2.8-0.9,3.4-1.2,5.1-1.9l0.9,1.2
		c0.1,0.1,0.1,0.1,0.1,0.2c0,0.1,0,0.1-0.1,0.1c-0.1,0-0.7-0.1-0.8-0.1c-0.3,0-0.7,0.1-1.4,0.2l-4,0.8l-0.1,2.9h5.5l0.8-1.1
		L318.1,394.6z"/>
	<path class="st20" d="M328.4,391.3c0.1,0.1,0.2,0.1,0.2,0.2c0,0-0.1,0.1-0.2,0.2l-0.7,0.5v9.3c0,1.7,0,2.5,0.1,3.2v0.1
		c0,0.5-0.9,0.9-1,0.9c-0.1,0-0.1-0.2-0.1-0.4v-1h-4.3v1.9c0,0.2,0,0.3-0.5,0.6c-0.2,0.1-0.4,0.2-0.4,0.2c-0.1,0-0.2-0.2-0.2-0.5
		v-0.2c0-1.4,0.1-2.9,0.1-4.7v-8.9c0-1.1,0-1.7-0.1-2.5l1.3,1h3.8l0.6-0.8L328.4,391.3z M326.6,397.2v-5.5h-4.3v5.5H326.6z
		 M326.6,403.8v-6.2h-4.3v6.2H326.6z M340.5,394.5c0.1,0.1,0.2,0.2,0.2,0.2c0,0.1-0.1,0.1-0.3,0.1H337v12.3c0,1.4,0,1.5-1.7,2.3
		c-0.1,0-0.1,0-0.2,0c-0.1,0-0.1,0-0.2-0.2c-0.2-0.8-0.6-1.2-3.2-1.9l0.1-0.4c1.5,0.3,2.5,0.5,3.1,0.5c0.9,0,1.1-0.3,1.1-0.7v-11.9
		h-5.4c-0.4,0-0.9,0.1-1.3,0.2l-0.8-0.7c0.6,0.1,1,0.1,1.6,0.1h5.9v-2.4c0-1.8,0-2.5,0-3.2l1.6,0.8c0.2,0.1,0.2,0.1,0.2,0.2
		c0,0.1-0.1,0.1-0.2,0.2l-0.5,0.3v4.1h1.4l0.8-1.2L340.5,394.5z M330.4,397.1c1.7,1.3,2.8,2.3,2.8,3.3c0,0.6-0.3,1.1-0.8,1.1
		c-0.3,0-0.4-0.2-0.6-1c-0.2-0.9-0.6-2-1.6-3.2L330.4,397.1z"/>
	<path class="st20" d="M342.5,394.1c1.8,0.3,3.3,1,3.5,1.6c0.1,0.2,0.2,0.5,0.2,0.7c0,0.6-0.3,1-0.6,1c-0.2,0-0.3-0.1-0.6-0.7
		c-0.3-0.8-1.3-1.7-2.5-2.3L342.5,394.1z M349.8,390.9l-2.9,10.1c-0.4,1.5-0.7,2.5-0.7,3.6c0,0.6,0.1,1.2,0.2,1.9
		c0.1,0.3,0.1,0.6,0.1,0.9c0,0.8-0.3,1.1-0.8,1.1c-0.5,0-0.7-0.4-0.7-1c0-0.2,0-0.5,0.1-0.8c0.3-1.4,0.4-2.2,0.4-2.7
		c0-0.6-0.1-0.8-0.4-0.9c-0.2-0.1-1.1-0.3-2.2-0.4l0-0.4c0.4,0,0.6,0,0.9,0c1.6,0,1.8-0.5,2.3-1.8l3.4-9.8L349.8,390.9z
		 M344.3,389.3c1.6,0.1,3.4,0.7,3.7,1.3c0.2,0.3,0.2,0.6,0.2,0.8c0,0.5-0.2,0.9-0.5,0.9c-0.3,0-0.5-0.1-0.7-0.5
		c-0.4-0.8-1.4-1.8-2.8-2.1L344.3,389.3z M363.1,407.4c-1.3,0-1.8,0.2-2.3,0.9c0,0-0.1,0.1-0.1,0.1c0,0-0.1,0-0.1,0
		c-2.7-1.2-4.1-2.1-5.3-3.2c-1.9,1.7-4.9,3.3-8.2,4.1L347,409c3.3-1.3,5.8-2.8,7.6-4.5c-1.4-1.5-2.2-3.8-2.7-5.9
		c-0.4,0-0.9,0-1.4,0.2l-0.6-0.8c0.6,0,1.1,0.1,1.6,0.1h6.2l0.7-0.9l1.4,1.1c0.1,0.1,0.2,0.2,0.2,0.2c0,0.1-0.1,0.1-0.2,0.2
		c-0.4,0.2-0.8,0.5-0.9,0.9c-0.9,2.2-1.8,3.8-2.9,5c1.9,1.4,4.9,2.5,7.2,2.6V407.4z M358.2,394.5c0,0.5,0.3,0.8,1.2,0.8
		c1.4,0,1.6-0.1,2.2-0.5c0.7,0.4,0.9,0.9,0.9,0.9c0,0.2-1.2,0.5-3.2,0.5c-1.8,0-2.2-0.3-2.2-1.4v-4.4h-4c-0.2,5-0.7,5.7-4.3,7.8
		l-0.1-0.3c3-2.3,3.5-3,3.4-9.1l1.3,1.1h3.4l0.7-1l1.5,1.1c0.1,0,0.1,0.1,0.1,0.1c0,0,0,0.1-0.1,0.2l-0.7,0.5V394.5z M352.3,398.5
		c0.6,2.1,1.5,3.9,2.9,5.3c1.3-1.5,2.1-3.3,2.7-5.3H352.3z"/>
	<path class="st20" d="M385.1,392.2c0.2,0.2,0.3,0.3,0.3,0.4c0,0.1-0.1,0.1-0.4,0.1h-11.4c-0.7,1.1-1.4,2.4-1.9,3.2h8.3l0.7-1
		l1.3,0.8c0.2,0.1,0.3,0.2,0.3,0.3c0,0.1-0.1,0.1-0.2,0.2l-0.6,0.4V407c0,1.6-0.1,1.9-1.3,2.5c-0.1,0-0.2,0.1-0.2,0.1
		c-0.1,0-0.1-0.1-0.2-0.3c-0.2-0.7-0.6-1-2.7-1.6l0.1-0.3c1.3,0.2,2,0.2,2.5,0.2c0.7,0,0.8-0.2,0.8-0.6v-3.4h-8.7v1.9
		c0,0.5,0,2.8,0,3.1s-0.1,0.4-0.5,0.7c-0.2,0.1-0.3,0.2-0.4,0.2c-0.1,0-0.2-0.1-0.2-0.4v-0.2c0-1.3,0.1-3.3,0.1-4.6v-6.8
		c-1.8,2.4-3.9,4.7-5.8,6.3l-0.2-0.3c3.1-2.9,5.9-7.1,7.8-10.6h-5.3c-0.5,0-1.1,0.1-1.5,0.2l-0.6-0.8c0.6,0,1.1,0.1,1.6,0.1h6.1
		c0.9-1.8,1.3-2.8,1.7-3.8l1.5,0.9c0.2,0.1,0.2,0.2,0.2,0.2c0,0.1-0.1,0.1-0.3,0.2c-0.5,0.1-0.7,0.3-0.9,0.7c-0.2,0.5-0.6,1.1-1,1.8
		h8.8l1-1.3L385.1,392.2z M380.4,399.5v-3.1h-8.7v3.1H380.4z M380.4,403v-3h-8.7v3H380.4z"/>
	<path class="st20" d="M396.4,393.9c0.1,0.1,0.2,0.2,0.2,0.3c0,0.1-0.1,0.1-0.3,0.1h-3.8v2.3c1.9,0.8,2.8,1.5,3.1,2
		c0.1,0.2,0.2,0.4,0.2,0.6c0,0.5-0.2,0.9-0.6,0.9c-0.2,0-0.4-0.2-0.5-0.6c-0.2-0.6-1.1-1.8-2.2-2.5v7c0,1.7,0,3.4,0,4.4v0.2
		c0,0.3-0.1,0.4-0.5,0.6c-0.2,0.1-0.4,0.1-0.5,0.1c-0.1,0-0.2-0.1-0.2-0.4v-0.3c0.1-1.3,0.1-3.3,0.1-4.6v-6.7c-1,2.5-2.4,5.1-4,7.2
		l-0.3-0.2c2-3.2,3.5-6.8,4.3-9.9h-1.6c-0.5,0-1.1,0.1-1.5,0.2l-0.6-0.8c0.6,0,1.1,0.1,1.6,0.1h2.1v-1.9c0-0.9,0-2.4-0.1-3.3
		l1.7,0.8c0.2,0.1,0.3,0.2,0.3,0.2c0,0.1-0.1,0.2-0.8,0.6v3.6h1.8l0.8-1.1L396.4,393.9z M406.9,391.5c0.1,0.1,0.2,0.2,0.2,0.2
		c0,0.1-0.1,0.1-0.2,0.2l-0.8,0.5v11.9c0,1.7,0,3.1,0.1,4.1v0.2c0,0.3-0.1,0.4-0.6,0.6c-0.2,0.1-0.4,0.1-0.4,0.1
		c-0.1,0-0.2-0.1-0.2-0.3v-2.1h-6.9v1.7c0,0.5-0.7,0.7-0.9,0.7c-0.2,0-0.2-0.1-0.2-0.5v-0.2c0-1.3,0.1-3.3,0.1-4.6v-11.5
		c0-0.5,0-1.6-0.1-2.3l1.6,1.2h6.1l0.7-1L406.9,391.5z M405,396.3v-4.4h-6.9v4.4H405z M405,401.2v-4.4h-6.9v4.4H405z M405,406.5
		v-4.8h-6.9v4.8H405z"/>
	<path class="st20" d="M429.8,407.6c-1.4,0-2,0.2-2.5,0.8c0,0.1-0.1,0.1-0.2,0.1c0,0-0.1,0-0.2,0c-4.6-2.6-5.9-5.3-6.9-8.8h-0.5
		c-0.7,4-3.7,7.7-10.2,9.6l-0.1-0.3c5.2-2.3,8.1-4.6,9.2-9.3h-6.9c-0.5,0-1.1,0.1-1.5,0.2l-0.6-0.8c0.6,0,1.1,0.1,1.6,0.1h7.5
		c0.2-1.3,0.3-3.1,0.3-4.8h-6c-0.5,0-1.1,0.1-1.5,0.2l-0.6-0.8c0.6,0,1.1,0.1,1.6,0.1h8.1c1-1.3,2.5-3.7,3.1-5l1.3,1
		c0.1,0.1,0.2,0.1,0.2,0.2c0,0-0.1,0.1-0.2,0.1c-0.7,0.1-1.5,0.9-3.8,3.7h4.3l0.9-1.3l1.5,1.3c0.2,0.1,0.2,0.2,0.2,0.3
		c0,0.1-0.1,0.2-0.3,0.2h-7.6c0,1.6-0.2,3.1-0.4,4.8h6.7l0.9-1.3l1.5,1.3c0.2,0.1,0.2,0.2,0.2,0.3c0,0.1-0.1,0.2-0.3,0.2h-8
		c1.2,4,4.3,7.2,9.2,7.7V407.6z M413.8,389.2c2.6,1,4,1.8,4,3c0,0.5-0.3,1-0.7,1c-0.2,0-0.4-0.2-0.5-0.5c-0.3-1.2-1.1-2.2-2.9-3.2
		L413.8,389.2z"/>
	<path class="st20" d="M442.6,394.1c0.1,0.1,0.2,0.2,0.2,0.2c0,0.1-0.1,0.1-0.3,0.1h-4.6v0.8c0.8,0.2,3.6,1,3.6,2.3
		c0,0.4-0.2,0.7-0.4,0.7c-0.2,0-0.4,0-0.6-0.4c-0.5-0.7-1.4-1.5-2.6-2.2v2.3c0,0.2-0.1,0.3-0.4,0.4c-0.2,0.1-0.3,0.1-0.4,0.1
		c-0.1,0-0.2-0.1-0.2-0.2V398c0-0.6,0.1-1.4,0.1-2.2v-1.3c-1.8,2.6-3.1,3.9-5.4,5.6l-0.2-0.2c2-1.9,3.1-3.1,4.4-5.4H434
		c-0.5,0-1.1,0.1-1.5,0.2l-0.6-0.8c0.6,0,1.1,0.1,1.6,0.1h3.4v-3.4c0-0.6,0-1.2-0.1-1.9l1.6,0.8c0.1,0,0.2,0.1,0.2,0.1
		c0,0,0,0.1-0.2,0.2l-0.6,0.3v3.9h2.6l0.8-1L442.6,394.1z M441.1,400.8c0.1,0.1,0.1,0.1,0.1,0.1c0,0.1-0.1,0.1-0.1,0.1
		c-0.3,0-0.6,0.4-0.8,0.7c-0.7,1.4-1,2-1.6,2.8c1.2,0.5,1.8,1,2.2,1.4c0.2,0.2,0.2,0.4,0.2,0.6c0,0.4-0.2,0.7-0.4,0.7
		c-0.2,0-0.4-0.1-0.7-0.6c-0.4-0.5-0.9-1-1.8-1.5c-1.2,1.5-2.9,2.6-6.4,3.8l-0.1-0.3c3.1-1.4,4.7-2.8,5.7-4c-0.9-0.4-2-0.9-3.6-1.4
		c0.4-0.7,0.9-1.5,1.2-2.2l-1.5,0.1c-0.5,0-0.8,0.1-1.1,0.2l-0.8-0.7c0.6,0.1,1,0.1,1.6,0.1l2.1-0.1c0.4-0.8,0.7-1.6,1-2.3l1.2,0.7
		c0.1,0,0.1,0.1,0.1,0.1c0,0.1-0.1,0.1-0.7,0.3l-0.6,1.1l3.1-0.1l0.5-0.7L441.1,400.8z M433.1,389.8c2,1,2.5,1.7,2.5,2.5
		c0,0.4-0.3,0.8-0.6,0.8c-0.2,0-0.4-0.2-0.5-0.7c-0.1-0.7-0.7-1.6-1.5-2.4L433.1,389.8z M434.8,403.2c1.2,0.3,2.2,0.6,3,0.9
		c0.7-1,1.2-2,1.6-3.2l-3.5,0.1L434.8,403.2z M449.5,394.1c-0.5,3.9-1.7,7.8-2.6,9.4c1.3,2,2.8,3.1,5.3,4.2l-0.1,0.2
		c-0.2,0-0.4,0-0.6,0c-0.6,0-1,0.1-1.3,0.5c0,0-0.1,0.1-0.2,0.1c-0.1,0-2.4-2-3.8-4.1c-2.2,2.6-4.1,4-7.6,5.3l-0.1-0.3
		c2.9-1.4,5.6-3.5,7.2-5.8c-0.9-1.9-1.6-4.8-1.9-7.6c-0.7,1.5-1.4,2.9-2.2,4.1l-0.2-0.2c1.8-3.8,3.3-8.2,3.9-11.3l1.5,0.9
		c0.1,0.1,0.2,0.1,0.2,0.2c0,0-0.1,0.1-0.2,0.1c-0.4,0.1-0.5,0.2-0.7,0.8c-0.4,1.1-0.8,2.2-1.2,3.1h5l0.8-1l1.3,1.2
		c0.1,0.1,0.1,0.2,0.1,0.2c0,0-0.1,0.1-0.3,0.1H449.5z M441.9,390.5c0.1,0.1,0.2,0.1,0.2,0.2c0,0-0.1,0.1-0.2,0.1
		c-0.7,0.1-0.9,0.1-3,2.5l-0.3-0.2c0.8-1.1,1.4-2.2,1.9-3.3L441.9,390.5z M444.8,394.1c-0.2,0.4-0.3,0.7-0.5,1.1
		c0.6,3.8,1.3,5.8,2.1,7.4c0.8-1.5,1.6-4.7,1.9-8.5H444.8z"/>
	<path class="st20" d="M461.9,397.2l-3.5,2v7.7c0,1.2-0.1,1.6-1.4,2.1c-0.1,0-0.1,0-0.1,0c-0.1,0-0.1-0.1-0.1-0.2
		c0-0.8-0.4-1.1-2.1-1.6l0.1-0.3c1.1,0.2,1.7,0.3,2.1,0.3c0.5,0,0.6-0.2,0.6-0.5v-7l-0.7,0.4c-1,0.6-1.6,1.1-1.8,1.3
		c-0.1,0.1-0.1,0.2-0.2,0.2c0,0-0.1,0-0.2-0.1l-1-1l3.7-1.7v-4.7h-1.2c-0.5,0-1.1,0.1-1.5,0.2l-0.6-0.8c0.6,0,1.1,0.1,1.6,0.1h1.7
		v-2.1c0-0.9,0-2.4-0.1-3.3l1.5,0.8c0.1,0.1,0.2,0.1,0.2,0.2c0,0.1-0.1,0.1-0.6,0.4v4h1.3l0.8-1.1l1.1,1.2c0.1,0.1,0.2,0.2,0.2,0.3
		c0,0.1-0.1,0.1-0.3,0.1h-3.1v4.2l3.3-1.5L461.9,397.2z M474.3,398.4c0.1,0.1,0.2,0.2,0.2,0.3c0,0.1-0.1,0.1-0.3,0.1h-5.3v3.3h2.3
		l0.6-0.9l1.4,1c0.1,0.1,0.2,0.2,0.2,0.2c0,0.1-0.1,0.1-0.2,0.2l-0.6,0.4v2.8c0,0.5,0.1,2.5,0.1,2.9c0,0.3-0.1,0.4-0.5,0.6
		c-0.2,0.1-0.4,0.1-0.4,0.1c-0.1,0-0.2-0.1-0.2-0.3v-1.5h-6.2v1.1c0,0.3,0,0.4-0.5,0.6c-0.2,0.1-0.4,0.1-0.4,0.1
		c-0.2,0-0.2-0.1-0.2-0.4c0-0.1,0-0.2,0-0.3c0-0.6,0.1-1.4,0.1-2.2v-3c0-0.5,0-1.6-0.1-2.3l1.3,1h2.3v-3.3h-4.5
		c-0.1,0.6-0.1,1.2-0.2,1.8c-0.5,3.3-2.2,7.2-4.2,8.9l-0.2-0.2c1.7-2.3,3.3-6,3.6-10c0.2-2.4,0.3-4.7,0.3-6.8c0-1.3,0-2.5,0-3.5
		l1.4,1.2h7.5l0.6-1l1.3,1c0.1,0.1,0.2,0.2,0.2,0.2c0,0.1-0.1,0.1-0.8,0.6v1.8c0,1,0,1.4,0.1,1.8c0,0.1,0,0.2,0,0.2
		c0,0.3-0.1,0.4-0.5,0.5c-0.2,0.1-0.4,0.1-0.4,0.1c-0.1,0-0.2-0.1-0.2-0.3v-0.8h-8.2c0,1.5-0.1,2.7-0.2,3.9h4.5c0-0.6,0-2.3-0.1-3.5
		l1.7,1c0.2,0.1,0.2,0.2,0.2,0.2c0,0-0.1,0.1-0.2,0.2l-0.6,0.3v1.8h3.4l0.8-1.1L474.3,398.4z M471.8,394v-3.3h-8.1
		c0,1.2,0,2.3,0,3.3H471.8z M471.6,407.1v-4.5h-6.2v4.5H471.6z"/>
</g>
</svg>
