<?xml version="1.0" encoding="utf-8"?>
<!-- Generator: Adobe Illustrator 24.1.3, SVG Export Plug-In . SVG Version: 6.00 Build 0)  -->
<svg version="1.1" id="图层_1" xmlns="http://www.w3.org/2000/svg" xmlns:xlink="http://www.w3.org/1999/xlink" x="0px" y="0px"
	 viewBox="0 0 100 100" style="enable-background:new 0 0 100 100;" xml:space="preserve">
<style type="text/css">
	.st0{fill:#F4FFF1;}
	.st1{font-family:'MicrosoftYaHeiUILight';}
	.st2{font-size:11px;}
	.st3{fill:#C9E9D1;}
</style>
<text transform="matrix(1 0 0 1 17.7002 89.1414)" class="st0 st1 st2">正在发送图片</text>
<path class="st3" d="M68.4,71.4c-0.2-0.1-0.5-0.2-0.7-0.3c-3.8-2.5-7.6-5-11.4-7.5c-0.2-0.1-0.4-0.2-0.6,0
	c-3.6,2.5-7.3,4.9-10.9,7.4c-0.3,0.2-0.6,0.4-1,0.4c-0.5,0.1-0.9-0.4-1-0.9c-0.3-2-0.7-4.1-1-6.1c-0.6-3.5-1.3-7.1-1.9-10.6
	c-0.1-0.3-0.2-0.4-0.4-0.6c-4.7-2.5-9.4-5-14.1-7.5c-0.8-0.4-1.7-0.9-2.5-1.3c-0.5-0.3-0.7-0.7-0.6-1.2c0.1-0.5,0.4-0.8,0.9-0.9
	c5.8-1.2,11.5-2.4,17.3-3.6c7.2-1.5,14.4-3,21.6-4.5c6.6-1.4,13.3-2.8,19.9-4.2c0.1,0,0.1,0,0.2,0c1-0.3,1.8,0.4,1.4,1.7
	c-3.4,9.2-6.7,18.4-10,27.6c-1.4,3.8-2.7,7.5-4.1,11.3C69.2,71,68.9,71.3,68.4,71.4z M49.8,56.7c6.1,4,12.1,7.9,18.1,11.9
	c4.2-11.6,8.4-23.2,12.6-34.7c0,0-0.1,0-0.1,0C70.2,41.5,60,49.1,49.8,56.7z M75.1,33.6C75,33.6,75,33.6,75.1,33.6
	c-16.2,3.3-32.4,6.7-48.6,10.1c0.2,0.1,0.2,0.2,0.3,0.2c4.6,2.4,9.1,4.9,13.7,7.3c0.2,0.1,0.4,0.1,0.6,0c5.9-3.1,11.8-6.1,17.6-9.2
	c5.1-2.7,10.3-5.3,15.4-8C74.4,34,74.7,33.8,75.1,33.6z M71.3,38.1C71.3,38,71.3,38,71.3,38.1c-0.2,0-0.3,0.1-0.5,0.2
	c-4.1,2.1-8.2,4.2-12.3,6.4c-5.4,2.8-10.9,5.6-16.3,8.5c-0.2,0.1-0.3,0.3-0.3,0.5c0.5,2.8,1,5.7,1.5,8.5c0.2,1.1,0.4,2.3,0.6,3.4
	c0.1-0.2,0.2-0.3,0.2-0.5c0.8-2.8,1.7-5.6,2.6-8.3c0.1-0.3,0.3-0.6,0.5-0.8c5.5-4.1,11-8.2,16.5-12.3C66.4,41.7,68.8,39.9,71.3,38.1
	z M54.1,62.1c-1.9-1.2-3.7-2.4-5.5-3.7c-0.9,3.1-1.8,6.1-2.7,9.2c0,0,0,0,0.1,0C48.6,65.8,51.3,64,54.1,62.1z"/>
</svg>
