<?xml version="1.0" encoding="utf-8"?>
<!-- Generator: Adobe Illustrator 19.0.0, SVG Export Plug-In . SVG Version: 6.00 Build 0)  -->
<svg version="1.1" id="图层_1" xmlns="http://www.w3.org/2000/svg" xmlns:xlink="http://www.w3.org/1999/xlink" x="0px" y="0px"
	 viewBox="0 0 100 100" style="enable-background:new 0 0 100 100;" xml:space="preserve">
<style type="text/css">
	.st0{fill:#92B771;}
	.st1{fill:#5E9600;}
	.st2{opacity:0.2;fill:#FFFFFF;}
	.st3{fill:#497500;}
</style>
<rect id="XMLID_10_" class="st0" width="100" height="100"/>
<g>
	<g>
		<g>
			<path id="XMLID_9_" class="st1" d="M88.6,37.8c-19.9-8.9-27.2,1-27.2,1C67.3,23.1,50.1,6.9,50.1,6.9S32.8,23.1,38.7,38.8
				c0,0-7.3-9.9-27.2-1c0,0,5.6,26.1,25.5,21.9c-2.6,0.9-8,3.9-10.5,14.3c0,0,15,5.4,23.5-9.1c8.5,14.4,23.5,9.1,23.5,9.1
				c-2.5-10.4-7.9-13.4-10.5-14.3C83,63.9,88.6,37.8,88.6,37.8z"/>
		</g>
		<path id="XMLID_8_" class="st2" d="M50.1,6.9c0,0-17.3,16.2-11.4,31.9c0,0-7.3-9.9-27.2-1c0,0,5.6,26.1,25.5,21.9
			c-2.6,0.9-8,3.9-10.5,14.3c0,0,15,5.4,23.5-9.1V6.9z"/>
	</g>
	<path id="XMLID_7_" class="st3" d="M51.7,92.5c0,0.9-0.7,1.6-1.6,1.6l0,0c-0.9,0-1.6-0.7-1.6-1.6l1.6-82.1L51.7,92.5z"/>
	<g>
		<g>
			<polygon id="XMLID_6_" class="st3" points="50.1,54.5 79.3,44 50.1,52.7 			"/>
			<polygon id="XMLID_5_" class="st3" points="50.1,59.8 65.4,69.2 50.1,58.2 			"/>
			<polygon id="XMLID_4_" class="st3" points="50.1,43.1 59.5,27.2 50.2,40.4 			"/>
		</g>
		<g>
			<polygon id="XMLID_3_" class="st3" points="50.1,54.5 20.8,44 50.1,52.7 			"/>
			<polygon id="XMLID_2_" class="st3" points="50.1,59.8 34.7,69.2 50.1,58.2 			"/>
			<polygon id="XMLID_1_" class="st3" points="50.1,43.1 40.6,27.2 49.9,40.4 			"/>
		</g>
	</g>
</g>
</svg>
