<?xml version="1.0" encoding="utf-8"?>
<!-- Generator: Adobe Illustrator 24.1.3, SVG Export Plug-In . SVG Version: 6.00 Build 0)  -->
<svg version="1.1" id="图层_2_1_" xmlns="http://www.w3.org/2000/svg" xmlns:xlink="http://www.w3.org/1999/xlink" x="0px"
	 y="0px" viewBox="0 0 100 100" style="enable-background:new 0 0 100 100;" xml:space="preserve">
<style type="text/css">
	.st0{fill:#1E966E;}
	.st1{fill:#FF8C00;}
	.st2{fill:url(#SVGID_1_);}
</style>
<g>
	<path class="st0" d="M54.1,54.1c-4-0.5-7.1-1.5-8.9-1.7L36.1,64C38,67.6,41,72.3,43,75c3.5-1,7.2-2.2,10.9-3.8
		c3.7-1.5,7.1-3.3,10.2-5.1c-0.6-3.9-1.9-9-3.2-13.3c-1.7,0.8-3.6,1.3-5.5,1.3C55,54.1,54.6,54.1,54.1,54.1z"/>
	<path class="st0" d="M24.9,49.3c-3-10.9-3.2-20.8-0.6-27.2c-5.6,4-9.9,9.5-12.6,16.1c-1.2,2.9-2,6-2.4,9.2
		C12.4,49.6,18,50.2,24.9,49.3z"/>
	<path class="st0" d="M50.5,24c1.5-1.6,3-3.1,4.5-4.5c0.9-0.8,1.8-1.7,2.7-2.5c-0.2,0-7.8-2-11.9-2c-2.2,0-4.4,0.2-6.5,0.6
		C43,17.1,46.8,20,50.5,24z"/>
	<path class="st0" d="M65.5,49.6c1.4,4.3,2.7,9.5,3.3,13.4c7.9-5.4,13.1-11.5,13.8-16.4c-0.5-3.1-1.3-6.1-2.6-9.1
		c-0.6-1.3-1.2-2.6-1.9-3.7c-0.1,0.2-0.2,0.3-0.3,0.5C73.6,40.3,69.7,45.9,65.5,49.6z"/>
	<path class="st0" d="M55.6,74.9c-3.4,1.4-6.6,2.5-9.7,3.4c4.5,4.9,8.7,7.4,11.9,7.4c0.7,0,1.3-0.2,1.9-0.4c3.1-1.2,4.9-5.9,5-12.6
		c0-0.7-0.1-1.5-0.1-2.2C61.9,72,58.9,73.5,55.6,74.9z"/>
	<path class="st0" d="M69.4,67.4c0.4,5.7-0.2,10.7-1.7,14.5c5.6-4,9.9-9.5,12.6-16.1c1.8-4.4,2.7-9,2.8-13.7
		C81.3,57,76.7,62.4,69.4,67.4z"/>
	<path class="st0" d="M41,79.5c-8.5,1.8-15.6,1.4-20.5-0.7C27.2,85.2,36.3,89,46,89c2.2,0,4.4-0.2,6.6-0.6
		C48.8,86.9,44.8,83.8,41,79.5z"/>
	<path class="st0" d="M38.2,76.1c-1.9-2.2-4.1-5.2-5.6-7.9l-12.1,5.2l4.4-10.2c8.5-15.8,15-26.9,22.5-35.9c-4.9-6-9.8-9-13.2-9
		c-0.7,0-1.3,0.2-1.9,0.4c-3.1,1.2-4.9,5.9-4.9,12.7c-0.1,5,0.9,10.8,2.6,16.8l0.6,1.5c0,0-0.8,1.2-1.3,1.6
		c-0.9,0.4-1.7,0.5-3.4,0.8c-7.6,0.7-13.5-0.7-16.7-3.8c-0.6,6.1,0.3,12.2,2.8,18c1.4,3.3,3.2,6.2,5.3,8.8
		C21.5,77.6,29.2,77.9,38.2,76.1z"/>
</g>
<g>
	<g>
		<path class="st1" d="M26,68l3.7-1.5l13.6-18.7c0,0-0.1,0,11.4,1.3S76.9,19.7,94,8.2C79,6.6,69.2,13,58.4,23.1
			C45.1,35.3,34,53.2,26,68z"/>
		<path class="st1" d="M89.5,8c1.5,0,3,0,4.5,0.2C77.3,19.5,66.6,49.1,55.4,49.1c-0.2,0-0.5,0-0.7,0c-11.2-1.3-11.4-1.3-11.4-1.3
			l0,0L29.7,66.5L26,68c8-14.8,19.1-32.7,32.4-44.9C68.1,14,77,8,89.5,8"/>
	</g>
</g>
<linearGradient id="SVGID_1_" gradientUnits="userSpaceOnUse" x1="15.6062" y1="79.7312" x2="75.7312" y2="19.6063" gradientTransform="matrix(1 0 0 -1 0 102)">
	<stop  offset="0" style="stop-color:#A0D232"/>
	<stop  offset="1" style="stop-color:#1E966E"/>
</linearGradient>
<path class="st2" d="M80.2,30.8c3.8,6.1,6,13.4,6,21.2c0,22.2-18,40.2-40.2,40.2S5.8,74.2,5.8,52s18-40.2,40.2-40.2
	c5.1,0,10,1,14.6,2.7c0.7-0.6,1.4-1.1,2.1-1.6C57.5,10.7,51.9,9.5,46,9.5C22.5,9.5,3.5,28.5,3.5,52s19,42.5,42.5,42.5
	s42.5-19,42.5-42.5c0-8.6-2.5-16.5-6.9-23.2C81.1,29.5,80.6,30.2,80.2,30.8z"/>
</svg>
