<?xml version="1.0" encoding="utf-8"?>
<!-- Generator: Adobe Illustrator 24.1.3, SVG Export Plug-In . SVG Version: 6.00 Build 0)  -->
<svg version="1.1" id="图层_4" xmlns="http://www.w3.org/2000/svg" xmlns:xlink="http://www.w3.org/1999/xlink" x="0px" y="0px"
	 viewBox="0 0 100 100" style="enable-background:new 0 0 100 100;" xml:space="preserve">
<style type="text/css">
	.st0{fill:url(#SVGID_1_);}
	.st1{fill:#FF8C00;}
</style>
<linearGradient id="SVGID_1_" gradientUnits="userSpaceOnUse" x1="17.3345" y1="24.0965" x2="73.9035" y2="80.6655">
	<stop  offset="0" style="stop-color:#A0D232"/>
	<stop  offset="1" style="stop-color:#1E966E"/>
</linearGradient>
<path class="st0" d="M80,31c-0.6,0.9-1.3,1.8-1.9,2.7c0.7,1.2,1.3,2.5,1.9,3.8c1.3,3,2.1,6,2.6,9.1c-0.7,4.9-5.9,11-13.8,16.4
	c-0.6-4.2-1.7-8.6-3.3-13.1c-1.4,1.3-2.9,2.4-4.4,3.3c1.4,4.4,2.4,8.8,3,12.9c-3.1,1.8-6.5,3.6-10.2,5.1c-3.7,1.6-7.4,2.8-10.9,3.8
	c-2-2.7-4.1-5.8-6-9.4L34,70c1.3,2.2,2.8,4.3,4.2,6.1c-9,1.8-16.7,1.5-20.9-1c-2.1-2.6-3.9-5.5-5.3-8.8c-2.5-5.8-3.4-11.9-2.8-18
	c3.2,3.1,9.1,4.5,16.7,3.8c1.7-0.3,2.5-0.4,3.4-0.8c0.5-0.4,1.3-1.6,1.3-1.6L30,48.2c-1.7-6-2.7-11.8-2.6-16.8
	c0-6.8,1.8-11.5,4.9-12.7c0.6-0.2,1.2-0.4,1.9-0.4v0h0v0c3.5,0,8.4,3.1,13.3,9.1c1-1.2,2-2.3,3-3.4c-3.7-4-7.5-6.9-11.2-8.4
	c2.1-0.4,4.3-0.6,6.5-0.6v0c0,0,0,0,0,0v0c4.1,0,8.2,0.7,11.9,2c0.9-0.8,1.7-1.5,2.6-2.2C55.9,13,51,12,46,12c0,0,0,0,0,0
	c0,0,0,0,0,0c0,0,0,0,0,0c0,0,0,0,0,0c-5.2,0-10.5,1-15.6,3.2C10,23.8,0.6,47.3,9.2,67.6C15.7,82.9,30.5,92,46,92
	c5.2,0,10.5-1,15.6-3.2C82,80.2,91.4,56.7,82.8,36.4C82,34.5,81.1,32.7,80,31z M11.7,38.2c2.7-6.6,7-12.1,12.6-16.1
	c-2.6,6.4-2.4,16.3,0.6,27.2c-6.9,0.9-12.5,0.3-15.6-1.9C9.7,44.2,10.5,41.1,11.7,38.2z M46,89c-9.7,0-18.8-3.8-25.5-10.2
	c4.9,2.1,12,2.5,20.5,0.7c3.8,4.3,7.8,7.4,11.6,8.9C50.4,88.8,48.2,89,46,89z M59.7,85.3c-0.6,0.2-1.2,0.4-1.9,0.4
	c-3.2,0-7.4-2.5-11.9-7.4c3.1-0.9,6.3-2,9.7-3.4c3.3-1.4,6.3-2.9,9-4.4c0,0.7,0.1,1.5,0.1,2.2C64.6,79.4,62.8,84.1,59.7,85.3z
	 M80.3,65.8c-2.7,6.6-7,12.1-12.6,16.1c1.5-3.8,2.1-8.8,1.7-14.5c7.3-5,11.9-10.4,13.7-15.3C83,56.8,82.1,61.4,80.3,65.8z"/>
<g>
	<path class="st1" d="M26,68l3.7-1.5l13.6-18.7c0,0-0.1,0,11.4,1.3S76.9,19.7,94,8.2C79,6.6,69.2,13,58.4,23.1
		C45.1,35.3,34,53.2,26,68z"/>
</g>
</svg>
