<?xml version="1.0" encoding="utf-8"?>
<!-- Generator: Adobe Illustrator 24.1.3, SVG Export Plug-In . SVG Version: 6.00 Build 0)  -->
<svg version="1.1" id="图层_3" xmlns="http://www.w3.org/2000/svg" xmlns:xlink="http://www.w3.org/1999/xlink" x="0px" y="0px"
	 viewBox="0 0 2000 1000" style="enable-background:new 0 0 2000 1000;" xml:space="preserve">
<style type="text/css">
	.st0{fill:#FFFFFF;}
	.st1{fill:url(#SVGID_1_);}
	.st2{fill:#FF8C00;}
	.st3{fill:#6AB82D;}
	.st4{fill:url(#SVGID_2_);}
</style>
<g>
	<path class="st0" d="M463.3,810.9c0-0.7-0.3-1.3-0.8-1.9c-0.5-0.5-1.1-0.8-1.8-0.8H450V804h15.9c2.5,0,4.7,0.9,6.4,2.7
		c1.7,1.8,2.6,3.9,2.6,6.5v56.1c2.1-0.4,4-0.9,5.6-1.5c1.7-0.6,3.1-1.1,4.3-1.5c1.4-0.5,2.6-1.1,3.7-1.6l2,4.5
		c-3.7,3.1-7.1,5.5-10.3,7.3c-3.2,1.8-6.1,3.1-8.6,4c-2.9,1.1-5.6,1.7-8.2,2V810.9z M460.6,760.8c3,2.4,5.8,5.1,8.6,8.1
		c2.7,3,5.2,6,7.4,8.8c2.5,3.3,4.9,6.5,7.2,9.8l-10.2,6.5c-1.7-3.4-3.6-7-5.5-10.7c-1.9-3.7-3.7-7-5.4-10c-1.9-3.5-3.8-6.9-5.6-10.2
		L460.6,760.8z M560.9,767.2c3,0,5.5,1.1,7.6,3.2c2.1,2.1,3.1,4.6,3.1,7.6v30.9c0,1.5-0.3,2.9-0.8,4.3c-0.6,1.4-1.4,2.6-2.4,3.6
		c-1,1-2.2,1.8-3.5,2.4c-1.4,0.6-2.8,0.9-4.4,0.9h-53.3v50.2c0,2,0.7,3.7,2,5c1.3,1.3,3,2,5,2h40.9c3.7,0,6.8-0.6,9.2-1.9
		c2.4-1.3,4.2-2.7,5.6-4.2c1.6-1.8,2.7-3.8,3.4-6.1l5.1,1.7c-1.2,4.9-3.1,8.5-5.5,11.1c-2.4,2.5-4.8,4.3-7.2,5.4
		c-2.9,1.2-5.8,1.9-8.9,1.9h-43.6c-2.4,0-4.7-0.5-6.9-1.4c-2.2-0.9-4.1-2.2-5.7-3.8c-1.6-1.6-2.9-3.5-3.8-5.6
		c-0.9-2.2-1.4-4.5-1.4-7v-51.5H554c1.7,0,3-0.6,4.2-1.7c1.1-1.1,1.7-2.6,1.7-4.2v-34.6c0-1-0.3-1.8-1-2.6c-0.7-0.7-1.5-1.1-2.5-1.1
		h-59.7v-4.2H560.9z"/>
	<path class="st0" d="M614.3,861.5c6.3-1.4,12.6-3.3,19-5.7c6.4-2.4,12.3-4.7,17.7-7.1c5.4-2.3,10-4.5,13.7-6.4
		c3.7-1.9,6.1-3.1,7.1-3.6v-26.9h-57.6v-4.6h98.7l-0.1-6.6v-11.8H630V784h82.7v-14.2c0-1.1-0.4-2-1.2-2.5c-0.8-0.5-1.7-0.7-2.9-0.7
		h-84.2v-4.5h88.9c2.8,0,5.1,1,7,2.9c1.9,1.9,2.8,4.3,2.8,7v35.1h16.7v4.6h-58.3v26.4c2.1,1.1,4.9,2.7,8.6,4.6
		c3.6,1.9,7.8,4,12.6,6.4c4.8,2.4,10.1,4.9,15.9,7.6c5.8,2.7,12,5.3,18.5,8l-5.7,9.7c-5.2-2.9-10.6-6.1-16.2-9.4
		c-4.8-2.8-10.1-6.1-16.1-9.7c-5.9-3.7-11.8-7.5-17.5-11.5v18.9c-0.3,3.3-1,6.4-2.4,9.3c-1.1,2.5-2.9,4.9-5.3,7.4
		c-2.4,2.5-5.8,4.3-10.3,5.6l-1.8-3.7c1.8-1,3.5-2.3,5-3.8c1.2-1.3,2.4-3,3.4-5.1c1-2.1,1.6-4.5,1.6-7.4v-21.1
		c-5.3,4.2-11.1,8-17.3,11.3c-6.2,3.3-12.1,6.2-17.6,8.7c-6.4,2.9-12.7,5.5-19.1,7.7L614.3,861.5z M631.8,816.1c3.3,2.5,6.3,5,9,7.5
		c2.7,2.5,4.9,4.8,6.7,6.8c2.2,2.4,4,4.7,5.5,6.9l-10.2,6.6c-2.1-4.2-4-7.9-5.7-11.1c-1.7-3.1-3.2-5.8-4.4-7.9
		c-1.5-2.5-2.8-4.6-4.1-6.5L631.8,816.1z M700.9,843.1c1.7-2.2,3.3-4.7,4.8-7.4c1.4-2.3,2.9-5.1,4.5-8.3c1.6-3.2,3.1-6.8,4.4-10.8
		l10.5,4.6c-1.6,2.9-3.5,5.8-5.7,8.7c-1.9,2.5-4.2,5.1-6.9,7.8c-2.7,2.7-5.7,5.1-9.1,7.1L700.9,843.1z"/>
	<path class="st0" d="M776.6,878.4c8-1.9,16.4-4.5,25.2-7.7c3.7-1.3,7.8-2.9,12.1-4.7c4.3-1.8,8.8-3.8,13.4-6.1
		c4.6-2.3,9.4-4.7,14.2-7.5c4.9-2.7,9.8-5.7,14.6-9h-79.7V839h10.7v-65.2h11.4v4.4c0.9-0.7,1.9-1.4,3.1-2.1c1.2-0.7,2.6-1.2,4.4-1.7
		c0.6-1.3,1.5-3.5,2.7-6.6c1.2-3,2.4-7,3.6-11.7l11.9,3.6c-0.8,1.4-1.7,2.9-2.6,4.5c-1,1.3-2.1,2.8-3.4,4.5c-1.3,1.7-2.8,3.4-4.6,5
		h60.9c3,0,5.6,1.1,7.7,3.2c2.1,2.2,3.1,4.8,3.1,7.8v34.6c1.5-1.6,2.9-3.2,4.4-4.8c1.4-1.6,2.9-3.3,4.4-5l8.8,8.6
		c-1.1,1.5-2.5,3.1-4.2,4.9c-1.5,1.5-3.3,3.3-5.5,5.4c-2.2,2.1-4.8,4.5-7.8,7v26.4c-0.1,3.4-0.7,6.5-2,9.4c-1,2.6-2.7,5.1-5.1,7.6
		c-2.4,2.5-5.7,4.5-10.2,6l-2.9-4.6c1.7-1.1,3.1-2.4,4.4-4c1.1-1.3,2.2-3,3.1-5c0.9-2,1.4-4.4,1.4-7.2v-20.1
		c-5,3.4-10.7,7-17.1,10.7c-6.4,3.7-13.6,7.3-21.6,10.8s-16.7,6.9-26.3,10c-9.5,3.1-20,5.9-31.3,8.3L776.6,878.4z M811.5,778.3
		c-3.4,0-6.2,0.7-8.3,2.1c-2.1,1.4-3.7,2.7-4.6,3.8v12.5h75.5V782c0-1.1-0.4-1.9-1.1-2.7c-0.7-0.7-1.6-1.1-2.5-1.1H811.5z
		 M798.5,817.8h75.5v-16.7h-75.5V817.8z M862.4,839c2-1.4,4-2.9,5.9-4.4c1.9-1.5,3.8-3.1,5.7-4.8v-7.6h-75.5V839H862.4z"/>
	<path class="st0" d="M1064.2,879.8h-76.3c-3.1,0-5.8-0.4-8.3-1.2c-2.5-0.8-4.7-1.9-6.7-3.2c-2-1.3-3.8-2.8-5.4-4.4
		c-1.6-1.6-3-3.3-4.1-5c-1.7,3.3-3.6,6.1-5.9,8.5c-2.3,2.4-4.6,4.3-6.7,5.8c-2.5,1.9-5.1,3.4-7.8,4.6l-2.6-3.8
		c2.7-1.9,5.1-4.3,7.3-7c1.8-2.3,3.5-5.1,5-8.4c1.5-3.3,2.3-7.2,2.3-11.7v-47.3c0-1.3-0.5-2.5-1.4-3.4c-0.9-1-2-1.5-3.3-1.5h-11.4
		v-4.2h17.1c3,0,5.5,1.1,7.6,3.2c2.1,2.1,3.1,4.6,3.1,7.6V852c0,0.3,0,0.5-0.1,0.8c0,0.3-0.1,0.5-0.1,0.8c0.7,2.1,1.6,4.4,2.8,6.9
		c1.2,2.5,2.7,4.8,4.6,6.9c1.9,2.1,4.1,3.9,6.7,5.3c2.6,1.4,5.6,2.1,9.2,2.1h74.5V879.8z M963.3,789.2c-3.1-4.3-6-8.1-8.7-11.3
		c-2.7-3.2-5-5.8-7-8c-2.3-2.5-4.4-4.5-6.3-6.2l2.7-3.6c3,1.5,6.2,3.3,9.4,5.3c2.8,1.8,5.8,4,9.1,6.6c3.3,2.6,6.5,5.6,9.7,8.9
		L963.3,789.2z M1000.6,775.9v-18.3h10.6v18.3h40.4c2.5,0,4.7,0.9,6.5,2.8c1.8,1.9,2.7,4.1,2.7,6.6v56.6c0,4.1-0.8,7.5-2.4,10.4
		c-1.6,2.9-3.4,5.2-5.4,7c-2.3,2.2-4.8,4-7.7,5.3l-3.1-4.4c1.5-1.3,2.8-2.9,3.9-4.6c1-1.5,1.9-3.4,2.7-5.7c0.9-2.3,1.3-4.9,1.3-8
		v-58.2c0-1-0.3-1.8-1-2.5c-0.7-0.7-1.5-1.1-2.4-1.1h-35.5v17.8c0,6-0.4,11.5-1.3,16.5c-0.9,5-2,9.5-3.4,13.6c-1.4,4.1-3,7.8-4.8,11
		c-1.8,3.2-3.7,6.1-5.5,8.5c-4.4,5.7-9.3,10.3-14.9,13.6l-3.4-4.5c4.2-4.2,8-9.3,11.4-15.1c1.4-2.5,2.8-5.3,4.1-8.3
		c1.3-3.1,2.6-6.4,3.7-10.1c1.1-3.6,2-7.6,2.6-11.8c0.7-4.2,1-8.7,1-13.5v-17.8h-21.3v-4.2H1000.6z"/>
	<path class="st0" d="M1146.7,778.2c3,0,5.5,1,7.5,3.1c2,2.1,3.1,4.6,3.2,7.6v75.3c0,2.1-0.4,4.1-1.2,5.9c-0.8,1.8-1.9,3.4-3.3,4.8
		c-1.4,1.4-3,2.5-4.8,3.2c-1.8,0.8-3.7,1.2-5.8,1.2h-37.9V778.2h11.6v3.7c0.4-0.4,0.9-0.7,1.4-1c0.5-0.3,1.1-0.6,1.8-0.9
		c0.3-0.4,0.9-1.2,1.6-2.3c0.7-1.1,1.5-2.6,2.3-4.5c0.8-1.9,1.7-4.2,2.5-7c0.9-2.7,1.7-6,2.4-9.7l11.6,4.2
		c-1.5,4.2-3.2,7.8-5.2,10.5c-2,2.8-3.9,5.1-5.7,6.8H1146.7z M1128.1,782.4c-2.9,0-5.3,0.6-7.3,1.8c-2,1.2-3.6,2.4-4.7,3.5v35h29.5
		V786c0-1-0.3-1.8-0.8-2.5c-0.6-0.7-1.3-1.1-2.3-1.1H1128.1z M1139.5,875.1c1.7,0,3.2-0.6,4.4-1.9c1.2-1.2,1.8-2.7,1.8-4.5V827
		h-29.5v48.1H1139.5z M1158.7,803.6c3.3-4.8,6.4-9.8,9.3-15c2.5-4.5,5-9.5,7.4-15.1c2.4-5.6,4.2-11.2,5.4-17l11.9,4.5
		c-0.4,1.4-1,3-1.7,4.8c-0.6,1.5-1.4,3.3-2.4,5.4c-1,2.1-2.1,4.4-3.5,6.9h28.2c3,0,5.5,1.1,7.5,3.2c2,2.1,3.1,4.7,3.1,7.7v61.2
		c0,3.2-0.4,6.4-1.2,9.7c-0.8,3.3-2.2,6.5-4.1,9.6c-1.9,3.1-4.4,6-7.6,8.6c-3.1,2.7-7,4.9-11.6,6.8l-3.4-4.5c3-1.6,5.7-3.7,8.1-6.4
		c2-2.3,3.9-5.2,5.6-8.7c1.7-3.5,2.6-7.8,2.6-12.9v-66.4c0-1-0.3-1.8-1-2.5c-0.7-0.7-1.5-1.1-2.5-1.1h-26.4
		c-2.3,3.8-5.1,7.8-8.4,11.9c-3.3,4.1-7.2,8.2-11.8,12.4L1158.7,803.6z M1175.8,806.8c4.2,3.6,7.8,7.3,11,11.1
		c3.1,3.8,5.8,7.2,8.1,10.3c2.6,3.6,4.9,7.2,6.8,10.7l-11.9,7.6c-2.1-5.3-4.2-10.2-6.3-14.6c-2.1-4.5-4.1-8.3-5.8-11.6
		c-2.1-3.8-4.1-7.2-5.9-10.2L1175.8,806.8z"/>
	<path class="st0" d="M1319.3,872c0,2.3-0.9,4.3-2.6,6.1c-1.6,1.8-3.6,2.7-6,2.7h-44.6v-60.6h10.5v1.9c2.4-1.1,5.2-1.6,8.2-1.6h2.6
		v-35.5h-24.7v-4.2h24.7v-21.6h10.5v21.6h24.7v4.2h-24.7v35.5h12.4c2.5,0,4.7,0.9,6.4,2.7c1.7,1.9,2.6,4.2,2.6,6.6V872z
		 M1308.9,828.2c0-1.1-0.3-1.9-0.9-2.4c-0.6-0.6-1.4-0.9-2.5-0.9h-19.3c-2,0-3.8,0.1-5.4,0.4c-0.8,0.2-1.5,0.4-2.2,0.5
		c-0.7,0.2-1.4,0.4-2.1,0.7v50.1h29.5c0.8,0,1.5-0.3,2.1-0.9c0.5-0.5,0.8-1.2,0.8-2V828.2z M1352,760.2c-2.1,6.3-4.4,12-7.1,17.2
		h42.9v4.2h-5.2c-2.1,14.6-5,27.3-8.7,38.1c-3.7,10.8-8.3,20.3-13.7,28.4c4.4,5.5,9.1,10.2,13.9,14.2c4.8,4,9.7,7.6,14.6,10.7
		l-8.4,11.1c-5.1-4.2-9.9-8.6-14.2-13.1c-4.3-4.5-8.3-9.3-12.1-14.6c-5.2,6.3-11,11.7-17.4,16.2c-6.4,4.5-13.4,8.6-21.1,12.3
		l-2.6-3.6c7.7-5,14.4-10.2,20.3-15.5c5.8-5.3,11-11.3,15.4-17.9c-3.7-6.4-7.2-13.4-10.3-21.2c-3.1-7.8-5.9-16.6-8.6-26.5
		c-1.3,1.5-2.6,2.8-3.9,4c-1.3,1.2-2.6,2.3-3.8,3.2l-3.3-2.9c5.3-6.9,9.6-14.3,13-22.1c3.4-7.9,6.1-16.1,8.3-24.6L1352,760.2z
		 M1333.6,795.8c2.8,9.1,5.9,17.2,9.3,24.3c3.4,7.1,7.1,13.5,11,19.3c4.1-7.5,7.5-15.9,10.3-25.2c2.7-9.3,5-20.2,6.7-32.5h-28
		C1339.8,787.1,1336.7,791.8,1333.6,795.8z"/>
	<path class="st0" d="M1485.2,834.6V821H1434v-4.2h51.2v-9.9h-46.1v-26.1h11.1v4.6c1.4-1.1,3.2-2.2,5.4-3.2c2.2-1,5-1.5,8.4-1.5
		h21.2v-9.9h-57.8v-4.4h57.8V755h11.5v11.4h53.3v4.4h-53.3v9.9h31c3,0,5.5,1.1,7.6,3.2c2.1,2.1,3.1,4.7,3.1,7.7v6.4
		c0,2.5-0.8,4.6-2.5,6.3c-1.7,1.7-3.8,2.6-6.2,2.6h-32.9v9.9h36.1c3,0,5.5,1,7.6,3.1c2.1,2.1,3.1,4.6,3.1,7.6v7.2h6.5v4.4h-6.5v6.4
		c0,3.3-1.1,6.1-3.4,8.3c-2.3,2.3-5.1,3.4-8.4,3.4h-35v3c0,0.4-0.1,1.7-0.3,3.6c-0.2,2-0.9,4.3-2.2,6.9c-1.3,2.6-3.3,5.2-6,7.9
		c-2.7,2.7-6.6,4.8-11.7,6.4l-2-3.8c2.8-1.9,4.9-3.9,6.3-6.1c1.4-2.2,2.5-4.3,3.1-6.2c0.7-1.9,1-3.5,1-4.7c0-1.2,0.1-1.8,0.1-1.7
		v-5.3H1434v-4.2h51.2V839h-57.8v-4.4H1485.2z M1463.8,785.1c-1.7,0-3.3,0.2-4.8,0.6s-2.7,0.9-3.9,1.5c-1.1,0.6-2.1,1.2-2.9,1.9
		c-0.8,0.6-1.5,1.2-2,1.7v11.7h35v-17.4H1463.8z M1496.7,785.1v17.4h26.1c1.2,0,2.3-0.4,3.1-1.3c0.9-0.8,1.3-1.9,1.3-3.1v-9.4
		c0-1-0.3-1.8-1-2.5c-0.7-0.7-1.5-1.1-2.5-1.1H1496.7z M1496.7,821v13.6h35.7v-10.1c0-1-0.3-1.8-1-2.5c-0.7-0.7-1.5-1.1-2.5-1.1
		H1496.7z M1528,852.9c1.2,0,2.2-0.4,3.1-1.3c0.8-0.8,1.2-1.9,1.2-3.1V839h-35.7v13.9H1528z"/>
</g>
<g>
	
		<linearGradient id="SVGID_1_" gradientUnits="userSpaceOnUse" x1="1433.6667" y1="680.0991" x2="1623.0615" y2="490.7043" gradientTransform="matrix(1 0 0 -1 0 1002)">
		<stop  offset="0" style="stop-color:#A0D232"/>
		<stop  offset="1" style="stop-color:#1E966E"/>
	</linearGradient>
	<path class="st1" d="M1643.5,345c-2,3-4.4,6-6.4,9c2.3,4,4.4,8.4,6.4,12.7c4.4,10,7,20.1,8.7,30.5c-2.3,16.4-19.8,36.8-46.2,54.9
		c-2-14.1-5.7-28.8-11-43.9c-4.7,4.4-9.7,8-14.7,11c4.7,14.7,8,29.5,10,43.2c-10.4,6-21.8,12.1-34.1,17.1
		c-12.4,5.4-24.8,9.4-36.5,12.7c-6.7-9-13.7-19.4-20.1-31.5l-10,14.7c4.4,7.4,9.4,14.4,14.1,20.4c-30.1,6-55.9,5-70-3.3
		c-7-8.7-13.1-18.4-17.7-29.5c-8.4-19.4-11.4-39.8-9.4-60.3c10.7,10.4,30.5,15.1,55.9,12.7c5.7-1,8.4-1.3,11.4-2.7
		c1.7-1.3,4.4-5.4,4.4-5.4l-2-5c-5.7-20.1-9-39.5-8.7-56.2c0-22.8,6-38.5,16.4-42.5c2-0.7,4-1.3,6.4-1.3l0,0l0,0l0,0
		c11.7,0,28.1,10.4,44.5,30.5c3.3-4,6.7-7.7,10-11.4c-12.4-13.4-25.1-23.1-37.5-28.1c7-1.3,14.4-2,21.8-2l0,0l0,0l0,0
		c13.7,0,27.5,2.3,39.8,6.7c3-2.7,5.7-5,8.7-7.4c-14.7-6-31.1-9.4-47.9-9.4l0,0l0,0l0,0l0,0c-17.4,0-35.2,3.3-52.2,10.7
		c-68.3,28.8-99.8,107.5-71,175.4c21.8,51.2,71.3,81.7,123.2,81.7c17.4,0,35.2-3.3,52.2-10.7c68.3-28.8,99.8-107.5,71-175.4
		C1650.2,356.7,1647.2,350.7,1643.5,345z M1414.8,369.1c9-22.1,23.4-40.5,42.2-53.9c-8.7,21.4-8,54.6,2,91.1
		c-23.1,3-41.8,1-52.2-6.4C1408.1,389.2,1410.8,378.8,1414.8,369.1z M1529.7,539.2c-32.5,0-62.9-12.7-85.4-34.1
		c16.4,7,40.2,8.4,68.6,2.3c12.7,14.4,26.1,24.8,38.8,29.8C1544.4,538.5,1537,539.2,1529.7,539.2z M1575.5,526.8
		c-2,0.7-4,1.3-6.4,1.3c-10.7,0-24.8-8.4-39.8-24.8c10.4-3,21.1-6.7,32.5-11.4c11-4.7,21.1-9.7,30.1-14.7c0,2.3,0.3,5,0.3,7.4
		C1591.9,507,1585.9,522.8,1575.5,526.8z M1644.5,461.5c-9,22.1-23.4,40.5-42.2,53.9c5-12.7,7-29.5,5.7-48.5
		c24.4-16.7,39.8-34.8,45.9-51.2C1653.5,431.4,1650.5,446.8,1644.5,461.5z"/>
	<g>
		<path class="st2" d="M1462.7,468.9l12.4-5l45.5-62.6c0,0-0.3,0,38.2,4.4c38.5,4.4,74.3-98.4,131.6-136.9
			c-50.2-5.4-83,16.1-119.2,49.9C1526.6,359.4,1489.5,419.3,1462.7,468.9z"/>
	</g>
</g>
<g>
	<path class="st3" d="M486.2,186.4c-2.5,3.3-3.8,7.6-3.8,12.7c0,7.4,2.1,12.6,6.3,15.6c2.9,2,6.3,2.9,10.2,2.7l12.6-0.6v-37.4
		l-12.6,0.6C493.3,180.3,489.1,182.4,486.2,186.4z"/>
	<path class="st3" d="M568.8,175.2c-10.5,0.5-15.8,7.5-15.8,20.9c0,5.5,0.9,9.6,2.6,12.3c2.9,4.7,7.3,6.9,13.3,6.6
		c10.3-0.5,15.5-7.4,15.5-20.8C584.4,181.3,579.2,174.9,568.8,175.2z"/>
	<linearGradient id="SVGID_2_" gradientUnits="userSpaceOnUse" x1="1850" y1="378.5" x2="150" y2="378.5">
		<stop  offset="0" style="stop-color:#A0D232"/>
		<stop  offset="1" style="stop-color:#1E966E"/>
	</linearGradient>
	<path class="st4" d="M1450.8,635.4v-90.6c-43.7-26.4-72.9-74.2-72.9-129c0-54.7,29.2-102.6,72.9-129v-85.7l-122.2,8.7v200.7
		l-19.6,1.4l-61.1,61.1l80.7-4.5v150.2c-50-5.6-101.9-9.9-155.3-12.9V309.3h92L1050.6,0v250.7v58.6l-0.1,292.1
		c-16.5-0.3-33.2-0.4-50-0.4l0.1-27.5V316.3L878,325.1v248.4l0,29.9c-62.8,2.4-123.8,6.8-182.3,12.7v-62.5l131.4-6.3v-61.2
		l-131.4,6.3v-64l131.4-7.9v-61.2l-220.4,16.7l139.9-139.7l80.5-3.9V111.1L446,129.4v121.2l195.2-9.4L446,436.2v2.6l61.1-2.9
		L705,238.2l19.5-0.9L526.6,434.9l0.5,0l-3.9,3.9l49.9-3v62.5l-127,6.1v61.2l127-6.1v72.1C393.7,658.9,245.6,702.9,150,757
		c194.4-67.5,502.8-111.1,850-111.1s655.6,43.6,850,111.1C1758.6,705.3,1619.4,662.9,1450.8,635.4z M747.3,153.5l33.6-1.7
		c5-0.3,8.9-0.1,11.5,0.6c2.6,0.6,5.1,1.9,7.2,3.7c4.4,4,6.6,10.5,6.6,19.5v40.2l-17.4,0.9v-42.2c0-3.2-0.7-5.5-2.1-6.9
		c-1.4-1.4-3.7-2-6.9-1.8l-15.1,0.8v51.4l-17.5,0.9V153.5z M719.2,130.7l17.4-0.9v17.4l-17.4,0.9V130.7z M528.8,229.8l-30,1.5
		c-6.1,0.3-10.7,0.1-13.8-0.8c-7.4-2-12.9-6.5-16.5-13.4c-2.5-4.6-3.8-10.4-3.8-17.2c0-11.2,3.6-20,10.9-26.6
		c4.8-4.4,11.2-6.7,19.4-7.2l16.4-0.8v-24.1l17.3-0.9V229.8z M592.6,219.2c-5.9,5.8-14,9-24.2,9.5c-10.6,0.5-18.9-2.2-24.9-8.1
		c-5.6-5.3-8.3-13.4-8.3-24.2c0-9.1,2.6-16.8,7.9-23.2c5.9-7.1,14.4-11,25.5-11.6c11.7-0.6,20.4,2.5,25.9,9.1
		c5.1,6.1,7.7,14,7.7,23.6C602.3,204.5,599.1,212.8,592.6,219.2z M661.7,171.7l-20.8,1.1c-7,0.4-11.9,2.2-14.6,5.6
		c-2.6,3.2-3.9,7.9-3.9,14.1c0,7,2.1,12,6.4,15c1.7,1.2,3.6,1.9,5.7,2.3c2,0.4,4.9,0.5,8.5,0.3l18.8-1v13.9l-23.8,1.2
		c-6.4,0.3-11.5-0.1-15.2-1.2c-3.7-1.2-7-3.3-9.9-6.5c-5.5-6-8.2-13.8-8.2-23.5c0-11.6,3.3-20.5,9.8-26.5c2.6-2.5,5.7-4.3,9.4-5.4
		c3.6-1.2,8.4-1.9,14.2-2.2l23.8-1.2V171.7z M685.9,221.9l-17.4,0.9v-65.3l17.4-0.9V221.9z M685.9,149.9l-17.4,0.9v-17.4l17.4-0.9
		V149.9z M710.5,220.6l-15.8,0.8V204l15.8-0.8V220.6z M719.2,220.2v-65.3l17.4-0.9v65.3L719.2,220.2z"/>
</g>
</svg>
