<?xml version="1.0" encoding="utf-8"?>
<!-- Generator: Adobe Illustrator 22.0.1, SVG Export Plug-In . SVG Version: 6.00 Build 0)  -->
<svg version="1.1" id="图层_1" xmlns="http://www.w3.org/2000/svg" xmlns:xlink="http://www.w3.org/1999/xlink" x="0px" y="0px"
	 viewBox="0 0 120 120" style="enable-background:new 0 0 120 120;" xml:space="preserve">
<style type="text/css">
	.st0{fill:#0E5710;}
	.st1{fill:none;stroke:#769F3F;stroke-width:6;stroke-miterlimit:10;}
	.st2{fill:none;stroke:#AF751E;stroke-width:5;stroke-miterlimit:10;}
	.st3{fill:none;stroke:#FF931E;stroke-width:5;stroke-miterlimit:10;}
	.st4{fill:none;stroke:#51753F;stroke-width:5;stroke-miterlimit:10;}
	.st5{fill:none;stroke:#8CC63F;stroke-width:5;stroke-miterlimit:10;}
</style>
<g>
	<path class="st0" d="M62.8,61.1c10.3-1.7,15.3-5,15.3-17.5H81c0,8.2,0,12.2-6.8,18C72.3,63.2,61.2,68,61.2,68L62.8,61.1z"/>
	<path class="st0" d="M63.2,82.6c-4.7-0.6-14.6,2.9-24.8-12.1L35,69.5C38.8,81.1,46,85.2,55.1,88.5c2.1,0.8,4.2-0.5,4.2-0.5
		L63.2,82.6z"/>
	<path class="st1" d="M37.3,71.9H24.1c-5.2,0-9.5-4.3-9.5-9.5V56c0-5.2,4.3-9.5,9.5-9.5h13.1c5.2,0,9.5,4.3,9.5,9.5v6.4
		C46.8,67.6,42.5,71.9,37.3,71.9z"/>
	<path class="st0" d="M74.4,60.9c1.1,1.7,3.2,3.1,6.6,3.4l-0.2,1.9c-2.2-0.2-7.3-0.8-9.2-3.6c-0.4-0.6,0.3-1.5,0.3-1.5L74.4,60.9z"
		/>
	<path class="st2" d="M30.3,36.6h-4.7c-2.8,0-5.1-2.3-5.1-5.1v-6.6c0-2.8,2.3-5.1,5.1-5.1h4.7c2.8,0,5.1,2.3,5.1,5.1v6.6
		C35.4,34.3,33.1,36.6,30.3,36.6z"/>
	<path class="st3" d="M98,46.2H82.7c-2.6,0-4.7-2.1-4.7-4.7V27.6c0-2.6,2.1-4.7,4.7-4.7H98c2.6,0,4.7,2.1,4.7,4.7v13.9
		C102.8,44.1,100.6,46.2,98,46.2z"/>
	<path class="st4" d="M100.7,81H87.5c-2.6,0-4.7-2.1-4.7-4.7v-8.9c0-2.6,2.1-4.7,4.7-4.7h13.3c2.6,0,4.7,2.1,4.7,4.7v8.9
		C105.4,78.9,103.3,81,100.7,81z"/>
	<path class="st0" d="M26,110.7c0,0,14.5-7.6,17.9-10.5c16.2-13.5,20.5-34,8.6-61.1h6.4c12.7,24.1,12.3,52.3-8.9,71.6H26z"/>
	<path class="st5" d="M58.4,38h-3.8c-5.6,0-10.1-4.5-10.1-10.1v-8.5c0-5.6,4.5-10.1,10.1-10.1h3.8c5.6,0,10.1,4.5,10.1,10.1v8.5
		C68.5,33.5,63.9,38,58.4,38z"/>
</g>
</svg>
