<svg width="132" height="34" fill="none" xmlns="http://www.w3.org/2000/svg"><path d="M23.558 28.29h1.54v-9.134h-1.54v-1.742h9.144v3.268h-2.021V19.39h-3.22v3.683h4.156v1.742h-4.156v3.476h1.689v1.742h-5.592V28.29zM56.277 28.28v-4.087c0-2.38-1.19-3.45-3.045-3.45-1.461 0-2.599.905-3.098 1.975H50.1c-.359-1.389-1.374-1.975-2.651-1.975-1.514 0-2.582 1.104-3.046 2.027v-.802c0-.639-.402-1.01-1.207-1.01h-2.398v1.743h1.024c.254 0 .394.12.394.37v6.944h3.605v-1.743h-1.313v-2.139c0-1.638.744-3.32 2.363-3.32 1.085 0 1.243.828 1.243 1.811v5.4h3.605V28.28H50.38v-2.26c0-1.673.779-3.217 2.346-3.217 1.067 0 1.26.785 1.26 1.811v5.4h3.623v-1.743h-1.33v.009zM40.482 28.29c-.254 0-.394-.121-.394-.389v-3.579c0-2.311-1.313-3.57-3.789-3.57-2.214 0-3.64 1.12-3.64 1.12l.848 1.562s1.226-.871 2.6-.871c.953 0 1.697.405 1.697 1.56v.303h-.577c-1.48 0-5.172.284-5.172 3.053 0 1.846 1.479 2.751 3.045 2.751a3.172 3.172 0 0 0 2.88-1.707v.534c0 .518.323.958 1.172.958h2.161V28.29h-.831zm-2.67-2.191c0 1.138-.883 2.45-2.126 2.45-.848 0-1.339-.57-1.339-1.243 0-1.371 2.18-1.509 3.08-1.509h.386v.302zM60.802 17.414h-2.293v2.01h2.293v-2.01zm0 10.867v-7.323h-3.71v1.743h1.426v7.322h3.605v-1.742h-1.321zM66.297 28.246c-.726-.017-.9-.44-.9-1.242v-9.59h-3.694v1.733h1.427v8.004c0 2.467 1.347 2.95 2.809 2.95h.831v-1.846h-.472v-.009zM79.914 25.96v.941c0 .82 1.05 1.294 2.258 1.294 1.295 0 2.223-.552 2.223-1.561 0-1.277-1.462-1.69-2.94-2.26-1.716-.638-3.387-1.406-3.387-3.657 0-2.536 2.091-3.519 4.288-3.519 2.021 0 4.06.759 4.06 2.217v1.647h-2.144v-.854c0-.638-.954-.974-1.908-.974-1.05 0-1.907.422-1.907 1.388 0 1.156 1.19 1.561 2.52 2.061 1.916.673 3.824 1.424 3.824 3.787 0 2.579-2.196 3.769-4.612 3.769-2.126 0-4.401-.94-4.401-2.838v-1.44h2.126zM130.67 28.281v-4.088c0-2.398-1.26-3.45-3.299-3.45a3.453 3.453 0 0 0-3.072 1.794v-5.14h-3.71v1.742h1.426v10.876h3.606v-1.743h-1.322v-2.415c0-1.664 1.015-3.053 2.634-3.053 1.155 0 1.444.742 1.444 1.846v5.365H132v-1.743h-1.33v.009zM108.941 26.366c0-1.707.831-3.303 2.687-3.303h.56v-2.225h-.42c-1.409 0-2.503 1.035-2.923 2.328v-1.104c0-.759-.412-1.104-1.225-1.104h-2.398v1.743h1.024c.254 0 .402.138.402.388v6.934h3.606V28.29h-1.322v-1.924h.009zM104.915 28.29c-.253 0-.393-.121-.393-.389v-3.579c0-2.311-1.313-3.57-3.79-3.57-2.213 0-3.64 1.12-3.64 1.12l.849 1.562s1.225-.871 2.599-.871c.954 0 1.698.405 1.698 1.56v.303h-.578c-1.479 0-5.18.284-5.18 3.053 0 1.846 1.478 2.751 3.045 2.751a3.205 3.205 0 0 0 2.888-1.707v.534c0 .518.323.958 1.172.958h2.162V28.29h-.832zm-2.669-2.191c0 1.138-.883 2.45-2.126 2.45-.849 0-1.33-.57-1.33-1.243 0-1.371 2.179-1.509 3.08-1.509h.376v.302zM94.843 27.608a4.412 4.412 0 0 1-2.441.742c-1.392 0-2.617-.854-2.766-2.174h6.537v-.612c0-5.071-4.209-4.813-4.209-4.813-2.765 0-4.673 1.958-4.673 4.753 0 2.579 1.899 4.752 4.944 4.752 2.004 0 3.194-.82 3.475-1.035l-.867-1.613zm-2.923-5.02c1.164 0 1.987.69 2.214 1.855h-4.428c.228-1.164 1.05-1.854 2.214-1.854z" fill="#85B940"/><path d="M120.247 27.393c-.56.396-1.514.94-2.651.94-1.567 0-2.888-1.01-2.888-2.881 0-1.656 1.033-2.786 2.704-2.786.779 0 1.715.285 1.715.889v.603h1.978v-1.242c0-1.604-2.232-2.165-3.772-2.165-2.826 0-4.935 2.062-4.935 4.761 0 2.933 2.38 4.727 5.067 4.727 1.61 0 2.949-.69 3.64-1.26l-.858-1.586zM70.822 22.7V20.96h-4.525V22.7h1.12l3.133 7.572c-.507 1.285-1.216 1.674-1.837 1.69a2.462 2.462 0 0 1-.998-.223v1.914c.324.086.7.147 1.138.147 1.566 0 2.879-.82 3.579-2.613l3.37-8.496h1.067V20.95h-4.34v1.742h1.04l-1.89 5.227-1.89-5.227" fill="#85B940"/><path d="M11.796 27.246c1.68-1.087 2.984-2.682 3.527-4.864h-.936c-.587 1.586-1.742 2.578-3.203 3.113a14.778 14.778 0 0 1-.57-4.105c0-3.062.92-5.908 2.504-8.289h-1.934a16.244 16.244 0 0 0-2.95 7.21c-1.076-.663-1.925-1.509-2.423-2.889H4.787c.586 2.14 1.724 3.614 3.273 4.77 0 .164-.01.328-.01.491 0 4.183 1.585 8.004 4.193 10.91h4.62a15.3 15.3 0 0 1-5.067-6.347z" fill="#9B947A"/><path d="M17.222 13.843h7.7v-7.59h-7.7v7.59zm5.89-1.785h-4.079v-4.02h4.078v4.02zM12.689 23.227h8.156v-8.039h-8.156v8.039zm6.345-1.794H14.5v-4.468h4.533v4.468z" fill="#BAB7B1"/><path d="M9.512 13.843h6.345V7.59H9.512v6.253zm4.989-1.337h-3.623v-3.57H14.5v3.57z" fill="#9B947A"/><path d="M3.168 8.935h4.988V4.02H3.168v4.916zM6.8 7.59H4.533V5.356H6.8V7.59z" fill="#BAB7B1"/><path d="M9.512 6.253h6.345V0H9.512v6.253zm4.989-1.337h-3.623v-3.58H14.5v3.58zM0 18.31h8.156v-8.038H0v8.039zm6.344-1.785H1.811v-4.467h4.533v4.467z" fill="#85B940"/></svg>