<?xml version="1.0" encoding="utf-8"?>
<!-- Generator: Adobe Illustrator 22.0.1, SVG Export Plug-In . SVG Version: 6.00 Build 0)  -->
<svg version="1.1" id="图层_1" xmlns="http://www.w3.org/2000/svg" xmlns:xlink="http://www.w3.org/1999/xlink" x="0px" y="0px"
	 viewBox="0 0 360 120" style="enable-background:new 0 0 360 120;" xml:space="preserve">
<style type="text/css">
	.st0{fill:#0E5710;}
	.st1{fill:none;stroke:#769F3F;stroke-width:6;stroke-miterlimit:10;}
	.st2{fill:none;stroke:#AF751E;stroke-width:5;stroke-miterlimit:10;}
	.st3{fill:none;stroke:#FF931E;stroke-width:5;stroke-miterlimit:10;}
	.st4{fill:none;stroke:#51753F;stroke-width:5;stroke-miterlimit:10;}
	.st5{fill:none;stroke:#8CC63F;stroke-width:5;stroke-miterlimit:10;}
	.st6{fill:#FAFF94;stroke:#FAFF94;stroke-miterlimit:10;}
</style>
<path class="st0" d="M70.8,64.1c10.3-1.7,15.3-5,15.3-17.5H89c0,8.2,0,12.2-6.8,18c-1.9,1.6-13,6.4-13,6.4L70.8,64.1z"/>
<path class="st0" d="M71.2,85.7c-4.7-0.6-14.6,2.9-24.8-12.1l-3.5-1.1C46.8,84.2,54,88.2,63.1,91.6c2.1,0.8,4.2-0.5,4.2-0.5
	L71.2,85.7z"/>
<path class="st1" d="M45.3,74.9H32.1c-5.2,0-9.5-4.3-9.5-9.5V59c0-5.2,4.3-9.5,9.5-9.5h13.1c5.2,0,9.5,4.3,9.5,9.5v6.4
	C54.8,70.6,50.5,74.9,45.3,74.9z"/>
<path class="st0" d="M82.4,63.9c1.1,1.7,3.2,3.1,6.6,3.4l-0.2,1.9c-2.2-0.2-7.3-0.8-9.2-3.6c-0.4-0.6,0.3-1.5,0.3-1.5L82.4,63.9z"/>
<path class="st2" d="M38.3,39.6h-4.7c-2.8,0-5.1-2.3-5.1-5.1V28c0-2.8,2.3-5.1,5.1-5.1h4.7c2.8,0,5.1,2.3,5.1,5.1v6.6
	C43.4,37.3,41.1,39.6,38.3,39.6z"/>
<path class="st3" d="M106,49.2H90.7c-2.6,0-4.7-2.1-4.7-4.7V30.6c0-2.6,2.1-4.7,4.7-4.7H106c2.6,0,4.7,2.1,4.7,4.7v13.9
	C110.8,47.1,108.6,49.2,106,49.2z"/>
<path class="st4" d="M108.7,84H95.5c-2.6,0-4.7-2.1-4.7-4.7v-8.9c0-2.6,2.1-4.7,4.7-4.7h13.3c2.6,0,4.7,2.1,4.7,4.7v8.9
	C113.4,81.9,111.3,84,108.7,84z"/>
<path class="st0" d="M34,113.8c0,0,14.5-7.6,17.9-10.5c16.2-13.5,20.5-34,8.6-61.1h6.4c12.7,24.1,12.3,52.3-8.9,71.6H34z"/>
<path class="st5" d="M66.3,41h-3.8c-5.6,0-10.1-4.5-10.1-10.1v-8.5c0-5.6,4.5-10.1,10.1-10.1h3.8c5.6,0,10.1,4.5,10.1,10.1v8.5
	C76.4,36.5,71.9,41,66.3,41z"/>
<g>
	<path class="st6" d="M174.8,72.3c-8.2,9.1-19.7,14.8-34.5,17.1c-0.8,0.2-1.3,0.1-1.3-0.3l0.9-0.3c11.8-4,20.8-9,26.9-14.9
		c2.3-2.3,3.7-4.3,4.1-6c0-0.4,0.1-0.6,0.3-0.6c0.2,0,0.5,0.1,0.9,0.3c1.3,1.5,2.1,2.6,2.5,3.5C175.2,71.5,175.2,71.9,174.8,72.3z
		 M177.6,27.4c-0.4,3-1.3,5.8-2.5,8.5c0.2,0,0.5,0,0.9,0c3.4-0.2,7-0.6,10.8-1.3c3.4-0.4,6.3-0.9,8.9-1.6c1.1-0.4,1.7-0.3,1.9,0.3
		c2.3,3,3.9,5.2,4.7,6.6c0.4,0.8,0.6,1.4,0.6,1.6c-0.2,0.2-0.6,0.4-1.3,0.6c-1.1,0.4-3.8,0.9-8.2,1.6c-0.2,0-0.4,0-0.6,0
		c-0.6,0-0.9-0.1-0.9-0.3l0.3-0.9c0.4-0.4,0.9-1.3,1.6-2.5c0.2-0.4,0.3-0.7,0.3-0.9c0.4-0.6,0.5-1.2,0.3-1.6
		c-0.2-0.2-0.7-0.3-1.6-0.3c-15,1.1-27.4,2.2-37.3,3.5c-1.7,6.8-4.7,12.1-9.2,16.1c-0.4,0.6-0.9,0.6-1.6,0c-0.8-1.3-1.4-2.4-1.6-3.5
		c-0.4-1.3-0.2-2.2,0.6-2.8c5.3-4.9,7.6-10,7-15.5c0-0.4,0.1-0.7,0.3-0.9c0.4,0,0.8,0.1,1.3,0.3c0.8,0.8,1.8,1.6,2.8,2.2
		c0.2,0,0.3,0.1,0.3,0.3c0.2,0.2,0.3,0.4,0.3,0.6c0.8,0,2.1-0.1,3.8-0.3c5.3-0.2,9.6-0.5,13-0.9c-0.6-5.1-1.7-9-3.2-11.7
		c-0.4-0.6-0.5-1.1-0.3-1.3c0-0.4,0.4-0.5,1.3-0.3c0.4,0.2,1.1,0.4,1.9,0.6c1.9,0.6,3.2,1.1,3.8,1.3C177.5,25.3,178,26.1,177.6,27.4
		z M188.4,48c-1.1,0.2-3,0.4-5.7,0.6c-3.8,0.4-6.8,0.8-8.9,1.3c0.4,0.2,0.9,0.7,1.6,1.6c0.2,0.2,0.4,0.4,0.6,0.6
		c1.1,0.6,1.1,1.3,0,1.9c-0.6,0.6-1.5,1.3-2.5,1.9c3.2,1.5,5.1,4,5.7,7.6c0,0.8,0.1,1.7,0.3,2.5c5.1-3.4,8.6-7.6,10.8-12.7
		c0.2-0.8,0.7-1.1,1.6-0.6c1.5,0.6,2.8,1.5,4.1,2.5c0.6,0.6,0.6,1.3,0,1.9c-3.6,3-8.3,6.4-14.2,10.4c4.8,4,10.4,7.6,16.8,10.8
		c4,1.7,8.5,3,13.6,3.8c1.1,0,1.7,0.1,1.9,0.3c0,0.4-0.5,0.8-1.6,1.3c-0.8,0.2-2.6,0.6-5.4,1.3c-2.7,0.6-4.5,1.1-5.4,1.3
		c-1.1,0.2-2,0-2.8-0.6c-5.5-4.4-11.8-9.8-19-16.1c0.2,6.5-0.2,13.1-1.3,19.6c-1.1,3.4-3,6.2-5.7,8.5c-1.1,0.8-1.7,0.8-1.9,0
		c-0.4-1.5-1.8-3.9-4.1-7.3c-0.2-0.4-0.2-0.7,0-0.9c0.2,0,0.5,0.1,0.9,0.3c0.4,0,0.9,0.2,1.6,0.6c0.8,0.4,1.5,0.6,1.9,0.6
		c0.6,0.2,1.2,0,1.6-0.6c2.7-6.3,3.5-14.8,2.2-25.3c-0.6-3.6-2.1-6.1-4.4-7.6c-0.2,0.2-0.6,0.4-1.3,0.6c-0.6,0.4-1.2,0.7-1.6,0.9
		l0.6,0.6c0.6,0.6,1.4,1.8,2.2,3.5c0.4,0.4,0.3,0.9-0.3,1.6c-4.9,5.3-11.3,8.1-19.3,8.5c-0.8,0-1.3-0.1-1.3-0.3
		c0-0.4,0.4-0.7,1.3-0.9c6.3-2.1,11.6-5.3,15.8-9.5c0.4-0.4,0.6-1.3,0.6-2.5c0-0.4,0-0.7,0-0.9c-4.9,2.5-10.1,4.2-15.8,5.1
		c-0.8,0-1.3-0.1-1.3-0.3c0-0.2,0.3-0.5,0.9-0.9c7.4-2.7,13.9-6.1,19.6-10.1c1.1-0.8,1.4-1.8,0.9-2.8c-1.1,0.2-2.6,0.4-4.7,0.6
		c-2.3,0.4-4,0.7-5.1,0.9c-1.1,0.2-1.9,0-2.5-0.6c0-0.2-0.1-0.4-0.3-0.6c-0.4-0.6-0.7-1.2-0.9-1.6c-0.2-0.4-0.2-0.7,0-0.9h0.6
		c9.1-0.2,18.1-1.4,27.2-3.5c0.6-0.4,1.3-0.2,1.9,0.6l0.3,0.6c0.2,0.4,0.4,0.8,0.6,1.3V47C189.8,47.7,189.6,48,188.4,48z"/>
	<path class="st6" d="M213.5,57.5c-0.2-0.2-0.6-0.6-1.3-1.3c-0.6-0.8-1.2-1.5-1.6-1.9c-0.2-0.4-0.1-0.6,0.3-0.6
		c2.3,0,5.8-0.6,10.4-1.9c1.9-0.8,3.3-1.7,4.1-2.5c0.4-0.4,0.9-0.4,1.6,0c0.2,0,0.4,0.1,0.6,0.3c1.9,1.3,3.2,2.2,3.8,2.8
		c0.8,0.4,0.9,0.9,0.3,1.6c-1.1,1.7-1.7,4-1.9,7c-0.4,2.5-0.7,7.6-0.9,15.2c-0.2,1.9-0.3,3.3-0.3,4.1c2.1-1.3,5.5-4,10.1-8.2
		c0.8-0.4,1.3-0.1,1.3,0.9c-4.9,5.3-9.5,10.8-13.9,16.5c-0.4,0.6-0.9,0.5-1.6-0.3c-0.6,0-1.6-0.8-2.8-2.5c-0.4-0.6-0.3-1.2,0.3-1.6
		c1.5-1.3,2.2-3,2.2-5.1c0.6-6.1,1.1-14.4,1.3-25c0-0.4-0.4-0.6-1.3-0.6c-3.2,0.6-6.1,1.7-8.9,3.2C214.7,57.7,214.1,57.7,213.5,57.5
		z M224.9,29.9c-0.2-0.6-0.1-0.8,0.3-0.6c3,0.6,5.6,1.6,7.9,2.8c0.6,0.2,0.9,0.8,0.9,1.9c-0.6,3.8-1.6,6.8-2.8,8.9
		c-0.4,0.6-0.8,0.6-1.3,0C229.1,38.1,227.4,33.7,224.9,29.9z M240.4,42.9c-0.6-0.8-1.2-1.6-1.6-2.2c-0.2-0.4-0.2-0.7,0-0.9
		c1.9,0,5.8-0.2,11.7-0.6c-0.4,0,0,0,1.3,0c-1.5-3.8-3.5-7.6-6-11.4c-0.2-0.4-0.2-0.7,0-0.9c0.2,0,0.6,0.1,1.3,0.3
		c0.2,0,0.5,0.1,0.9,0.3c2.3,1.3,4.2,2.4,5.7,3.5c0.4,0.4,0.6,1.2,0.6,2.2c0,1.7-0.2,3.6-0.6,5.7c2.3,0,4.4-0.2,6.3-0.6
		c0.2,0,0.3-0.1,0.3-0.3c0.8-1.9,1.6-4.4,2.2-7.6c0.4-2.5,0.3-4.5-0.3-6c-0.2-0.4-0.2-0.7,0-0.9c0.2-0.2,0.5-0.2,0.9,0
		c1.9,0.6,3.6,1.5,5.1,2.5c0.8,0.2,0.9,0.9,0.3,2.2c-2.3,4.4-4.3,7.7-6,9.8c0.6,0,1.4-0.1,2.2-0.3c0.8,0,1.5,0,1.9,0
		c0.2,0,0.4,0,0.6,0c3-0.6,4.7-1.2,5.4-1.6c0.6-0.4,1.2-0.3,1.6,0.3c0.8,0.8,1.7,1.9,2.5,3.2c0.4,0.6,0.1,0.9-0.9,0.9
		c-1.5-0.2-5.7-0.1-12.7,0.3c0.4,0,0,0-1.3,0c0.4,0.4,0.9,0.7,1.6,0.9l0.6,0.3c0.4,0.2,0.6,0.9,0.6,2.2c0,3-0.2,7.4-0.6,13.3
		c5.1-0.4,8.2-0.8,9.5-1.3c1.9-0.2,3.4-0.6,4.4-1.3c0.6-0.4,1.3-0.3,1.9,0.3c0.8,1.1,1.5,2,1.9,2.8c0.6,1.1,0.5,1.6-0.3,1.6
		c-17.1,0.6-31.8,2-44,4.1c-0.4,0-0.9-0.1-1.6-0.3c0-0.2-0.2-0.5-0.6-0.9c-0.6-1.1-1.1-1.8-1.3-2.2c-0.4-0.4-0.4-0.7,0-0.9
		c0,0.2,0.1,0.2,0.3,0c1.3,0,5.1-0.1,11.4-0.3c2.1-0.2,3.7-0.3,4.7-0.3c0.2-9.1-0.2-14.7-1.3-16.8c-1.1,0.2-2.5,0.4-4.4,0.6
		c-1.5,0.4-2.4,0.6-2.8,0.6C241.5,43.6,241,43.5,240.4,42.9z M240.7,47c1.7,0.6,3.3,1.1,4.7,1.3c0.6,0.2,0.9,0.8,0.9,1.9
		c0.2,1.3,0.3,3.2,0.3,5.7c0,0.6-0.2,0.9-0.6,0.9c-0.4,0-0.7-0.2-0.9-0.6c-1.3-3.4-3-6-5.1-7.9c-0.2-0.2-0.3-0.5-0.3-0.9
		C240,47.1,240.3,47,240.7,47z M248.9,94.8c-0.2,0.6-0.5,1.1-0.9,1.3c-0.2,0-0.6-0.3-1.3-0.9c-1.3-0.8-2.1-1.8-2.5-2.8
		c-0.6-0.6-0.7-1.6-0.3-2.8c1.1-3.6,1.2-9.1,0.3-16.5c-0.4-2.1-1.1-3.6-1.9-4.4c-0.6-0.8-0.8-1.4-0.6-1.6c0.2-0.4,0.7-0.5,1.6-0.3
		c1.3,0.4,2.7,0.9,4.4,1.6c0.2,0,0.3,0.1,0.3,0.3c4.6-0.4,9.5-1.1,14.6-1.9c2.1-0.4,3.9-0.9,5.4-1.6c0.8-0.4,1.6-0.4,2.2,0
		c1.1,0.8,2,1.8,2.8,2.8c0.6,0.8,0.6,1.7,0,2.5c-0.6,1.7-0.9,3.7-0.9,6c0,3.2,0,6.8,0,10.8c-0.4,4.4-1.5,7.9-3.2,10.4
		c-0.4,0.6-0.8,0.9-1.3,0.9c-0.4,0-0.7-0.4-0.9-1.3c-0.2-3-1.1-5.4-2.5-7.3c-4.6,0-9.7,0.3-15.2,0.9
		C248.9,92.3,248.9,93.5,248.9,94.8z M267.3,72c-0.2-1.3-0.8-1.9-1.9-1.9c-2.3,0-6.8,0.2-13.3,0.6c-1.7,0.2-2.8,0.3-3.5,0.3
		c0.2,1.9,0.3,4.4,0.3,7.6c0.2,0,0.4,0,0.6,0c4.8-0.4,8.4-0.8,10.8-1.3c0.6-0.4,1.3-0.1,1.9,0.9c0.4,0.8,0.6,1.4,0.6,1.6
		c0,0.2-0.4,0.4-1.3,0.6c-1.3,0-4,0.1-8.2,0.3c-1.9,0.2-3.4,0.3-4.4,0.3v7.6c6.1-0.4,10.8-0.9,13.9-1.6c1.1,0,1.7,0.3,1.9,0.9
		l0.3,0.3c0,0.2,0,0.4,0,0.6c1.5,0,2.2-1.1,2.2-3.2C267.7,81.3,267.7,76.7,267.3,72z M259,41c-0.2,0-0.5,0-0.9,0
		c-1.9,0.4-3.9,0.6-6,0.6c0.2,0,0.5,0.1,0.9,0.3c0.2,0.2,0.4,0.4,0.6,0.6c0.6,0,0.9,0.6,0.9,1.9c0.2,2.3,0.3,7,0.3,13.9
		c1.7-0.2,3.4-0.3,5.1-0.3C260.6,51.3,260.3,45.6,259,41z M271.4,42.6l0.6,0.3c1.3,0.8,2.3,1.7,3.2,2.5c0.6,0.4,0.6,0.9,0,1.6
		c0.2,0,0.2,0.1,0,0.3c-2.1,2.7-4.7,5.5-7.9,8.2c-0.6,0.2-1.1,0.3-1.3,0.3c-0.2-0.2-0.1-0.5,0.3-0.9c2.3-3.4,3.7-7.3,4.1-11.7
		c0-0.4,0.1-0.6,0.3-0.6C270.8,42.4,271,42.4,271.4,42.6z"/>
	<path class="st6" d="M313,40.4c1.7,0.6,3.3,1.5,4.7,2.5c0.6,0.4,0.8,0.8,0.6,1.3c-1.5,4.4-2.4,7.7-2.8,9.8c-0.6,2.1-1.4,4.1-2.2,6
		c2.5,2.5,4.4,4.6,5.7,6.3v0.3c0.4,0.4,0.5,0.9,0.3,1.6c-0.2,0.8-0.9,2.4-2.2,4.7c-0.2,0.2-0.4,0.3-0.6,0.3c-0.2,0-0.3-0.1-0.3-0.3
		c-0.4-1.3-1.6-3.6-3.5-7c-0.4-0.8-0.7-1.5-0.9-1.9c-3.2,6.1-7.5,10.7-13,13.6c0,2.3-0.1,5.3-0.3,8.9c0,1.7,0,2.8,0,3.5
		c-0.2,0.8-0.4,1.3-0.6,1.3c-0.4,0.2-0.8,0-1.3-0.6c-0.4-0.4-1.5-1.6-3.2-3.5c-0.2-0.8-0.2-1.9,0-3.2c1.1-7.6,1.6-21.5,1.6-41.8
		c0-4.2-0.5-7.5-1.6-9.8c-0.4-0.8-0.6-1.4-0.6-1.6c0.2-0.2,0.7-0.1,1.6,0.3c1.5,0.6,2.8,1.4,4.1,2.2c9.5-0.4,20.9-1.3,34.2-2.5
		c3.6-0.6,6-1.4,7.3-2.2c0.6-0.4,1.5-0.4,2.5,0c0.8,0.4,2,1.4,3.5,2.8c0.6,0.4,0.8,1.2,0.6,2.2c-0.6,2.1-0.9,5.7-0.9,10.8
		c0,11.2,0,18.8,0,22.8c0,5.3-0.1,11.1-0.3,17.4c0,1.5-0.2,3-0.6,4.4c-1.3,3.2-2.2,5.1-2.8,5.7c-0.6,1.1-1.3,1.6-1.9,1.6
		c-0.6-0.2-1.2-0.8-1.6-1.9c-1.3-3.4-3.1-6.2-5.4-8.5c-0.2-0.4-0.2-0.7,0-0.9c0-0.2,0.2-0.2,0.6,0c1.9,0.6,3.3,0.9,4.1,0.9
		c1.1,0,1.6-0.5,1.6-1.6c0.4-4.8,0.7-11.7,0.9-20.6c0.2-9.7,0.2-18.4,0-25.9c0.2-2.7-0.7-3.9-2.8-3.5c-12.2,0.4-22,1.1-29.4,1.9
		c-0.8,0-2,0-3.5,0c-2.3,0.2-3.9,0.2-4.7,0v0.6c-0.2,3.6-0.3,10-0.3,19.3c-0.2,9.1-0.3,15.6-0.3,19.6c4.4-5.1,7.7-10.3,9.8-15.8
		c-0.6-0.8-1.5-2-2.5-3.5c-2.1-3.2-3.8-5.5-5.1-7c-0.4-0.4-0.4-0.7,0-0.9c0.2-0.2,0.5-0.1,0.9,0.3c3.2,2.7,5.8,5.3,7.9,7.6
		c0.6-1.9,1.3-3.9,1.9-6c1.1-4,1.1-7.1,0-9.2c-0.2-0.4-0.2-0.7,0-0.9C312.2,40.2,312.5,40.2,313,40.4z M331.6,40.4
		c1.5,0.4,3.2,1.3,5.1,2.5c0.2,0.2,0.3,0.6,0.3,1.3c-1.5,4.4-2.5,7.7-3.2,9.8c-0.6,2.7-1.5,5.4-2.5,7.9c3.2,3.6,5.4,6.3,6.6,8.2v0.3
		c0.4,0.4,0.5,0.9,0.3,1.6c-0.2,1.1-0.9,2.8-2.2,5.4c-0.2,0.4-0.4,0.6-0.6,0.6c-0.2,0-0.4-0.2-0.6-0.6c-0.2-1.5-2-5.3-5.4-11.4
		c-3.2,5.3-7.6,9.6-13.3,13c-0.4,0.2-0.6,0.2-0.6,0c-0.2-0.2-0.2-0.5,0-0.9c5.3-5.3,9.1-10.5,11.4-15.8c-2.5-4.2-5.1-8-7.6-11.4
		c-0.2-0.6-0.2-1.1,0-1.3c0.4,0,0.8,0.2,1.3,0.6c3,3,5.5,5.7,7.6,8.2c0.8-2.5,1.6-5.2,2.2-7.9c1.1-4.4,1.2-7.6,0.3-9.5
		c-0.2-0.4-0.2-0.7,0-0.9C330.9,40.1,331.2,40.2,331.6,40.4z"/>
</g>
</svg>
