<?xml version="1.0" encoding="utf-8"?>
<!-- Generator: Adobe Illustrator 22.0.1, SVG Export Plug-In . SVG Version: 6.00 Build 0)  -->
<svg version="1.1" id="图层_1" xmlns="http://www.w3.org/2000/svg" xmlns:xlink="http://www.w3.org/1999/xlink" x="0px" y="0px"
	 viewBox="0 0 1280 800" style="enable-background:new 0 0 1280 800;" xml:space="preserve">
<style type="text/css">
	.st0{opacity:0.6;}
	.st1{fill:#999999;}
</style>
<g class="st0">
	<path class="st1" d="M116.9,357.7c2.9-4.3,5.3-8.3,8.2-11.9c5.1-6.2,10-6.8,17-2.5c0.6,0.4,1.2,0.6,2.2,1.2c3.7-11.3,2.5-22-1-32.7
		c-0.2-0.7-0.6-1.3-0.8-2c-4-10.7-4-10.7-15.1-8.7c-7.6,1.3-16.7-2.9-21.1-9.7c-8.4-12.8-12.4-27.1-14.8-42
		c-1.2-7.4-2.6-14.8-3.9-22.2c-0.2-0.9-0.1-1.9,0.8-3.1c1.6,3.9,3.6,7.6,4.9,11.6c3.5,10.7,11,18.6,18.3,26.4
		c4.5,4.7,11.2,6,18.6,4.6c-0.4-6.6-1.4-13.2-4.8-18.8c-3.6-6.1-8.5-11.4-12.8-17.2c-6.6-8.8-6.3-16.6,2.2-23.4
		c8.3-6.6,11-15,12.1-25c0.6-4.9,2.9-10.3,6.1-14c6.4-7.3,10.7-15.3,13.6-24.6c2.5-8.3,4.1-17,10-23.9c0.2-0.2,0.3-0.5,0.5-0.7
		c1.3-2.3,2.2-6.2,3.8-6.5c4-0.7,8.3,0,12.4,0.7c1.7,0.3,3.3,1.7,4.8,2.9c6.2,4.8,9.3,5.3,15.7,1.1c7.2-4.8,14.3-3.1,21,0.4
		c7,3.7,13.8,5,21.2,1.9c8.3-3.5,16.4-1.8,24.7,0.4c7.4,2,14.5,1.9,22.2-0.7c10.6-3.6,21.5-5.3,32.1,1.9c4.4,3,10.1,1.4,14.7-0.9
		c5.6-2.9,11.2-4.1,17.2-2.3c2,0.6,4.6,1.2,5.8,2.6c5.1,6,11.3,5.4,18,4.1c8.5-1.7,17-2.8,26-1.9c9.6,1.1,14.5,4,17.2,17.8
		c1.6,7.8-0.1,15.3-2.4,22.7c-2.9,9.4-2.9,18.4,1,27.6c4.7,11,4.9,22.6,2.8,34.3c-1.1,5.8-0.1,11.1,1.7,16.7
		c1.5,4.7,1.8,9.9,2.2,14.9c0.2,2.4,0.1,4,3.2,4.5c2.5,0.4,4.6,2.3,7,3.5c2.4,1.2,5,2.2,7.8,3.4c0.8-2.4,1.8-4.1,2-5.9
		c1.3-14.8,10.9-21.4,24-23.7c10.4-1.8,13.5-8.4,13.8-17.1c0.2-7.4-0.6-14.8-1.1-23.4c4.8,6.3,7.4,12.4,9.4,18.9
		c3.2,10.5,4.4,20.9,0.8,31.6c-2.4,7.2-7,12.6-12.2,17.8c-8.6,8.5-14.7,18.2-17.1,30.3c-1.9,9.3-9.2,13.8-19.3,13.4
		c-4.6-0.2-9.3,0.3-13.9,0.9c-4.3,0.6-6.9,4.1-7,8.6c-0.1,5,0.4,10-0.1,14.9c-0.9,8.2-2.9,16.2-3.6,24.4c-0.6,7.1-0.1,14.3-0.1,22.4
		c3.7-1.3,6.1-2.2,8.5-3c6.9-2.2,13.7-4.8,20.7-6.4c8.5-2,13.5,2,14.1,10.9c0.3,4.2,0.3,8.5,0,12.7c-0.2,3.3,1.2,4.1,4.2,4.5
		c16.5,2.3,32.5-0.2,48.5-4c3.8-0.9,7.5-2.3,11.4-3c5.3-1,7.9-4.7,8.5-9.3c1.7-11.5,1.7-23-1.4-34.3c-0.5-1.9-1.3-2.9-3.7-3.3
		c-5.6-0.8-8.8-4.8-11-9.7c-1.3-2.7-2.3-5.5-3.5-8.7c-3.8,3.6-8,4.8-13.2,4.6c-10-0.5-15.3-6.8-13.1-16.8
		c1.7-7.8,7.4-12.1,15.4-10.9c4.4,0.6,8.7,2.1,13,3.2c0.4-3.9,0.5-8.2,1.3-12.4c0.7-3.5,1.9-7,3.5-10.2c3.9-7.9,9.4-8.9,16.1-3.1
		c9.3-4,11.8-3.2,17.8,5.8c9.3-4.4,13-0.7,15.1,6.9c4.9,17.5,1.2,33.3-9.7,47.6c-1,1.3-2.7,2.3-4.2,3.1c-1.5,0.8-3.2,1.3-3.5,2.2
		c0,10.8,0.6,21.6-0.2,32.4c-0.5,6.8-2.4,13.7-4.7,20.2c-2.9,8.1-10.6,11-18,13.3c-11.9,3.8-24.2,6.4-36.8,6.4
		c-8.2,0.1-16.3,0.6-24.5,0.8c-3.3,0.1-6.7,0-10.5,0c-1.1,3.9-2.3,8.5-3.7,13c-2.9,9.2-8,11.9-16.9,8.4c-7.6-3-14.9-6.7-22.3-10.1
		c-1.1-0.5-2.2-1.1-4.5-2.2c0.8,6.5,1.3,11.9,2.1,17.3c1.6,11.3-1.6,18-11.4,23.7c-0.9,0.5-1.6,1.9-1.7,3c-1.1,11.5-2,23-3.2,34.4
		c-1.4,15-3,30.1-4.6,45.1c-0.1,1.1-0.5,2.2-0.9,3.6c-3.4,0-6.7,0-9.9,0c2.7,8.3,5.3,16.3,8,24.2c0.9,2.6,0,4.1-2.3,5.2
		c-1,0.5-2,1.2-3,1.8c-8,4.9-7.8,4.8-5.8,14c2.8,12.7,7.5,25.2,6,38.5c-0.3,3.1-1.6,6.6-3.7,8.8c-8.4,9.2-17.1,18-25.9,26.8
		c-2,2.1-2.9,3.8-1.8,6.7c0.9,2.2,0.9,4.7,1.4,7.6c4.6-2,9.1-3.8,13.5-6c6.1-3,12.1,0,18.1-0.1c2.5,0,4.6,7,4.3,11.6
		c-1,16.9-18.4,21.8-29.3,18.8c-3.5-1-6.9-2.3-10.1-3.9c-3.2-1.6-6.2-3.7-9.2-5.6c0.3,3.6-2.7,4.7-5.5,5c-7.9,0.9-15.4,0-21.4-6.3
		c-4.5-4.9-4.4-7.7,1-11.5c0.9-0.7,1.8-1.4,2.7-2.1c-3.4-13,3.1-19.7,15.9-20.5c1.7-0.1,3.7-1,4.8-2.1c9.3-9.5,18.4-19.3,27.7-28.8
		c1.9-1.9,2.3-3.7,1.8-6.2c-2.4-11.6-4.7-23.3-7-34.9c-0.6-2.9-2.5-3.7-5.2-4.3c-6.6-1.4-13-3-18.2-7.9c-2.9-2.7-3.4-5.4-2.5-8.9
		c1.6-6,3.2-12,4.7-18.1c0.2-0.8,0-1.7,0-1.9c-8.8,0-17.4-0.2-26,0.1c-7.4,0.2-14.8,1.1-22.2,1.5c-8.6,0.4-17.3,0.3-25.8,1
		c-15.5,1.2-31,2.7-46.5,4.2c-8.1,0.8-16.2,2-24.3,2.6c-2.7,0.2-3.4,1-3.6,3.6c-0.3,4.5-1,8.9-1.8,13.4c-0.5,2.5-1.6,4-4.8,4.6
		c-8.5,1.6-16.5-0.1-24.5-2.2c-1.2-0.3-3.1-0.3-3.8,0.4c-11.6,13-24.8,24.9-33.1,40.7c-4.6,8.8-8.7,17.8-8.3,28.1
		c0,1.2,0.7,2.9,1.6,3.6c8.4,5.7,7.3,15,2.3,21.8c-1.5,2-2.2,3.4-1.5,5.8c0.8,2.7-0.1,4.4-3.2,5.5c-7.3,2.6-14.3,1.4-21.3-0.5
		c-1-0.3-1.1-3.4-1.6-5.2c-0.1-0.5-0.1-1.1-0.3-2.1c-4.3,1.1-8.5,2.6-12.7,3.2c-5.3,0.7-10.7,1.1-16.1,0.8
		c-5.9-0.2-11.5-6.4-13.4-13.9c-2.4-9.6,0.7-19.4,7.6-23.3c4.3-2.5,8.6-2.6,13,0.1c5.1,3.2,9,7.3,11.3,13c2.3,5.5,4.3,6.4,8.8,2.7
		c5.5-4.5,10.3-9.4,10.5-17.8c0.5-16.5,6.9-31.3,17.3-43.9c8.6-10.4,18.1-20.1,27.7-30.6c-1.3-1.9-3.3-4.5-5.1-7.3
		c-3-4.5-3.9-8.7,0-13.5c4.3-5.3,8-11.1,12.2-17.2c-2.7-2-5.2-4.2-8-5.9c-2.3-1.4-3.2-3.1-2.9-5.7c0.9-7.5,1.7-15,2.7-22.5
		c1.1-8.2,2.4-16.3,3.4-24.5c1.3-10.5,2.5-21.1,3.6-31.7c0.1-1.1,0-2.8-0.8-3.4c-5-4.5-5.9-9.5-3.2-16.1c1.6-4.2,2.7-8.5,3.9-12.8
		c0.2-0.8,0-1.7-0.1-2.9c-6.5-0.7-12.8-1.6-19.2-1.9c-8.8-0.5-15.5-6.5-15.7-15.3c-0.1-4.7,1-9.5,1.3-14.2c0.1-1.4-0.4-3.8-1.3-4.3
		c-7.6-4-15.2-8-23-11.4c-10.9-4.7-13.6-4.3-20.6,5.1c-7.6,10.2-14.2,21.2-21.5,32.2c9.3,2.8,16.8,6.2,18.5,15.7
		c1.3,7.3-1.1,13.3-8,16.3c0.3,4,1.2,7.8,0.9,11.4c-0.8,8.1-8.6,12.5-16.9,10.2c-1.5-0.4-3.5-0.1-4.8,0.7
		c-6.6,3.9-11.4,2.9-15.6-3.6c-0.5-0.7-0.9-1.8-1.6-1.9c-7-1.6-8.6-7.1-9.8-13c-2.5-12.4,4-29.5,13.7-35.7c2.1-1.3,4.9-2.5,7.3-2.3
		c4.2,0.4,5.4-2,6.8-5c6.7-15.1,15-29.4,25-42.5c9.3-12.3,16.6-13.7,30.8-7c4.4,2.1,8.6,4.3,12.8,6.7
		C108.8,352.4,112.8,355.1,116.9,357.7z M346.5,322.8c-0.1,1.1-0.2,1.7-0.2,2.3c-0.2,9.2-0.2,9.1-9.4,10.6c-1.1,0.2-2.5,1.8-2.8,3
		c-2.8,9.6-4.7,19.5-8.1,28.9c-7.6,20.7-18.2,39.7-34.9,54.8c-5.3,4.8-11.3,8.4-18.4,9.5c-10.7,1.6-18-4.1-23.8-12.3
		c-6.1-8.6-9.6-18.3-12-28.4c-5.6-23.3-8.6-46.9-9.1-70.8c-0.1-7-3.2-11.9-8.4-15.4c-2.4-1.6-6.8-2.3-9.3-1.2
		c-6.5,3-12.5,7.3-18.7,11.1c4.2,8.7,4.1,17,2.9,25.7c-0.8,5.4-0.7,11-0.1,16.5c1.1,9.1,2.6,18.1,4.6,27c1.6,7-0.3,13-2.7,19.4
		c-1.5,4.2-2.6,9.2-1.9,13.5c2.1,13.5,2.5,26.8-2,39.9c-0.6,1.7-0.1,3.8-0.1,7c4.1-1.7,7.5-2.6,10.2-4.5c7.6-5.2,15.1-5.8,23.5-1.7
		c3.9,1.9,8.7,2.5,13.1,2.4c8.7-0.3,17.4-1.6,26.1-2.4c2.8-0.2,5.6-0.4,8.3,0.1c11.8,2.2,23.4,1.3,35-1.5c9.2-2.3,17.9-2.1,26.5,2.9
		c8,4.7,16.8,6,26,2.8c3.7-1.3,8-1.7,11.9-1.4c4.8,0.4,9.6,2,14.4,3c8.6,1.9,12.4,0.3,14.5-8.1c1.3-5.4,1.5-11.4,0.5-16.9
		c-2.9-16.5-1.1-32.4,3.7-48.4c2-6.5,3.1-13.8,2.4-20.5c-1-10.1-1.4-19.8,1.8-29.6c1.4-4.4,1.7-9.1,2.6-13.7c-0.3-0.2-0.7-0.4-1-0.5
		c-3.8,6-9.6,7.5-15.7,5.8c-4.5-1.3-8.4-4.4-12.7-6.4c-4.4-2.1-9-5.3-13.5-5.4C362,319.7,354.4,321.6,346.5,322.8z M353.5,135.4
		c-0.7,6.4-1.5,12.4-2,18.5c-0.1,1.3,0,2.9,0.7,4c7.9,13,11.5,27.3,12.4,42.2c0.5,8.4,0.1,16.9,0.1,25.5c1.4-0.4,2.8-0.8,4.1-1.2
		c7.7-2.3,13.5,0.9,14.9,8.7c0.6,3.3,0.4,7.1-0.6,10.3c-1.6,5.2-4.2,10-6.2,14.6c4.3,5.2,8.8,10.6,13.3,16c2.1,2.5,4,5,6.3,7.3
		c3.2,3.2,5.4,3.2,8.6-0.1c1.3-1.3,2.2-3,3-4.7c2-4,4-8.1,5.8-12.2c0.6-1.3,1.3-2.8,1.1-4.1c-0.8-7.2-1.8-14.4-2.7-21.6
		c-0.8-6-2.9-12.1-2.4-18c0.8-9.5,0.3-18.6-1.9-27.7c-1.8-7.6-3.8-15.2-2.8-23.2c1.3-10,2.6-20,3.3-30.1c0.5-7.1-5.3-14-12.4-14.1
		c-7.3-0.1-14.7,0.9-22,2.1c-8.7,1.5-16.8,1.4-24.1-4.5c-5.4-4.5-12-2.6-16.7,0c-7.9,4.4-14.5,5.4-22.3,0.2c-4.2-2.8-9-3.7-14.8-1.8
		c-10.9,3.5-22.3,4.2-33.7,2.2c-9.2-1.6-18.3-1.7-27.1,1.9c-6.8,2.8-12.8,1.1-18.4-2.8c-3.5-2.4-7.2-3.2-11.1-2.6
		c-3.8,0.5-7.5,1.4-11.3,2.3c-1.7,0.4-3.6,0.5-5,1.4c-3.8,2.4-7.2,1.7-10.5-0.8c-2-1.5-3.8-3.3-5.9-4.5c-1.9-1.1-5.1-2.9-6-2.2
		c-1.9,1.5-4.1,4.7-3.7,6.7c0.8,4.7,2.8,9.3,4.7,13.8c2,4.8,5.6,9.2,6.3,14c1.1,8.3,1,16.8,0.5,25.2c-0.4,6.1-0.3,11.9,2.8,17.4
		c7.7,13.4,10.5,27.5,6.1,42.8c-0.8,2.9-0.5,6.4,0.1,9.5c1.4,7.3,3.3,14.4,5,21.9c3.9-3.6,8.2-7.6,12.6-11.6
		c10.6-9.9,20.5-8.7,28,3.3c0.2,0.2,0.3,0.5,0.5,0.7c3.6,4.9,11.1,6.8,14.6,4.6c-5.2-9.5-10.4-18.9-15.2-27.6
		c-5.7,1-11.6,2.7-17.5,2.7c-5.9,0.1-11.9-1.5-17.8-2.3c0.1-0.5,0.2-1,0.2-1.5c2.1,0.2,4.3,0.9,6.4,0.6c8.5-1.5,17-3.5,25.6-4.8
		c8.2-1.3,14.4-12.7,12.7-19.2c-2.7-10.1-11.7-14.2-20.4-12.3c-9.4,2.1-18.6,4.6-24.6,14.3c1.3-10.4,19.7-22,32.9-19.5
		c3-15,6.6-29.8,18.1-41.1c-2.2-4-4.4-7.8-6.6-11.5c-2.5-4.3-2.3-4.9,2.7-7.5c3.1,5,6.1,10.1,9.1,15c7.6-2.3,7.6-2.3,6.9-9.5
		c-0.3-3.6-0.6-7.1-0.9-10.7c2.3,0,3.8,0,5.6,0c0.6,5.6,1.2,10.9,1.8,16.2c3.9,1.4,7.7,2.9,11.6,4.4c1.8-6.2,3.4-12.2,5.2-18.3
		c4.5,0.9,5.7,2.9,4.3,6.7c-1.4,4.1-2.6,8.3-3.3,12.6c-0.3,1.9,0.4,4.2,1.3,5.9c2.9,5.5,6.3,10.8,9.1,16.3c1.7,3.2,2.7,6.7,4.4,11
		c2.1-13.4,5.7-25,14.5-34.5c0.7-0.8,0.7-2.7,0.4-3.9c-1.1-3.4-2.5-6.7-3.9-10.2c1.7-1,3.1-1.8,5.1-3c1.7,4.2,3.3,7.9,4.8,11.5
		c4.5-1.1,8.7-2.1,12.7-3.1c0.4-3.7,0.9-7.2,1.3-11.1c2,0.2,3.5,0.3,5.7,0.5c-2.2,8.6-0.7,15.4,8.8,17.9c0.8-4.8,1.5-9.7,2.3-14.9
		C350.3,134.4,351.6,134.8,353.5,135.4z M481.6,216.4c-1.2,5.2-2.1,10.1-3.6,14.8c-1.8,5.4-5.3,9-11.3,10.2
		c-12.6,2.4-21.6,8.7-23.8,22.4c-1.3,8-6,10.1-13.3,6.6c-1.2-0.6-2.3-1.2-3.5-1.9c-5.9-3.6-6.9-3.5-10.3,2.7
		c-2.5,4.4-4.4,9.2-7,13.6c-3.6,6.2-8.9,6.9-14.1,2c-1.6-1.5-3-3.2-4.4-4.9c-4.7-5.9-9.6-11.8-14-17.9c-2.6-3.6-5-3.4-8.2-1.2
		c-7.2,5-15.2,8-23.8,9.3c-8.9,1.3-17.8,2.2-26.8,3.1c-1.7,0.2-3.6-0.1-5.1-0.9c-4.9-2.5-10-4.8-14.3-8.1c-6.9-5.1-14.4-8.7-22.6-11
		c-4.1-1.2-7.6-0.2-10.8,1.6c-2.7,1.6-5.1,3.9-7.4,6.1c-5.6,5.4-13.3,10.5-21.5,6.1c-3.4-1.8-6.3-5-8.5-8.2
		c-3.6-5.1-6.5-7.3-10.8-6.3c-5.5,1.3-10.3,3.8-14.3,8c-3.3,3.5-7,6.6-10.8,9.5c-8.2,6.2-15.8,4.9-22.2-3.3
		c-3.4-4.4-7.4-8.5-13.4-7.2c-4.6,1.1-8.9,3.7-13.4,5.5c-4.7,1.8-9.3,4.3-14.2,4.8c-9.8,1-17.5-3.8-23.5-11.2
		c-3.7-4.5-7-9.2-11.2-14.7c3.6,13.8,6.3,26.8,13.9,38c7,10.3,12.4,12.3,24.7,10.1c13.2-2.4,22.9,0.8,28.5,14.6
		c2.7,6.7,6.7,8.8,13.8,8c2.5-0.3,5.2-1,7.4-2.2c8.2-4.6,16-10.1,24.5-14.3c7.8-3.8,15.7-3.5,20.7,4.6c1.2,2,2.5,4,4.2,5.6
		c2,1.8,4.2,3.7,6.6,4.6c6.7,2.4,11.1-2.5,16-5.6c2.4-1.5,4.8-3.4,7.5-4.3c5.5-2,9.9,1.1,14.2,3.9c6,3.9,12.3,4.8,18.5,1.2
		c4.4-2.5,8.5-5.7,12.3-9c5.7-5,11.6-5.2,17,0.3c1.8,1.8,3.1,4.2,4.8,6.2c4.4,5,9.8,8.9,16.7,8.9c6.4,0,12.9-0.3,19.1-1.7
		c10.1-2.4,17.7,1.7,25.3,7.5c5.2,4,11.7,6.1,17.3,2.1c3.8-2.6,6.5-7.3,8.5-11.7c4-8.7,12.1-13,21.3-9.8c8.8,3.1,16.9-1.2,18.5-9.4
		c2.8-14.1,10.6-24.9,20.7-34.7c3.3-3.2,5.8-7.6,7.7-11.9C487.7,236.8,483.4,226.8,481.6,216.4z M146,475.5
		c-0.7,4.6-1.3,8.7-1.8,12.8c-1.4,10.8-2.9,21.6-4,32.5c-0.2,1.8,0.7,4.4,2,5.4c14.4,11.2,28.9,22.2,43.4,33.2
		c1.3,1,3.2,1.6,4.8,1.5c8.9-0.9,17.8-2.3,26.8-3.2c18.4-1.9,36.7-4.6,55.1-5.3c28.3-1.1,56.7-0.9,85.1-1.1c8.4-0.1,16.9,0,25.8,0
		c1.5-14.2,3.1-29.1,4.7-44.6c-28.2,0.5-56,1-84.3,1.4c0.7,3.1,1.2,5.1,1.7,7.4c5.4,0,10.5,0.2,15.6-0.1c3.6-0.2,4.8,1.3,4.2,4.7
		c-0.5,2.4-0.9,4.8-1.4,7.7c-5.8,0-11.5,0.2-17.1-0.1c-3-0.1-4.9,0.9-6.7,3.1c-3.3,4.2-6.9,8.2-10.8,12.8c-2.8-4.9-5.4-9.1-7.6-13.5
		c-1.4-2.8-3.5-3.6-6.4-3.2c-4.5,0.5-9,0.6-13.5,1.2c-10.4,1.6-10.8,1.4-10.2-8.9c0-0.3,0.2-0.5,0.6-1.3c5.9-0.5,12.1-1.2,18.3-1.5
		c6.3-0.3,7.1-0.8,8-7.7c-28.9-0.7-57.7-1.4-87-2.1c-0.9,12.2-1.8,24-2.7,35.7c-0.5-10.8-0.8-21.5-0.4-32.2c0.1-2.9-0.6-4.3-2.6-5.8
		C172.8,494.9,159.9,485.5,146,475.5z M269.3,390.6c16.6-0.6,22.4,9.4,23.8,24c15.7-12.5,33.3-49.6,37.8-78.6c-3.4-0.6-7-0.8-10.2-2
		c-1.5-0.6-3.3-3.1-3.3-4.8c0.1-8.1,0.7-16.3,1.1-24.3c-7.5-4-14.1-0.2-14.1,7.9c0,4.8,0,9.7-0.5,14.5c-0.2,1.7-1.5,4.3-2.9,4.8
		c-4.6,1.7-9.4,3.3-14.2,3.8c-7.6,0.9-11-2.7-10.8-10.3c0.1-2.3,0.5-4.6,0.5-7c0-1.1-0.2-2.5-0.8-3.2c-6.2-7.2-14.5-7.5-21.4-1.3
		c-5.1,4.6-10.6,8.3-18,5.3c-1.5-0.6-3.2-0.6-4.9-0.9c-1.1,13.2,4.7,58,8.3,64.6C254.1,372.5,263.6,374.8,269.3,390.6z M191.9,502.7
		c5.7,0.5,11.1,1.2,16.4,1.3c23.1,0.4,46.2,0.7,69.3,0.8c1.6,0,4-1.2,4.7-2.5c2.9-5.4,5.3-11,7.7-16.1c-2.9-4-5.5-7.5-8.2-11.3
		c-3.2,3.8-6.5,7.5-9.6,11.5c-2.2,2.8-4.5,3-7.1,1c-6-4.6-12.3-8.9-18-13.9c-3.9-3.4-6.9-7.9-13-7.6c-1.1,0.1-2.2-0.7-3.3-1.2
		c-8.7-4.1-17.2-4.6-25.7,0.7c-2.4,1.5-5.3,2.7-8.1,3.1c-2.2,0.3-5.9-0.3-6.6-1.7c-2.4-5-6.9-7.2-11.4-8.1
		c-9.8-1.9-18.5-4.6-22.9-14.7c-0.4-1-3.4-1.1-5.2-1.3c-0.4,0-1.3,1.5-1.4,2.3c-1,7.7-2,15.3-2.5,23c-0.1,1.7,1.1,4.2,2.4,5.3
		c9.1,7.1,18.4,13.9,27.7,20.7c3.9,2.9,7.9,5.7,12.2,8.9c1.3-9.2,2.6-17.6,3.8-26.1c0.5,0.1,0.9,0.1,1.4,0.2
		C193.6,485.4,192.8,493.9,191.9,502.7z M157.3,130.5c-0.1,0.1-0.6,0.9-0.8,1.7c-0.4,1.1-0.6,2.2-0.8,3.4
		c-2.4,12.6-7.2,23.6-16.8,32.9c-3.4,3.3-5.1,9.4-5.9,14.4c-1.6,9.7-3.8,18.6-12.3,25c-8,6-8.5,13.2-1,19.8
		c7.2,6.4,10.5,14.3,12.2,23.3c0.9,4.8,2.3,9.5,3.6,14.7c3.1-1.6,5.6-3,8.2-4.2c3.1-1.5,6.1-3.5,9.4-4.2c7.3-1.5,12.4,2.7,16.9,7.9
		c1.9,2.2,4,4.3,6.4,5.7c1.7,0.9,4.5,1.2,6,0.4c1-0.5,1.2-3.7,0.9-5.5c-0.8-4.1-2.1-8.1-3.2-12.2c-1.3-4.6-2-9-0.4-14
		c1.6-4.9,2.7-10.5,1.9-15.4c-1.3-7.3-4.1-14.4-7-21.4c-2.9-7.1-4.9-14-3.3-21.7c2.2-10.9,2.1-21.5-3.4-31.6
		C164.4,143,160.7,136.7,157.3,130.5z M230.4,195.3c3.6,2.8,7.9,4.6,10.1,7.9c6,9.1,4.5,19.7-3.4,27.4c-3.3,3.2-4.1,5.9-1.7,9.8
		c0.8,1.2,1,2.7,1.6,4c3,6.9,7,13,13.6,18c10-13.4,22.7-14.6,36.9-7.3c1.1-2.4,1.9-4.1,2.6-5.9c5.7-14.7,8.4-29.7,6.2-45.6
		c-2.1-15-5.4-29.6-14.7-41.9c-12.6-16.6-29.2-12.9-39.2,1C235.3,172.6,232,184,230.4,195.3z M300.3,214.2c-0.2,0-0.4,0.1-0.6,0.1
		c0,1.6-0.1,3.2,0,4.8c0.6,13.2,5.2,24.9,13.8,35c1.3,1.5,2.4,2.5,4.7,1c13-8.4,26.2-16.4,39-24.9c1.9-1.3,3.5-4.3,3.8-6.7
		c1.6-11.3,1.4-22.7-0.8-33.9c-2.1-11.2-5.3-22-12-31.5c-10.4-14.7-23.7-15.8-36.2-2.9c-6.7,6.8-9.3,15.6-11.4,24.6
		c-1.3,5.8-2.4,11.7-2.5,17.6C298.1,203,299.5,208.6,300.3,214.2z M529.1,342.7c1,5.2,2.7,10.2,2.9,15.2c0.3,9.3,0.1,18.6-0.9,27.8
		c-0.4,4.3-2.5,8.9-7.5,10.5c-14.4,4.7-29.2,8.7-44.4,8.2c-11-0.3-21.9-2.8-32.9-4c-2.8-0.3-6.5-3.2-8.6,0.6
		c-1.4,2.7-1.3,6.2-1.7,9.4c-0.3,2.2,0.7,3.5,3.1,3.7c7,0.6,13.9,1.8,20.9,1.9c9.3,0.2,18.7-0.5,28-0.8c13-0.4,25.6-3.4,37.9-7.6
		c8.6-3,15.1-8.1,16.8-17.8c2.4-14,1.4-28,0-42c-0.1-1-1.1-1.9-1.8-2.9c-2.3-3.4-4.7-6.7-6.9-10.2c-0.4-0.6,0-1.8,0.1-2.7
		c0.9,0.4,1.2,0.8,1.3,1.2c1.1,5.6,5.2,8.7,10.2,8.4c3.3-0.2,7.4-3.1,9.3-6c3.1-4.7,5.4-10.3,6.9-15.8c2.2-8.2,2.9-16.7-0.5-24.9
		c-2.1-5.1-8.4-6.7-11.7-2.6c-6,7.3-9.2,15.8-8.1,25.4c0.1,1.3,1.6,2.9,2.9,3.3c0.8,0.3,2.8-1,3.3-2c1.6-3.2,2.8-6.6,4.2-9.9
		c0.4-1.1,0.9-2.1,1.4-3.1c0.5,0.2,1.1,0.4,1.6,0.6c-1.2,4.1-2,8.5-3.8,12.4c-3.4,7.3-6.3,7.7-11.9,2.1c-6,2.3-6.5,2.2-12.6-1.2
		c-0.8-0.5-2.2-0.3-3.2,0c-3,0.8-5.5,0.6-7.3-2.3c-4.6-7.4-11.5-9.8-19.8-9.9c-4.5-0.1-7.1,2.3-8.5,6.2c-1.7,5-0.4,10,2.9,12.3
		c0.7,0.5,1.6,0.8,2.4,0.8c6,0.1,12.1,0.5,16.2-5.3c0.4-0.6,1.4-0.8,2.2-1.3C514.8,337.9,519.5,341,529.1,342.7z M144.8,300.1
		c0.7,1.8,1.3,2.9,1.6,4.1c1.9,8.9,4.3,17.8,5.2,26.9c0.6,5.5-3.2,11.8-1.6,16.6c1.6,4.8,7.4,8.3,11.4,12.3c0.2,0.2,0.5,0.1,0.6,0.2
		c1.1-4.9,2-9.8,3.5-14.5c2.4-7.3,8.7-6.3,12.6-2.2c1,1.1,2,2.2,2.6,3.5c7.4,15.5,7.6,31.3,2.1,47.3c-0.7,2-2.6,4-4.4,5.2
		c-3.3,2.2-7,3.7-10.9,5.7c3.9,4.5,5.3,9.4,3.8,14.7c-1,3.4-2.1,7.3-6.6,7.6c-4.5,0.3-6.2-3.3-6.6-6.7c-0.6-4.3-0.1-8.8-0.1-13.4
		c-1.9,0.5-4.4,0.6-5.9,1.9c-1.1,0.9-0.8,3.4-1.2,5.2c-0.3,1.1-0.6,2.3-1,3.3c-1.2,3-2.5,5.9-3.6,8.9c-2.1,5.8-0.5,8.8,5.5,9.6
		c5.5,0.7,8.8,3.7,11.5,8.2c1.3,2.2,3.6,4.6,5.9,5.4c6.4,2.3,13.1,3.8,19.8,5.6c3.3-7.5,4.6-16.3,2.3-25.3c-2.5-9.9-2-19.4,2-28.9
		c1.2-3,2.1-6.6,1.7-9.7c-0.8-7.9-2.4-15.7-3.8-23.5c-1.8-9.6-2.7-19-0.8-28.9c1.4-7.3,1.8-15.4-2.6-22.4c-2.3,1.1-4.3,2.1-6.4,3.1
		c-11.8,5.3-19.3,2.5-25.3-9.1C153.6,306.3,151,301.8,144.8,300.1z M129.5,380.1c0-3.3,1-6.6-0.1-7.5
		c-12.8-10.9-26.5-20.6-42.5-26.3c-8.6-3.1-16.7-2.1-22.6,6.1c-1.2,1.7-2.7,3.1-3.8,4.8c-7.3,12.5-14.6,25.1-21.8,37.7
		c-1.9,3.3-3.5,6.8-5.7,11.1c-1-4.7-3.8-4.5-6.3-3.6c-2.1,0.8-4.2,2.1-5.8,3.7c-7.4,7.5-9.1,17.1-9,27c0.1,4.1,0.7,9,5.7,11.6
		c1.1-5.4,0.1-11,4.4-16.4c-0.3,5-0.7,8.8-0.8,12.5c-0.4,9.3,3.3,11.5,12.4,8.6c-1.1-4.4-2.2-8.7-3.3-13.1c0.5-0.1,1-0.3,1.5-0.4
		c0.3,0.9,0.6,1.8,0.9,2.8c2,5.4,5.3,9.5,11.1,10.7c4.5,1,8.7-1.8,9.8-6c1.3-5-2.2-12.3-7.4-14.5c-0.1,1.2-0.2,2.3-0.4,3.4
		c-0.2,1-0.4,2-0.8,3.6c-2.6-4.4-2.9-9.7-0.6-12.7c1.4-1.8,3.6-2.9,5.5-4.3c0.3,0.4,0.6,0.7,0.8,1.1c-1.1,1.7-2.1,3.4-3.5,5.5
		c2.4,1.3,5.4,3.8,6.3,3.2c2.7-1.8,5.5-4.6,6.6-7.6c2.3-6.3-4.8-15.4-11.6-15.6c-2.4-0.1-4.8,0-7.2,0c-0.1-0.9-0.3-1.3-0.2-1.5
		c7.3-14.9,14.9-29.6,26.3-41.9c6.4-6.9,10-8,18.5-4.1c7.4,3.3,14.6,7.1,21.8,10.8C114.8,372.3,121.6,375.9,129.5,380.1z
		 M299.8,489.3c0.3,1.5,0.7,3.2,1.1,4.8c0.8,3.2,0.7,7.8,2.8,9.3c2.4,1.7,6.7,0.7,10.2,0.6c23.5-0.3,47.1-0.6,70.6-0.9
		c0.4,0,1,0.2,1.3,0c0.9-0.6,2.3-1.2,2.4-1.9c1.1-10.3,2.1-20.6,3-30.4c-3-1.5-5.3-3.3-7.9-3.7c-4.6-0.7-9.5-1.1-14.1-0.5
		c-4.7,0.6-9.2,2.5-13.7,3.8c-1.4,0.4-2.9,0.7-4.1,1.4c-8.3,4.8-16.6,9.7-24.8,14.5c-7.7,4.5-9.5,4-13.5-4c-0.1-0.3-0.3-0.5-0.2-0.3
		C308.6,484.3,304.4,486.7,299.8,489.3z M116.1,376.7c-2.4,6.9-2.3,13.1-0.2,19.1c1.6,4.8,5.2,8.7,10.4,8.7c11-0.1,22.1-0.4,33-1.8
		c12.7-1.7,14.2-3.1,15-12.5c0.3-3.4-1.3-7.4-3.1-10.6c-7.8-14-20.2-23.7-33-32.7c-1.8-1.2-5.8-0.8-8,0.4c-5,2.7-7.7,7.7-9.6,13
		c3.6,2.9,7,5.7,11,9c0.2-4.1,0.3-7.1,0.5-11.1c6.2,12.6-1.4,29.3-8.9,31.8c1.5-2.4,2.9-4.6,4.5-7.2
		C123.7,380.8,120.2,378.9,116.1,376.7z M298.4,233c-2.3,6.8-4.9,13.9-7.2,21c-0.3,0.9,0.2,2.9,0.9,3.2c8.6,4.2,14,14.9,26.1,12.3
		c3.8-0.8,8.1,0.7,12.1,0.6c17.8-0.3,32.7-7.2,44.9-20.1c3.7-4,4.9-8.9,4.2-14.2c-0.7-5.7-4.3-8.9-9-7.6c-3.8,1-7.5,2.5-10.8,4.5
		c-10.1,6.2-19.8,12.9-29.9,19.1c-5.6,3.4-11.7,5.9-16.5,8.3c-3.5-5-6.5-8.8-8.8-13C302.1,242.5,300.4,237.6,298.4,233z
		 M453.1,398.1c-0.3-7.3,1.9-14.2-2.8-20.1c-1.1-1.3-3.8-2.4-5.4-2.1c-9.8,2.3-19.6,5-29.3,7.8c-1,0.3-2.3,1.5-2.4,2.5
		c-1,5.2-1.7,10.4-2.6,16c6.8,0,13.3,0,19.1,0c0,5.7,0,10.9,0,16.4c-7.2-1.8-14.4-3.5-22.1-5.4c-0.6,3.6-1.2,6.8-1.5,9.9
		c-0.1,0.9,0.7,2.3,1.4,2.7c9,3.9,18.1,7.7,27.2,11.6c4.1,1.8,7.4,0.3,9.2-3.3c2.4-4.7,4.2-9.6,6.2-14.5c-0.3-0.3-0.5-0.6-0.8-0.9
		c-4.4,1.5-8.8-3.1-13.2,0.7c-4.9-10.1-1.1-27.3,7.1-30.4c-1.1,2.4-2.1,4.4-3.2,6.8C444.4,396.6,448.5,397.3,453.1,398.1z
		 M181.1,582.9c0.9-6.2,1.9-12.3,2.6-18.5c0.1-1-0.8-2.4-1.7-3.1c-9.7-7.3-19.5-14.4-29.1-21.6c-2.2-1.7-3.8-1.7-5.3,0.8
		c-3.6,6-7.3,11.9-10.8,18c-0.4,0.8-0.6,2.1-0.3,2.8c3.5,6.4,7,12.7,13.5,16.8C159.7,584.1,170.2,583.2,181.1,582.9z M269.9,411.5
		c-0.6,0-1.2-0.1-1.8-0.1c0-1.3,0.1-2.6,0-3.9c-0.6-4.7-0.8-9.6-1.9-14.2c-1.8-7.4-4.9-9.4-12.5-9.7c-1.4-0.1-2.9-0.5-4.3-0.7
		c-3.8-0.5-10,4.7-9,7.9c2.9,9.2,5.9,18.3,11.7,26.2c6.3,8.7,16.2,12,26.2,8.7c10.3-3.3,12.6-7.4,10-17.5c-1.8-6.9-6.5-10.9-12.9-13
		c-4.3-1.4-5.5-0.4-5.5,4.1C269.9,403.3,269.9,407.4,269.9,411.5z M338.6,556c-1.3,7.3-2.7,14.6-4,22.1c-0.2,1-0.1,2.5,0.6,3
		c5.5,4.6,11.3,8.7,18.9,9.1c9,0.4,16.8-3.1,24.1-7.8c0.9-0.5,1.6-2.5,1.3-3.5c-2.1-6.8-4.4-13.5-6.9-20.2c-0.4-1.1-2.1-2.6-3.3-2.6
		C359.2,555.9,349.1,556,338.6,556z M177.2,397.5c0.5,0.1,1.1,0.3,1.6,0.4c1.3-2.7,3.2-5.4,3.9-8.3c2.3-9.6,2.4-19.3,0.8-29.1
		c-0.9-5.8-2.6-11.3-6.8-15.7c-4-4.2-7.7-3.7-9.5,1.7c-1.3,4-2.3,8.2-2.6,12.3c-0.2,2.3,0.7,5.2,2.1,7.1
		C173.9,375.3,180.5,384.7,177.2,397.5z M361.9,658.7c3.7-4.2,7.5-8.1,10.7-12.4c1.4-1.9,2.6-4.8,2.4-7.1
		c-0.9-9.3-2.3-18.7-3.9-27.9c-1-6.1-2.6-12-3.9-18c-3.4,0.3-5.9,0.6-8.5,0.8c0,1.5-0.2,2.5,0,3.5c2.4,10.6,4.9,21.1,7.2,31.7
		c1.1,5.1,1.3,10.1-3.4,13.9c-1.8,1.5-3,3.6-4.8,5.1c-3.5,2.9-2.8,5.3,0.5,7.7C359.4,656.8,360.5,657.7,361.9,658.7z M149.2,581.8
		c-5.6-4.8-5.8-5-10.7-0.4c-6.4,6-12.9,11.9-18.5,18.6c-5.3,6.4-9.4,13.7-14.1,20.7c7,4.3,8.6,3.8,12.3-1.8
		c2.7-4.2,5.6-8.2,8.8-11.9C134.2,598.5,141.6,590.3,149.2,581.8z M308.3,464c3.7,7.5,7.1,14.5,10.6,21.8
		c10.2-5.6,19.6-10.8,28.5-15.7C335.9,459.7,322.2,462.9,308.3,464z M244.9,465.9c-0.2,0.7-0.5,1.3-0.7,2c7.2,5.5,14.4,11,21.8,16.3
		c0.9,0.6,3.4,0.4,4.1-0.4c4.6-5.7,9-11.7,14-18.4C270.1,461.9,257.5,464.3,244.9,465.9z M538.7,316.8c-0.3-9.1,2.5-16.6,7-23.6
		c0.7-1.1,1-2.9,0.6-4c-2.7-6.5-8.6-7.2-12.7-1.6c-5.9,8.1-6.7,17.5-6.1,27c0.1,0.9,1.7,2.4,2.7,2.5
		C532.8,317.3,535.6,317,538.7,316.8z M513.9,304.3c0.8,2.7,1.5,6.7,3.3,10.2c0.7,1.3,3.9,1.3,5.9,1.9c0.3-1.5,0.7-2.9,0.8-4.4
		c0.1-1.6-0.4-3.3-0.1-4.8c1.6-6.4,3.5-12.7,5.1-19.1c0.3-1.2,0.6-3.1,0-3.8c-0.9-1-2.8-1.7-4.1-1.6c-1.4,0.1-3,1.2-3.9,2.3
		C516.5,290.2,514.9,296.4,513.9,304.3z M343.6,322.2c-10-0.8-16.4-7-22.5-14.8c0,8.1,0,15.2,0,22.2c6.6,0.4,12.8,0.9,19,0.9
		c1.2,0,2.8-1.9,3.3-3.3C344.1,325.9,343.6,324.1,343.6,322.2z M300.8,311.8c-6.8,4.1-13.1,7.4-21,5.6c0,4.1-1.3,9.1,0.3,10.3
		c3,2.2,7.7,2.9,11.6,2.8c3.5-0.1,8.2-0.6,9-5.2C301.4,321.2,300.8,316.8,300.8,311.8z M170.2,415.6c-0.5-1.9-0.8-4.3-1.9-6.2
		c-0.7-1.3-2.8-3-3.9-2.8c-1.7,0.4-4.1,2.1-4.4,3.6c-0.8,3.3-1.1,7-0.4,10.2c0.5,2.1,3.2,3.6,4.9,5.4c1.5-1.6,3.3-3,4.4-4.8
		C169.7,419.6,169.7,417.7,170.2,415.6z M345.2,676.1c-3.2-2.3-5.7-4-8.7-6.2c-1.3,1.5-3.8,4.1-5.7,7.1c-0.6,0.9,0,3,0.7,4.3
		c0.3,0.6,2.2,1.1,3,0.7C337.9,680.4,341.3,678.4,345.2,676.1z M98.5,647.6c0,3.7-0.5,7,0.2,10c0.5,1.9,2.6,4.4,4.4,4.7
		c3,0.6,3.5-2.1,3.3-4.7c-0.2-2.7,0-5.4,0-8.3C103.8,648.8,101.3,648.2,98.5,647.6z M345.6,660.5c-1.6,2.4-4.5,4.9-4.1,6.6
		c0.5,2.1,3.6,4.2,6,4.8c1.3,0.4,3.4-2.2,5.3-3.4C350.2,665.6,348.2,663.4,345.6,660.5z M100.4,635.6c-0.1,2.6-1.1,5.5-0.1,7.3
		c0.8,1.4,4.8,2.7,5.9,2c1.8-1.2,2.3-4.2,3.5-6.6C106.5,637.3,103.9,636.6,100.4,635.6z M58.5,658.6c-0.5,0.4-3,1.6-2.8,2.4
		c0.4,3.3,3.1,4.9,6.2,4.5c1.4-0.1,3.9-1.7,3.8-2.5C65.5,659.7,62.8,658.8,58.5,658.6z M102.1,631.5c9.1,2.6,9.1,2.6,11.1-3.3
		c-2.6-1-5.3-2.1-8.3-3.2C104,627,103.1,629.1,102.1,631.5z M375.1,688.6c-4.6-0.3-7.1,0.8-7.5,4c-0.1,0.8,2.5,2.6,4,2.7
		c2.8,0.2,5.8-0.8,6-4.1C377.7,690.2,375.5,689,375.1,688.6z M358.9,661.6c-1.9-1.8-3.3-3.4-5-4.7c-0.9-0.7-2.4-0.6-3.6-0.9
		c-0.1,1.5-0.7,3.5,0,4.3c1.5,1.8,3.7,3.1,5.9,4.8C357.3,663.7,358.1,662.6,358.9,661.6z"/>
	<path class="st1" d="M238.6,408.5c1.6,6,2.4,12.4,5,17.9c2.9,6,6.9,12,11.7,16.5c5.2,4.8,12.4,3.7,18.7,1.5c4.2-1.4,8-3.9,12-6
		c2-1.1,4-2.3,6-3.4c0.2,0.7,0.4,1.1,0.4,1.1c-9.1,6.6-17.5,14.6-29.9,14.3c-5.8-0.1-10.2-2.5-13.9-6.9c-6.9-8.2-9-18-10.3-28.1
		c-0.3-2.3-0.4-4.5-0.6-6.8C238,408.6,238.3,408.6,238.6,408.5z"/>
	<path class="st1" d="M393,384.7c-0.8,10.6-3.4,18.4-9,24.8c-5,5.8-12.3,5-16.3-1.9c-3-5.1-4.1-10.7-3.2-16.7
		c1.1-7.5,1.7-15,6.4-21.4c2.3-3.2,5.1-5.8,9.4-5.4c4.2,0.4,7.6,2.7,9,6.7C391.1,375.9,392.2,381.3,393,384.7z M390.8,386.1
		c-0.8-4.3-0.7-9-2.6-12.7c-1.7-3.3-5.1-6.7-8.5-7.7c-1.9-0.6-6.5,3.1-7.6,5.8c-2.6,6.2-4.3,12.9-5.5,19.5
		c-0.9,4.8-0.5,9.7,2.1,14.4c4.3,7.6,10.4,8.1,15.6,1C388.7,400.4,390.4,393.6,390.8,386.1z"/>
	<path class="st1" d="M233.9,428.7c-1.6,5.3-2.7,11-5.1,16c-3.2,6.5-9.3,6.4-14,0.9c-5.1-5.9-5.1-13.1-5.2-19.9
		c-0.1-6.4,1.7-12.9,3.2-19.3c0.7-3,2.2-6.1,6.3-6.2c4.2-0.1,7.1,2.3,8.6,5.6c2,4.3,3.1,9,4.2,13.6c0.7,2.9,0.8,6,1.2,9
		C233.4,428.5,233.6,428.6,233.9,428.7z M232,428.7c-1.5-6.8-2.7-12.9-4.2-18.9c-0.4-1.6-1.4-3.2-2.5-4.5c-4.6-5.3-8.5-4.6-10.9,2
		c-3,8.5-3.8,17.3-2.2,26.2c0.7,4,2.4,8.1,4.8,11.3c3.7,4.7,8.1,4,10.5-1.6C229.6,438.5,230.6,433.4,232,428.7z"/>
	<path class="st1" d="M349.7,438.4c-0.1-5.1,1.9-9.5,5.4-12.9c1.5-1.4,4.4-1.9,6.6-1.8c2.9,0.1,4.7,2.4,4.7,5.3
		c0,4.1,0.1,8.3-0.9,12.2c-1.2,4.7-6.3,8.1-9.6,7.3C352.5,447.8,349.7,443.2,349.7,438.4z M365.5,434.5c-0.2-0.1-0.3-0.1-0.5-0.2
		c-0.1-1.7-0.1-3.5-0.5-5.2c-0.9-4-5.2-5.4-8-2.5c-3.5,3.7-6,8.1-4.9,13.3c0.5,2.3,2.6,4.9,4.7,5.9c2.8,1.3,5.3-0.8,6.5-3.6
		C364.1,439.8,364.7,437.1,365.5,434.5z"/>
	<path class="st1" d="M201.3,385.4c1.3-3.9,2.3-7.8,4.1-11.4c0.8-1.5,3.3-3.2,4.9-3.1c1.9,0.2,4.4,1.8,5.4,3.5
		c3.1,5.2,1.2,16.9-3.1,21.4c-2.5,2.7-6.5,2.3-8.3-1.1C202.9,391.9,202.3,388.7,201.3,385.4z M215.9,382.1c-0.7-2.8-1-5-1.9-6.9
		c-1.2-2.6-4.5-3.1-6.6-1.2c-3.5,3.2-4.9,14.6-2.3,18.6c2.1,3.3,5.6,3.5,7.2,0C213.9,389.3,214.8,385.4,215.9,382.1z"/>
	<path class="st1" d="M198.1,155.8c1.1-3.4,2.4-9.8,5.1-15.5c2.2-4.8,7.9-5.2,11.8-1.6c8.6,7.9,10.7,18,8.2,29
		c-1,4.3-2.9,8.5-5.1,12.3c-3.1,5.6-8.4,5.8-12.9,1.2C198.9,174.9,199.2,166.8,198.1,155.8z M200,155.9c1,10,0.8,17.8,6.5,24.1
		c3.2,3.5,6,3.5,9.1,0c8.4-9.5,9.9-29.7-1.6-39.6c-3.6-3-8.2-2.6-10,1.9C202.1,147.3,200.9,152.7,200,155.9z"/>
	<path class="st1" d="M376.5,160.4c1.2-3.7,1.9-7.3,3.6-10.4c1.5-2.9,4.3-3.5,7.4-1.6c7.6,4.7,8.6,19.9,1.6,25.4
		c-2.9,2.3-6.5,1.5-8.5-2.3C378.8,168,377.8,164.2,376.5,160.4z M378.8,160.4c1.1,3.3,2,7.1,3.6,10.5c1,2.1,3.2,3.4,5.7,1.1
		c5.2-5.1,4.8-16.7-0.7-21.5c-2.5-2.2-4.8-1.7-6.1,0.9C380.1,153.9,379.8,156.9,378.8,160.4z"/>
	<path class="st1" d="M222.7,213.6c-0.7-1.1-2.2-2.8-1.9-3.3c1.2-1.9,2.9-3.4,4.5-5c0.9,1.2,2.7,2.6,2.4,3.4c-0.5,1.8-2,3.4-3.2,5.1
		C223.9,213.8,223.3,213.7,222.7,213.6z"/>
	<path class="st1" d="M214.7,226.1c-0.8-4.4,0.6-7.1,3.6-6.9c1.1,0.1,3,1.9,3,2.9C221.4,226.5,218.3,226.7,214.7,226.1z"/>
	<path class="st1" d="M212.5,209.2c0.7,1.1,2.2,2.7,1.8,3.4c-1,1.8-2.6,3.3-4,4.9c-1-1.1-2.9-2.4-2.7-3.2c0.5-1.9,2-3.5,3.1-5.3
		C211.3,209.1,211.9,209.1,212.5,209.2z"/>
	<path class="st1" d="M313.2,286.4c-1.9,2.8-8,4.3-13.3,2.5c-7-2.3-14.1-4.5-20.9-7.5c-4.8-2.1-8.5-0.4-12.2,1.8
		c-3,1.8-5.4,4.4-8.4,6.2c-5.1,3-10.2,6.3-15.7,8.1c-4.9,1.6-9.1-1.3-12.5-5.3c-3.3-4-6.6-8.1-10.5-11.6c-1.5-1.3-4.9-1.8-6.8-1
		c-4.8,1.9-9.2,4.8-13.8,7.3c-5.9,3.2-11.6,6.8-17.7,9.4c-4.9,2.1-9.5,0.1-12.7-4.2c-2-2.7-4.1-5.4-5.8-8.2
		c-3.8-6.2-11-7.6-18.3-4.4c-6.6,2.8-13.3,6.4-20.9,3.9c-1.6-0.5-2.8-2.1-3.8-4c10,2.4,18.3-1.7,26.8-5.1c8.1-3.2,15.4,0.7,20.8,10
		c5.4,9.4,10.8,11,20.1,5.5c6.4-3.8,12.3-8.3,18.7-12c9.8-5.7,16.6-2.2,22.2,6c1,1.4,2,2.8,3.1,4.2c4.2,5.7,9.1,7.4,15.1,4
		c6.7-3.8,12.8-8.4,19-13.1c4.2-3.2,8.5-4.4,13.4-2.6c7.6,2.8,15.2,5.9,22.9,8.4C305.6,285.8,309.5,285.9,313.2,286.4z"/>
	<path class="st1" d="M322.8,284.9c1-0.8,2-2.1,3.1-2.2c2.3-0.3,5-0.7,6.9,0.2c8.4,4.2,17,2.2,24.5-0.8c10.7-4.3,19,0.7,25.3,8.8
		c2.1,2.7,4.2,5.3,6.5,7.6c4,4,10.1,4.6,14.7,1.3c3.2-2.3,6.6-4.6,9-7.6c4.8-6,11.3-6.1,17.8-5.5c5.2,0.5,9-1.1,12.4-4.8
		c4.8-5.2,7.6-11.4,9.3-18.1c1.3-5.2,4-9.4,9.1-10.9c5.8-1.7,10.9-4.1,14.4-10.2c0.2,7.4-3.8,10.7-9.1,12.1
		c-6.7,1.8-10.1,5.6-11.8,12.4c-1.3,5.3-3.7,10.5-6.6,15c-4.6,7-12.1,9.3-20,7.9c-6.1-1.1-10,1.2-13.8,5.2c-2.7,2.9-5.6,5.6-8.7,8
		c-5.9,4.5-13.5,3.9-18.5-1.4c-3.3-3.5-6.3-7.3-9.4-11c-5.5-6.6-10.5-7.7-18.7-5.1c-8.4,2.6-16.9,4.8-25.9,1.5
		c-3.1-1.2-6.8-0.9-10.1-1.4C323,285.7,322.9,285.3,322.8,284.9z"/>
	<path class="st1" d="M234.5,517.2c1.2,12.2,1.2,12.2-11.2,12.5c-7.3,0.2-14.6,0.6-21.9,0.9c-0.7,0-2,0-2-0.1
		c-0.3-3.7-0.8-7.4-0.5-11.1c0.1-0.9,2.8-2.1,4.3-2.1C213.5,517.1,223.9,517.2,234.5,517.2z"/>
	<path class="st1" d="M374.4,515.3c-0.6,4.6-0.8,7.8-1.6,10.8c-0.2,1.1-1.7,2.6-2.6,2.7c-10.8,0.2-21.5,0.1-32.9,0.1
		c0.4-3.8,0.7-7.6,1.2-11.9C350.5,516.5,362.3,515.9,374.4,515.3z"/>
	<path class="st1" d="M175.6,519.7c-8.7-6.1-16.9-11.6-24.8-17.4c-1-0.8-1.3-3.1-1.3-4.7c0.1-3,0.8-6,1.3-9.7
		c1.3,0.7,2.6,1.2,3.7,1.9c7,4.7,13.9,9.6,20.9,14.3c2.3,1.6,3.5,3.1,2.4,6.1C176.8,512.9,176.4,516,175.6,519.7z"/>
	<path class="st1" d="M169.2,217.2c-0.9,5-1.9,11.4-3.1,17.8c-0.7,3.9-2.4,7.7-6.8,8c-4.5,0.4-7.8-2.8-9.3-6.7
		c-1.9-5.1-3.7-10.6-4-15.9c-0.6-10.1-1-20.4,2.5-30.3c2.5-7,8.6-8.4,12.6-2.3c3.2,4.8,5,10.6,6.6,16.2
		C168.9,207.7,168.7,211.8,169.2,217.2z M167.5,218.6c-0.6-11.6-1.3-20.2-6.4-27.5c-1.6-2.2-4.6-3.5-6.9-5.2
		c-1.6,2.5-4.1,4.7-4.6,7.4c-2.3,12.5-3.2,25.1,0.2,37.5c0.8,2.8,2.4,5.7,4.4,7.9c3.7,4.1,7.6,3.4,9.2-1.9
		C165.4,230,166.6,222.8,167.5,218.6z"/>
	<path class="st1" d="M279.2,216.7c-0.3,6.3-0.2,13.7-5.9,19.4c-4.7,4.7-9.3,4.9-14,0.2c-6.6-6.5-8.6-15-9.3-23.8
		c-0.6-7.7-0.6-15.5,3.9-22.3c4.9-7.5,11.2-8.1,17.1-1.4C277.6,196.5,279.2,205.9,279.2,216.7z M252.4,207.3
		c0.5,8.1,1.2,16,5.9,22.7c1.8,2.6,5.3,5.5,8,5.5c2.4,0,6-3.4,7.1-6c4.8-12.5,3.7-25-3.3-36.5c-4.2-6.9-11.8-6.2-14.9,1.3
		C253.5,198.3,253.3,202.9,252.4,207.3z"/>
	<path class="st1" d="M341.1,212.1c-0.9,7-1.2,14.3-6.4,20.2c-5.1,5.9-10.5,3.9-14.4,0.1c-5-4.9-7.6-11.3-8.1-18
		c-0.5-7.3,0-14.8,0.7-22.1c0.3-2.7,2-5.5,3.6-7.8c3.6-4.9,9.2-5.3,13.7-1.3c6.2,5.4,8.4,12.8,9.8,20.4
		C340.6,206.4,340.8,209.2,341.1,212.1z M338.4,212.2c-0.4-9-2.6-17-7.9-24c-4.1-5.4-8.8-5.2-12.7,0.4c-1,1.5-2,3.4-2.2,5.1
		c-0.6,4.9-1.5,10-0.8,14.7c1,6.3,3.1,12.6,5.4,18.6c1.2,3.1,4.6,5.6,8.1,4.4c2.5-0.9,5.2-3.3,6.3-5.7
		C336.6,221.6,337.3,216.8,338.4,212.2z"/>
	<path class="st1" d="M270.2,213c-0.3,3.1-0.1,5.1-0.8,6.8c-0.7,1.6-2.2,3.7-3.5,3.8c-1.6,0.1-4.1-1.2-5-2.6
		c-2.9-4.6-3.5-9.8-2.1-15c0.4-1.6,2.5-3.9,3.9-3.9c1.7-0.1,4.3,1.4,5.1,3C269.3,207.8,269.7,211,270.2,213z"/>
	<path class="st1" d="M332,211.4c-0.7,4-0.9,8.1-5.3,9.5c-2.8,0.9-5.9-2.8-6.7-8.2c-0.5-3.2-0.5-6.6,0.1-9.7
		c0.3-1.5,2.4-3.7,3.8-3.7c1.8-0.1,4.4,1.3,5.2,2.8C330.6,204.9,331.1,208.3,332,211.4z"/>
</g>
</svg>
