<?xml version="1.0" encoding="utf-8"?>
<!-- Generator: Adobe Illustrator 22.0.1, SVG Export Plug-In . SVG Version: 6.00 Build 0)  -->
<svg version="1.1" id="图层_1" xmlns="http://www.w3.org/2000/svg" xmlns:xlink="http://www.w3.org/1999/xlink" x="0px" y="0px"
	 viewBox="0 0 600 600" style="enable-background:new 0 0 600 600;" xml:space="preserve">
<style type="text/css">
	.st0{fill:#808080;}
	.st1{fill:#F2F2F2;}
	.st2{fill:#39B54A;}
</style>
<rect class="st0" width="600" height="600"/>
<rect x="245" y="243" class="st1" width="111" height="111"/>
<g>
	<path d="M72.8,125.4c-12.3,0-24.6,0.2-37-0.1c-9-0.2-14.2-5.1-15.4-14.1c-0.3-2.1-0.4-4.2-0.4-6.2c0-21.5-0.1-43,0-64.5
		c0-3.1,0.4-6.3,1.1-9.3c1.4-6,5.7-9.3,11.5-10.5c2.4-0.5,5-0.7,7.5-0.7C62,20,83.8,20,105.6,20c2.6,0,5.2,0.2,7.8,0.7
		c7.1,1.4,11.8,7,11.9,14.5c0.2,14.4,0.2,28.8,0.2,43.2c0,10.5,0,21.1-0.2,31.6c-0.2,9.1-6.1,15.1-15.2,15.2
		C97.7,125.6,85.2,125.4,72.8,125.4z M73.1,113.5c10.8,0,21.5,0,32.3,0c6.4,0,8.1-1.7,8.1-7.9c0-21.7,0-43.5,0-65.2
		c0-5.9-1.8-7.8-7.9-7.8c-21.7,0-43.4,0-65.2,0c-5.7,0-7.8,2.1-7.8,7.7c-0.1,21.9-0.1,43.9,0,65.8c0,5.6,2,7.4,7.6,7.4
		C51.2,113.5,62.1,113.5,73.1,113.5z"/>
	<path d="M527.3,125.4c-12.3,0-24.6,0.2-37-0.1c-9-0.2-14.2-5.1-15.4-14c-0.3-2.1-0.5-4.2-0.5-6.2c0-21.5-0.1-43,0-64.5
		c0-3.1,0.4-6.3,1.1-9.3c1.4-6,5.6-9.3,11.5-10.5c2.4-0.5,5-0.7,7.5-0.7c21.8-0.1,43.6-0.1,65.5,0c2.6,0,5.2,0.2,7.8,0.7
		c7.1,1.4,11.8,6.9,12,14.4c0.3,13.2,0.2,26.3,0.2,39.5c0,11.7,0.1,23.4-0.2,35.1c-0.2,9.6-6,15.4-15.5,15.6
		C552,125.6,539.6,125.4,527.3,125.4z M567.9,73.1c0-10.9,0-21.7,0-32.6c0-6.2-1.8-8-8-8c-21.5,0-43,0-64.5,0c-6.2,0-8.3,2-8.3,8.2
		c0,21.6,0,43.2,0,64.9c0,6,1.9,7.9,7.8,7.9c21.7,0,43.4,0,65.2,0c6.2,0,7.9-1.7,7.9-8.1C567.9,94.6,567.9,83.9,567.9,73.1z"/>
	<path d="M73,579.9c-12.4,0-24.8,0.2-37.3-0.1c-8.8-0.2-14-5.1-15.2-13.9c-0.3-2.2-0.5-4.4-0.5-6.5c0-21.4,0-42.8,0-64.2
		c0-2.6,0.2-5.2,0.7-7.8c1-6.4,5.7-11.1,12.2-12.2c2.5-0.4,5-0.6,7.5-0.6c21.7,0,43.4-0.1,65.1,0c2.6,0,5.2,0.2,7.8,0.7
		c7,1.3,11.5,6.8,12.1,14c0.1,1.1,0.2,2.3,0.2,3.4c0,23.9,0,47.8-0.2,71.7c-0.1,9.3-6.1,15.2-15.4,15.4
		C97.6,580.1,85.3,579.9,73,579.9z M113.4,527.7c0-10.9,0-21.7,0-32.6c0-6.2-1.8-8-8-8c-21.6,0-43.2,0-64.9,0c-5.8,0-8,2.1-8,7.8
		c0,21.8-0.1,43.7,0,65.5c0,5.8,2,7.6,7.8,7.6c21.8,0,43.7,0,65.5,0c5.8,0,7.6-1.8,7.6-7.7C113.5,549.4,113.4,538.5,113.4,527.7z"/>
	<path d="M235.3,401.9c2.8,0,5.5,0,8.3,0c0,2.9,0,5.6,0,8.5c-2.8,0-5.4,0-8.3,0C235.3,407.7,235.3,405,235.3,401.9z"/>
	<path d="M416.8,441.1c0-2.9,0-5.5,0-8.3c2.8,0,5.5,0,8.5,0c0,2.7,0,5.4,0,8.3C422.6,441.1,419.8,441.1,416.8,441.1z"/>
	<path d="M258.7,402.1c0,2.8,0,5.5,0,8.4c-2.9,0-5.6,0-8.5,0c0-2.8,0-5.5,0-8.4C252.9,402.1,255.7,402.1,258.7,402.1z"/>
	<path d="M274.4,402c0,2.8,0,5.5,0,8.4c-2.8,0-5.5,0-8.4,0c0-2.7,0-5.5,0-8.4C268.7,402,271.3,402,274.4,402z"/>
	<path d="M289.5,402c0,2.9,0,5.5,0,8.3c-2.8,0-5.5,0-8.5,0c0-2.6,0-5.4,0-8.3C283.7,402,286.5,402,289.5,402z"/>
	<path d="M349.6,402.1c0,2.9,0,5.4,0,8.3c-2.8,0-5.5,0-8.5,0c0-2.7,0-5.4,0-8.3C344,402.1,346.8,402.1,349.6,402.1z"/>
	<path d="M371.7,410.3c0-2.9,0-5.4,0-8.3c2.8,0,5.5,0,8.5,0c0,2.7,0,5.4,0,8.3C377.4,410.3,374.5,410.3,371.7,410.3z"/>
	<path d="M410.4,402.1c0,2.8,0,5.5,0,8.3c-2.8,0-5.6,0-8.5,0c0-2.7,0-5.4,0-8.3C404.6,402.1,407.3,402.1,410.4,402.1z"/>
	<path d="M432.5,410.4c0-2.9,0-5.5,0-8.3c2.8,0,5.5,0,8.5,0c0,2.6,0,5.4,0,8.3C438.3,410.4,435.5,410.4,432.5,410.4z"/>
	<path d="M447.7,402c2.9,0,5.6,0,8.4,0c0,2.8,0,5.5,0,8.4c-2.7,0-5.4,0-8.4,0C447.7,407.7,447.7,404.9,447.7,402z"/>
	<path d="M486.2,410.5c-2.9,0-5.5,0-8.4,0c0-2.8,0-5.5,0-8.5c2.8,0,5.5,0,8.4,0C486.2,404.8,486.2,407.4,486.2,410.5z"/>
	<path d="M553.6,410.4c0-2.9,0-5.6,0-8.4c2.8,0,5.5,0,8.4,0c0,2.7,0,5.5,0,8.4C559.3,410.4,556.5,410.4,553.6,410.4z"/>
	<path d="M31.9,417c0,2.9,0,5.5,0,8.3c-2.8,0-5.5,0-8.5,0c0-2.7,0-5.4,0-8.3C26.1,417,28.9,417,31.9,417z"/>
	<path d="M61.8,425.5c-2.9,0-5.6,0-8.4,0c0-2.8,0-5.5,0-8.4c2.7,0,5.4,0,8.4,0C61.8,419.8,61.8,422.5,61.8,425.5z"/>
	<path d="M68.4,425.4c0-2.8,0-5.5,0-8.3c2.9,0,5.6,0,8.5,0c0,2.8,0,5.4,0,8.3C74.2,425.4,71.5,425.4,68.4,425.4z"/>
	<path d="M92,417.1c0,2.8,0,5.5,0,8.3c-2.8,0-5.6,0-8.5,0c0-2.7,0-5.4,0-8.3C86.1,417.1,88.9,417.1,92,417.1z"/>
	<path d="M98.5,425.4c0-2.8,0-5.5,0-8.3c2.8,0,5.6,0,8.5,0c0,2.7,0,5.4,0,8.3C104.3,425.4,101.6,425.4,98.5,425.4z"/>
	<path d="M486.2,441.2c-2.8,0-5.5,0-8.4,0c0-2.8,0-5.5,0-8.4c2.7,0,5.5,0,8.4,0C486.2,435.5,486.2,438.1,486.2,441.2z"/>
	<path d="M365.2,386.9c0,2.8,0,5.5,0,8.4c-2.8,0-5.5,0-8.4,0c0-2.7,0-5.5,0-8.4C359.5,386.9,362.2,386.9,365.2,386.9z"/>
	<path d="M387,386.8c2.9,0,5.4,0,8.3,0c0,2.8,0,5.5,0,8.5c-2.7,0-5.4,0-8.3,0C387,392.5,387,389.7,387,386.8z"/>
	<path d="M401.9,386.9c2.8,0,5.5,0,8.4,0c0,2.8,0,5.5,0,8.4c-2.7,0-5.5,0-8.4,0C401.9,392.6,401.9,389.9,401.9,386.9z"/>
	<path d="M432.5,395.4c0-2.9,0-5.5,0-8.3c2.8,0,5.5,0,8.5,0c0,2.7,0,5.4,0,8.3C438.3,395.4,435.5,395.4,432.5,395.4z"/>
	<path d="M462.7,395.4c0-2.8,0-5.5,0-8.4c2.7,0,5.5,0,8.4,0c0,2.7,0,5.5,0,8.4C468.4,395.4,465.7,395.4,462.7,395.4z"/>
	<path d="M477.7,395.3c0-2.8,0-5.5,0-8.3c2.8,0,5.6,0,8.5,0c0,2.7,0,5.4,0,8.3C483.5,395.3,480.8,395.3,477.7,395.3z"/>
	<path d="M516.9,395.4c-2.9,0-5.6,0-8.4,0c0-2.8,0-5.5,0-8.4c2.7,0,5.5,0,8.4,0C516.9,389.7,516.9,392.4,516.9,395.4z"/>
	<path d="M531.9,395.4c-2.8,0-5.5,0-8.4,0c0-2.7,0-5.5,0-8.4c2.7,0,5.5,0,8.4,0C531.9,389.7,531.9,392.4,531.9,395.4z"/>
	<path d="M562,395.4c-2.8,0-5.5,0-8.4,0c0-2.8,0-5.5,0-8.4c2.7,0,5.5,0,8.4,0C562,389.7,562,392.4,562,395.4z"/>
	<path d="M568.6,395.3c0-2.9,0-5.5,0-8.4c2.8,0,5.5,0,8.4,0c0,2.7,0,5.4,0,8.4C574.3,395.3,571.6,395.3,568.6,395.3z"/>
	<path d="M83.5,410.4c0-2.9,0-5.6,0-8.4c2.8,0,5.5,0,8.4,0c0,2.7,0,5.5,0,8.4C89.2,410.4,86.4,410.4,83.5,410.4z"/>
	<path d="M129.2,410.4c0-2.8,0-5.5,0-8.4c2.8,0,5.5,0,8.4,0c0,2.7,0,5.5,0,8.4C134.9,410.4,132.2,410.4,129.2,410.4z"/>
	<path d="M144.4,401.9c2.8,0,5.5,0,8.3,0c0,2.9,0,5.6,0,8.5c-2.8,0-5.4,0-8.3,0C144.4,407.7,144.4,405,144.4,401.9z"/>
	<path d="M167.8,402c0,2.8,0,5.5,0,8.4c-2.8,0-5.5,0-8.4,0c0-2.7,0-5.5,0-8.4C162.1,402,164.8,402,167.8,402z"/>
	<path d="M182.8,410.5c-2.9,0-5.5,0-8.3,0c0-2.8,0-5.5,0-8.5c2.7,0,5.4,0,8.3,0C182.8,404.8,182.8,407.5,182.8,410.5z"/>
	<path d="M205.1,402c2.9,0,5.6,0,8.4,0c0,2.8,0,5.5,0,8.4c-2.7,0-5.5,0-8.4,0C205.1,407.7,205.1,404.9,205.1,402z"/>
	<path d="M562,425.5c-2.9,0-5.5,0-8.4,0c0-2.8,0-5.5,0-8.4c2.7,0,5.4,0,8.4,0C562,419.8,562,422.5,562,425.5z"/>
	<path d="M568.5,425.5c0-2.9,0-5.5,0-8.3c2.8,0,5.5,0,8.5,0c0,2.7,0,5.4,0,8.3C574.3,425.5,571.5,425.5,568.5,425.5z"/>
	<path d="M38.4,432.6c2.9,0,5.5,0,8.3,0c0,2.8,0,5.5,0,8.5c-2.6,0-5.4,0-8.3,0C38.4,438.4,38.4,435.6,38.4,432.6z"/>
	<path d="M53.5,432.6c2.9,0,5.4,0,8.3,0c0,2.8,0,5.5,0,8.5c-2.7,0-5.4,0-8.3,0C53.5,438.3,53.5,435.4,53.5,432.6z"/>
	<path d="M83.4,441.1c0-2.9,0-5.5,0-8.3c2.8,0,5.5,0,8.5,0c0,2.7,0,5.4,0,8.3C89.1,441.1,86.4,441.1,83.4,441.1z"/>
	<path d="M98.5,432.7c2.9,0,5.5,0,8.4,0c0,2.8,0,5.5,0,8.5c-2.8,0-5.5,0-8.4,0C98.5,438.4,98.5,435.7,98.5,432.7z"/>
	<path d="M137.7,441.2c-2.9,0-5.5,0-8.4,0c0-2.8,0-5.5,0-8.5c2.8,0,5.5,0,8.4,0C137.7,435.5,137.7,438.2,137.7,441.2z"/>
	<path d="M152.7,432.7c0,2.8,0,5.5,0,8.4c-2.7,0-5.5,0-8.4,0c0-2.7,0-5.5,0-8.4C147,432.7,149.7,432.7,152.7,432.7z"/>
	<path d="M167.8,441.2c-2.9,0-5.5,0-8.4,0c0-2.8,0-5.5,0-8.5c2.8,0,5.5,0,8.4,0C167.8,435.5,167.8,438.2,167.8,441.2z"/>
	<path d="M182.8,441.2c-2.8,0-5.5,0-8.4,0c0-2.8,0-5.5,0-8.4c2.7,0,5.5,0,8.4,0C182.8,435.5,182.8,438.1,182.8,441.2z"/>
	<path d="M326,441.2c0-2.9,0-5.5,0-8.4c2.8,0,5.5,0,8.5,0c0,2.8,0,5.5,0,8.4C331.7,441.2,329,441.2,326,441.2z"/>
	<path d="M289.3,441.2c-2.8,0-5.4,0-8.3,0c0-2.8,0-5.6,0-8.5c2.7,0,5.4,0,8.3,0C289.3,435.4,289.3,438.1,289.3,441.2z"/>
	<path d="M198.5,441.2c-2.9,0-5.5,0-8.3,0c0-2.8,0-5.5,0-8.5c2.7,0,5.4,0,8.3,0C198.5,435.5,198.5,438.3,198.5,441.2z"/>
	<path d="M265.8,441.1c0-2.9,0-5.4,0-8.3c2.8,0,5.5,0,8.5,0c0,2.7,0,5.4,0,8.3C271.4,441.1,268.6,441.1,265.8,441.1z"/>
	<path d="M205.1,432.7c2.8,0,5.5,0,8.4,0c0,2.8,0,5.5,0,8.4c-2.7,0-5.5,0-8.4,0C205.1,438.4,205.1,435.7,205.1,432.7z"/>
	<path d="M228.5,441.2c-2.8,0-5.4,0-8.3,0c0-2.8,0-5.6,0-8.5c2.7,0,5.4,0,8.3,0C228.5,435.4,228.5,438.1,228.5,441.2z"/>
	<path d="M235.2,441.1c0-2.8,0-5.5,0-8.4c2.7,0,5.5,0,8.4,0c0,2.7,0,5.4,0,8.4C240.8,441.1,238,441.1,235.2,441.1z"/>
	<path d="M114.2,425.5c0-2.8,0-5.5,0-8.4c2.8,0,5.5,0,8.4,0c0,2.7,0,5.5,0,8.4C119.9,425.5,117.2,425.5,114.2,425.5z"/>
	<path d="M410.4,432.8c0,2.9,0,5.6,0,8.4c-2.8,0-5.5,0-8.4,0c0-2.7,0-5.4,0-8.4C404.6,432.8,407.4,432.8,410.4,432.8z"/>
	<path d="M167.8,417c0,2.9,0,5.5,0,8.4c-2.8,0-5.5,0-8.5,0c0-2.8,0-5.5,0-8.4C162.1,417,164.8,417,167.8,417z"/>
	<path d="M205.1,417c2.9,0,5.6,0,8.4,0c0,2.8,0,5.5,0,8.4c-2.7,0-5.5,0-8.4,0C205.1,422.7,205.1,420,205.1,417z"/>
	<path d="M243.6,425.5c-2.9,0-5.5,0-8.4,0c0-2.8,0-5.5,0-8.5c2.8,0,5.5,0,8.4,0C243.6,419.8,243.6,422.5,243.6,425.5z"/>
	<path d="M258.8,417.1c0,2.9,0,5.5,0,8.3c-2.8,0-5.5,0-8.5,0c0-2.6,0-5.4,0-8.3C253,417.1,255.7,417.1,258.8,417.1z"/>
	<path d="M289.4,417c0,2.8,0,5.5,0,8.4c-2.7,0-5.5,0-8.4,0c0-2.7,0-5.4,0-8.4C283.8,417,286.5,417,289.4,417z"/>
	<path d="M296.1,417c2.8,0,5.4,0,8.3,0c0,2.8,0,5.6,0,8.5c-2.7,0-5.4,0-8.3,0C296.1,422.8,296.1,420.1,296.1,417z"/>
	<path d="M319.4,425.5c-2.9,0-5.5,0-8.4,0c0-2.8,0-5.5,0-8.4c2.7,0,5.4,0,8.4,0C319.4,419.8,319.4,422.5,319.4,425.5z"/>
	<path d="M334.5,417c0,2.8,0,5.5,0,8.4c-2.7,0-5.5,0-8.4,0c0-2.7,0-5.5,0-8.4C328.8,417,331.5,417,334.5,417z"/>
	<path d="M349.5,425.5c-2.9,0-5.5,0-8.4,0c0-2.8,0-5.5,0-8.4c2.7,0,5.4,0,8.4,0C349.5,419.8,349.5,422.5,349.5,425.5z"/>
	<path d="M356.7,425.4c0-2.9,0-5.6,0-8.4c2.8,0,5.5,0,8.4,0c0,2.7,0,5.4,0,8.4C362.5,425.4,359.7,425.4,356.7,425.4z"/>
	<path d="M477.8,417c2.9,0,5.6,0,8.4,0c0,2.8,0,5.5,0,8.4c-2.7,0-5.4,0-8.4,0C477.8,422.7,477.8,420,477.8,417z"/>
	<path d="M501.3,417c0,2.9,0,5.5,0,8.4c-2.8,0-5.5,0-8.5,0c0-2.8,0-5.5,0-8.4C495.6,417,498.3,417,501.3,417z"/>
	<path d="M386.9,432.7c2.8,0,5.5,0,8.4,0c0,2.7,0,5.5,0,8.4c-2.7,0-5.4,0-8.4,0C386.9,438.3,386.9,435.6,386.9,432.7z"/>
	<path d="M365.2,432.7c0,2.8,0,5.5,0,8.4c-2.7,0-5.5,0-8.4,0c0-2.7,0-5.4,0-8.4C359.6,432.7,362.3,432.7,365.2,432.7z"/>
	<path d="M517,417.1c0,2.9,0,5.5,0,8.3c-2.8,0-5.5,0-8.5,0c0-2.6,0-5.4,0-8.3C511.2,417.1,514,417.1,517,417.1z"/>
	<path d="M547,417c0,2.8,0,5.5,0,8.4c-2.7,0-5.5,0-8.4,0c0-2.7,0-5.4,0-8.4C541.4,417,544.1,417,547,417z"/>
	<path d="M190,349.6c0-2.9,0-5.5,0-8.4c2.8,0,5.5,0,8.5,0c0,2.8,0,5.5,0,8.4C195.7,349.6,193,349.6,190,349.6z"/>
	<path d="M213.5,341.2c0,2.8,0,5.5,0,8.4c-2.7,0-5.5,0-8.4,0c0-2.7,0-5.4,0-8.4C207.9,341.2,210.7,341.2,213.5,341.2z"/>
	<path d="M228.6,349.6c-2.8,0-5.5,0-8.4,0c0-2.7,0-5.5,0-8.4c2.7,0,5.4,0,8.4,0C228.6,343.9,228.6,346.6,228.6,349.6z"/>
	<path d="M380.4,341.2c0,2.9,0,5.5,0,8.3c-2.8,0-5.5,0-8.5,0c0-2.7,0-5.4,0-8.3C374.6,341.2,377.4,341.2,380.4,341.2z"/>
	<path d="M416.8,349.5c0-2.9,0-5.4,0-8.3c2.8,0,5.5,0,8.5,0c0,2.7,0,5.4,0,8.3C422.5,349.5,419.7,349.5,416.8,349.5z"/>
	<path d="M462.6,349.5c0-2.9,0-5.4,0-8.3c2.8,0,5.5,0,8.5,0c0,2.7,0,5.4,0,8.3C468.3,349.5,465.4,349.5,462.6,349.5z"/>
	<path d="M477.6,349.6c0-2.9,0-5.5,0-8.3c2.8,0,5.5,0,8.5,0c0,2.7,0,5.4,0,8.3C483.4,349.6,480.6,349.6,477.6,349.6z"/>
	<path d="M523.5,349.6c0-2.8,0-5.5,0-8.4c2.7,0,5.5,0,8.4,0c0,2.7,0,5.4,0,8.4C529.1,349.6,526.4,349.6,523.5,349.6z"/>
	<path d="M547,349.7c-2.9,0-5.5,0-8.3,0c0-2.8,0-5.5,0-8.5c2.6,0,5.4,0,8.3,0C547,344,547,346.7,547,349.7z"/>
	<path d="M568.6,349.6c0-2.8,0-5.5,0-8.4c2.8,0,5.5,0,8.4,0c0,2.7,0,5.5,0,8.4C574.3,349.6,571.6,349.6,568.6,349.6z"/>
	<path d="M23.4,356.8c2.8,0,5.4,0,8.3,0c0,2.8,0,5.6,0,8.5c-2.7,0-5.4,0-8.3,0C23.4,362.6,23.4,359.9,23.4,356.8z"/>
	<path d="M61.8,365.3c-2.8,0-5.5,0-8.4,0c0-2.8,0-5.5,0-8.4c2.7,0,5.5,0,8.4,0C61.8,359.6,61.8,362.3,61.8,365.3z"/>
	<path d="M77,356.9c0,2.9,0,5.5,0,8.3c-2.8,0-5.5,0-8.5,0c0-2.7,0-5.4,0-8.3C71.3,356.9,74,356.9,77,356.9z"/>
	<path d="M98.4,365.3c0-2.9,0-5.5,0-8.3c2.8,0,5.5,0,8.5,0c0,2.6,0,5.4,0,8.3C104.2,365.3,101.4,365.3,98.4,365.3z"/>
	<path d="M114.1,365.2c0-2.9,0-5.4,0-8.3c2.8,0,5.5,0,8.5,0c0,2.7,0,5.4,0,8.3C119.7,365.2,116.9,365.2,114.1,365.2z"/>
	<path d="M159.3,365.2c0-2.8,0-5.5,0-8.3c2.9,0,5.6,0,8.5,0c0,2.8,0,5.4,0,8.3C165.1,365.2,162.3,365.2,159.3,365.2z"/>
	<path d="M182.8,365.3c-2.8,0-5.5,0-8.4,0c0-2.7,0-5.5,0-8.4c2.7,0,5.4,0,8.4,0C182.8,359.7,182.8,362.4,182.8,365.3z"/>
	<path d="M198.5,356.9c0,2.8,0,5.5,0,8.3c-2.8,0-5.6,0-8.5,0c0-2.7,0-5.4,0-8.3C192.7,356.9,195.4,356.9,198.5,356.9z"/>
	<path d="M122.6,334.6c-2.8,0-5.5,0-8.4,0c0-2.9,0-5.6,0-8.5c2.8,0,5.5,0,8.4,0C122.6,328.8,122.6,331.6,122.6,334.6z"/>
	<path d="M182.8,334.6c-2.8,0-5.5,0-8.4,0c0-2.7,0-5.5,0-8.4c2.7,0,5.4,0,8.4,0C182.8,328.9,182.8,331.5,182.8,334.6z"/>
	<path d="M198.5,326.2c0,2.8,0,5.5,0,8.4c-2.9,0-5.6,0-8.5,0c0-2.8,0-5.5,0-8.4C192.7,326.2,195.5,326.2,198.5,326.2z"/>
	<path d="M371.8,334.5c0-2.8,0-5.5,0-8.3c2.8,0,5.6,0,8.5,0c0,2.7,0,5.4,0,8.3C377.6,334.5,374.9,334.5,371.8,334.5z"/>
	<path d="M386.9,326.1c2.9,0,5.5,0,8.4,0c0,2.8,0,5.5,0,8.4c-2.7,0-5.4,0-8.4,0C386.9,331.8,386.9,329.1,386.9,326.1z"/>
	<path d="M441.1,326.2c0,2.8,0,5.5,0,8.3c-2.8,0-5.6,0-8.5,0c0-2.7,0-5.4,0-8.3C435.3,326.2,438,326.2,441.1,326.2z"/>
	<path d="M456.2,326.2c0,2.9,0,5.4,0,8.3c-2.8,0-5.5,0-8.5,0c0-2.7,0-5.4,0-8.3C450.6,326.2,453.4,326.2,456.2,326.2z"/>
	<path d="M471.2,326.1c0,2.8,0,5.5,0,8.4c-2.8,0-5.5,0-8.4,0c0-2.7,0-5.5,0-8.4C465.5,326.1,468.1,326.1,471.2,326.1z"/>
	<path d="M477.7,334.6c0-2.8,0-5.5,0-8.4c2.7,0,5.5,0,8.4,0c0,2.7,0,5.5,0,8.4C483.4,334.6,480.8,334.6,477.7,334.6z"/>
	<path d="M501.2,334.6c-2.9,0-5.6,0-8.4,0c0-2.8,0-5.5,0-8.4c2.7,0,5.5,0,8.4,0C501.2,328.9,501.2,331.6,501.2,334.6z"/>
	<path d="M562,334.7c-2.9,0-5.5,0-8.3,0c0-2.8,0-5.5,0-8.5c2.7,0,5.4,0,8.3,0C562,328.9,562,331.7,562,334.7z"/>
	<path d="M31.7,349.6c-2.9,0-5.6,0-8.4,0c0-2.8,0-5.5,0-8.4c2.7,0,5.5,0,8.4,0C31.7,343.9,31.7,346.7,31.7,349.6z"/>
	<path d="M46.7,349.7c-2.8,0-5.5,0-8.3,0c0-2.9,0-5.6,0-8.5c2.8,0,5.4,0,8.3,0C46.7,343.9,46.7,346.6,46.7,349.7z"/>
	<path d="M53.5,341.1c2.9,0,5.5,0,8.4,0c0,2.8,0,5.5,0,8.4c-2.7,0-5.4,0-8.4,0C53.5,346.9,53.5,344.1,53.5,341.1z"/>
	<path d="M83.6,341.1c2.9,0,5.4,0,8.3,0c0,2.8,0,5.5,0,8.5c-2.7,0-5.4,0-8.3,0C83.6,346.7,83.6,343.9,83.6,341.1z"/>
	<path d="M129.3,341.1c2.8,0,5.5,0,8.3,0c0,2.9,0,5.6,0,8.5c-2.8,0-5.4,0-8.3,0C129.3,346.9,129.3,344.2,129.3,341.1z"/>
	<path d="M144.2,349.5c0-2.8,0-5.5,0-8.4c2.9,0,5.6,0,8.5,0c0,2.8,0,5.5,0,8.4C150,349.5,147.3,349.5,144.2,349.5z"/>
	<path d="M167.7,349.6c-2.9,0-5.6,0-8.4,0c0-2.8,0-5.5,0-8.4c2.7,0,5.4,0,8.4,0C167.7,343.9,167.7,346.7,167.7,349.6z"/>
	<path d="M190,380.3c0-2.8,0-5.5,0-8.4c2.8,0,5.5,0,8.4,0c0,2.7,0,5.5,0,8.4C195.7,380.3,193,380.3,190,380.3z"/>
	<path d="M205,380.3c0-2.9,0-5.5,0-8.3c2.8,0,5.5,0,8.5,0c0,2.6,0,5.4,0,8.3C210.7,380.3,208,380.3,205,380.3z"/>
	<path d="M220.2,371.9c2.9,0,5.5,0,8.4,0c0,2.8,0,5.5,0,8.4c-2.7,0-5.4,0-8.4,0C220.2,377.6,220.2,374.9,220.2,371.9z"/>
	<path d="M295.9,380.3c0-2.9,0-5.5,0-8.3c2.8,0,5.5,0,8.5,0c0,2.6,0,5.4,0,8.3C301.6,380.3,298.9,380.3,295.9,380.3z"/>
	<path d="M319.4,380.4c-2.8,0-5.5,0-8.4,0c0-2.7,0-5.5,0-8.4c2.7,0,5.4,0,8.4,0C319.4,374.7,319.4,377.5,319.4,380.4z"/>
	<path d="M401.9,371.9c2.8,0,5.5,0,8.4,0c0,2.8,0,5.5,0,8.4c-2.7,0-5.5,0-8.4,0C401.9,377.6,401.9,374.9,401.9,371.9z"/>
	<path d="M425.4,380.4c-2.8,0-5.5,0-8.4,0c0-2.8,0-5.5,0-8.4c2.7,0,5.5,0,8.4,0C425.4,374.7,425.4,377.3,425.4,380.4z"/>
	<path d="M46.8,395.4c-2.8,0-5.5,0-8.4,0c0-2.7,0-5.5,0-8.4c2.7,0,5.5,0,8.4,0C46.8,389.7,46.8,392.4,46.8,395.4z"/>
	<path d="M61.8,395.5c-2.9,0-5.5,0-8.3,0c0-2.8,0-5.5,0-8.5c2.7,0,5.4,0,8.3,0C61.8,389.7,61.8,392.5,61.8,395.5z"/>
	<path d="M68.3,395.3c0-2.9,0-5.4,0-8.3c2.8,0,5.5,0,8.5,0c0,2.7,0,5.4,0,8.3C74,395.3,71.2,395.3,68.3,395.3z"/>
	<path d="M83.5,395.3c0-2.9,0-5.5,0-8.4c2.8,0,5.5,0,8.4,0c0,2.7,0,5.4,0,8.4C89.2,395.3,86.5,395.3,83.5,395.3z"/>
	<path d="M122.6,395.4c-2.9,0-5.5,0-8.4,0c0-2.8,0-5.5,0-8.4c2.7,0,5.4,0,8.4,0C122.6,389.7,122.6,392.4,122.6,395.4z"/>
	<path d="M167.8,395.5c-2.9,0-5.5,0-8.3,0c0-2.8,0-5.5,0-8.5c2.7,0,5.4,0,8.3,0C167.8,389.7,167.8,392.5,167.8,395.5z"/>
	<path d="M220.1,386.8c2.9,0,5.5,0,8.3,0c0,2.8,0,5.5,0,8.5c-2.7,0-5.4,0-8.3,0C220.1,392.6,220.1,389.8,220.1,386.8z"/>
	<path d="M250.2,395.4c0-2.8,0-5.5,0-8.4c2.7,0,5.5,0,8.4,0c0,2.7,0,5.5,0,8.4C255.9,395.4,253.2,395.4,250.2,395.4z"/>
	<path d="M289.5,387c0,2.9,0,5.5,0,8.3c-2.8,0-5.5,0-8.5,0c0-2.7,0-5.4,0-8.3C283.7,387,286.5,387,289.5,387z"/>
	<path d="M304.4,395.4c-2.9,0-5.5,0-8.4,0c0-2.8,0-5.5,0-8.4c2.7,0,5.4,0,8.4,0C304.4,389.7,304.4,392.4,304.4,395.4z"/>
	<path d="M319.5,395.4c-2.8,0-5.5,0-8.4,0c0-2.8,0-5.5,0-8.4c2.7,0,5.5,0,8.4,0C319.5,389.7,319.5,392.4,319.5,395.4z"/>
	<path d="M213.5,365.3c-2.9,0-5.5,0-8.4,0c0-2.8,0-5.5,0-8.4c2.7,0,5.4,0,8.4,0C213.5,359.6,213.5,362.3,213.5,365.3z"/>
	<path d="M380.3,356.9c0,2.8,0,5.5,0,8.4c-2.7,0-5.5,0-8.4,0c0-2.7,0-5.4,0-8.4C374.6,356.9,377.4,356.9,380.3,356.9z"/>
	<path d="M386.9,356.8c2.8,0,5.4,0,8.3,0c0,2.8,0,5.6,0,8.5c-2.7,0-5.4,0-8.3,0C386.9,362.6,386.9,359.9,386.9,356.8z"/>
	<path d="M401.9,365.2c0-2.8,0-5.5,0-8.3c2.8,0,5.6,0,8.5,0c0,2.7,0,5.4,0,8.3C407.7,365.2,404.9,365.2,401.9,365.2z"/>
	<path d="M447.7,356.8c2.8,0,5.5,0,8.4,0c0,2.7,0,5.5,0,8.4c-2.7,0-5.4,0-8.4,0C447.7,362.5,447.7,359.7,447.7,356.8z"/>
	<path d="M477.7,365.3c0-2.8,0-5.5,0-8.4c2.7,0,5.5,0,8.4,0c0,2.7,0,5.4,0,8.4C483.4,365.3,480.6,365.3,477.7,365.3z"/>
	<path d="M517,356.9c0,2.9,0,5.4,0,8.3c-2.8,0-5.5,0-8.5,0c0-2.7,0-5.4,0-8.3C511.4,356.9,514.2,356.9,517,356.9z"/>
	<path d="M538.4,365.2c0-2.9,0-5.4,0-8.3c2.8,0,5.5,0,8.5,0c0,2.7,0,5.4,0,8.3C544.1,365.2,541.3,365.2,538.4,365.2z"/>
	<path d="M562.1,356.9c0,2.8,0,5.5,0,8.4c-2.9,0-5.6,0-8.5,0c0-2.8,0-5.5,0-8.4C556.3,356.9,559,356.9,562.1,356.9z"/>
	<path d="M568.5,365.2c0-2.9,0-5.4,0-8.3c2.8,0,5.5,0,8.5,0c0,2.7,0,5.4,0,8.3C574.2,365.2,571.4,365.2,568.5,365.2z"/>
	<path d="M23.3,380.3c0-2.8,0-5.5,0-8.4c2.7,0,5.5,0,8.4,0c0,2.7,0,5.4,0,8.4C28.9,380.3,26.2,380.3,23.3,380.3z"/>
	<path d="M38.4,371.9c2.8,0,5.5,0,8.4,0c0,2.7,0,5.5,0,8.4c-2.7,0-5.5,0-8.4,0C38.4,377.6,38.4,374.9,38.4,371.9z"/>
	<path d="M61.8,380.4c-2.8,0-5.5,0-8.4,0c0-2.9,0-5.6,0-8.5c2.8,0,5.5,0,8.4,0C61.8,374.6,61.8,377.3,61.8,380.4z"/>
	<path d="M91.9,371.9c0,2.9,0,5.6,0,8.4c-2.8,0-5.5,0-8.4,0c0-2.7,0-5.5,0-8.4C86.3,371.9,89,371.9,91.9,371.9z"/>
	<path d="M98.5,380.3c0-2.8,0-5.5,0-8.3c2.9,0,5.6,0,8.5,0c0,2.8,0,5.4,0,8.3C104.3,380.3,101.5,380.3,98.5,380.3z"/>
	<path d="M137.8,371.9c0,2.9,0,5.5,0,8.3c-2.8,0-5.5,0-8.5,0c0-2.7,0-5.4,0-8.3C132.1,371.9,134.8,371.9,137.8,371.9z"/>
	<path d="M152.8,371.9c0,2.9,0,5.6,0,8.4c-2.8,0-5.5,0-8.4,0c0-2.7,0-5.4,0-8.4C147,371.9,149.8,371.9,152.8,371.9z"/>
	<path d="M174.4,371.9c2.9,0,5.6,0,8.4,0c0,2.8,0,5.5,0,8.4c-2.7,0-5.5,0-8.4,0C174.4,377.6,174.4,374.8,174.4,371.9z"/>
	<path d="M280.9,523.5c2.9,0,5.5,0,8.3,0c0,2.8,0,5.5,0,8.5c-2.7,0-5.4,0-8.3,0C280.9,529.2,280.9,526.5,280.9,523.5z"/>
	<path d="M304.4,532.1c-2.9,0-5.6,0-8.4,0c0-2.8,0-5.5,0-8.4c2.7,0,5.4,0,8.4,0C304.4,526.4,304.4,529.1,304.4,532.1z"/>
	<path d="M319.4,532.2c-2.9,0-5.5,0-8.3,0c0-2.8,0-5.5,0-8.5c2.6,0,5.4,0,8.3,0C319.4,526.4,319.4,529.1,319.4,532.2z"/>
	<path d="M326,523.6c2.9,0,5.5,0,8.4,0c0,2.8,0,5.5,0,8.5c-2.8,0-5.5,0-8.4,0C326,529.3,326,526.6,326,523.6z"/>
	<path d="M349.6,523.7c0,2.9,0,5.5,0,8.4c-2.8,0-5.5,0-8.4,0c0-2.7,0-5.4,0-8.4C343.8,523.7,346.6,523.7,349.6,523.7z"/>
	<path d="M386.8,532c0-2.9,0-5.5,0-8.3c2.8,0,5.5,0,8.5,0c0,2.7,0,5.4,0,8.3C392.5,532,389.8,532,386.8,532z"/>
	<path d="M410.3,532.1c-2.8,0-5.5,0-8.4,0c0-2.7,0-5.5,0-8.4c2.7,0,5.4,0,8.4,0C410.3,526.4,410.3,529.2,410.3,532.1z"/>
	<path d="M432.6,532.1c0-2.9,0-5.5,0-8.4c2.8,0,5.5,0,8.5,0c0,2.8,0,5.5,0,8.4C438.3,532.1,435.6,532.1,432.6,532.1z"/>
	<path d="M462.6,532c0-2.9,0-5.5,0-8.3c2.8,0,5.5,0,8.5,0c0,2.6,0,5.4,0,8.3C468.4,532,465.6,532,462.6,532z"/>
	<path d="M501.3,523.7c0,2.9,0,5.6,0,8.4c-2.8,0-5.5,0-8.4,0c0-2.7,0-5.4,0-8.4C495.5,523.7,498.3,523.7,501.3,523.7z"/>
	<path d="M531.9,532.1c-2.8,0-5.5,0-8.4,0c0-2.7,0-5.5,0-8.4c2.7,0,5.4,0,8.4,0C531.9,526.4,531.9,529.2,531.9,532.1z"/>
	<path d="M553.6,532c0-2.9,0-5.6,0-8.4c2.8,0,5.5,0,8.4,0c0,2.7,0,5.4,0,8.4C559.3,532,556.5,532,553.6,532z"/>
	<path d="M577.1,532.1c-2.9,0-5.5,0-8.4,0c0-2.8,0-5.5,0-8.5c2.8,0,5.5,0,8.4,0C577.1,526.4,577.1,529.1,577.1,532.1z"/>
	<path d="M144.2,547c0-2.9,0-5.4,0-8.3c2.8,0,5.5,0,8.5,0c0,2.7,0,5.4,0,8.3C149.8,547,147,547,144.2,547z"/>
	<path d="M159.3,538.6c2.8,0,5.5,0,8.4,0c0,2.8,0,5.5,0,8.4c-2.7,0-5.5,0-8.4,0C159.3,544.3,159.3,541.7,159.3,538.6z"/>
	<path d="M250.3,538.6c2.9,0,5.5,0,8.4,0c0,2.8,0,5.5,0,8.4c-2.7,0-5.4,0-8.4,0C250.3,544.4,250.3,541.6,250.3,538.6z"/>
	<path d="M319.4,547.2c-2.9,0-5.5,0-8.3,0c0-2.8,0-5.5,0-8.5c2.6,0,5.4,0,8.3,0C319.4,541.4,319.4,544.2,319.4,547.2z"/>
	<path d="M326,547c0-2.8,0-5.5,0-8.4c2.9,0,5.6,0,8.5,0c0,2.8,0,5.5,0,8.4C331.8,547,329.1,547,326,547z"/>
	<path d="M220.1,517c0-2.9,0-5.5,0-8.4c2.8,0,5.5,0,8.5,0c0,2.8,0,5.5,0,8.4C225.8,517,223.1,517,220.1,517z"/>
	<path d="M250.2,508.5c2.8,0,5.5,0,8.4,0c0,2.8,0,5.5,0,8.4c-2.7,0-5.5,0-8.4,0C250.2,514.2,250.2,511.6,250.2,508.5z"/>
	<path d="M280.8,517c0-2.9,0-5.5,0-8.3c2.8,0,5.5,0,8.5,0c0,2.6,0,5.4,0,8.3C286.6,517,283.8,517,280.8,517z"/>
	<path d="M304.5,508.6c0,2.8,0,5.5,0,8.3c-2.9,0-5.6,0-8.5,0c0-2.8,0-5.4,0-8.3C298.7,508.6,301.4,508.6,304.5,508.6z"/>
	<path d="M319.4,517.1c-2.8,0-5.5,0-8.3,0c0-2.9,0-5.6,0-8.5c2.8,0,5.4,0,8.3,0C319.4,511.2,319.4,514,319.4,517.1z"/>
	<path d="M334.5,517c-2.9,0-5.5,0-8.4,0c0-2.8,0-5.5,0-8.5c2.8,0,5.5,0,8.4,0C334.5,511.4,334.5,514,334.5,517z"/>
	<path d="M371.9,508.5c2.9,0,5.6,0,8.4,0c0,2.8,0,5.5,0,8.4c-2.7,0-5.5,0-8.4,0C371.9,514.2,371.9,511.5,371.9,508.5z"/>
	<path d="M386.9,508.5c2.9,0,5.5,0,8.3,0c0,2.8,0,5.5,0,8.5c-2.6,0-5.4,0-8.3,0C386.9,514.2,386.9,511.5,386.9,508.5z"/>
	<path d="M410.3,517c-2.8,0-5.5,0-8.4,0c0-2.7,0-5.5,0-8.4c2.7,0,5.5,0,8.4,0C410.3,511.3,410.3,514,410.3,517z"/>
	<path d="M425.3,517.1c-2.8,0-5.4,0-8.3,0c0-2.8,0-5.6,0-8.5c2.7,0,5.4,0,8.3,0C425.3,511.2,425.3,514,425.3,517.1z"/>
	<path d="M447.6,517c0-2.8,0-5.5,0-8.4c2.8,0,5.5,0,8.4,0c0,2.7,0,5.5,0,8.4C453.3,517,450.7,517,447.6,517z"/>
	<path d="M462.8,508.5c2.8,0,5.4,0,8.3,0c0,2.8,0,5.6,0,8.5c-2.7,0-5.4,0-8.3,0C462.8,514.3,462.8,511.6,462.8,508.5z"/>
	<path d="M486.3,508.7c0,2.9,0,5.4,0,8.3c-2.8,0-5.5,0-8.5,0c0-2.7,0-5.4,0-8.3C480.6,508.7,483.5,508.7,486.3,508.7z"/>
	<path d="M501.2,517c-2.9,0-5.5,0-8.4,0c0-2.8,0-5.5,0-8.4c2.7,0,5.4,0,8.4,0C501.2,511.3,501.2,514,501.2,517z"/>
	<path d="M516.9,508.5c0,2.9,0,5.5,0,8.4c-2.8,0-5.5,0-8.5,0c0-2.8,0-5.5,0-8.4C511.3,508.5,513.9,508.5,516.9,508.5z"/>
	<path d="M523.5,517c0-2.9,0-5.6,0-8.4c2.8,0,5.5,0,8.4,0c0,2.7,0,5.5,0,8.4C529.2,517,526.4,517,523.5,517z"/>
	<path d="M553.6,517c0-2.9,0-5.6,0-8.4c2.8,0,5.5,0,8.4,0c0,2.7,0,5.5,0,8.4C559.3,517,556.5,517,553.6,517z"/>
	<path d="M235.1,532.1c0-2.8,0-5.5,0-8.4c2.8,0,5.5,0,8.4,0c0,2.7,0,5.5,0,8.4C240.8,532.1,238.2,532.1,235.1,532.1z"/>
	<path d="M456.1,553.7c0,2.8,0,5.5,0,8.4c-2.7,0-5.5,0-8.4,0c0-2.7,0-5.5,0-8.4C450.4,553.7,453.1,553.7,456.1,553.7z"/>
	<path d="M562,562.2c-2.8,0-5.5,0-8.3,0c0-2.9,0-5.6,0-8.5c2.8,0,5.4,0,8.3,0C562,556.4,562,559.1,562,562.2z"/>
	<path d="M167.7,577.2c-2.9,0-5.5,0-8.4,0c0-2.8,0-5.5,0-8.4c2.7,0,5.4,0,8.4,0C167.7,571.5,167.7,574.2,167.7,577.2z"/>
	<path d="M189.9,577.2c0-2.9,0-5.5,0-8.3c2.8,0,5.5,0,8.5,0c0,2.6,0,5.4,0,8.3C195.7,577.2,193,577.2,189.9,577.2z"/>
	<path d="M228.6,577.3c-2.9,0-5.5,0-8.3,0c0-2.8,0-5.5,0-8.5c2.7,0,5.4,0,8.3,0C228.6,571.6,228.6,574.3,228.6,577.3z"/>
	<path d="M243.6,568.8c0,2.9,0,5.5,0,8.4c-2.8,0-5.5,0-8.4,0c0-2.7,0-5.4,0-8.4C237.9,568.8,240.6,568.8,243.6,568.8z"/>
	<path d="M258.6,577.3c-2.9,0-5.5,0-8.3,0c0-2.8,0-5.5,0-8.5c2.6,0,5.4,0,8.3,0C258.6,571.5,258.6,574.3,258.6,577.3z"/>
	<path d="M265.9,577.2c0-2.8,0-5.5,0-8.4c2.7,0,5.5,0,8.4,0c0,2.7,0,5.4,0,8.4C271.5,577.2,268.8,577.2,265.9,577.2z"/>
	<path d="M280.9,577.1c0-2.9,0-5.5,0-8.4c2.8,0,5.5,0,8.4,0c0,2.7,0,5.4,0,8.4C286.6,577.1,283.9,577.1,280.9,577.1z"/>
	<path d="M334.5,568.7c0,2.8,0,5.5,0,8.4c-2.8,0-5.5,0-8.4,0c0-2.7,0-5.5,0-8.4C328.8,568.7,331.5,568.7,334.5,568.7z"/>
	<path d="M380.4,568.8c0,2.9,0,5.5,0,8.3c-2.8,0-5.5,0-8.5,0c0-2.7,0-5.4,0-8.3C374.6,568.8,377.4,568.8,380.4,568.8z"/>
	<path d="M386.8,577.2c0-2.9,0-5.5,0-8.3c2.8,0,5.5,0,8.5,0c0,2.7,0,5.4,0,8.3C392.5,577.2,389.8,577.2,386.8,577.2z"/>
	<path d="M447.6,577.1c0-2.9,0-5.5,0-8.4c2.8,0,5.5,0,8.4,0c0,2.7,0,5.4,0,8.4C453.4,577.1,450.6,577.1,447.6,577.1z"/>
	<path d="M477.8,568.7c2.9,0,5.5,0,8.4,0c0,2.8,0,5.5,0,8.4c-2.7,0-5.4,0-8.4,0C477.8,574.5,477.8,571.7,477.8,568.7z"/>
	<path d="M492.8,577.1c0-2.9,0-5.5,0-8.4c2.8,0,5.5,0,8.4,0c0,2.7,0,5.4,0,8.4C498.5,577.1,495.8,577.1,492.8,577.1z"/>
	<path d="M508.5,568.6c2.9,0,5.5,0,8.3,0c0,2.8,0,5.5,0,8.5c-2.6,0-5.4,0-8.3,0C508.5,574.4,508.5,571.7,508.5,568.6z"/>
	<path d="M561.9,577.2c-2.8,0-5.4,0-8.3,0c0-2.8,0-5.6,0-8.5c2.7,0,5.4,0,8.3,0C561.9,571.4,561.9,574.2,561.9,577.2z"/>
	<path d="M568.6,577.2c0-2.8,0-5.5,0-8.4c2.8,0,5.5,0,8.4,0c0,2.7,0,5.5,0,8.4C574.3,577.2,571.6,577.2,568.6,577.2z"/>
	<path d="M356.7,547c0-2.8,0-5.5,0-8.4c2.9,0,5.6,0,8.5,0c0,2.8,0,5.5,0,8.4C362.5,547,359.8,547,356.7,547z"/>
	<path d="M395.3,547.1c-2.8,0-5.5,0-8.4,0c0-2.8,0-5.5,0-8.4c2.7,0,5.5,0,8.4,0C395.3,541.4,395.3,544.1,395.3,547.1z"/>
	<path d="M425.4,538.7c0,2.9,0,5.5,0,8.4c-2.8,0-5.5,0-8.4,0c0-2.7,0-5.4,0-8.4C419.7,538.7,422.4,538.7,425.4,538.7z"/>
	<path d="M462.7,547.1c0-2.8,0-5.5,0-8.4c2.7,0,5.5,0,8.4,0c0,2.7,0,5.5,0,8.4C468.4,547.1,465.7,547.1,462.7,547.1z"/>
	<path d="M492.7,547.1c0-2.9,0-5.5,0-8.3c2.8,0,5.5,0,8.5,0c0,2.6,0,5.4,0,8.3C498.4,547.1,495.7,547.1,492.7,547.1z"/>
	<path d="M508.5,538.6c2.9,0,5.5,0,8.3,0c0,2.8,0,5.5,0,8.5c-2.7,0-5.4,0-8.3,0C508.5,544.3,508.5,541.5,508.5,538.6z"/>
	<path d="M532.1,538.7c0,2.9,0,5.5,0,8.3c-2.8,0-5.5,0-8.5,0c0-2.6,0-5.4,0-8.3C526.3,538.7,529,538.7,532.1,538.7z"/>
	<path d="M568.6,547.1c0-2.9,0-5.5,0-8.4c2.8,0,5.5,0,8.5,0c0,2.8,0,5.5,0,8.4C574.3,547.1,571.6,547.1,568.6,547.1z"/>
	<path d="M198.5,562.2c-2.8,0-5.5,0-8.4,0c0-2.8,0-5.5,0-8.4c2.7,0,5.5,0,8.4,0C198.5,556.5,198.5,559.1,198.5,562.2z"/>
	<path d="M220.2,553.7c2.9,0,5.6,0,8.4,0c0,2.8,0,5.5,0,8.4c-2.7,0-5.4,0-8.4,0C220.2,559.4,220.2,556.7,220.2,553.7z"/>
	<path d="M243.6,562.2c-2.9,0-5.5,0-8.4,0c0-2.8,0-5.5,0-8.5c2.8,0,5.5,0,8.4,0C243.6,556.5,243.6,559.2,243.6,562.2z"/>
	<path d="M250.2,553.7c2.8,0,5.5,0,8.4,0c0,2.7,0,5.5,0,8.4c-2.7,0-5.4,0-8.4,0C250.2,559.4,250.2,556.7,250.2,553.7z"/>
	<path d="M319.5,562.2c-2.8,0-5.5,0-8.4,0c0-2.8,0-5.5,0-8.4c2.7,0,5.5,0,8.4,0C319.5,556.5,319.5,559.1,319.5,562.2z"/>
	<path d="M349.6,553.8c0,2.8,0,5.5,0,8.4c-2.9,0-5.6,0-8.5,0c0-2.8,0-5.5,0-8.4C343.8,553.8,346.5,553.8,349.6,553.8z"/>
	<path d="M356.8,553.7c2.8,0,5.5,0,8.4,0c0,2.7,0,5.5,0,8.4c-2.7,0-5.4,0-8.4,0C356.8,559.3,356.8,556.6,356.8,553.7z"/>
	<path d="M386.8,562.1c0-2.9,0-5.5,0-8.3c2.8,0,5.5,0,8.5,0c0,2.6,0,5.4,0,8.3C392.5,562.1,389.8,562.1,386.8,562.1z"/>
	<path d="M402,553.7c2.8,0,5.5,0,8.4,0c0,2.9,0,5.6,0,8.5c-2.8,0-5.5,0-8.4,0C402,559.4,402,556.7,402,553.7z"/>
	<path d="M432.7,553.6c2.9,0,5.4,0,8.3,0c0,2.8,0,5.5,0,8.5c-2.7,0-5.4,0-8.3,0C432.7,559.2,432.7,556.4,432.7,553.6z"/>
	<path d="M417,447.6c2.9,0,5.4,0,8.3,0c0,2.8,0,5.5,0,8.5c-2.7,0-5.4,0-8.3,0C417,453.3,417,450.5,417,447.6z"/>
	<path d="M447.6,456.2c0-2.8,0-5.5,0-8.4c2.7,0,5.5,0,8.4,0c0,2.7,0,5.4,0,8.4C453.3,456.2,450.5,456.2,447.6,456.2z"/>
	<path d="M471.1,456.2c-2.8,0-5.4,0-8.3,0c0-2.8,0-5.6,0-8.5c2.7,0,5.4,0,8.3,0C471.1,450.4,471.1,453.2,471.1,456.2z"/>
	<path d="M486.1,456.2c-2.8,0-5.4,0-8.3,0c0-2.8,0-5.6,0-8.5c2.7,0,5.4,0,8.3,0C486.1,450.4,486.1,453.2,486.1,456.2z"/>
	<path d="M492.7,456.2c0-2.9,0-5.5,0-8.3c2.8,0,5.5,0,8.5,0c0,2.6,0,5.4,0,8.3C498.4,456.2,495.7,456.2,492.7,456.2z"/>
	<path d="M508.4,456.2c0-2.8,0-5.5,0-8.4c2.7,0,5.5,0,8.4,0c0,2.7,0,5.4,0,8.4C514.1,456.2,511.3,456.2,508.4,456.2z"/>
	<path d="M553.6,447.7c2.8,0,5.5,0,8.4,0c0,2.7,0,5.5,0,8.4c-2.7,0-5.5,0-8.4,0C553.6,453.4,553.6,450.8,553.6,447.7z"/>
	<path d="M152.7,462.8c0,2.8,0,5.5,0,8.4c-2.7,0-5.5,0-8.4,0c0-2.7,0-5.5,0-8.4C147,462.8,149.7,462.8,152.7,462.8z"/>
	<path d="M205.1,462.8c2.9,0,5.5,0,8.4,0c0,2.8,0,5.5,0,8.4c-2.7,0-5.4,0-8.4,0C205.1,468.5,205.1,465.8,205.1,462.8z"/>
	<path d="M220.2,462.8c2.9,0,5.5,0,8.4,0c0,2.8,0,5.5,0,8.4c-2.7,0-5.4,0-8.4,0C220.2,468.5,220.2,465.8,220.2,462.8z"/>
	<path d="M258.6,471.3c-2.8,0-5.5,0-8.4,0c0-2.7,0-5.5,0-8.4c2.7,0,5.4,0,8.4,0C258.6,465.6,258.6,468.4,258.6,471.3z"/>
	<path d="M265.9,471.2c0-2.8,0-5.5,0-8.4c2.7,0,5.5,0,8.4,0c0,2.7,0,5.4,0,8.4C271.5,471.2,268.8,471.2,265.9,471.2z"/>
	<path d="M326.1,462.8c2.8,0,5.5,0,8.4,0c0,2.7,0,5.5,0,8.4c-2.7,0-5.4,0-8.4,0C326.1,468.4,326.1,465.7,326.1,462.8z"/>
	<path d="M371.9,462.7c2.8,0,5.4,0,8.3,0c0,2.8,0,5.6,0,8.5c-2.7,0-5.4,0-8.3,0C371.9,468.6,371.9,465.8,371.9,462.7z"/>
	<path d="M395.4,462.8c0,2.9,0,5.5,0,8.3c-2.8,0-5.5,0-8.5,0c0-2.7,0-5.4,0-8.3C389.7,462.8,392.4,462.8,395.4,462.8z"/>
	<path d="M447.6,471.2c0-2.8,0-5.5,0-8.4c2.7,0,5.5,0,8.4,0c0,2.7,0,5.4,0,8.4C453.3,471.2,450.5,471.2,447.6,471.2z"/>
	<path d="M508.4,471.2c0-2.8,0-5.5,0-8.4c2.8,0,5.5,0,8.4,0c0,2.7,0,5.5,0,8.4C514.1,471.2,511.5,471.2,508.4,471.2z"/>
	<path d="M568.6,471.1c0-2.8,0-5.5,0-8.3c2.8,0,5.6,0,8.5,0c0,2.7,0,5.4,0,8.3C574.4,471.1,571.7,471.1,568.6,471.1z"/>
	<path d="M492.8,441.1c0-2.8,0-5.5,0-8.4c2.7,0,5.5,0,8.4,0c0,2.7,0,5.5,0,8.4C498.5,441.1,495.8,441.1,492.8,441.1z"/>
	<path d="M516.8,441.2c-2.9,0-5.4,0-8.3,0c0-2.8,0-5.5,0-8.5c2.7,0,5.4,0,8.3,0C516.8,435.6,516.8,438.4,516.8,441.2z"/>
	<path d="M577.1,441.2c-2.8,0-5.5,0-8.4,0c0-2.8,0-5.5,0-8.4c2.7,0,5.5,0,8.4,0C577.1,435.5,577.1,438.1,577.1,441.2z"/>
	<path d="M31.7,456.2c-2.9,0-5.6,0-8.4,0c0-2.8,0-5.5,0-8.4c2.7,0,5.4,0,8.4,0C31.7,450.5,31.7,453.2,31.7,456.2z"/>
	<path d="M61.9,447.8c0,2.9,0,5.5,0,8.3c-2.8,0-5.5,0-8.5,0c0-2.6,0-5.4,0-8.3C56.2,447.8,58.9,447.8,61.9,447.8z"/>
	<path d="M76.9,447.8c0,2.9,0,5.6,0,8.4c-2.8,0-5.5,0-8.4,0c0-2.7,0-5.5,0-8.4C71.2,447.8,74,447.8,76.9,447.8z"/>
	<path d="M83.4,456.1c0-2.8,0-5.5,0-8.3c2.9,0,5.6,0,8.5,0c0,2.8,0,5.4,0,8.3C89.2,456.1,86.5,456.1,83.4,456.1z"/>
	<path d="M98.6,447.6c2.9,0,5.4,0,8.3,0c0,2.8,0,5.5,0,8.5c-2.7,0-5.4,0-8.3,0C98.6,453.3,98.6,450.5,98.6,447.6z"/>
	<path d="M122.7,447.8c0,2.9,0,5.4,0,8.3c-2.8,0-5.5,0-8.5,0c0-2.7,0-5.4,0-8.3C117.1,447.8,119.9,447.8,122.7,447.8z"/>
	<path d="M137.6,456.2c-2.9,0-5.6,0-8.4,0c0-2.8,0-5.5,0-8.4c2.7,0,5.4,0,8.4,0C137.6,450.5,137.6,453.2,137.6,456.2z"/>
	<path d="M182.7,456.2c-2.8,0-5.4,0-8.3,0c0-2.8,0-5.6,0-8.5c2.7,0,5.4,0,8.3,0C182.7,450.4,182.7,453.2,182.7,456.2z"/>
	<path d="M274.4,447.8c0,2.9,0,5.6,0,8.4c-2.8,0-5.5,0-8.4,0c0-2.7,0-5.4,0-8.4C268.6,447.8,271.4,447.8,274.4,447.8z"/>
	<path d="M311,447.6c2.9,0,5.5,0,8.3,0c0,2.8,0,5.5,0,8.5c-2.7,0-5.4,0-8.3,0C311,453.4,311,450.6,311,447.6z"/>
	<path d="M334.5,456.2c-2.8,0-5.5,0-8.4,0c0-2.8,0-5.5,0-8.4c2.7,0,5.5,0,8.4,0C334.5,450.5,334.5,453.2,334.5,456.2z"/>
	<path d="M356.7,456.1c0-2.9,0-5.4,0-8.3c2.8,0,5.5,0,8.5,0c0,2.7,0,5.4,0,8.3C362.3,456.1,359.5,456.1,356.7,456.1z"/>
	<path d="M380.4,447.8c0,2.9,0,5.5,0,8.3c-2.8,0-5.5,0-8.5,0c0-2.6,0-5.4,0-8.3C374.6,447.8,377.3,447.8,380.4,447.8z"/>
	<path d="M386.8,456.1c0-2.8,0-5.5,0-8.3c2.8,0,5.6,0,8.5,0c0,2.7,0,5.4,0,8.3C392.6,456.1,389.9,456.1,386.8,456.1z"/>
	<path d="M410.3,456.2c-2.8,0-5.5,0-8.4,0c0-2.9,0-5.6,0-8.5c2.8,0,5.5,0,8.4,0C410.3,450.5,410.3,453.2,410.3,456.2z"/>
	<path d="M182.8,501.4c-2.9,0-5.6,0-8.4,0c0-2.8,0-5.5,0-8.4c2.7,0,5.4,0,8.4,0C182.8,495.6,182.8,498.4,182.8,501.4z"/>
	<path d="M198.6,493c0,2.9,0,5.4,0,8.3c-2.8,0-5.5,0-8.5,0c0-2.7,0-5.4,0-8.3C192.9,493,195.8,493,198.6,493z"/>
	<path d="M213.5,501.4c-2.8,0-5.5,0-8.4,0c0-2.7,0-5.5,0-8.4c2.7,0,5.4,0,8.4,0C213.5,495.6,213.5,498.3,213.5,501.4z"/>
	<path d="M243.6,492.9c0,2.9,0,5.6,0,8.4c-2.8,0-5.5,0-8.4,0c0-2.7,0-5.5,0-8.4C237.9,492.9,240.7,492.9,243.6,492.9z"/>
	<path d="M265.9,501.3c0-2.9,0-5.6,0-8.4c2.8,0,5.5,0,8.4,0c0,2.7,0,5.5,0,8.4C271.6,501.3,268.8,501.3,265.9,501.3z"/>
	<path d="M296,492.8c2.9,0,5.5,0,8.3,0c0,2.8,0,5.5,0,8.5c-2.6,0-5.4,0-8.3,0C296,498.5,296,495.8,296,492.8z"/>
	<path d="M326,501.2c0-2.8,0-5.5,0-8.3c2.8,0,5.6,0,8.5,0c0,2.7,0,5.4,0,8.3C331.8,501.2,329.1,501.2,326,501.2z"/>
	<path d="M380.2,501.3c-2.9,0-5.6,0-8.4,0c0-2.8,0-5.5,0-8.4c2.7,0,5.5,0,8.4,0C380.2,495.7,380.2,498.4,380.2,501.3z"/>
	<path d="M386.8,501.3c0-2.9,0-5.5,0-8.3c2.8,0,5.5,0,8.5,0c0,2.7,0,5.4,0,8.3C392.5,501.3,389.8,501.3,386.8,501.3z"/>
	<path d="M410.4,492.9c0,2.8,0,5.5,0,8.4c-2.7,0-5.5,0-8.4,0c0-2.7,0-5.5,0-8.4C404.7,492.9,407.3,492.9,410.4,492.9z"/>
	<path d="M416.9,501.3c0-2.9,0-5.5,0-8.4c2.8,0,5.5,0,8.5,0c0,2.8,0,5.5,0,8.4C422.6,501.3,419.9,501.3,416.9,501.3z"/>
	<path d="M447.6,492.8c2.9,0,5.5,0,8.4,0c0,2.8,0,5.5,0,8.5c-2.8,0-5.5,0-8.4,0C447.6,498.5,447.6,495.9,447.6,492.8z"/>
	<path d="M508.4,501.2c0-2.8,0-5.5,0-8.3c2.8,0,5.6,0,8.5,0c0,2.7,0,5.4,0,8.3C514.2,501.2,511.5,501.2,508.4,501.2z"/>
	<path d="M562.1,492.9c0,2.9,0,5.5,0,8.4c-2.8,0-5.5,0-8.5,0c0-2.8,0-5.5,0-8.4C556.4,492.9,559.1,492.9,562.1,492.9z"/>
	<path d="M577.1,492.9c0,2.9,0,5.6,0,8.4c-2.8,0-5.5,0-8.4,0c0-2.7,0-5.4,0-8.4C571.4,492.9,574.1,492.9,577.1,492.9z"/>
	<path d="M144.2,517c0-2.9,0-5.5,0-8.3c2.8,0,5.5,0,8.5,0c0,2.6,0,5.4,0,8.3C149.9,517,147.2,517,144.2,517z"/>
	<path d="M174.4,508.5c2.9,0,5.5,0,8.4,0c0,2.8,0,5.5,0,8.4c-2.7,0-5.4,0-8.4,0C174.4,514.3,174.4,511.5,174.4,508.5z"/>
	<path d="M190.1,508.5c2.8,0,5.5,0,8.4,0c0,2.7,0,5.5,0,8.4c-2.7,0-5.4,0-8.4,0C190.1,514.3,190.1,511.6,190.1,508.5z"/>
	<path d="M174.3,486.2c0-2.9,0-5.4,0-8.3c2.8,0,5.5,0,8.5,0c0,2.7,0,5.4,0,8.3C179.9,486.2,177.1,486.2,174.3,486.2z"/>
	<path d="M205,486.2c0-2.8,0-5.5,0-8.4c2.9,0,5.6,0,8.5,0c0,2.8,0,5.5,0,8.4C210.8,486.2,208.1,486.2,205,486.2z"/>
	<path d="M228.6,477.9c0,2.9,0,5.6,0,8.4c-2.8,0-5.5,0-8.4,0c0-2.7,0-5.5,0-8.4C222.9,477.9,225.6,477.9,228.6,477.9z"/>
	<path d="M243.5,486.4c-2.9,0-5.4,0-8.3,0c0-2.8,0-5.5,0-8.5c2.7,0,5.4,0,8.3,0C243.5,480.7,243.5,483.6,243.5,486.4z"/>
	<path d="M250.2,477.8c2.8,0,5.5,0,8.4,0c0,2.7,0,5.5,0,8.4c-2.7,0-5.4,0-8.4,0C250.2,483.5,250.2,480.7,250.2,477.8z"/>
	<path d="M265.9,477.8c2.8,0,5.5,0,8.4,0c0,2.7,0,5.5,0,8.4c-2.7,0-5.4,0-8.4,0C265.9,483.5,265.9,480.9,265.9,477.8z"/>
	<path d="M280.9,486.3c0-2.8,0-5.5,0-8.4c2.7,0,5.5,0,8.4,0c0,2.7,0,5.5,0,8.4C286.6,486.3,284,486.3,280.9,486.3z"/>
	<path d="M319.5,477.9c0,2.9,0,5.6,0,8.4c-2.8,0-5.5,0-8.4,0c0-2.7,0-5.4,0-8.4C313.8,477.9,316.5,477.9,319.5,477.9z"/>
	<path d="M334.5,486.4c-2.9,0-5.5,0-8.3,0c0-2.8,0-5.5,0-8.5c2.7,0,5.4,0,8.3,0C334.5,480.6,334.5,483.4,334.5,486.4z"/>
	<path d="M386.9,477.8c2.8,0,5.4,0,8.3,0c0,2.8,0,5.6,0,8.5c-2.7,0-5.4,0-8.3,0C386.9,483.6,386.9,480.9,386.9,477.8z"/>
	<path d="M447.7,477.8c2.9,0,5.5,0,8.4,0c0,2.8,0,5.5,0,8.4c-2.7,0-5.4,0-8.4,0C447.7,483.6,447.7,480.8,447.7,477.8z"/>
	<path d="M477.8,477.8c2.8,0,5.5,0,8.4,0c0,2.7,0,5.5,0,8.4c-2.7,0-5.4,0-8.4,0C477.8,483.5,477.8,480.7,477.8,477.8z"/>
	<path d="M516.9,486.4c-2.9,0-5.5,0-8.3,0c0-2.8,0-5.5,0-8.5c2.7,0,5.4,0,8.3,0C516.9,480.6,516.9,483.4,516.9,486.4z"/>
	<path d="M538.5,486.2c0-2.9,0-5.6,0-8.4c2.8,0,5.5,0,8.4,0c0,2.7,0,5.5,0,8.4C544.2,486.2,541.5,486.2,538.5,486.2z"/>
	<path d="M562.1,477.9c0,2.9,0,5.5,0,8.3c-2.8,0-5.5,0-8.5,0c0-2.6,0-5.4,0-8.3C556.4,477.9,559.1,477.9,562.1,477.9z"/>
	<path d="M577.1,486.3c-2.8,0-5.5,0-8.4,0c0-2.8,0-5.5,0-8.4c2.7,0,5.5,0,8.4,0C577.1,480.6,577.1,483.3,577.1,486.3z"/>
	<path d="M152.8,492.9c0,2.9,0,5.5,0,8.4c-2.8,0-5.5,0-8.5,0c0-2.8,0-5.5,0-8.4C147.1,492.9,149.7,492.9,152.8,492.9z"/>
	<path d="M167.8,501.4c-2.8,0-5.5,0-8.4,0c0-2.8,0-5.5,0-8.4c2.7,0,5.5,0,8.4,0C167.8,495.7,167.8,498.3,167.8,501.4z"/>
	<path d="M334.5,152.8c-2.9,0-5.5,0-8.4,0c0-2.8,0-5.5,0-8.5c2.8,0,5.5,0,8.4,0C334.5,147.1,334.5,149.8,334.5,152.8z"/>
	<path d="M356.7,152.7c0-2.8,0-5.5,0-8.3c2.8,0,5.6,0,8.5,0c0,2.7,0,5.4,0,8.3C362.6,152.7,359.8,152.7,356.7,152.7z"/>
	<path d="M410.3,152.8c-2.9,0-5.6,0-8.4,0c0-2.8,0-5.5,0-8.4c2.7,0,5.5,0,8.4,0C410.3,147.1,410.3,149.8,410.3,152.8z"/>
	<path d="M441.2,144.4c0,2.9,0,5.4,0,8.3c-2.8,0-5.5,0-8.5,0c0-2.7,0-5.4,0-8.3C435.5,144.4,438.3,144.4,441.2,144.4z"/>
	<path d="M471.2,144.3c0,2.9,0,5.5,0,8.3c-2.8,0-5.5,0-8.5,0c0-2.7,0-5.4,0-8.3C465.5,144.3,468.3,144.3,471.2,144.3z"/>
	<path d="M531.9,152.8c-2.8,0-5.5,0-8.4,0c0-2.7,0-5.5,0-8.4c2.7,0,5.4,0,8.4,0C531.9,147.1,531.9,149.9,531.9,152.8z"/>
	<path d="M577.2,144.4c0,2.9,0,5.4,0,8.3c-2.8,0-5.5,0-8.5,0c0-2.7,0-5.4,0-8.3C571.5,144.4,574.3,144.4,577.2,144.4z"/>
	<path d="M61.9,159.4c0,2.8,0,5.5,0,8.4c-2.8,0-5.5,0-8.4,0c0-2.7,0-5.5,0-8.4C56.2,159.4,58.8,159.4,61.9,159.4z"/>
	<path d="M83.4,167.8c0-2.9,0-5.5,0-8.3c2.8,0,5.5,0,8.5,0c0,2.7,0,5.4,0,8.3C89.1,167.8,86.4,167.8,83.4,167.8z"/>
	<path d="M129.1,167.8c0-2.9,0-5.5,0-8.3c2.8,0,5.5,0,8.5,0c0,2.7,0,5.4,0,8.3C134.9,167.8,132.1,167.8,129.1,167.8z"/>
	<path d="M167.8,159.4c0,2.8,0,5.5,0,8.4c-2.9,0-5.6,0-8.5,0c0-2.8,0-5.5,0-8.4C162,159.4,164.8,159.4,167.8,159.4z"/>
	<path d="M198.5,159.4c0,2.8,0,5.5,0,8.3c-2.8,0-5.6,0-8.5,0c0-2.7,0-5.4,0-8.3C192.7,159.4,195.4,159.4,198.5,159.4z"/>
	<path d="M213.4,167.9c-2.8,0-5.5,0-8.3,0c0-2.9,0-5.6,0-8.5c2.8,0,5.4,0,8.3,0C213.4,162,213.4,164.8,213.4,167.9z"/>
	<path d="M228.6,167.8c-2.8,0-5.5,0-8.4,0c0-2.7,0-5.5,0-8.4c2.7,0,5.4,0,8.4,0C228.6,162.2,228.6,164.9,228.6,167.8z"/>
	<path d="M258.7,159.4c0,2.8,0,5.5,0,8.4c-2.8,0-5.5,0-8.4,0c0-2.7,0-5.5,0-8.4C253,159.4,255.7,159.4,258.7,159.4z"/>
	<path d="M289.4,159.4c0,2.8,0,5.5,0,8.4c-2.8,0-5.5,0-8.4,0c0-2.7,0-5.5,0-8.4C283.7,159.4,286.4,159.4,289.4,159.4z"/>
	<path d="M295.9,167.8c0-2.8,0-5.5,0-8.4c2.8,0,5.5,0,8.4,0c0,2.7,0,5.5,0,8.4C301.6,167.8,299,167.8,295.9,167.8z"/>
	<path d="M311,167.8c0-2.9,0-5.6,0-8.4c2.8,0,5.5,0,8.4,0c0,2.7,0,5.4,0,8.4C316.7,167.8,314,167.8,311,167.8z"/>
	<path d="M235.2,129.2c2.9,0,5.5,0,8.3,0c0,2.8,0,5.5,0,8.5c-2.7,0-5.4,0-8.3,0C235.2,134.9,235.2,132.2,235.2,129.2z"/>
	<path d="M250.1,137.7c0-2.9,0-5.5,0-8.3c2.8,0,5.5,0,8.5,0c0,2.6,0,5.4,0,8.3C255.9,137.7,253.1,137.7,250.1,137.7z"/>
	<path d="M295.9,137.6c0-2.8,0-5.5,0-8.4c2.9,0,5.6,0,8.5,0c0,2.8,0,5.5,0,8.4C301.7,137.6,299,137.6,295.9,137.6z"/>
	<path d="M334.6,129.3c0,2.9,0,5.5,0,8.3c-2.8,0-5.5,0-8.5,0c0-2.6,0-5.4,0-8.3C328.8,129.3,331.6,129.3,334.6,129.3z"/>
	<path d="M341.1,137.6c0-2.8,0-5.5,0-8.3c2.9,0,5.6,0,8.5,0c0,2.8,0,5.4,0,8.3C346.9,137.6,344.1,137.6,341.1,137.6z"/>
	<path d="M356.8,129.2c2.8,0,5.5,0,8.4,0c0,2.7,0,5.5,0,8.4c-2.7,0-5.4,0-8.4,0C356.8,135,356.8,132.3,356.8,129.2z"/>
	<path d="M380.4,129.3c0,2.9,0,5.5,0,8.3c-2.8,0-5.5,0-8.5,0c0-2.7,0-5.4,0-8.3C374.6,129.3,377.4,129.3,380.4,129.3z"/>
	<path d="M410.4,129.3c0,2.8,0,5.5,0,8.4c-2.7,0-5.5,0-8.4,0c0-2.7,0-5.4,0-8.4C404.7,129.3,407.5,129.3,410.4,129.3z"/>
	<path d="M447.7,129.2c2.8,0,5.5,0,8.4,0c0,2.7,0,5.5,0,8.4c-2.7,0-5.4,0-8.4,0C447.7,134.9,447.7,132.1,447.7,129.2z"/>
	<path d="M53.4,152.8c0-2.9,0-5.5,0-8.4c2.8,0,5.5,0,8.5,0c0,2.8,0,5.5,0,8.4C59,152.8,56.4,152.8,53.4,152.8z"/>
	<path d="M92,144.4c0,2.9,0,5.4,0,8.3c-2.8,0-5.5,0-8.5,0c0-2.7,0-5.4,0-8.3C86.4,144.4,89.2,144.4,92,144.4z"/>
	<path d="M98.5,152.7c0-2.9,0-5.6,0-8.4c2.8,0,5.5,0,8.4,0c0,2.7,0,5.5,0,8.4C104.2,152.7,101.5,152.7,98.5,152.7z"/>
	<path d="M114.2,152.7c0-2.8,0-5.5,0-8.4c2.7,0,5.5,0,8.4,0c0,2.7,0,5.4,0,8.4C119.8,152.7,117.1,152.7,114.2,152.7z"/>
	<path d="M144.3,152.8c0-2.8,0-5.5,0-8.4c2.8,0,5.5,0,8.4,0c0,2.7,0,5.5,0,8.4C150,152.8,147.3,152.8,144.3,152.8z"/>
	<path d="M182.8,144.3c0,2.8,0,5.5,0,8.4c-2.8,0-5.5,0-8.4,0c0-2.7,0-5.5,0-8.4C177.1,144.3,179.8,144.3,182.8,144.3z"/>
	<path d="M190,152.7c0-2.8,0-5.5,0-8.4c2.7,0,5.5,0,8.4,0c0,2.7,0,5.4,0,8.4C195.7,152.7,192.9,152.7,190,152.7z"/>
	<path d="M243.6,152.8c-2.9,0-5.5,0-8.4,0c0-2.8,0-5.5,0-8.5c2.8,0,5.5,0,8.4,0C243.6,147.1,243.6,149.8,243.6,152.8z"/>
	<path d="M296,144.3c2.8,0,5.5,0,8.4,0c0,2.9,0,5.6,0,8.5c-2.8,0-5.5,0-8.4,0C296,150,296,147.3,296,144.3z"/>
	<path d="M311.1,144.3c2.8,0,5.5,0,8.4,0c0,2.9,0,5.6,0,8.5c-2.8,0-5.5,0-8.4,0C311.1,150,311.1,147.3,311.1,144.3z"/>
	<path d="M538.5,182.9c0-2.9,0-5.5,0-8.4c2.8,0,5.5,0,8.5,0c0,2.8,0,5.5,0,8.4C544.2,182.9,541.5,182.9,538.5,182.9z"/>
	<path d="M553.5,182.8c0-2.9,0-5.5,0-8.3c2.8,0,5.5,0,8.5,0c0,2.6,0,5.4,0,8.3C559.2,182.8,556.5,182.8,553.5,182.8z"/>
	<path d="M577.1,183c-2.9,0-5.5,0-8.3,0c0-2.8,0-5.5,0-8.5c2.7,0,5.4,0,8.3,0C577.1,177.2,577.1,180,577.1,183z"/>
	<path d="M53.3,198.5c0-2.9,0-5.5,0-8.3c2.8,0,5.5,0,8.5,0c0,2.6,0,5.4,0,8.3C59.1,198.5,56.3,198.5,53.3,198.5z"/>
	<path d="M91.9,198.5c-2.8,0-5.5,0-8.4,0c0-2.8,0-5.5,0-8.4c2.7,0,5.5,0,8.4,0C91.9,192.8,91.9,195.5,91.9,198.5z"/>
	<path d="M137.6,198.6c-2.8,0-5.5,0-8.3,0c0-2.9,0-5.6,0-8.5c2.8,0,5.4,0,8.3,0C137.6,192.8,137.6,195.5,137.6,198.6z"/>
	<path d="M174.4,190c2.9,0,5.5,0,8.3,0c0,2.8,0,5.5,0,8.5c-2.6,0-5.4,0-8.3,0C174.4,195.7,174.4,193,174.4,190z"/>
	<path d="M198.6,190.2c0,2.9,0,5.4,0,8.3c-2.8,0-5.5,0-8.5,0c0-2.7,0-5.4,0-8.3C192.9,190.2,195.8,190.2,198.6,190.2z"/>
	<path d="M228.6,190.1c0,2.9,0,5.6,0,8.4c-2.8,0-5.5,0-8.4,0c0-2.7,0-5.4,0-8.4C222.9,190.1,225.6,190.1,228.6,190.1z"/>
	<path d="M274.4,190.1c0,2.8,0,5.5,0,8.4c-2.8,0-5.5,0-8.4,0c0-2.7,0-5.5,0-8.4C268.7,190.1,271.3,190.1,274.4,190.1z"/>
	<path d="M289.3,198.6c-2.8,0-5.5,0-8.3,0c0-2.9,0-5.6,0-8.5c2.8,0,5.4,0,8.3,0C289.3,192.8,289.3,195.5,289.3,198.6z"/>
	<path d="M341,198.5c0-2.9,0-5.5,0-8.3c2.8,0,5.5,0,8.5,0c0,2.7,0,5.4,0,8.3C346.7,198.5,344,198.5,341,198.5z"/>
	<path d="M356.7,198.5c0-2.8,0-5.5,0-8.4c2.9,0,5.6,0,8.5,0c0,2.8,0,5.5,0,8.4C362.5,198.5,359.8,198.5,356.7,198.5z"/>
	<path d="M401.9,198.5c0-2.8,0-5.5,0-8.4c2.8,0,5.5,0,8.4,0c0,2.7,0,5.5,0,8.4C407.6,198.5,404.9,198.5,401.9,198.5z"/>
	<path d="M425.4,190.1c0,2.9,0,5.6,0,8.4c-2.8,0-5.5,0-8.4,0c0-2.7,0-5.5,0-8.4C419.7,190.1,422.5,190.1,425.4,190.1z"/>
	<path d="M441,198.5c-2.9,0-5.6,0-8.4,0c0-2.8,0-5.5,0-8.4c2.7,0,5.5,0,8.4,0C441,192.8,441,195.6,441,198.5z"/>
	<path d="M471.1,198.6c-2.9,0-5.5,0-8.3,0c0-2.8,0-5.5,0-8.5c2.6,0,5.4,0,8.3,0C471.1,192.9,471.1,195.6,471.1,198.6z"/>
	<path d="M492.8,190.1c2.9,0,5.6,0,8.4,0c0,2.8,0,5.5,0,8.4c-2.7,0-5.5,0-8.4,0C492.8,195.8,492.8,193,492.8,190.1z"/>
	<path d="M508.4,198.5c0-2.8,0-5.5,0-8.4c2.8,0,5.5,0,8.4,0c0,2.7,0,5.5,0,8.4C514.1,198.5,511.5,198.5,508.4,198.5z"/>
	<path d="M326,167.8c0-2.8,0-5.5,0-8.4c2.8,0,5.5,0,8.4,0c0,2.7,0,5.5,0,8.4C331.7,167.8,329.1,167.8,326,167.8z"/>
	<path d="M371.8,167.8c0-2.8,0-5.5,0-8.4c2.8,0,5.5,0,8.4,0c0,2.7,0,5.5,0,8.4C377.5,167.8,374.8,167.8,371.8,167.8z"/>
	<path d="M395.3,159.4c0,2.9,0,5.5,0,8.4c-2.8,0-5.5,0-8.4,0c0-2.7,0-5.4,0-8.4C389.6,159.4,392.3,159.4,395.3,159.4z"/>
	<path d="M562.1,159.5c0,2.9,0,5.4,0,8.3c-2.8,0-5.5,0-8.5,0c0-2.7,0-5.4,0-8.3C556.5,159.5,559.3,159.5,562.1,159.5z"/>
	<path d="M61.9,174.5c0,2.9,0,5.6,0,8.4c-2.8,0-5.5,0-8.4,0c0-2.7,0-5.4,0-8.4C56.1,174.5,58.9,174.5,61.9,174.5z"/>
	<path d="M76.9,182.9c-2.8,0-5.5,0-8.4,0c0-2.8,0-5.5,0-8.4c2.7,0,5.5,0,8.4,0C76.9,177.2,76.9,179.8,76.9,182.9z"/>
	<path d="M91.9,182.9c-2.9,0-5.6,0-8.4,0c0-2.8,0-5.5,0-8.4c2.7,0,5.4,0,8.4,0C91.9,177.1,91.9,179.9,91.9,182.9z"/>
	<path d="M114.2,174.4c2.8,0,5.5,0,8.4,0c0,2.7,0,5.5,0,8.4c-2.7,0-5.5,0-8.4,0C114.2,180.1,114.2,177.4,114.2,174.4z"/>
	<path d="M167.8,174.5c0,2.8,0,5.5,0,8.4c-2.9,0-5.6,0-8.5,0c0-2.8,0-5.5,0-8.4C162,174.5,164.8,174.5,167.8,174.5z"/>
	<path d="M190,174.4c2.8,0,5.5,0,8.4,0c0,2.8,0,5.5,0,8.4c-2.7,0-5.5,0-8.4,0C190,180.1,190,177.4,190,174.4z"/>
	<path d="M228.6,174.5c0,2.8,0,5.5,0,8.4c-2.9,0-5.6,0-8.5,0c0-2.8,0-5.5,0-8.4C222.8,174.5,225.6,174.5,228.6,174.5z"/>
	<path d="M274.4,174.5c0,2.9,0,5.5,0,8.4c-2.8,0-5.5,0-8.4,0c0-2.7,0-5.4,0-8.4C268.6,174.5,271.4,174.5,274.4,174.5z"/>
	<path d="M280.9,174.4c2.8,0,5.5,0,8.4,0c0,2.8,0,5.5,0,8.4c-2.7,0-5.5,0-8.4,0C280.9,180.1,280.9,177.4,280.9,174.4z"/>
	<path d="M304.3,182.9c-2.8,0-5.5,0-8.4,0c0-2.9,0-5.6,0-8.5c2.8,0,5.5,0,8.4,0C304.3,177.1,304.3,179.8,304.3,182.9z"/>
	<path d="M341.1,174.4c2.8,0,5.5,0,8.4,0c0,2.7,0,5.5,0,8.4c-2.7,0-5.4,0-8.4,0C341.1,180,341.1,177.3,341.1,174.4z"/>
	<path d="M395.2,182.9c-2.8,0-5.5,0-8.3,0c0-2.9,0-5.6,0-8.5c2.8,0,5.4,0,8.3,0C395.2,177.1,395.2,179.8,395.2,182.9z"/>
	<path d="M401.9,182.8c0-2.8,0-5.5,0-8.4c2.7,0,5.5,0,8.4,0c0,2.7,0,5.4,0,8.4C407.5,182.8,404.8,182.8,401.9,182.8z"/>
	<path d="M477.7,182.8c0-2.8,0-5.5,0-8.4c2.7,0,5.5,0,8.4,0c0,2.7,0,5.5,0,8.4C483.4,182.8,480.8,182.8,477.7,182.8z"/>
	<path d="M492.8,174.4c2.8,0,5.5,0,8.4,0c0,2.8,0,5.5,0,8.4c-2.7,0-5.5,0-8.4,0C492.8,180.1,492.8,177.4,492.8,174.4z"/>
	<path d="M349.5,46.8c-2.8,0-5.5,0-8.4,0c0-2.8,0-5.5,0-8.4c2.7,0,5.5,0,8.4,0C349.5,41.1,349.5,43.8,349.5,46.8z"/>
	<path d="M356.9,38.3c2.8,0,5.5,0,8.3,0c0,2.8,0,5.6,0,8.5c-2.7,0-5.4,0-8.3,0C356.9,44.1,356.9,41.4,356.9,38.3z"/>
	<path d="M380.3,38.4c0,2.8,0,5.5,0,8.4c-2.8,0-5.5,0-8.4,0c0-2.7,0-5.5,0-8.4C374.6,38.4,377.3,38.4,380.3,38.4z"/>
	<path d="M395.3,38.4c0,2.9,0,5.6,0,8.4c-2.8,0-5.5,0-8.4,0c0-2.7,0-5.4,0-8.4C389.6,38.4,392.3,38.4,395.3,38.4z"/>
	<path d="M417,38.3c2.9,0,5.5,0,8.3,0c0,2.8,0,5.5,0,8.5c-2.7,0-5.4,0-8.3,0C417,44,417,41.3,417,38.3z"/>
	<path d="M432.6,38.2c2.9,0,5.5,0,8.3,0c0,2.8,0,5.5,0,8.5c-2.6,0-5.4,0-8.3,0C432.6,44,432.6,41.3,432.6,38.2z"/>
	<path d="M447.7,38.3c2.9,0,5.6,0,8.4,0c0,2.8,0,5.5,0,8.4c-2.7,0-5.5,0-8.4,0C447.7,44,447.7,41.3,447.7,38.3z"/>
	<path d="M213.5,53.4c0,2.8,0,5.5,0,8.4c-2.7,0-5.5,0-8.4,0c0-2.7,0-5.4,0-8.4C207.9,53.4,210.7,53.4,213.5,53.4z"/>
	<path d="M220.1,61.8c0-2.8,0-5.5,0-8.4c2.8,0,5.5,0,8.4,0c0,2.7,0,5.5,0,8.4C225.8,61.8,223.1,61.8,220.1,61.8z"/>
	<path d="M243.7,53.4c0,2.9,0,5.5,0,8.3c-2.8,0-5.5,0-8.5,0c0-2.6,0-5.4,0-8.3C238,53.4,240.7,53.4,243.7,53.4z"/>
	<path d="M295.9,61.8c0-2.9,0-5.4,0-8.3c2.8,0,5.5,0,8.5,0c0,2.7,0,5.4,0,8.3C301.5,61.8,298.7,61.8,295.9,61.8z"/>
	<path d="M326.1,53.4c2.8,0,5.5,0,8.3,0c0,2.8,0,5.6,0,8.5c-2.7,0-5.4,0-8.3,0C326.1,59.2,326.1,56.4,326.1,53.4z"/>
	<path d="M441.1,61.9c-2.8,0-5.5,0-8.4,0c0-2.8,0-5.5,0-8.4c2.7,0,5.5,0,8.4,0C441.1,56.2,441.1,58.8,441.1,61.9z"/>
	<path d="M456.1,53.5c0,2.9,0,5.6,0,8.4c-2.8,0-5.5,0-8.4,0c0-2.7,0-5.4,0-8.4C450.4,53.5,453.1,53.5,456.1,53.5z"/>
	<path d="M152.6,77c-2.9,0-5.4,0-8.3,0c0-2.8,0-5.5,0-8.5c2.7,0,5.4,0,8.3,0C152.6,71.3,152.6,74.2,152.6,77z"/>
	<path d="M167.8,68.5c0,2.8,0,5.5,0,8.3c-2.9,0-5.6,0-8.5,0c0-2.8,0-5.4,0-8.3C162,68.5,164.8,68.5,167.8,68.5z"/>
	<path d="M182.8,76.9c-2.9,0-5.6,0-8.4,0c0-2.8,0-5.5,0-8.4c2.7,0,5.4,0,8.4,0C182.8,71.2,182.8,73.9,182.8,76.9z"/>
	<path d="M198.5,76.9c-2.8,0-5.5,0-8.4,0c0-2.7,0-5.5,0-8.4c2.7,0,5.4,0,8.4,0C198.5,71.3,198.5,74,198.5,76.9z"/>
	<path d="M220.1,76.9c0-2.8,0-5.5,0-8.4c2.8,0,5.5,0,8.4,0c0,2.7,0,5.5,0,8.4C225.8,76.9,223.1,76.9,220.1,76.9z"/>
	<path d="M144.4,23.3c2.8,0,5.5,0,8.4,0c0,2.9,0,5.6,0,8.5c-2.8,0-5.5,0-8.4,0C144.4,29,144.4,26.3,144.4,23.3z"/>
	<path d="M182.9,23.4c0,2.9,0,5.4,0,8.3c-2.8,0-5.5,0-8.5,0c0-2.7,0-5.4,0-8.3C177.3,23.4,180.1,23.4,182.9,23.4z"/>
	<path d="M228.6,23.3c0,2.9,0,5.5,0,8.4c-2.8,0-5.5,0-8.5,0c0-2.8,0-5.5,0-8.4C222.9,23.3,225.6,23.3,228.6,23.3z"/>
	<path d="M250.1,31.7c0-2.9,0-5.5,0-8.3c2.8,0,5.5,0,8.5,0c0,2.7,0,5.4,0,8.3C255.9,31.7,253.1,31.7,250.1,31.7z"/>
	<path d="M289.4,31.8c-2.8,0-5.5,0-8.4,0c0-2.8,0-5.5,0-8.4c2.7,0,5.5,0,8.4,0C289.4,26.1,289.4,28.7,289.4,31.8z"/>
	<path d="M304.4,23.3c0,2.8,0,5.5,0,8.4c-2.7,0-5.5,0-8.4,0c0-2.7,0-5.5,0-8.4C298.7,23.3,301.4,23.3,304.4,23.3z"/>
	<path d="M319.5,23.4c0,2.8,0,5.5,0,8.4c-2.9,0-5.6,0-8.5,0c0-2.8,0-5.5,0-8.4C313.7,23.4,316.5,23.4,319.5,23.4z"/>
	<path d="M326.1,23.3c2.8,0,5.5,0,8.3,0c0,2.8,0,5.6,0,8.5c-2.7,0-5.4,0-8.3,0C326.1,29.1,326.1,26.4,326.1,23.3z"/>
	<path d="M349.5,31.8c-2.9,0-5.5,0-8.4,0c0-2.8,0-5.5,0-8.4c2.7,0,5.4,0,8.4,0C349.5,26,349.5,28.8,349.5,31.8z"/>
	<path d="M371.8,31.7c0-2.9,0-5.6,0-8.4c2.8,0,5.5,0,8.4,0c0,2.7,0,5.4,0,8.4C377.5,31.7,374.8,31.7,371.8,31.7z"/>
	<path d="M386.9,23.3c2.9,0,5.6,0,8.4,0c0,2.8,0,5.5,0,8.4c-2.7,0-5.5,0-8.4,0C386.9,29,386.9,26.2,386.9,23.3z"/>
	<path d="M416.9,23.3c2.9,0,5.5,0,8.4,0c0,2.8,0,5.5,0,8.5c-2.8,0-5.5,0-8.4,0C416.9,29,416.9,26.3,416.9,23.3z"/>
	<path d="M432.6,23.3c2.8,0,5.5,0,8.4,0c0,2.8,0,5.5,0,8.4c-2.7,0-5.5,0-8.4,0C432.6,29,432.6,26.3,432.6,23.3z"/>
	<path d="M159.3,38.3c2.8,0,5.5,0,8.4,0c0,2.8,0,5.5,0,8.4c-2.7,0-5.5,0-8.4,0C159.3,44,159.3,41.4,159.3,38.3z"/>
	<path d="M174.5,38.3c2.9,0,5.4,0,8.3,0c0,2.8,0,5.5,0,8.5c-2.7,0-5.4,0-8.3,0C174.5,43.9,174.5,41.1,174.5,38.3z"/>
	<path d="M228.6,38.4c0,2.9,0,5.5,0,8.4c-2.8,0-5.5,0-8.4,0c0-2.7,0-5.4,0-8.4C222.9,38.4,225.6,38.4,228.6,38.4z"/>
	<path d="M250.2,46.7c0-2.8,0-5.5,0-8.3c2.8,0,5.6,0,8.5,0c0,2.7,0,5.4,0,8.3C256,46.7,253.3,46.7,250.2,46.7z"/>
	<path d="M310.9,46.8c0-2.9,0-5.5,0-8.3c2.8,0,5.5,0,8.5,0c0,2.7,0,5.4,0,8.3C316.7,46.8,313.9,46.8,310.9,46.8z"/>
	<path d="M334.4,46.9c-2.8,0-5.5,0-8.3,0c0-2.9,0-5.6,0-8.5c2.8,0,5.4,0,8.3,0C334.4,41,334.4,43.8,334.4,46.9z"/>
	<path d="M235.1,107c0-2.9,0-5.5,0-8.3c2.8,0,5.5,0,8.5,0c0,2.6,0,5.4,0,8.3C240.8,107,238.1,107,235.1,107z"/>
	<path d="M289.5,98.6c0,2.9,0,5.5,0,8.3c-2.8,0-5.5,0-8.5,0c0-2.7,0-5.4,0-8.3C283.7,98.6,286.5,98.6,289.5,98.6z"/>
	<path d="M326.1,98.4c2.9,0,5.5,0,8.3,0c0,2.8,0,5.5,0,8.5c-2.7,0-5.4,0-8.3,0C326.1,104.2,326.1,101.4,326.1,98.4z"/>
	<path d="M341.2,98.4c2.9,0,5.4,0,8.3,0c0,2.8,0,5.5,0,8.5c-2.7,0-5.4,0-8.3,0C341.2,104.1,341.2,101.3,341.2,98.4z"/>
	<path d="M371.9,98.5c2.9,0,5.5,0,8.4,0c0,2.8,0,5.5,0,8.4c-2.7,0-5.4,0-8.4,0C371.9,104.3,371.9,101.5,371.9,98.5z"/>
	<path d="M441,107c-2.8,0-5.5,0-8.4,0c0-2.7,0-5.5,0-8.4c2.7,0,5.4,0,8.4,0C441,101.3,441,104,441,107z"/>
	<path d="M456.1,107c-2.8,0-5.5,0-8.4,0c0-2.7,0-5.5,0-8.4c2.7,0,5.4,0,8.4,0C456.1,101.3,456.1,104,456.1,107z"/>
	<path d="M152.8,114.2c0,2.9,0,5.5,0,8.3c-2.8,0-5.5,0-8.5,0c0-2.7,0-5.4,0-8.3C147.1,114.2,149.8,114.2,152.8,114.2z"/>
	<path d="M182.8,122.7c-2.9,0-5.5,0-8.4,0c0-2.8,0-5.5,0-8.5c2.8,0,5.5,0,8.4,0C182.8,117,182.8,119.7,182.8,122.7z"/>
	<path d="M213.5,122.7c-2.8,0-5.5,0-8.4,0c0-2.7,0-5.5,0-8.4c2.7,0,5.5,0,8.4,0C213.5,117,213.5,119.6,213.5,122.7z"/>
	<path d="M235.3,114.2c2.8,0,5.5,0,8.3,0c0,2.9,0,5.6,0,8.5c-2.8,0-5.4,0-8.3,0C235.3,120,235.3,117.2,235.3,114.2z"/>
	<path d="M265.9,122.6c0-2.9,0-5.6,0-8.4c2.8,0,5.5,0,8.4,0c0,2.7,0,5.4,0,8.4C271.6,122.6,268.8,122.6,265.9,122.6z"/>
	<path d="M295.9,122.6c0-2.8,0-5.5,0-8.4c2.9,0,5.6,0,8.5,0c0,2.8,0,5.5,0,8.4C301.7,122.6,299,122.6,295.9,122.6z"/>
	<path d="M334.5,114.3c0,2.9,0,5.6,0,8.4c-2.8,0-5.5,0-8.4,0c0-2.7,0-5.5,0-8.4C328.8,114.3,331.6,114.3,334.5,114.3z"/>
	<path d="M365.1,122.8c-2.9,0-5.4,0-8.3,0c0-2.8,0-5.5,0-8.5c2.7,0,5.4,0,8.3,0C365.1,117.1,365.1,119.9,365.1,122.8z"/>
	<path d="M395.3,122.7c-2.8,0-5.5,0-8.4,0c0-2.7,0-5.5,0-8.4c2.7,0,5.4,0,8.4,0C395.3,117,395.3,119.8,395.3,122.7z"/>
	<path d="M425.4,114.2c0,2.8,0,5.5,0,8.4c-2.8,0-5.5,0-8.4,0c0-2.7,0-5.5,0-8.4C419.7,114.2,422.4,114.2,425.4,114.2z"/>
	<path d="M456.1,122.7c-2.8,0-5.5,0-8.4,0c0-2.7,0-5.5,0-8.4c2.7,0,5.4,0,8.4,0C456.1,117,456.1,119.8,456.1,122.7z"/>
	<path d="M190,137.6c0-2.8,0-5.5,0-8.3c2.9,0,5.6,0,8.5,0c0,2.8,0,5.4,0,8.3C195.8,137.6,193.1,137.6,190,137.6z"/>
	<path d="M235.2,68.4c2.8,0,5.5,0,8.4,0c0,2.7,0,5.5,0,8.4c-2.7,0-5.5,0-8.4,0C235.2,74.1,235.2,71.5,235.2,68.4z"/>
	<path d="M250.2,68.4c2.8,0,5.5,0,8.4,0c0,2.8,0,5.5,0,8.4c-2.7,0-5.5,0-8.4,0C250.2,74.1,250.2,71.5,250.2,68.4z"/>
	<path d="M266,68.3c2.9,0,5.4,0,8.3,0c0,2.8,0,5.5,0,8.5c-2.7,0-5.4,0-8.3,0C266,74,266,71.2,266,68.3z"/>
	<path d="M326,76.9c0-2.9,0-5.6,0-8.4c2.8,0,5.5,0,8.4,0c0,2.7,0,5.5,0,8.4C331.7,76.9,329,76.9,326,76.9z"/>
	<path d="M349.5,76.9c-2.8,0-5.5,0-8.3,0c0-2.8,0-5.6,0-8.5c2.7,0,5.4,0,8.3,0C349.5,71.1,349.5,73.9,349.5,76.9z"/>
	<path d="M416.9,76.9c0-2.9,0-5.6,0-8.4c2.8,0,5.5,0,8.4,0c0,2.7,0,5.5,0,8.4C422.6,76.9,419.9,76.9,416.9,76.9z"/>
	<path d="M441.1,68.5c0,2.8,0,5.5,0,8.4c-2.7,0-5.5,0-8.4,0c0-2.7,0-5.5,0-8.4C435.4,68.5,438,68.5,441.1,68.5z"/>
	<path d="M159.3,83.5c2.9,0,5.5,0,8.4,0c0,2.8,0,5.5,0,8.5c-2.8,0-5.5,0-8.4,0C159.3,89.1,159.3,86.5,159.3,83.5z"/>
	<path d="M190,83.5c2.8,0,5.5,0,8.4,0c0,2.8,0,5.5,0,8.4c-2.7,0-5.5,0-8.4,0C190,89.2,190,86.5,190,83.5z"/>
	<path d="M205.1,91.9c0-2.9,0-5.6,0-8.4c2.8,0,5.5,0,8.4,0c0,2.7,0,5.5,0,8.4C210.8,91.9,208,91.9,205.1,91.9z"/>
	<path d="M243.6,92c-2.8,0-5.5,0-8.4,0c0-2.8,0-5.5,0-8.4c2.7,0,5.5,0,8.4,0C243.6,86.3,243.6,88.9,243.6,92z"/>
	<path d="M250.3,83.4c2.8,0,5.4,0,8.3,0c0,2.8,0,5.6,0,8.5c-2.7,0-5.4,0-8.3,0C250.3,89.3,250.3,86.5,250.3,83.4z"/>
	<path d="M265.8,91.9c0-2.8,0-5.5,0-8.4c2.9,0,5.6,0,8.5,0c0,2.8,0,5.5,0,8.4C271.6,91.9,268.9,91.9,265.8,91.9z"/>
	<path d="M295.9,91.9c0-2.9,0-5.6,0-8.4c2.8,0,5.5,0,8.4,0c0,2.7,0,5.4,0,8.4C301.7,91.9,298.9,91.9,295.9,91.9z"/>
	<path d="M326.1,83.4c2.9,0,5.5,0,8.3,0c0,2.8,0,5.5,0,8.5c-2.6,0-5.4,0-8.3,0C326.1,89.2,326.1,86.4,326.1,83.4z"/>
	<path d="M365.3,83.5c0,2.9,0,5.5,0,8.3c-2.8,0-5.5,0-8.5,0c0-2.6,0-5.4,0-8.3C359.6,83.5,362.3,83.5,365.3,83.5z"/>
	<path d="M441,92c-2.9,0-5.6,0-8.4,0c0-2.8,0-5.5,0-8.4c2.7,0,5.5,0,8.4,0C441,86.3,441,89,441,92z"/>
	<path d="M447.6,91.9c0-2.8,0-5.5,0-8.4c2.7,0,5.5,0,8.4,0c0,2.7,0,5.5,0,8.4C453.3,91.9,450.7,91.9,447.6,91.9z"/>
	<path d="M190,106.9c0-2.9,0-5.6,0-8.4c2.8,0,5.5,0,8.4,0c0,2.7,0,5.4,0,8.4C195.7,106.9,193,106.9,190,106.9z"/>
	<path d="M486.3,266c0,2.9,0,5.4,0,8.3c-2.8,0-5.5,0-8.5,0c0-2.7,0-5.4,0-8.3C480.6,266,483.5,266,486.3,266z"/>
	<path d="M523.5,265.9c2.9,0,5.5,0,8.4,0c0,2.8,0,5.5,0,8.5c-2.8,0-5.5,0-8.4,0C523.5,271.6,523.5,268.9,523.5,265.9z"/>
	<path d="M553.6,274.4c0-2.8,0-5.5,0-8.4c2.7,0,5.5,0,8.4,0c0,2.7,0,5.5,0,8.4C559.3,274.4,556.6,274.4,553.6,274.4z"/>
	<path d="M577,274.4c-2.9,0-5.6,0-8.4,0c0-2.8,0-5.5,0-8.4c2.7,0,5.5,0,8.4,0C577,268.7,577,271.4,577,274.4z"/>
	<path d="M23.3,289.4c0-2.9,0-5.5,0-8.4c2.8,0,5.5,0,8.4,0c0,2.7,0,5.4,0,8.4C29,289.4,26.3,289.4,23.3,289.4z"/>
	<path d="M53.4,289.4c0-2.8,0-5.5,0-8.4c2.7,0,5.5,0,8.4,0c0,2.7,0,5.5,0,8.4C59.1,289.4,56.4,289.4,53.4,289.4z"/>
	<path d="M68.4,281c2.8,0,5.5,0,8.4,0c0,2.8,0,5.5,0,8.4c-2.7,0-5.5,0-8.4,0C68.4,286.7,68.4,284,68.4,281z"/>
	<path d="M83.5,280.9c2.9,0,5.5,0,8.4,0c0,2.8,0,5.5,0,8.5c-2.8,0-5.5,0-8.4,0C83.5,286.6,83.5,284,83.5,280.9z"/>
	<path d="M98.4,289.3c0-2.9,0-5.4,0-8.3c2.8,0,5.5,0,8.5,0c0,2.7,0,5.4,0,8.3C104.1,289.3,101.3,289.3,98.4,289.3z"/>
	<path d="M129.3,281c2.9,0,5.6,0,8.4,0c0,2.8,0,5.5,0,8.4c-2.7,0-5.4,0-8.4,0C129.3,286.7,129.3,283.9,129.3,281z"/>
	<path d="M198.5,281c0,2.9,0,5.5,0,8.4c-2.8,0-5.5,0-8.5,0c0-2.8,0-5.5,0-8.4C192.8,281,195.5,281,198.5,281z"/>
	<path d="M205.1,289.4c0-2.8,0-5.5,0-8.4c2.7,0,5.5,0,8.4,0c0,2.7,0,5.4,0,8.4C210.7,289.4,208,289.4,205.1,289.4z"/>
	<path d="M386.8,289.4c0-2.8,0-5.5,0-8.4c2.7,0,5.5,0,8.4,0c0,2.7,0,5.5,0,8.4C392.5,289.4,389.9,289.4,386.8,289.4z"/>
	<path d="M410.3,289.5c-2.9,0-5.6,0-8.4,0c0-2.8,0-5.5,0-8.4c2.7,0,5.4,0,8.4,0C410.3,283.7,410.3,286.5,410.3,289.5z"/>
	<path d="M456.1,289.5c-2.9,0-5.5,0-8.3,0c0-2.8,0-5.5,0-8.5c2.6,0,5.4,0,8.3,0C456.1,283.8,456.1,286.5,456.1,289.5z"/>
	<path d="M477.6,289.4c0-2.9,0-5.5,0-8.3c2.8,0,5.5,0,8.5,0c0,2.7,0,5.4,0,8.3C483.4,289.4,480.6,289.4,477.6,289.4z"/>
	<path d="M562,289.5c-2.9,0-5.6,0-8.4,0c0-2.8,0-5.5,0-8.4c2.7,0,5.4,0,8.4,0C562,283.7,562,286.5,562,289.5z"/>
	<path d="M386.8,258.7c0-2.9,0-5.6,0-8.4c2.8,0,5.5,0,8.4,0c0,2.7,0,5.5,0,8.4C392.5,258.7,389.8,258.7,386.8,258.7z"/>
	<path d="M401.9,258.7c0-2.9,0-5.5,0-8.4c2.8,0,5.5,0,8.5,0c0,2.8,0,5.5,0,8.4C407.6,258.7,404.9,258.7,401.9,258.7z"/>
	<path d="M416.9,258.7c0-2.8,0-5.5,0-8.4c2.7,0,5.5,0,8.4,0c0,2.7,0,5.5,0,8.4C422.6,258.7,420,258.7,416.9,258.7z"/>
	<path d="M432.6,258.7c0-2.9,0-5.6,0-8.4c2.8,0,5.5,0,8.4,0c0,2.7,0,5.4,0,8.4C438.3,258.7,435.6,258.7,432.6,258.7z"/>
	<path d="M577,258.7c-2.9,0-5.6,0-8.4,0c0-2.8,0-5.5,0-8.4c2.7,0,5.4,0,8.4,0C577,253,577,255.7,577,258.7z"/>
	<path d="M77,266c0,2.9,0,5.5,0,8.3c-2.8,0-5.5,0-8.5,0c0-2.6,0-5.4,0-8.3C71.2,266,74,266,77,266z"/>
	<path d="M122.6,274.4c-2.8,0-5.5,0-8.4,0c0-2.7,0-5.5,0-8.4c2.7,0,5.5,0,8.4,0C122.6,268.7,122.6,271.4,122.6,274.4z"/>
	<path d="M144.3,265.9c2.9,0,5.5,0,8.4,0c0,2.8,0,5.5,0,8.5c-2.8,0-5.5,0-8.4,0C144.3,271.6,144.3,268.9,144.3,265.9z"/>
	<path d="M167.8,265.9c0,2.8,0,5.5,0,8.4c-2.8,0-5.5,0-8.4,0c0-2.7,0-5.5,0-8.4C162.1,265.9,164.8,265.9,167.8,265.9z"/>
	<path d="M174.3,274.4c0-2.9,0-5.5,0-8.3c2.8,0,5.5,0,8.5,0c0,2.7,0,5.4,0,8.3C180,274.4,177.3,274.4,174.3,274.4z"/>
	<path d="M205.2,265.8c2.9,0,5.4,0,8.3,0c0,2.8,0,5.5,0,8.5c-2.7,0-5.4,0-8.3,0C205.2,271.5,205.2,268.7,205.2,265.8z"/>
	<path d="M371.8,274.4c0-2.8,0-5.5,0-8.4c2.7,0,5.5,0,8.4,0c0,2.7,0,5.5,0,8.4C377.5,274.4,374.8,274.4,371.8,274.4z"/>
	<path d="M386.8,274.4c0-2.8,0-5.5,0-8.4c2.8,0,5.5,0,8.4,0c0,2.7,0,5.5,0,8.4C392.5,274.4,389.9,274.4,386.8,274.4z"/>
	<path d="M401.9,274.4c0-2.9,0-5.5,0-8.4c2.8,0,5.5,0,8.5,0c0,2.8,0,5.5,0,8.4C407.6,274.4,404.9,274.4,401.9,274.4z"/>
	<path d="M441,274.5c-2.9,0-5.5,0-8.3,0c0-2.8,0-5.5,0-8.5c2.6,0,5.4,0,8.3,0C441,268.7,441,271.5,441,274.5z"/>
	<path d="M447.6,274.3c0-2.8,0-5.5,0-8.3c2.9,0,5.6,0,8.5,0c0,2.8,0,5.4,0,8.3C453.4,274.3,450.7,274.3,447.6,274.3z"/>
	<path d="M462.8,265.9c2.9,0,5.5,0,8.4,0c0,2.8,0,5.5,0,8.4c-2.7,0-5.4,0-8.4,0C462.8,271.7,462.8,268.9,462.8,265.9z"/>
	<path d="M46.7,319.6c-2.9,0-5.4,0-8.3,0c0-2.8,0-5.5,0-8.5c2.7,0,5.4,0,8.3,0C46.7,314,46.7,316.8,46.7,319.6z"/>
	<path d="M76.9,311.1c0,2.8,0,5.5,0,8.4c-2.8,0-5.5,0-8.4,0c0-2.7,0-5.5,0-8.4C71.2,311.1,73.9,311.1,76.9,311.1z"/>
	<path d="M152.7,319.6c-2.9,0-5.5,0-8.3,0c0-2.8,0-5.5,0-8.5c2.6,0,5.4,0,8.3,0C152.7,313.9,152.7,316.6,152.7,319.6z"/>
	<path d="M159.3,311.1c2.8,0,5.5,0,8.4,0c0,2.7,0,5.5,0,8.4c-2.7,0-5.4,0-8.4,0C159.3,316.8,159.3,314.1,159.3,311.1z"/>
	<path d="M228.6,311.1c0,2.8,0,5.5,0,8.4c-2.9,0-5.6,0-8.5,0c0-2.8,0-5.5,0-8.4C222.8,311.1,225.6,311.1,228.6,311.1z"/>
	<path d="M380.2,319.6c-2.9,0-5.5,0-8.3,0c0-2.8,0-5.5,0-8.5c2.7,0,5.4,0,8.3,0C380.2,313.9,380.2,316.6,380.2,319.6z"/>
	<path d="M401.9,319.4c0-2.8,0-5.5,0-8.3c2.9,0,5.6,0,8.5,0c0,2.8,0,5.4,0,8.3C407.7,319.4,404.9,319.4,401.9,319.4z"/>
	<path d="M425.4,311.1c0,2.8,0,5.5,0,8.4c-2.8,0-5.5,0-8.4,0c0-2.7,0-5.5,0-8.4C419.7,311.1,422.4,311.1,425.4,311.1z"/>
	<path d="M447.6,319.5c0-2.9,0-5.6,0-8.4c2.8,0,5.5,0,8.4,0c0,2.7,0,5.5,0,8.4C453.3,319.5,450.6,319.5,447.6,319.5z"/>
	<path d="M462.7,319.4c0-2.8,0-5.5,0-8.3c2.8,0,5.6,0,8.5,0c0,2.7,0,5.4,0,8.3C468.5,319.4,465.7,319.4,462.7,319.4z"/>
	<path d="M492.8,311c2.9,0,5.5,0,8.3,0c0,2.8,0,5.5,0,8.5c-2.7,0-5.4,0-8.3,0C492.8,316.7,492.8,314,492.8,311z"/>
	<path d="M508.4,319.5c0-2.8,0-5.5,0-8.4c2.7,0,5.5,0,8.4,0c0,2.7,0,5.5,0,8.4C514.1,319.5,511.5,319.5,508.4,319.5z"/>
	<path d="M553.5,319.4c0-2.8,0-5.5,0-8.3c2.8,0,5.6,0,8.5,0c0,2.7,0,5.4,0,8.3C559.4,319.4,556.6,319.4,553.5,319.4z"/>
	<path d="M53.5,326.1c2.8,0,5.4,0,8.3,0c0,2.8,0,5.6,0,8.5c-2.7,0-5.4,0-8.3,0C53.5,331.9,53.5,329.2,53.5,326.1z"/>
	<path d="M68.4,334.6c0-2.8,0-5.5,0-8.4c2.7,0,5.5,0,8.4,0c0,2.7,0,5.5,0,8.4C74.1,334.6,71.5,334.6,68.4,334.6z"/>
	<path d="M83.6,326c2.9,0,5.4,0,8.3,0c0,2.8,0,5.5,0,8.5c-2.7,0-5.4,0-8.3,0C83.6,331.7,83.6,328.9,83.6,326z"/>
	<path d="M106.9,334.7c-2.9,0-5.4,0-8.3,0c0-2.8,0-5.5,0-8.5c2.7,0,5.4,0,8.3,0C106.9,329,106.9,331.8,106.9,334.7z"/>
	<path d="M577.1,289.4c-2.8,0-5.5,0-8.4,0c0-2.7,0-5.5,0-8.4c2.7,0,5.4,0,8.4,0C577.1,283.8,577.1,286.6,577.1,289.4z"/>
	<path d="M31.7,304.5c-2.9,0-5.6,0-8.4,0c0-2.8,0-5.5,0-8.4c2.7,0,5.4,0,8.4,0C31.7,298.8,31.7,301.5,31.7,304.5z"/>
	<path d="M46.9,296.1c0,2.9,0,5.4,0,8.3c-2.8,0-5.5,0-8.5,0c0-2.7,0-5.4,0-8.3C41.3,296.1,44.1,296.1,46.9,296.1z"/>
	<path d="M68.5,296c2.9,0,5.6,0,8.4,0c0,2.8,0,5.5,0,8.4c-2.7,0-5.5,0-8.4,0C68.5,301.7,68.5,299,68.5,296z"/>
	<path d="M114.2,296c2.8,0,5.5,0,8.4,0c0,2.8,0,5.5,0,8.4c-2.7,0-5.5,0-8.4,0C114.2,301.7,114.2,299,114.2,296z"/>
	<path d="M137.6,304.5c-2.9,0-5.6,0-8.4,0c0-2.8,0-5.5,0-8.4c2.7,0,5.5,0,8.4,0C137.6,298.8,137.6,301.5,137.6,304.5z"/>
	<path d="M144.3,296c2.9,0,5.5,0,8.4,0c0,2.8,0,5.5,0,8.5c-2.8,0-5.5,0-8.4,0C144.3,301.7,144.3,299,144.3,296z"/>
	<path d="M167.8,296c0,2.8,0,5.5,0,8.4c-2.8,0-5.5,0-8.4,0c0-2.7,0-5.5,0-8.4C162.1,296,164.8,296,167.8,296z"/>
	<path d="M228.5,304.5c-2.8,0-5.5,0-8.4,0c0-2.9,0-5.6,0-8.5c2.8,0,5.5,0,8.4,0C228.5,298.7,228.5,301.5,228.5,304.5z"/>
	<path d="M380.3,296.1c0,2.8,0,5.5,0,8.3c-2.9,0-5.6,0-8.5,0c0-2.8,0-5.4,0-8.3C374.5,296.1,377.2,296.1,380.3,296.1z"/>
	<path d="M416.9,304.4c0-2.9,0-5.6,0-8.4c2.8,0,5.5,0,8.4,0c0,2.7,0,5.4,0,8.4C422.6,304.4,419.9,304.4,416.9,304.4z"/>
	<path d="M447.6,304.5c0-2.8,0-5.5,0-8.4c2.7,0,5.5,0,8.4,0c0,2.7,0,5.4,0,8.4C453.3,304.5,450.5,304.5,447.6,304.5z"/>
	<path d="M508.4,304.4c0-2.9,0-5.4,0-8.3c2.8,0,5.5,0,8.5,0c0,2.7,0,5.4,0,8.3C514,304.4,511.2,304.4,508.4,304.4z"/>
	<path d="M523.5,296c2.8,0,5.5,0,8.4,0c0,2.7,0,5.5,0,8.4c-2.7,0-5.4,0-8.4,0C523.5,301.6,523.5,298.9,523.5,296z"/>
	<path d="M538.6,296c2.8,0,5.5,0,8.4,0c0,2.7,0,5.5,0,8.4c-2.7,0-5.4,0-8.4,0C538.6,301.6,538.6,298.9,538.6,296z"/>
	<path d="M562,304.5c-2.9,0-5.6,0-8.4,0c0-2.8,0-5.5,0-8.4c2.7,0,5.5,0,8.4,0C562,298.8,562,301.5,562,304.5z"/>
	<path d="M577,304.5c-2.8,0-5.5,0-8.4,0c0-2.9,0-5.6,0-8.5c2.8,0,5.5,0,8.4,0C577,298.7,577,301.5,577,304.5z"/>
	<path d="M538.6,205.1c2.9,0,5.6,0,8.4,0c0,2.8,0,5.5,0,8.4c-2.7,0-5.4,0-8.4,0C538.6,210.8,538.6,208.1,538.6,205.1z"/>
	<path d="M553.6,205.1c2.8,0,5.5,0,8.4,0c0,2.8,0,5.5,0,8.4c-2.7,0-5.5,0-8.4,0C553.6,210.8,553.6,208.1,553.6,205.1z"/>
	<path d="M568.6,205.1c2.9,0,5.5,0,8.4,0c0,2.8,0,5.5,0,8.5c-2.8,0-5.5,0-8.4,0C568.6,210.8,568.6,208.1,568.6,205.1z"/>
	<path d="M23.3,220.2c2.8,0,5.5,0,8.4,0c0,2.7,0,5.5,0,8.4c-2.7,0-5.4,0-8.4,0C23.3,225.9,23.3,223.2,23.3,220.2z"/>
	<path d="M46.7,228.6c-2.9,0-5.6,0-8.4,0c0-2.8,0-5.5,0-8.4c2.7,0,5.4,0,8.4,0C46.7,222.9,46.7,225.7,46.7,228.6z"/>
	<path d="M68.4,220.1c2.9,0,5.5,0,8.4,0c0,2.8,0,5.5,0,8.5c-2.8,0-5.5,0-8.4,0C68.4,225.8,68.4,223.2,68.4,220.1z"/>
	<path d="M129.2,228.6c0-2.8,0-5.5,0-8.4c2.7,0,5.5,0,8.4,0c0,2.7,0,5.4,0,8.4C134.9,228.6,132.1,228.6,129.2,228.6z"/>
	<path d="M144.4,220.1c2.9,0,5.4,0,8.3,0c0,2.8,0,5.5,0,8.5c-2.7,0-5.4,0-8.3,0C144.4,225.7,144.4,222.9,144.4,220.1z"/>
	<path d="M167.7,228.7c-2.8,0-5.4,0-8.3,0c0-2.8,0-5.6,0-8.5c2.7,0,5.4,0,8.3,0C167.7,222.8,167.7,225.6,167.7,228.7z"/>
	<path d="M182.9,220.2c0,2.9,0,5.5,0,8.3c-2.8,0-5.5,0-8.5,0c0-2.7,0-5.4,0-8.3C177.2,220.2,179.9,220.2,182.9,220.2z"/>
	<path d="M198.5,228.6c-2.8,0-5.5,0-8.4,0c0-2.7,0-5.5,0-8.4c2.7,0,5.4,0,8.4,0C198.5,223,198.5,225.7,198.5,228.6z"/>
	<path d="M220.1,228.6c0-2.8,0-5.5,0-8.4c2.7,0,5.5,0,8.4,0c0,2.7,0,5.5,0,8.4C225.8,228.6,223.2,228.6,220.1,228.6z"/>
	<path d="M304.4,220.2c0,2.8,0,5.5,0,8.4c-2.7,0-5.5,0-8.4,0c0-2.7,0-5.5,0-8.4C298.7,220.2,301.4,220.2,304.4,220.2z"/>
	<path d="M386.9,220.1c2.9,0,5.6,0,8.4,0c0,2.8,0,5.5,0,8.4c-2.7,0-5.4,0-8.4,0C386.9,225.9,386.9,223.1,386.9,220.1z"/>
	<path d="M416.9,220.1c2.8,0,5.5,0,8.4,0c0,2.8,0,5.5,0,8.4c-2.7,0-5.5,0-8.4,0C416.9,225.8,416.9,223.2,416.9,220.1z"/>
	<path d="M432.7,220.1c2.8,0,5.4,0,8.3,0c0,2.8,0,5.6,0,8.5c-2.7,0-5.4,0-8.3,0C432.7,226,432.7,223.2,432.7,220.1z"/>
	<path d="M447.6,220.1c2.9,0,5.5,0,8.4,0c0,2.8,0,5.5,0,8.5c-2.8,0-5.5,0-8.4,0C447.6,225.8,447.6,223.2,447.6,220.1z"/>
	<path d="M486.2,228.7c-2.9,0-5.5,0-8.3,0c0-2.8,0-5.5,0-8.5c2.6,0,5.4,0,8.3,0C486.2,223,486.2,225.7,486.2,228.7z"/>
	<path d="M23.3,205c2.9,0,5.5,0,8.3,0c0,2.8,0,5.5,0,8.5c-2.7,0-5.4,0-8.3,0C23.3,210.8,23.3,208,23.3,205z"/>
	<path d="M38.4,205.1c2.8,0,5.5,0,8.4,0c0,2.8,0,5.5,0,8.4c-2.7,0-5.5,0-8.4,0C38.4,210.8,38.4,208.1,38.4,205.1z"/>
	<path d="M61.8,213.7c-2.9,0-5.5,0-8.3,0c0-2.8,0-5.5,0-8.5c2.6,0,5.4,0,8.3,0C61.8,207.9,61.8,210.7,61.8,213.7z"/>
	<path d="M76.9,205.2c0,2.9,0,5.6,0,8.4c-2.8,0-5.5,0-8.4,0c0-2.7,0-5.5,0-8.4C71.2,205.2,74,205.2,76.9,205.2z"/>
	<path d="M83.4,213.5c0-2.8,0-5.5,0-8.4c2.9,0,5.6,0,8.5,0c0,2.8,0,5.5,0,8.4C89.2,213.5,86.5,213.5,83.4,213.5z"/>
	<path d="M114.2,213.5c0-2.9,0-5.6,0-8.4c2.8,0,5.5,0,8.4,0c0,2.7,0,5.5,0,8.4C119.9,213.5,117.1,213.5,114.2,213.5z"/>
	<path d="M159.4,205.1c2.8,0,5.5,0,8.3,0c0,2.9,0,5.6,0,8.5c-2.8,0-5.4,0-8.3,0C159.4,210.9,159.4,208.1,159.4,205.1z"/>
	<path d="M228.6,205.2c0,2.8,0,5.5,0,8.4c-2.9,0-5.6,0-8.5,0c0-2.8,0-5.5,0-8.4C222.8,205.2,225.6,205.2,228.6,205.2z"/>
	<path d="M235.1,213.5c0-2.9,0-5.4,0-8.3c2.8,0,5.5,0,8.5,0c0,2.7,0,5.4,0,8.3C240.7,213.5,237.9,213.5,235.1,213.5z"/>
	<path d="M258.7,205.2c0,2.9,0,5.6,0,8.4c-2.8,0-5.5,0-8.4,0c0-2.7,0-5.4,0-8.4C253,205.2,255.7,205.2,258.7,205.2z"/>
	<path d="M319.4,213.6c-2.9,0-5.6,0-8.4,0c0-2.8,0-5.5,0-8.4c2.7,0,5.4,0,8.4,0C319.4,207.9,319.4,210.6,319.4,213.6z"/>
	<path d="M341.2,205c2.9,0,5.4,0,8.3,0c0,2.8,0,5.5,0,8.5c-2.7,0-5.4,0-8.3,0C341.2,210.7,341.2,207.9,341.2,205z"/>
	<path d="M356.7,213.6c0-2.8,0-5.5,0-8.4c2.8,0,5.5,0,8.4,0c0,2.7,0,5.5,0,8.4C362.4,213.6,359.8,213.6,356.7,213.6z"/>
	<path d="M402,205.1c2.9,0,5.5,0,8.4,0c0,2.8,0,5.5,0,8.4c-2.7,0-5.4,0-8.4,0C402,210.8,402,208.1,402,205.1z"/>
	<path d="M441.2,205.2c0,2.9,0,5.5,0,8.3c-2.8,0-5.5,0-8.5,0c0-2.6,0-5.4,0-8.3C435.4,205.2,438.1,205.2,441.2,205.2z"/>
	<path d="M471.2,205.2c0,2.9,0,5.6,0,8.4c-2.8,0-5.5,0-8.4,0c0-2.7,0-5.5,0-8.4C465.5,205.2,468.2,205.2,471.2,205.2z"/>
	<path d="M477.7,213.6c0-2.8,0-5.5,0-8.4c2.7,0,5.5,0,8.4,0c0,2.7,0,5.4,0,8.4C483.4,213.6,480.6,213.6,477.7,213.6z"/>
	<path d="M492.9,205.1c2.8,0,5.5,0,8.4,0c0,2.9,0,5.6,0,8.5c-2.8,0-5.5,0-8.4,0C492.9,210.9,492.9,208.1,492.9,205.1z"/>
	<path d="M508.4,213.5c0-2.8,0-5.5,0-8.3c2.9,0,5.6,0,8.5,0c0,2.8,0,5.4,0,8.3C514.2,213.5,511.5,213.5,508.4,213.5z"/>
	<path d="M371.9,235.2c2.9,0,5.6,0,8.4,0c0,2.8,0,5.5,0,8.4c-2.7,0-5.5,0-8.4,0C371.9,240.9,371.9,238.2,371.9,235.2z"/>
	<path d="M386.9,235.2c2.8,0,5.5,0,8.4,0c0,2.9,0,5.6,0,8.5c-2.8,0-5.5,0-8.4,0C386.9,241,386.9,238.2,386.9,235.2z"/>
	<path d="M401.8,243.6c0-2.9,0-5.4,0-8.3c2.8,0,5.5,0,8.5,0c0,2.7,0,5.4,0,8.3C407.4,243.6,404.6,243.6,401.8,243.6z"/>
	<path d="M477.8,235.1c2.9,0,5.4,0,8.3,0c0,2.8,0,5.5,0,8.5c-2.7,0-5.4,0-8.3,0C477.8,240.8,477.8,238,477.8,235.1z"/>
	<path d="M547,235.2c0,2.9,0,5.5,0,8.4c-2.8,0-5.5,0-8.5,0c0-2.8,0-5.5,0-8.4C541.3,235.2,544,235.2,547,235.2z"/>
	<path d="M228.6,235.3c0,2.8,0,5.5,0,8.3c-2.8,0-5.6,0-8.5,0c0-2.7,0-5.4,0-8.3C222.8,235.3,225.5,235.3,228.6,235.3z"/>
	<path d="M198.5,243.7c-2.8,0-5.5,0-8.4,0c0-2.8,0-5.5,0-8.4c2.7,0,5.5,0,8.4,0C198.5,238,198.5,240.7,198.5,243.7z"/>
	<path d="M553.6,243.6c0-2.9,0-5.5,0-8.4c2.8,0,5.5,0,8.4,0c0,2.7,0,5.4,0,8.4C559.3,243.6,556.6,243.6,553.6,243.6z"/>
	<path d="M174.4,235.2c2.8,0,5.5,0,8.4,0c0,2.8,0,5.5,0,8.4c-2.7,0-5.5,0-8.4,0C174.4,240.9,174.4,238.2,174.4,235.2z"/>
	<path d="M577.1,235.3c0,2.9,0,5.6,0,8.4c-2.8,0-5.5,0-8.4,0c0-2.7,0-5.5,0-8.4C571.4,235.3,574.1,235.3,577.1,235.3z"/>
	<path d="M53.5,250.2c2.9,0,5.4,0,8.3,0c0,2.8,0,5.5,0,8.5c-2.7,0-5.4,0-8.3,0C53.5,255.8,53.5,253,53.5,250.2z"/>
	<path d="M76.9,258.8c-2.9,0-5.5,0-8.3,0c0-2.8,0-5.5,0-8.5c2.7,0,5.4,0,8.3,0C76.9,253.1,76.9,255.8,76.9,258.8z"/>
	<path d="M129.3,250.2c2.9,0,5.5,0,8.3,0c0,2.8,0,5.5,0,8.5c-2.6,0-5.4,0-8.3,0C129.3,255.9,129.3,253.2,129.3,250.2z"/>
	<path d="M167.8,250.3c0,2.8,0,5.5,0,8.4c-2.8,0-5.5,0-8.4,0c0-2.7,0-5.5,0-8.4C162.1,250.3,164.8,250.3,167.8,250.3z"/>
	<path d="M174.4,258.7c0-2.8,0-5.5,0-8.4c2.7,0,5.5,0,8.4,0c0,2.7,0,5.4,0,8.4C180,258.7,177.2,258.7,174.4,258.7z"/>
	<path d="M198.4,258.7c-2.9,0-5.5,0-8.4,0c0-2.8,0-5.5,0-8.4c2.7,0,5.4,0,8.4,0C198.4,253,198.4,255.7,198.4,258.7z"/>
	<path d="M213.6,250.3c0,2.9,0,5.5,0,8.4c-2.8,0-5.5,0-8.4,0c0-2.7,0-5.4,0-8.4C207.8,250.3,210.6,250.3,213.6,250.3z"/>
	<path d="M137.7,235.3c0,2.8,0,5.5,0,8.3c-2.8,0-5.6,0-8.5,0c0-2.7,0-5.4,0-8.3C131.9,235.3,134.6,235.3,137.7,235.3z"/>
	<path d="M122.6,243.7c-2.8,0-5.4,0-8.3,0c0-2.8,0-5.6,0-8.5c2.7,0,5.4,0,8.3,0C122.6,237.9,122.6,240.6,122.6,243.7z"/>
	<path d="M107,243.7c-2.9,0-5.5,0-8.4,0c0-2.8,0-5.5,0-8.5c2.8,0,5.5,0,8.4,0C107,238,107,240.7,107,243.7z"/>
	<path d="M23.3,243.6c0-2.8,0-5.5,0-8.3c2.8,0,5.6,0,8.5,0c0,2.7,0,5.4,0,8.3C29.1,243.6,26.4,243.6,23.3,243.6z"/>
	<path d="M577,228.6c-2.9,0-5.6,0-8.4,0c0-2.8,0-5.5,0-8.4c2.7,0,5.5,0,8.4,0C577,222.9,577,225.7,577,228.6z"/>
	<path d="M553.6,228.6c0-2.8,0-5.5,0-8.4c2.8,0,5.5,0,8.4,0c0,2.7,0,5.5,0,8.4C559.3,228.6,556.6,228.6,553.6,228.6z"/>
	<path d="M220,258.6c0-2.9,0-5.4,0-8.3c2.8,0,5.5,0,8.5,0c0,2.7,0,5.4,0,8.3C225.7,258.6,222.9,258.6,220,258.6z"/>
	<path d="M547,220.2c0,2.8,0,5.5,0,8.4c-2.8,0-5.5,0-8.4,0c0-2.7,0-5.5,0-8.4C541.3,220.2,544,220.2,547,220.2z"/>
	<path d="M523.5,228.6c0-2.8,0-5.5,0-8.4c2.7,0,5.5,0,8.4,0c0,2.7,0,5.4,0,8.4C529.1,228.6,526.4,228.6,523.5,228.6z"/>
	<path d="M94.7,72.9c0,4.7,0.1,9.4,0,14.1c-0.2,4.8-2.8,7.5-7.7,7.6c-9.4,0.1-18.8,0.1-28.2,0c-4.5-0.1-6.8-2.2-7.7-6.7
		c-0.2-1-0.4-2.1-0.4-3.1c0-8-0.1-16.1,0-24.1c0.1-6.8,3-9.8,9.7-9.9c8.2-0.2,16.5-0.2,24.7,0c6.7,0.1,9.3,2.9,9.5,9.6
		c0,0.2,0,0.4,0,0.6c0,4,0,7.9,0,11.9C94.7,72.9,94.7,72.9,94.7,72.9z"/>
	<path d="M549.1,72.9c0,4.7,0.1,9.4,0,14.1c-0.2,4.8-2.8,7.6-7.6,7.7c-9.4,0.2-18.8,0.1-28.2,0c-4.6-0.1-6.8-2.2-7.7-6.7
		c-0.2-1-0.4-2.1-0.4-3.1c0-8-0.1-16.1,0-24.1c0.1-7,3-9.9,10-10c8.1-0.1,16.3-0.1,24.4,0c6.8,0.1,9.4,2.9,9.6,9.6
		c0,0.2,0,0.4,0,0.6c0,4,0,7.9,0,11.9C549.2,72.9,549.1,72.9,549.1,72.9z"/>
	<path d="M94.7,527.7c0,4.6,0.1,9.2,0,13.8c-0.2,4.8-2.8,7.6-7.6,7.7c-9.5,0.2-19,0.1-28.5,0c-4.2-0.1-6.5-2.2-7.3-6.3
		c-0.2-1.1-0.4-2.3-0.4-3.4c0-8-0.1-16.1,0-24.1c0.1-7,3-9.9,10-10c8.1-0.1,16.3-0.1,24.4,0c6.8,0.1,9.4,2.9,9.6,9.6
		C94.8,519.2,94.8,523.4,94.7,527.7C94.7,527.7,94.7,527.7,94.7,527.7z"/>
</g>
<g>
	<path class="st2" d="M363.2,252c0-9.1-6.1-15.2-15.2-15.2c-32,0-63.9,0-95.9,0c-9.1,0-15.2,6.1-15.2,15.2c0,32,0,63.9,0,95.9
		c0,9.3,6.1,15.3,15.3,15.3c15.9,0,31.7,0,47.6,0c16,0,32,0,48.1,0c9.3,0,15.4-6,15.4-15.3C363.2,315.9,363.2,284,363.2,252z
		 M289.2,314.2c0.6,2.7,0.4,3-2.5,2.7c-2.2-0.2-4.5-0.4-6.7-0.9c-2.4-0.6-4.4-0.4-6.4,1c-1.4,1-2.9,1.8-4.4,2.5
		c-0.5,0.2-1.2,0.3-1.7,0c-0.3-0.1-0.4-1.1-0.2-1.4c2.3-4.7,0.2-7.6-3.3-11.1c-10-9.9-9-24.7,1.6-34c6.1-5.4,14.1-8.2,24.6-8.2
		c10,0.5,19.9,4.7,25.9,15.7c3.1,5.6,2.9,5.7-3.3,6.6c-10.7,1.6-19,6.6-23,17.2C288.7,307.5,288.5,310.8,289.2,314.2z M336,325.4
		c-2.2,2-2.9,3.7-1.9,6.4c0.3,0.8,0.1,1.8,0.1,2.7c-0.9-0.2-2-0.2-2.7-0.7c-3-2.2-6.1-2.4-9.8-1.7c-9.3,1.6-17.8-0.9-24.6-7.6
		c-8.4-8.3-7.5-21.3,1.7-29c5.3-4.4,11.5-6.3,18.5-6.5c7,0.2,13.5,2.3,18.8,7.1C345.3,304.2,345.4,317.2,336,325.4z"/>
	<path class="st2" d="M298.7,286.2c1.9-0.1,3.5-1.7,3.5-3.6c0-2-1.8-3.7-3.7-3.7c-1.9,0.1-3.5,1.7-3.5,3.6
		C294.9,284.6,296.7,286.3,298.7,286.2z"/>
	<path class="st2" d="M277.9,278.9c-2,0-3.7,1.7-3.6,3.7c0,2,1.6,3.5,3.5,3.6c1.9,0,3.6-1.5,3.6-3.5
		C281.5,280.7,279.9,279,277.9,278.9z"/>
	<path class="st2" d="M308.5,300.5c-1.7,0-3.1,1.4-3.1,3.1c0,1.8,1.5,3.2,3.2,3.2c1.7,0,3.1-1.4,3.1-3.1
		C311.8,301.9,310.3,300.5,308.5,300.5z"/>
	<path class="st2" d="M325.8,300.5c-1.7,0-3.1,1.4-3.1,3.1c0,1.8,1.5,3.3,3.2,3.2c1.7-0.1,3-1.5,3-3.2
		C328.9,301.8,327.5,300.5,325.8,300.5z"/>
</g>
</svg>
