<?xml version="1.0" encoding="utf-8"?>
<!-- Generator: Adobe Illustrator 19.0.0, SVG Export Plug-In . SVG Version: 6.00 Build 0)  -->
<svg version="1.1" id="图层_1" xmlns="http://www.w3.org/2000/svg" xmlns:xlink="http://www.w3.org/1999/xlink" x="0px" y="0px"
	 viewBox="0 0 200 130" style="enable-background:new 0 0 200 130;" xml:space="preserve">
<style type="text/css">
	.st0{fill:#004990;}
	.st1{fill:#FFFFFF;}
	.st2{fill:#EF3E42;}
</style>
<g id="XMLID_17_">
	<rect id="XMLID_16_" class="st0" width="200" height="130"/>
	<rect id="XMLID_15_" class="st0" width="100" height="65"/>
	<polygon id="XMLID_14_" class="st1" points="100,22.8 60,22.8 60,0 40,0 40,22.8 0,22.8 0,42.3 40,42.3 40,65 60,65 60,42.3 
		100,42.3 	"/>
	<polygon id="XMLID_13_" class="st1" points="100,57.5 11.5,0 0,0 0,7.5 88.4,65 100,65 	"/>
	<polygon id="XMLID_12_" class="st1" points="0,57.5 88.5,0 100,0 100,7.5 11.6,65 0,65 	"/>
	<polygon id="XMLID_11_" class="st2" points="100,26.8 55.8,26.8 55.8,0 44.2,0 44.2,26.8 0,26.8 0,38.2 44.2,38.2 44.2,65 55.8,65 
		55.8,38.2 100,38.2 	"/>
	<polygon id="XMLID_10_" class="st2" points="100,64.8 100,59.7 73.1,42.3 65.2,42.3 	"/>
	<polygon id="XMLID_9_" class="st2" points="100,0 92.1,0 60,20.8 60,22.8 64.9,22.8 100,0 	"/>
	<polygon id="XMLID_8_" class="st2" points="34.8,42.3 0,64.8 0,65 7.6,65 40,44 40,42.3 	"/>
	<polygon id="XMLID_7_" class="st2" points="0,0 0,5.2 27.1,22.8 35,22.8 	"/>
	<polygon id="XMLID_6_" class="st1" points="50,82.6 53,91.8 62.3,88.4 56.8,96.4 65.4,101.4 55.5,102.2 56.8,111.8 50,104.8 
		43.2,111.8 44.5,102.2 34.6,101.4 43.2,96.4 37.7,88.4 47,91.8 	"/>
	<polygon id="XMLID_5_" class="st1" points="150,101.1 151.5,105.6 156,103.9 153.4,107.8 157.5,110.3 152.7,110.7 153.4,115.4 
		150,111.9 146.7,115.4 147.3,110.7 142.5,110.3 146.7,107.8 144,103.9 148.5,105.6 	"/>
	<polygon id="XMLID_4_" class="st1" points="125,49.6 126.5,54.1 131,52.5 128.4,56.4 132.5,58.8 127.7,59.2 128.4,63.9 125,60.5 
		121.7,63.9 122.3,59.2 117.5,58.8 121.7,56.4 119,52.5 123.5,54.1 	"/>
	<polygon id="XMLID_3_" class="st1" points="150,14.5 151.5,19 156,17.3 153.4,21.3 157.5,23.7 152.7,24.1 153.4,28.8 150,25.4 
		146.7,28.8 147.3,24.1 142.5,23.7 146.7,21.3 144,17.3 148.5,19 	"/>
	<polygon id="XMLID_2_" class="st1" points="172.2,41 173.7,45.6 178.2,43.9 175.6,47.8 179.7,50.2 174.9,50.6 175.6,55.3 
		172.2,51.9 168.9,55.3 169.5,50.6 164.7,50.2 168.9,47.8 166.2,43.9 170.7,45.6 	"/>
	<polygon id="XMLID_1_" class="st1" points="160.1,66.5 161.2,69.2 164.2,69.5 161.9,71.4 162.6,74.2 160.1,72.7 157.5,74.2 
		158.2,71.4 155.9,69.5 158.9,69.2 	"/>
</g>
</svg>
