<?xml version="1.0" encoding="utf-8"?>
<!-- Generator: Adobe Illustrator 19.0.0, SVG Export Plug-In . SVG Version: 6.00 Build 0)  -->
<svg version="1.1" id="图层_1" xmlns="http://www.w3.org/2000/svg" xmlns:xlink="http://www.w3.org/1999/xlink" x="0px" y="0px"
	 viewBox="0 0 200 130" style="enable-background:new 0 0 200 130;" xml:space="preserve">
<style type="text/css">
	.st0{fill:#00923E;}
	.st1{fill:#F8C100;}
	.st2{fill:#28166F;}
	.st3{fill:#FFFFFF;}
</style>
<g id="XMLID_55_">
	<rect id="XMLID_54_" class="st0" width="200" height="130"/>
	<polygon id="XMLID_53_" class="st1" points="20,65 100,114.8 180,65 100,15.2 	"/>
	<path id="XMLID_52_" class="st2" d="M100,31.6c18.9,0,34.2,15,34.2,33.4c0,18.4-15.3,33.4-34.2,33.4c-18.9,0-34.3-14.9-34.3-33.4
		C65.7,46.6,81.1,31.6,100,31.6z"/>
	<path id="XMLID_51_" class="st3" d="M134.1,68.4C119.1,56.7,100,50,79.3,50.7c-3.7,0.1-7.2,0.5-10.8,1.1c-0.7,1.7-1.3,3.4-1.8,5.2
		c4.1-0.8,8.4-1.3,12.7-1.5c20.4-0.7,39.2,6.3,53.6,18.2C133.5,72,133.9,70.2,134.1,68.4z"/>
	<path id="XMLID_115_" class="st0" d="M69.5,54l0-0.8l0.2-0.5l0.4-0.4l0.7-0.2l1.2,0.3l0.6,1.2l-0.3,1.3l-1.1,0.6l-1.2-0.3L69.5,54z
		 M70.2,53.9l0.4,0.8l0.7,0.2l0.6-0.4l0.1-0.9l-0.4-0.8L71,52.6L70.3,53L70.2,53.9z"/>
	<path id="XMLID_112_" class="st0" d="M74.2,55l-0.3-3.3l1.4-0.1l0.8,0l0.4,0.3l0.2,0.5l-0.2,0.6L76,53.4l0.4,0.2l0.4,0.5l0.5,0.6
		l-0.8,0.1l-0.6-0.7l-0.4-0.4l-0.2-0.1l-0.4,0l-0.1,0l0.1,1.4L74.2,55z M74.7,53.1l0.5,0l0.6-0.1l0.2-0.2l0-0.2L76,52.3l-0.3-0.1
		l-0.5,0l-0.5,0L74.7,53.1z"/>
	<path id="XMLID_109_" class="st0" d="M78.3,51.4l1.2,0l0.6,0l0.5,0.3l0.3,0.5l0.1,0.8l-0.1,0.7l-0.3,0.6l-0.5,0.3l-0.6,0.1l-1.3,0
		L78.3,51.4z M79,52l0.1,2.2l0.5,0l0.4,0l0.3-0.1l0.2-0.3l0.1-0.6l-0.1-0.6l-0.2-0.3L79.8,52l-0.6,0L79,52z"/>
	<polygon id="XMLID_44_" class="st0" points="82.5,54.6 82.5,51.3 85,51.4 85,51.9 83.2,51.9 83.2,52.6 84.9,52.6 84.9,53.2 
		83.2,53.2 83.2,54.1 85,54.1 85,54.6 	"/>
	<polygon id="XMLID_43_" class="st0" points="86.4,54.7 86.6,51.4 87.6,51.5 88.1,53.8 88.8,51.6 89.8,51.6 89.6,54.9 89,54.9 
		89.2,52.3 88.3,54.8 87.7,54.8 87.2,52.2 87,54.7 	"/>
	<polygon id="XMLID_42_" class="st0" points="93.1,55.3 93.6,52.1 96,52.4 95.9,53 94.2,52.7 94,53.4 95.7,53.7 95.6,54.2 94,54 
		93.8,54.8 95.7,55.1 95.6,55.7 	"/>
	<path id="XMLID_103_" class="st0" d="M98.9,56.3l0.8-3.2l1.1,0.2l0.8,0.2l0.4,0.4l0,0.7l-0.2,0.5l-0.4,0.3l-0.4,0.1l-0.7-0.1
		l-0.4-0.1l-0.3,1.2L98.9,56.3z M100.2,53.8l-0.2,0.9l0.4,0.1l0.5,0.1l0.2-0.1l0.1-0.2l0-0.3L101,54l-0.5-0.1L100.2,53.8z"/>
	<path id="XMLID_100_" class="st0" d="M102.7,57.2l0.9-3.1l1.4,0.4l0.7,0.3l0.3,0.4v0.5l-0.4,0.5l-0.7,0.1l0.3,0.4l0.2,0.6l0.2,0.7
		l-0.8-0.2l-0.3-0.8l-0.2-0.6l-0.2-0.2l-0.3-0.1l-0.1,0l-0.4,1.3L102.7,57.2z M103.9,55.5l0.5,0.1l0.6,0.1l0.2-0.1l0.1-0.2l0-0.3
		l-0.2-0.2l-0.5-0.1l-0.5-0.1L103.9,55.5z"/>
	<path id="XMLID_97_" class="st0" d="M107.1,56.7l0.4-0.7l0.4-0.3l0.5-0.1l0.7,0.1l1,0.8v1.3l-0.8,1l-1.3,0l-1-0.8V56.7z
		 M107.7,56.9l0,0.9l0.5,0.5l0.7-0.1l0.5-0.7l0-0.9l-0.5-0.5l-0.7,0L107.7,56.9z"/>
	<polygon id="XMLID_35_" class="st0" points="112.7,59.2 112.9,58.7 114.3,59.2 113.8,60.4 113,60.6 112.2,60.4 111.5,59.9 
		111.2,59.1 111.3,58.2 111.9,57.4 112.7,57.1 113.5,57.3 114.3,57.9 114.5,58.7 113.8,58.5 113.7,58.1 113.3,57.8 112.5,57.8 
		112,58.4 111.9,59.3 112.4,59.9 112.8,59.9 113.3,59.9 113.4,59.5 	"/>
	<path id="XMLID_93_" class="st0" d="M114.9,61.4l1.4-2.9l1.3,0.6l0.7,0.4l0.2,0.4l-0.1,0.5l-0.5,0.5l-0.7,0l0.2,0.4l0.1,0.6
		l0.1,0.7l-0.7-0.3l-0.1-0.8l-0.1-0.6l-0.1-0.2l-0.3-0.2l-0.1-0.1l-0.6,1.2L114.9,61.4z M116.3,60l0.5,0.2l0.6,0.2l0.2,0l0.2-0.2
		l0-0.3l-0.2-0.2l-0.4-0.2l-0.5-0.2L116.3,60z"/>
	<polygon id="XMLID_32_" class="st0" points="118.6,63.2 120.2,60.3 122.3,61.5 122.1,62 120.5,61.1 120.1,61.8 121.6,62.5 
		121.3,63 119.9,62.2 119.4,63 121.1,63.9 120.8,64.4 	"/>
	<polygon id="XMLID_31_" class="st0" points="122.4,64 123,64.3 122.9,64.8 123.2,65.2 123.7,65.3 124.1,65.2 124.1,64.9 124,64.7 
		123.6,64.3 123.1,63.6 123.2,62.9 123.6,62.6 124.1,62.5 124.7,62.8 125.4,63.5 125.3,64.3 124.7,63.9 124.7,63.5 124.4,63.2 
		124,63.1 123.8,63.2 123.7,63.4 124.2,63.9 124.6,64.5 124.8,65 124.6,65.5 124.2,65.9 123.6,65.9 122.9,65.7 122.3,64.9 	"/>
	<polygon id="XMLID_30_" class="st0" points="125.7,66 126.3,66.3 126.2,66.9 126.5,67.3 127,67.4 127.3,67.2 127.4,67 127.3,66.8 
		126.9,66.4 126.5,65.7 126.6,65 127,64.7 127.5,64.6 128.1,64.9 128.8,65.6 128.6,66.4 128,66.1 128.1,65.7 127.8,65.4 127.4,65.2 
		127.1,65.3 127.1,65.5 127.5,66 128,66.6 128.1,67.1 127.9,67.6 127.5,68 126.9,68 126.2,67.7 125.6,66.9 	"/>
	<path id="XMLID_87_" class="st0" d="M129.3,67.8l0.6-0.6l0.5-0.2l0.5,0l0.7,0.3l0.7,1.1l-0.4,1.3l-1.1,0.7l-1.2-0.3l-0.7-1.1
		L129.3,67.8z M129.9,68.2l-0.3,0.8l0.4,0.6l0.7,0.2l0.7-0.5l0.3-0.8l-0.4-0.6l-0.7-0.2L129.9,68.2z"/>
	<polygon id="XMLID_27_" class="st3" points="110.9,52.3 111.2,53.3 112.2,53.3 111.4,53.9 111.7,54.8 110.9,54.2 110,54.8 
		110.4,53.9 109.6,53.3 110.6,53.3 	"/>
	<polygon id="XMLID_26_" class="st3" points="100.1,79.3 100.4,80.2 101.5,80.2 100.6,80.8 101,81.8 100.1,81.2 99.3,81.8 
		99.6,80.8 98.8,80.2 99.8,80.2 	"/>
	<polygon id="XMLID_25_" class="st3" points="124.4,76 124.8,76.9 125.8,76.9 125,77.5 125.3,78.5 124.4,77.9 123.6,78.5 
		123.9,77.5 123.1,76.9 124.1,76.9 	"/>
	<polygon id="XMLID_24_" class="st3" points="129.2,76.8 129.4,77.4 130.1,77.4 129.6,77.8 129.8,78.4 129.2,78 128.7,78.4 
		128.9,77.8 128.4,77.4 129,77.4 	"/>
	<polygon id="XMLID_23_" class="st3" points="125.8,79.2 126.1,80 127,80 126.3,80.5 126.6,81.3 125.8,80.8 125.1,81.3 125.4,80.5 
		124.7,80 125.6,80 	"/>
	<polygon id="XMLID_22_" class="st3" points="123.7,81.9 124,82.7 124.8,82.7 124.1,83.3 124.4,84.1 123.7,83.6 123,84.1 
		123.3,83.3 122.5,82.7 123.4,82.7 	"/>
	<polygon id="XMLID_21_" class="st3" points="120.9,83.9 121.2,84.5 121.8,84.5 121.3,84.9 121.5,85.6 120.9,85.2 120.4,85.6 
		120.6,84.9 120.1,84.5 120.7,84.5 	"/>
	<polygon id="XMLID_20_" class="st3" points="117.3,83.3 117.6,83.9 118.2,83.9 117.7,84.2 117.9,84.9 117.3,84.5 116.8,84.9 
		117,84.2 116.5,83.9 117.1,83.9 	"/>
	<polygon id="XMLID_19_" class="st3" points="113.5,84.4 113.7,85.1 114.4,85.1 113.8,85.5 114.1,86.2 113.5,85.7 112.9,86.2 
		113.1,85.5 112.5,85.1 113.2,85.1 	"/>
	<polygon id="XMLID_18_" class="st3" points="117.4,89.9 117.6,90.5 118.3,90.5 117.8,90.9 118,91.6 117.4,91.2 116.9,91.6 
		117.1,90.9 116.5,90.5 117.2,90.5 	"/>
	<polygon id="XMLID_17_" class="st3" points="110.4,87 110.7,87.9 111.6,87.9 110.9,88.4 111.2,89.2 110.4,88.7 109.7,89.2 
		110,88.4 109.2,87.9 110.1,87.9 	"/>
	<polygon id="XMLID_16_" class="st3" points="107.7,83.5 108,84.2 108.7,84.2 108.1,84.6 108.3,85.2 107.7,84.8 107.2,85.2 
		107.4,84.6 106.8,84.2 107.5,84.2 	"/>
	<polygon id="XMLID_15_" class="st3" points="117.5,86.2 117.8,87.1 118.7,87.1 118,87.6 118.2,88.4 117.5,87.9 116.8,88.4 
		117.1,87.6 116.3,87.1 117.2,87.1 	"/>
	<polygon id="XMLID_14_" class="st3" points="100.1,91.6 100.2,91.9 100.5,91.9 100.3,92.1 100.4,92.4 100.1,92.2 99.8,92.4 
		99.9,92.1 99.7,91.9 100,91.9 	"/>
	<polygon id="XMLID_13_" class="st3" points="109.2,62.5 109.4,63.2 110.1,63.2 109.6,63.6 109.8,64.3 109.2,63.9 108.6,64.3 
		108.8,63.6 108.2,63.2 109,63.2 	"/>
	<polygon id="XMLID_12_" class="st3" points="100.1,69.8 100.4,70.6 101.1,70.6 100.5,71 100.8,71.7 100.1,71.3 99.5,71.7 99.7,71 
		99.1,70.6 99.9,70.6 	"/>
	<polygon id="XMLID_11_" class="st3" points="104.1,72.9 104.4,73.7 105.2,73.7 104.6,74.1 104.8,74.9 104.1,74.4 103.5,74.9 
		103.7,74.1 103,73.7 103.9,73.7 	"/>
	<polygon id="XMLID_10_" class="st3" points="96.6,73 96.8,73.6 97.5,73.6 97,74 97.2,74.6 96.6,74.2 96.1,74.6 96.3,74 95.8,73.6 
		96.4,73.6 	"/>
	<polygon id="XMLID_9_" class="st3" points="98.3,75.7 98.4,76.1 98.9,76.1 98.5,76.4 98.7,76.8 98.3,76.5 97.9,76.8 98.1,76.4 
		97.7,76.1 98.2,76.1 	"/>
	<polygon id="XMLID_8_" class="st3" points="71.7,58.1 72,59.1 73,59.1 72.2,59.7 72.5,60.6 71.7,60 70.9,60.6 71.2,59.7 70.4,59.1 
		71.4,59.1 	"/>
	<polygon id="XMLID_7_" class="st3" points="86.7,65.7 86.9,66.5 87.8,66.5 87.1,67 87.4,67.8 86.7,67.3 86,67.8 86.3,67 85.6,66.5 
		86.4,66.5 	"/>
	<polygon id="XMLID_6_" class="st3" points="74.8,72.3 75.1,73.3 76.1,73.3 75.3,73.9 75.6,74.8 74.8,74.2 74,74.8 74.3,73.9 
		73.5,73.3 74.5,73.3 	"/>
	<polygon id="XMLID_5_" class="st3" points="78.2,70.9 78.3,71.4 78.8,71.4 78.4,71.7 78.6,72.2 78.2,71.9 77.8,72.2 77.9,71.7 
		77.5,71.4 78,71.4 	"/>
	<polygon id="XMLID_4_" class="st3" points="82.1,75.9 82.3,76.7 83.2,76.7 82.5,77.2 82.8,78 82.1,77.5 81.4,78 81.6,77.2 
		80.9,76.7 81.8,76.7 	"/>
	<polygon id="XMLID_3_" class="st3" points="86.1,82.1 86.5,83 87.5,83 86.7,83.6 87,84.5 86.1,84 85.3,84.5 85.6,83.6 84.8,83 
		85.8,83 	"/>
	<polygon id="XMLID_2_" class="st3" points="80.9,79.3 81.2,80.1 82.1,80.1 81.4,80.6 81.6,81.4 80.9,80.9 80.2,81.4 80.5,80.6 
		79.8,80.1 80.7,80.1 	"/>
	<polygon id="XMLID_1_" class="st3" points="70.5,75.8 70.7,76.4 71.4,76.4 70.8,76.8 71.1,77.4 70.5,77 70,77.4 70.2,76.8 
		69.6,76.4 70.3,76.4 	"/>
</g>
</svg>
