<?xml version="1.0" encoding="utf-8"?>
<!-- Generator: Adobe Illustrator 19.0.0, SVG Export Plug-In . SVG Version: 6.00 Build 0)  -->
<svg version="1.1" id="图层_1" xmlns="http://www.w3.org/2000/svg" xmlns:xlink="http://www.w3.org/1999/xlink" x="0px" y="0px"
	 viewBox="0 0 200 130" style="enable-background:new 0 0 200 130;" xml:space="preserve">
<style type="text/css">
	.st0{fill:#E31937;}
	.st1{fill:#FFFFFF;}
</style>
<g id="XMLID_5_">
	<rect id="XMLID_4_" x="0" y="0" class="st0" width="50" height="130"/>
	<rect id="XMLID_3_" x="50" y="0" class="st1" width="100" height="130"/>
	<rect id="XMLID_2_" x="150" y="0" class="st0" width="50" height="130"/>
	<path id="XMLID_1_" class="st0" d="M100,108.9h1.6l-0.5-20.5l1.5-1.2c6.6,0.8,12.5,1.5,19.1,2.2l-1.7-5.6c-0.3-1,0.1-2.1,0.9-2.7
		L140,65.3l-4-1.9c-1.7-0.6-1.2-1.6-0.6-4l2.9-10.8l-11.1,2.4c-1.1,0.2-1.8-0.5-2-1.2l-1.4-5.1l-8.8,10c-1.2,1.6-3.8,1.6-3-2.1
		l3.8-20.3l-5,2.7c-1.4,0.8-2.8,0.9-3.6-0.5L100,21.1l-7.1,13.2c-0.8,1.4-2.2,1.3-3.6,0.5l-5-2.7L88,52.5c0.8,3.7-1.7,3.7-3,2.1
		l-8.8-10l-1.4,5.1c-0.2,0.7-0.9,1.4-2,1.2l-11.1-2.4l2.9,10.8c0.6,2.4,1.1,3.4-0.6,4l-4,1.9l19.2,15.9c0.8,0.6,1.1,1.7,0.9,2.7
		l-1.7,5.6c6.6-0.8,12.5-1.5,19.1-2.2l1.5,1.2l-0.5,20.5H100z"/>
</g>
</svg>
