<?xml version="1.0" encoding="utf-8"?>
<!-- Generator: Adobe Illustrator 19.0.0, SVG Export Plug-In . SVG Version: 6.00 Build 0)  -->
<svg version="1.2" baseProfile="tiny" id="图层_1"
	 xmlns="http://www.w3.org/2000/svg" xmlns:xlink="http://www.w3.org/1999/xlink" x="0px" y="0px" viewBox="0 0 200 130"
	 xml:space="preserve">
<g id="XMLID_65_">
	<rect id="XMLID_64_" y="90" fill="#FFFFFF" width="200" height="10"/>
	<rect id="XMLID_63_" y="80" fill="#BF0A30" width="200" height="10"/>
	<rect id="XMLID_62_" y="110" fill="#FFFFFF" width="200" height="10"/>
	<rect id="XMLID_61_" y="120" fill="#BF0A30" width="200" height="10"/>
	<rect id="XMLID_60_" y="100" fill="#BF0A30" width="200" height="10"/>
	<rect id="XMLID_59_" y="70" fill="#FFFFFF" width="200" height="10"/>
	<rect id="XMLID_58_" y="40" fill="#BF0A30" width="200" height="10"/>
	<rect id="XMLID_57_" y="10" fill="#FFFFFF" width="200" height="10"/>
	<rect id="XMLID_56_" y="20" fill="#BF0A30" width="200" height="10"/>
	<rect id="XMLID_55_" y="60" fill="#BF0A30" width="200" height="10"/>
	<rect id="XMLID_54_" fill="#BF0A30" width="200" height="10"/>
	<rect id="XMLID_53_" y="30" fill="#FFFFFF" width="200" height="10"/>
	<rect id="XMLID_52_" y="50" fill="#FFFFFF" width="200" height="10"/>
	<rect id="XMLID_51_" fill="#002868" width="80" height="70.1"/>
	<polygon id="XMLID_50_" fill="#FFFFFF" points="60.1,3.7 60.6,5.4 62.4,5.4 61,6.4 61.5,8.1 60.1,7.1 58.6,8.1 59.2,6.4 57.7,5.4 
		59.5,5.4 	"/>
	<polygon id="XMLID_49_" fill="#FFFFFF" points="60.1,18.3 60.6,20 62.4,20 61,21 61.5,22.6 60.1,21.6 58.6,22.6 59.2,21 57.7,20 
		59.5,20 	"/>
	<polygon id="XMLID_48_" fill="#FFFFFF" points="60.1,32.9 60.6,34.5 62.4,34.5 61,35.6 61.5,37.2 60.1,36.2 58.6,37.2 59.2,35.6 
		57.7,34.5 59.5,34.5 	"/>
	<polygon id="XMLID_47_" fill="#FFFFFF" points="60.1,47.8 60.6,49.4 62.4,49.4 61,50.4 61.5,52.1 60.1,51.1 58.6,52.1 59.2,50.4 
		57.7,49.4 59.5,49.4 	"/>
	<polygon id="XMLID_46_" fill="#FFFFFF" points="60.1,62 60.6,63.6 62.4,63.6 61,64.7 61.5,66.3 60.1,65.3 58.6,66.3 59.2,64.7 
		57.7,63.6 59.5,63.6 	"/>
	<polygon id="XMLID_45_" fill="#FFFFFF" points="46.7,3.7 47.2,5.4 49,5.4 47.6,6.4 48.1,8.1 46.7,7.1 45.2,8.1 45.8,6.4 44.3,5.4 
		46.1,5.4 	"/>
	<polygon id="XMLID_44_" fill="#FFFFFF" points="46.7,18.3 47.2,20 49,20 47.6,21 48.1,22.6 46.7,21.6 45.2,22.6 45.8,21 44.3,20 
		46.1,20 	"/>
	<polygon id="XMLID_43_" fill="#FFFFFF" points="46.7,32.9 47.2,34.5 49,34.5 47.6,35.6 48.1,37.2 46.7,36.2 45.2,37.2 45.8,35.6 
		44.3,34.5 46.1,34.5 	"/>
	<polygon id="XMLID_42_" fill="#FFFFFF" points="46.7,47.8 47.2,49.4 49,49.4 47.6,50.4 48.1,52.1 46.7,51.1 45.2,52.1 45.8,50.4 
		44.3,49.4 46.1,49.4 	"/>
	<polygon id="XMLID_41_" fill="#FFFFFF" points="46.7,62 47.2,63.6 49,63.6 47.6,64.7 48.1,66.3 46.7,65.3 45.2,66.3 45.8,64.7 
		44.3,63.6 46.1,63.6 	"/>
	<polygon id="XMLID_40_" fill="#FFFFFF" points="33.3,3.7 33.9,5.4 35.6,5.4 34.2,6.4 34.8,8.1 33.3,7.1 31.9,8.1 32.4,6.4 31,5.4 
		32.7,5.4 	"/>
	<polygon id="XMLID_39_" fill="#FFFFFF" points="33.3,18.3 33.9,20 35.6,20 34.2,21 34.8,22.6 33.3,21.6 31.9,22.6 32.4,21 31,20 
		32.7,20 	"/>
	<polygon id="XMLID_38_" fill="#FFFFFF" points="33.3,32.9 33.9,34.5 35.6,34.5 34.2,35.6 34.8,37.2 33.3,36.2 31.9,37.2 32.4,35.6 
		31,34.5 32.7,34.5 	"/>
	<polygon id="XMLID_37_" fill="#FFFFFF" points="33.3,47.8 33.9,49.4 35.6,49.4 34.2,50.4 34.8,52.1 33.3,51.1 31.9,52.1 32.4,50.4 
		31,49.4 32.7,49.4 	"/>
	<polygon id="XMLID_36_" fill="#FFFFFF" points="33.3,62 33.9,63.6 35.6,63.6 34.2,64.7 34.8,66.3 33.3,65.3 31.9,66.3 32.4,64.7 
		31,63.6 32.7,63.6 	"/>
	<polygon id="XMLID_35_" fill="#FFFFFF" points="19.9,3.7 20.5,5.4 22.3,5.4 20.8,6.4 21.4,8.1 19.9,7.1 18.5,8.1 19,6.4 17.6,5.4 
		19.4,5.4 	"/>
	<polygon id="XMLID_34_" fill="#FFFFFF" points="19.9,18.3 20.5,20 22.3,20 20.8,21 21.4,22.6 19.9,21.6 18.5,22.6 19,21 17.6,20 
		19.4,20 	"/>
	<polygon id="XMLID_33_" fill="#FFFFFF" points="19.9,32.9 20.5,34.5 22.3,34.5 20.8,35.6 21.4,37.2 19.9,36.2 18.5,37.2 19,35.6 
		17.6,34.5 19.4,34.5 	"/>
	<polygon id="XMLID_32_" fill="#FFFFFF" points="19.9,47.8 20.5,49.4 22.3,49.4 20.8,50.4 21.4,52.1 19.9,51.1 18.5,52.1 19,50.4 
		17.6,49.4 19.4,49.4 	"/>
	<polygon id="XMLID_31_" fill="#FFFFFF" points="19.9,62 20.5,63.6 22.3,63.6 20.8,64.7 21.4,66.3 19.9,65.3 18.5,66.3 19,64.7 
		17.6,63.6 19.4,63.6 	"/>
	<polygon id="XMLID_30_" fill="#FFFFFF" points="6.5,3.7 7.1,5.4 8.9,5.4 7.4,6.4 8,8.1 6.5,7.1 5.1,8.1 5.6,6.4 4.2,5.4 6,5.4 	"/>
	<polygon id="XMLID_29_" fill="#FFFFFF" points="6.5,18.3 7.1,20 8.9,20 7.4,21 8,22.6 6.5,21.6 5.1,22.6 5.6,21 4.2,20 6,20 	"/>
	<polygon id="XMLID_28_" fill="#FFFFFF" points="6.5,32.9 7.1,34.5 8.9,34.5 7.4,35.6 8,37.2 6.5,36.2 5.1,37.2 5.6,35.6 4.2,34.5 
		6,34.5 	"/>
	<polygon id="XMLID_27_" fill="#FFFFFF" points="6.5,47.8 7.1,49.4 8.9,49.4 7.4,50.4 8,52.1 6.5,51.1 5.1,52.1 5.6,50.4 4.2,49.4 
		6,49.4 	"/>
	<polygon id="XMLID_26_" fill="#FFFFFF" points="6.5,62 7.1,63.6 8.9,63.6 7.4,64.7 8,66.3 6.5,65.3 5.1,66.3 5.6,64.7 4.2,63.6 
		6,63.6 	"/>
	<polygon id="XMLID_25_" fill="#FFFFFF" points="66.9,11 67.5,12.7 69.3,12.7 67.8,13.7 68.4,15.4 66.9,14.3 65.5,15.4 66,13.7 
		64.6,12.7 66.4,12.7 	"/>
	<polygon id="XMLID_24_" fill="#FFFFFF" points="66.9,26.1 67.5,27.7 69.3,27.7 67.8,28.7 68.4,30.4 66.9,29.4 65.5,30.4 66,28.7 
		64.6,27.7 66.4,27.7 	"/>
	<polygon id="XMLID_23_" fill="#FFFFFF" points="66.8,40.8 67.3,42.4 69.1,42.4 67.7,43.5 68.2,45.1 66.8,44.1 65.3,45.1 65.9,43.5 
		64.4,42.4 66.2,42.4 	"/>
	<polygon id="XMLID_22_" fill="#FFFFFF" points="66.6,55.3 67.2,57 69,57 67.5,58 68.1,59.7 66.6,58.7 65.2,59.7 65.8,58 64.3,57 
		66.1,57 	"/>
	<polygon id="XMLID_21_" fill="#FFFFFF" points="53.5,11 54.1,12.7 55.9,12.7 54.4,13.7 55,15.4 53.5,14.3 52.1,15.4 52.6,13.7 
		51.2,12.7 53,12.7 	"/>
	<polygon id="XMLID_20_" fill="#FFFFFF" points="53.5,26.1 54.1,27.7 55.9,27.7 54.4,28.7 55,30.4 53.5,29.4 52.1,30.4 52.6,28.7 
		51.2,27.7 53,27.7 	"/>
	<polygon id="XMLID_19_" fill="#FFFFFF" points="53.4,40.8 53.9,42.4 55.7,42.4 54.3,43.5 54.8,45.1 53.4,44.1 51.9,45.1 52.5,43.5 
		51,42.4 52.8,42.4 	"/>
	<polygon id="XMLID_18_" fill="#FFFFFF" points="53.3,55.3 53.8,57 55.6,57 54.2,58 54.7,59.7 53.3,58.7 51.8,59.7 52.4,58 50.9,57 
		52.7,57 	"/>
	<polygon id="XMLID_17_" fill="#FFFFFF" points="40.1,10.5 40.7,12.2 42.5,12.2 41,13.2 41.6,14.8 40.1,13.8 38.7,14.8 39.2,13.2 
		37.8,12.2 39.6,12.2 	"/>
	<polygon id="XMLID_16_" fill="#FFFFFF" points="40.1,25.5 40.7,27.2 42.5,27.2 41,28.2 41.6,29.9 40.1,28.9 38.7,29.9 39.2,28.2 
		37.8,27.2 39.6,27.2 	"/>
	<polygon id="XMLID_15_" fill="#FFFFFF" points="40,40.3 40.5,41.9 42.3,41.9 40.9,42.9 41.4,44.6 40,43.6 38.5,44.6 39.1,42.9 
		37.7,41.9 39.4,41.9 	"/>
	<polygon id="XMLID_14_" fill="#FFFFFF" points="39.9,54.8 40.4,56.5 42.2,56.5 40.8,57.5 41.3,59.2 39.9,58.1 38.4,59.2 39,57.5 
		37.5,56.5 39.3,56.5 	"/>
	<polygon id="XMLID_13_" fill="#FFFFFF" points="26.7,10.4 27.3,12 29.1,12 27.6,13 28.2,14.7 26.7,13.7 25.3,14.7 25.8,13 24.4,12 
		26.2,12 	"/>
	<polygon id="XMLID_12_" fill="#FFFFFF" points="26.7,25.4 27.3,27 29.1,27 27.6,28.1 28.2,29.7 26.7,28.7 25.3,29.7 25.8,28.1 
		24.4,27 26.2,27 	"/>
	<polygon id="XMLID_11_" fill="#FFFFFF" points="26.6,40.1 27.2,41.8 29,41.8 27.5,42.8 28.1,44.5 26.6,43.4 25.2,44.5 25.7,42.8 
		24.3,41.8 26.1,41.8 	"/>
	<polygon id="XMLID_10_" fill="#FFFFFF" points="26.5,54.7 27,56.3 28.8,56.3 27.4,57.4 27.9,59 26.5,58 25,59 25.6,57.4 24.1,56.3 
		25.9,56.3 	"/>
	<polygon id="XMLID_9_" fill="#FFFFFF" points="13.3,10.1 13.9,11.7 15.7,11.7 14.2,12.8 14.8,14.4 13.3,13.4 11.9,14.4 12.5,12.8 
		11,11.7 12.8,11.7 	"/>
	<polygon id="XMLID_8_" fill="#FFFFFF" points="13.3,25.1 13.9,26.8 15.7,26.8 14.2,27.8 14.8,29.5 13.3,28.4 11.9,29.5 12.5,27.8 
		11,26.8 12.8,26.8 	"/>
	<polygon id="XMLID_7_" fill="#FFFFFF" points="13.2,39.9 13.8,41.5 15.6,41.5 14.1,42.5 14.7,44.2 13.2,43.2 11.8,44.2 12.3,42.5 
		10.9,41.5 12.7,41.5 	"/>
	<polygon id="XMLID_6_" fill="#FFFFFF" points="13.1,54.4 13.6,56.1 15.4,56.1 14,57.1 14.5,58.8 13.1,57.7 11.6,58.8 12.2,57.1 
		10.7,56.1 12.5,56.1 	"/>
	<polygon id="XMLID_5_" fill="#FFFFFF" points="73.5,3.7 74,5.4 75.8,5.4 74.4,6.4 74.9,8.1 73.5,7.1 72,8.1 72.6,6.4 71.1,5.4 
		72.9,5.4 	"/>
	<polygon id="XMLID_4_" fill="#FFFFFF" points="73.5,18.3 74,20 75.8,20 74.4,21 74.9,22.6 73.5,21.6 72,22.6 72.6,21 71.1,20 
		72.9,20 	"/>
	<polygon id="XMLID_3_" fill="#FFFFFF" points="73.5,32.9 74,34.5 75.8,34.5 74.4,35.6 74.9,37.2 73.5,36.2 72,37.2 72.6,35.6 
		71.1,34.5 72.9,34.5 	"/>
	<polygon id="XMLID_2_" fill="#FFFFFF" points="73.5,47.8 74,49.4 75.8,49.4 74.4,50.4 74.9,52.1 73.5,51.1 72,52.1 72.6,50.4 
		71.1,49.4 72.9,49.4 	"/>
	<polygon id="XMLID_1_" fill="#FFFFFF" points="73.5,62 74,63.6 75.8,63.6 74.4,64.7 74.9,66.3 73.5,65.3 72,66.3 72.6,64.7 
		71.1,63.6 72.9,63.6 	"/>
</g>
</svg>
