<?xml version="1.0" encoding="utf-8"?>
<!-- Generator: Adobe Illustrator 19.0.0, SVG Export Plug-In . SVG Version: 6.00 Build 0)  -->
<svg version="1.2" baseProfile="tiny" id="图层_1"
	 xmlns="http://www.w3.org/2000/svg" xmlns:xlink="http://www.w3.org/1999/xlink" x="0px" y="0px" viewBox="0 0 200 130"
	 xml:space="preserve">
<g id="XMLID_22_">
	<rect id="XMLID_21_" fill="#FFFFFF" width="200" height="130"/>
	<path id="XMLID_20_" fill="#CE1126" d="M132.8,62.1c1.7,17.6-11.7,33.2-29.8,34.8c-18.1,1.6-34.1-11.4-35.7-29
		C65.6,50.3,78.9,34.7,97,33.1C115.1,31.5,131.1,44.5,132.8,62.1z"/>
	<path id="XMLID_19_" fill="#003F87" d="M71.9,48.4c-4.7,7.6-2.2,17.4,5.5,22C85.2,75,95.3,72.6,100,65s14.8-10,22.6-5.4
		c7.8,4.6,10.2,14.4,5.5,22c-9.4,15.1-29.6,20-45.1,10.8C67.4,83.3,62.5,63.6,71.9,48.4"/>
	<polygon id="XMLID_18_" points="30.1,39.2 34.4,42 52.8,15.3 48.6,12.5 	"/>
	<polygon id="XMLID_17_" points="36.7,43.5 40.9,46.3 59.4,19.6 55.1,16.8 	"/>
	<polygon id="XMLID_16_" points="43.2,47.8 47.5,50.6 66,24 61.7,21.2 	"/>
	<polygon id="XMLID_15_" points="143.9,91.7 148.2,94.5 156.7,82.2 152.5,79.4 	"/>
	<polygon id="XMLID_14_" points="134,106 138.3,108.9 146.8,96.5 142.6,93.7 	"/>
	<polygon id="XMLID_13_" points="150.5,96.1 154.8,98.9 163.3,86.5 159.1,83.7 	"/>
	<polygon id="XMLID_12_" points="140.6,110.4 144.9,113.2 153.4,100.8 149.2,98 	"/>
	<polygon id="XMLID_11_" points="157.1,100.4 161.3,103.2 169.9,90.8 165.6,88 	"/>
	<polygon id="XMLID_10_" points="147.2,114.7 151.5,117.5 160,105.1 155.7,102.3 	"/>
	<polygon id="XMLID_9_" points="159.1,46.3 163.3,43.5 144.9,16.8 140.6,19.6 	"/>
	<polygon id="XMLID_8_" points="155.7,27.7 160,24.9 151.5,12.5 147.2,15.3 	"/>
	<polygon id="XMLID_7_" points="165.6,42 169.9,39.2 161.4,26.8 157.1,29.6 	"/>
	<polygon id="XMLID_6_" points="142.6,36.3 146.8,33.5 138.3,21.1 134,24 	"/>
	<polygon id="XMLID_5_" points="152.5,50.6 156.7,47.8 148.2,35.5 143.9,38.3 	"/>
	<polygon id="XMLID_4_" points="61.7,108.9 66,106 47.5,79.4 43.2,82.2 	"/>
	<polygon id="XMLID_3_" points="48.6,117.5 52.8,114.7 34.4,88 30.1,90.8 	"/>
	<polygon id="XMLID_2_" points="45.2,98.9 49.5,96.1 40.9,83.7 36.7,86.5 	"/>
	<polygon id="XMLID_1_" points="55.1,113.2 59.4,110.4 50.8,98 46.6,100.8 	"/>
</g>
</svg>
