<?xml version="1.0" encoding="utf-8"?>
<!-- Generator: Adobe Illustrator 19.0.0, SVG Export Plug-In . SVG Version: 6.00 Build 0)  -->
<svg version="1.1" id="图层_1" xmlns="http://www.w3.org/2000/svg" xmlns:xlink="http://www.w3.org/1999/xlink" x="0px" y="0px"
	 viewBox="0 0 200 130" style="enable-background:new 0 0 200 130;" xml:space="preserve">
<style type="text/css">
	.st0{fill:#004990;}
	.st1{fill:#FFFFFF;}
	.st2{fill:#E31937;}
</style>
<g id="XMLID_36_">
	<rect id="XMLID_35_" x="0" y="0" class="st0" width="200" height="130"/>
	<polygon id="XMLID_34_" class="st1" points="143,20.1 148.3,20.1 150,15.1 151.7,20.1 157,20.1 152.7,23.2 154.3,28.1 150,25.1 
		145.7,28.1 147.3,23.2 	"/>
	<polygon id="XMLID_33_" class="st2" points="145.4,20.9 148.9,20.9 150,17.6 151.1,20.9 154.6,20.9 151.8,22.9 152.9,26.2 
		150,24.2 147.1,26.2 148.2,22.9 	"/>
	<polygon id="XMLID_32_" class="st1" points="118,55.2 123.4,55.2 125,50.3 126.7,55.2 132,55.2 127.7,58.3 129.4,63.3 125,60.2 
		120.7,63.3 122.3,58.3 	"/>
	<polygon id="XMLID_31_" class="st2" points="120.4,56 123.9,56 125,52.7 126.1,56 129.7,56 126.8,58 127.9,61.3 125,59.3 
		122.2,61.3 123.3,58 	"/>
	<polygon id="XMLID_30_" class="st1" points="166,46.8 170.7,46.8 172.2,42.4 173.7,46.8 178.5,46.8 174.6,49.5 176.1,54 
		172.2,51.2 168.4,54 169.8,49.5 	"/>
	<polygon id="XMLID_29_" class="st2" points="168.1,47.5 171.2,47.5 172.2,44.6 173.2,47.5 176.3,47.5 173.8,49.3 174.8,52.2 
		172.2,50.4 169.7,52.2 170.6,49.3 	"/>
	<polygon id="XMLID_28_" class="st1" points="142.3,106.5 148.2,106.5 150,101.1 151.8,106.5 157.7,106.5 152.9,109.9 154.8,115.4 
		150,112 145.2,115.4 147.1,109.9 	"/>
	<polygon id="XMLID_27_" class="st2" points="144.9,107.4 148.8,107.4 150,103.8 151.2,107.4 155.1,107.4 152,109.6 153.2,113.2 
		150,111 146.9,113.2 148.1,109.6 	"/>
	<rect id="XMLID_26_" x="0" y="0" class="st0" width="100" height="65"/>
	<polygon id="XMLID_25_" class="st1" points="100,22.8 60,22.8 60,0 40,0 40,22.8 0,22.8 0,42.3 40,42.3 40,65 60,65 60,42.3 
		100,42.3 	"/>
	<polygon id="XMLID_24_" class="st1" points="100,57.5 11.5,0 0,0 0,7.5 88.4,65 100,65 	"/>
	<polygon id="XMLID_23_" class="st1" points="0,57.5 88.5,0 100,0 100,7.5 11.6,65 0,65 	"/>
	<polygon id="XMLID_22_" class="st2" points="100,26.8 55.8,26.8 55.8,0 44.2,0 44.2,26.8 0,26.8 0,38.2 44.2,38.2 44.2,65 55.8,65 
		55.8,38.2 100,38.2 	"/>
	<polygon id="XMLID_21_" class="st2" points="100,64.8 100,59.7 73.1,42.3 65.2,42.3 	"/>
	<polygon id="XMLID_20_" class="st2" points="100,0 92.1,0 60,20.8 60,22.8 64.9,22.8 100,0 	"/>
	<polygon id="XMLID_19_" class="st2" points="34.8,42.3 0,64.8 0,65 7.6,65 40,44 40,42.3 	"/>
	<polygon id="XMLID_18_" class="st2" points="0,0 0,5.2 27.1,22.8 35,22.8 	"/>
</g>
</svg>
