<?xml version="1.0" encoding="utf-8"?>
<!-- Generator: Adobe Illustrator 19.0.0, SVG Export Plug-In . SVG Version: 6.00 Build 0)  -->
<svg version="1.1" id="图层_1" xmlns="http://www.w3.org/2000/svg" xmlns:xlink="http://www.w3.org/1999/xlink" x="0px" y="0px"
	 viewBox="0 0 200 130" style="enable-background:new 0 0 200 130;" xml:space="preserve">
<style type="text/css">
	.st0{fill:#FFFFFF;}
	.st1{fill:#EE3424;}
	.st2{fill:#0055A4;}
	.st3{fill:#008A5F;}
	.st4{fill:#FDBB30;}
</style>
<g id="XMLID_7_">
	<polygon id="XMLID_6_" class="st0" points="24.1,0 24.1,130 40,130 106.7,86.7 200,86.7 200,43.3 106.7,43.3 40,0 	"/>
	<polygon id="XMLID_5_" class="st1" points="40,0 106.7,43.3 200,43.3 200,0 	"/>
	<polygon id="XMLID_4_" class="st2" points="106.7,86.7 40,130 200,130 200,86.7 	"/>
	<polygon id="XMLID_3_" class="st3" points="0,0 0,15.6 75.9,65 0,114.4 0,130 24.1,130 104,78 200,78 200,52 104,52 24.1,0 	"/>
	<polygon id="XMLID_2_" class="st4" points="0,114.4 75.9,65 0,15.6 	"/>
	<polygon id="XMLID_1_" points="0,104 59.9,65 0,26.1 	"/>
</g>
</svg>
