<?xml version="1.0" encoding="utf-8"?>
<!-- Generator: Adobe Illustrator 19.0.0, SVG Export Plug-In . SVG Version: 6.00 Build 0)  -->
<svg version="1.2" baseProfile="tiny" id="图层_1"
	 xmlns="http://www.w3.org/2000/svg" xmlns:xlink="http://www.w3.org/1999/xlink" x="0px" y="0px" viewBox="0 0 200 130"
	 xml:space="preserve">
<g id="XMLID_7_">
	<rect id="XMLID_6_" fill="#DE2910" width="200" height="130"/>
	<polygon id="XMLID_5_" fill="#FFDE00" points="33.5,14.7 37.7,27.3 51.4,27.3 40.3,35.2 44.5,47.8 33.5,40 22.4,47.8 26.7,35.2 
		15.6,27.3 29.3,27.3 	"/>
	<polygon id="XMLID_4_" fill="#FFDE00" points="69.1,8.1 68.8,12.4 73,14.1 68.6,15.1 68.3,19.5 65.9,15.8 61.6,16.9 64.5,13.5 
		62.1,9.8 66.2,11.4 	"/>
	<polygon id="XMLID_3_" fill="#FFDE00" points="84.4,22.3 82.4,26.2 85.6,29.3 81.1,28.6 79.1,32.5 78.4,28.1 73.9,27.4 77.9,25.5 
		77.3,21.1 80.4,24.2 	"/>
	<polygon id="XMLID_2_" fill="#FFDE00" points="79.8,40 81.2,44.2 85.7,44.2 82.1,46.8 83.5,50.9 79.8,48.4 76.2,50.9 77.6,46.8 
		73.9,44.2 78.4,44.2 	"/>
	<polygon id="XMLID_1_" fill="#FFDE00" points="69.1,53.4 68.8,57.8 73,59.4 68.6,60.5 68.3,64.9 65.9,61.2 61.5,62.2 64.4,58.9 
		62,55.2 66.2,56.8 	"/>
</g>
</svg>
