<?xml version="1.0" encoding="utf-8"?>
<!-- Generator: Adobe Illustrator 19.0.0, SVG Export Plug-In . SVG Version: 6.00 Build 0)  -->
<svg version="1.2" baseProfile="tiny" id="图层_2"
	 xmlns="http://www.w3.org/2000/svg" xmlns:xlink="http://www.w3.org/1999/xlink" x="0px" y="0px" viewBox="0 0 200 130"
	 xml:space="preserve">
<rect id="XMLID_3_" fill="#DC220B" width="200" height="130"/>
<rect id="XMLID_2_" fill="#27428D" width="100" height="65"/>
<g id="XMLID_1_">
	<path id="XMLID_6_" fill="#FFFFFF" d="M50.4,20c-6.7,0-12.1,5.4-12.1,12.1s5.4,12.1,12.1,12.1s12.1-5.4,12.1-12.1S57.1,20,50.4,20z
		"/>
	<g id="XMLID_11_">
		<path id="XMLID_12_" fill="#FFFFFF" d="M59.8,23c2.3,2.4,3.7,5.6,3.7,9.1c0,1.1-0.2,2.2-0.4,3.3L75.8,32l-12.3-3.3l9.2-9.1
			L59.8,23z"/>
		<path id="XMLID_13_" fill="#FFFFFF" d="M50.4,45.2c-7.2,0-13.1-5.9-13.1-13.1S43.1,19,50.4,19c3.7,0,7,1.5,9.4,4l3.6-13l-9.4,9.4
			L50.4,6.2l-3.5,13l-9.5-9.6l3.4,12.9l-13-3.6l9.4,9.5L24.2,32l13.3,3.6l-9.7,9.5l12.9-3.4l-3.5,12.7l9.6-9.5l3.4,12.8l3.4-12.6
			l9.1,9.2l-3.4-12.8C57.1,43.8,53.9,45.2,50.4,45.2z"/>
		<path id="XMLID_14_" fill="#FFFFFF" d="M59.5,41.5L72.2,45L63,35.7C62.4,37.9,61.2,39.9,59.5,41.5z"/>
	</g>
</g>
</svg>
