<?xml version="1.0" encoding="utf-8"?>
<!-- Generator: Adobe Illustrator 24.1.3, SVG Export Plug-In . SVG Version: 6.00 Build 0)  -->
<svg version="1.1" id="图层_1" xmlns="http://www.w3.org/2000/svg" xmlns:xlink="http://www.w3.org/1999/xlink" x="0px" y="0px"
	 viewBox="0 0 800 500" style="enable-background:new 0 0 800 500;" xml:space="preserve">
<style type="text/css">
	.st0{fill:#bbbbbb;}
	.st1{enable-background:new    ;}
	.st2{fill:#777777;}
</style>
<g>
	<path class="st0" d="M531.53,235.39c8.02,0.93,8.24,0.89,9.84,10.11c0.93,5.33,1.03,10.82,1.48,16.24c0.12,1.5,0.15,3.01,0.2,3.98
		c3.84-0.55,7.23-1.47,10.61-1.43c5.32,0.07,7.25,2.69,7.05,8.35c-0.02,0.65,0.14,1.4,0.45,1.95c3.34,6.01,2.81,7.56-2.62,10.2
		c-1.33,1.65-2.42,4.21-4.05,4.67c-1.28,0.36-3.15-1.98-4.86-2.92c-1.46-0.81-3.05-1.83-4.61-1.88c-4.67-0.16-8.73-1.12-11.61-5.62
		c-0.87-1.36-2.82-2-4.34-2.83c-2.64-1.44-5.33-2.77-8.69-4.5c-2.22,1.4-3.28,3.84-2.35,7.96c0.5,2.2-0.43,5.63-1.92,7.24
		c-1.76,1.91-2.47,3.55-2.69,6.1c-0.69,7.87-1.73,15.7-2.53,23.56c-0.28,2.74-1.09,4.2-4.02,4.77c-7.02,1.36-13.95,3.25-20.89,5.04
		c-0.92,0.24-2.31,0.99-2.43,1.69c-0.61,3.76-2.84,4.84-6.51,4.46c0.26,3.42,0.13,6.62,0.92,9.53c0.3,1.1,2.72,2.02,4.25,2.18
		c12.36,1.27,24.72,3.15,37.1,3.25c14.68,0.12,29.61,0.14,44.01-2.43c28.88-5.15,57.21-4.49,85.54,3.27
		c14.76,4.04,29.68,7.41,44.57,10.87c10,2.33,20.06,4.41,30.13,6.33c2.88,0.55,5.92,0.19,8.88,0.11
		c13.14-0.37,26.27-0.79,39.52-0.88c-4.73,0.67-9.45,1.73-14.2,1.92c-9.46,0.37-18.93,0.33-28.39,0.33
		c-14.08,0.01-27.48-3.89-40.95-7.77c-12.09-3.48-24.42-6.06-36.68-8.84c-9.89-2.25-19.78-4.66-29.77-6.21
		c-16.96-2.62-34.35-3.23-50.81,1.12c-19.09,5.05-38.11,4.37-57.23,4.15c-11.83-0.13-23.63-1.99-35.82-3.1c0,4.65,0,9.86,0,15.21
		c5.2,2.88,7.28,8.08,3.95,13.32c-1.28,2.02-5.51,2.99-8.2,2.67c-3.49-0.42-6.16,1.04-9.23,1.74c-4.87,1.11-10.11,1.48-15.05,0.88
		c-3.66-0.45-4.56-6.56-1.93-10.05c2.72-3.6,6.42-4.32,10.54-4.15c6.23,0.26,9.57-3.33,9.59-9.98c0.04-11.69,0.04-11.74-10.81-13.4
		c-13.08-2-26.18-3.91-39.28-5.84c-0.52-0.08-1.06,0.07-2.18,0.16c0.51,7.02,1.01,13.96,1.51,20.82c5.89,2.69,6.36,3.49,5.75,9.64
		c-0.55,5.45-3.33,7.56-8.53,7.29c-2.49-0.13-5.24,0.4-7.5,1.49c-4.75,2.31-9.44,4.33-14.78,3.34c-4.57-0.85-7.08-3.54-7.08-7.45
		c-0.01-3.63,3.2-8.02,6.96-8.4c3.35-0.34,6.8,0.38,10.85,0.68c3.9-3.92,5.19-9.42,3.97-15.96c-0.78-4.2,0.51-9.82-1.65-12.47
		c-2.06-2.53-7.4-2.06-11.3-2.87c-1.43-0.3-2.87-0.51-5.03-0.88c2.48,19.74-5.98,34.65-16.47,48.7c-0.45-0.24-0.91-0.48-1.36-0.72
		c2.4-3.86,4.84-7.69,7.19-11.59c7.09-11.76,10.84-24.36,8.09-38.42c-3.79-19.35-26.08-31.58-41.98-23.25
		c-2.34,1.22-3.11,2.16-2.05,5.16c2.42,6.79-0.83,13.92-7.56,16.08c-3.75,1.2-4.52,3.44-4.39,6.84c0.31,8.33,0.71,16.65,1,24.98
		c0.16,4.48,0.15,8.96-4.16,12.53c7.53,2.43,14.47,4.67,22.19,7.17c-0.55-1.97-0.83-2.98-1.12-3.98
		c-4.44-15.19,0.12-27.87,9.66-39.15c0.72-0.85,1.57-1.59,2.46-2.23c5.29-3.8,12.47-4.23,16.41-1.05
		c4.01,3.24,6.02,12.48,4.15,18.77c-1.37,4.59-3.67,8.38-8.05,10.16c-3.07,1.25-5.85,0.77-7.65-2.61
		c-1.94-3.65-1.45-7.18,2.13-10.38c-0.42,2.41-1.07,4.11-0.91,5.72c0.19,1.83,0.65,4.36,1.84,5.15c1.16,0.77,3.7,0.28,5.09-0.62
		c6.45-4.2,8.17-17.29,3.3-23.47c-3.31-4.2-11.61-3.65-16.55,1.13c-5.49,5.31-8.98,12.07-10.21,19.63c-0.9,5.52-0.5,11.4,0.12,17.01
		c0.28,2.52,2.51,4.79,3.72,6.94c-11.47,2.18-22.13-6.99-34.52-6.81c-0.2,2.45-0.37,4.63-0.54,6.81c-0.5-0.01-1.01-0.01-1.51-0.02
		c-1.38-7.77,0.74-15.67,0.69-23.48c-0.37-0.08-0.74-0.15-1.11-0.23c-1.63,7.32-3.26,14.65-4.89,21.97
		c-0.23,0.01-0.46,0.02-0.69,0.03c-0.25-1.37-0.5-2.74-0.79-4.32c-6.92,0.69-12.16,7.38-20.19,5.79c4.32-1.87,8.17-3.28,11.76-5.23
		c1.18-0.64,2.4-2.67,2.39-4.05c-0.08-7.32-0.53-14.64-0.88-21.96c-0.04-0.84-0.07-2.19-0.52-2.43c-5.52-2.95-3.41-8.64-4.17-13.2
		c-0.38-2.31-1.22-2.9-3.15-2.72c-2.95,0.28-5.9,0.49-9.14,0.75c-0.21,1.66-0.33,3.21-0.64,4.71c-0.22,1.07-0.51,2.81-1.11,3
		c-3.81,1.18-3.32,4.62-3.98,7.58c-1.69,7.55-3.4,15.11-8.44,21.16c-5.67,6.8-13.5,7.98-20.72,3.03
		c-6.25-4.29-10.13-10.64-13.05-17.72c-0.97-2.36-1.9-4.77-2.53-7.24c-0.76-2.98-1.87-5.21-5.09-5.78
		c-2.55-0.45-3.14-2.46-3.21-5.12c-0.26-10.13-0.38-10.4-9.8-9.21c-17.8,2.26-35.55,5.04-53.35,7.28
		c-9.64,1.21-19.34,1.96-29.03,2.58c-15.24,0.98-30.5,1.6-45.75,2.51c-9.97,0.6-20.06,0.61-29.85,2.41
		c-9.51,1.74-18.7,5.44-28.03,8.24c-1.13,0.34-2.33,0.45-3.5,0.67c-0.09-0.39-0.17-0.78-0.26-1.17
		c12.83-3.48,25.53-7.85,38.54-10.16c10.45-1.85,21.3-1.06,31.95-1.71c14.14-0.85,28.26-2.01,42.4-2.94
		c6.46-0.43,13-0.08,19.37-1.07c11.45-1.78,22.74-4.69,34.19-6.38c9.48-1.39,19.1-1.7,28.66-2.49c1.03-0.08,2.06-0.16,3.55-0.27
		c-0.46-1-0.64-1.65-1-2.14c-7.22-9.86-9.3-21.13-8.09-33.3c0.53-5.3-0.45-10.14-3.8-14.71c-1.22,1.1-2.29,2.11-3.4,3.06
		c-7.43,6.38-15.41,4.51-19.6-4.65c-3.81-8.3-3.34-17.06-1.92-25.76c2.48-15.16,10.8-27.01,20.97-37.03
		c9.97-9.81,20.97-18.47,31.81-27.22c5.76-4.64,6.24-4.29,4.72-11.7c-0.55-2.65,0.11-3.71,1.97-5.2c3.86-3.09,7.55-6.46,11.06-10
		c2.51-2.53,2.71-5.15,0.44-8.62c-6.94-10.59-6.16-25.74,1.32-35.35c0.6-0.77,1.18-1.88,1.97-2.12c6.94-2.12,6.81-8.73,8.31-14.68
		c-4.2-1.79-2.91-3.97-0.58-6.91c1.44-1.82,2.36-4.61,2.46-7.02c0.46-10.48,0.19-21.01,0.86-31.48c0.61-9.53,1.72-19.08,3.28-28.49
		c2.07-12.53,11.98-13.2,19.81-8.41c8.69,5.31,13.37,14.39,17.7,23.56c7.43,15.76,11.07,32.85,15.22,49.76
		c4.76,19.4,9.46,38.82,14.54,58.12c2.92,11.06,8.94,20.49,15.42,29.57c4.82,6.75,9.52,13.6,14.29,20.39
		c0.84,1.2,1.75,2.36,2.85,3.83c2.56-6.47,2.88-12.33,1.08-18.49c-2.93-9.99,3.12-19.07,12.87-18.83c12.07,0.3,24.11,1.6,36.18,1.87
		c7.64,0.17,15.3-0.94,22.96-1.09c6.29-0.12,12.66-0.28,18.85,0.65c13,1.95,25.95,3.5,39.11,2.6c3.94-0.27,7.99,0.41,11.92,1.12
		c2.7,0.49,4.17,2.73,3.79,5.74c-0.49,3.91,1.49,6.19,4.21,8.12c0.67,0.48,1.32,1.13,2.07,1.35c8.31,2.41,9.59,9.94,10.07,17.14
		c0.23,3.39-1.67,7.62-3.84,10.34c-3.56,4.47-4.42,9.29-4.43,14.75C532.12,226.53,531.75,230.79,531.53,235.39z M362.99,257.08
		c-1.57-4.45-3.13-8.91-4.7-13.36c-0.57,0.03-1.14,0.06-1.71,0.09c-2.09,3.39-4.18,6.77-6.27,10.16c2.04,0.56,3.3-0.01,4.55,0.03
		C357.84,254.1,361.5,252.45,362.99,257.08c0.05,1.8,0.72,4.07-0.06,5.26c-0.72,1.1-2.99,1.3-4.6,1.41
		c-1.13,0.08-2.31-0.95-3.48-0.97c-1.75-0.03-3.56,0.19-5.24,0.69c-3.01,0.89-5.97,1.98-8.88,3.18c-1.63,0.67-3.9,1.35-4.49,2.71
		c-1.27,2.92-3.08,5.47-5.83,4.83c-1.88-0.44-3.23-3.42-4.43-4.81c-1.91-1.8-4.41-3.03-4.67-4.66c-0.34-2.17,1.05-4.66,1.37-5.8
		c-1.78-2.23-4.26-3.93-4.47-5.91c-0.39-3.59,2.82-5.19,5.63-5.55c3.15-0.4,6.86-0.76,9.56,0.6c6.56,3.29,10.72,0.2,14.71-4.59
		c0.81-0.97,1.54-2.03,2.47-2.85c2.4-2.12,1.97-4.11-0.05-6.12c-3.25-3.23-6.51-6.45-9.75-9.69c-0.95-0.95-1.86-1.96-2.78-2.94
		c0.41-0.45,0.83-0.9,1.24-1.35c5.08,4.9,10.17,9.8,15.76,15.18c0.59-0.81,1.31-2.03,2.24-3.05c6.67-7.35,7.17-7.42,16.02-3.06
		c3.14,1.55,6.39-0.47,6.45-4.07c0.07-3.88,0.53-7.86-0.08-11.63c-0.83-5.15-1.6-10.73-4.04-15.09
		c-4.34-7.73-9.82-14.75-14.99-21.94c-7.9-11-15.4-22.3-18.86-35.83c-5.44-21.28-10.42-42.69-15.65-64.03
		c-4.19-17.07-8.5-34.11-17.31-49.33c-4.07-7.03-8.58-13.67-16.69-16c-6.11-1.75-10.02-0.14-11.74,6.2
		c-1.82,6.7-3.17,13.7-3.58,20.64c-0.84,14.05-0.91,28.15-1.24,42.24c-0.02,0.73,0.38,1.56,0.79,2.18c2.62,3.91,2.28,6.11-1.41,9.01
		c-0.51,0.4-1.03,1.03-1.17,1.66c-0.89,3.83-1.68,7.68-2.41,11.09c4.46,1.86,8.31,3.46,12.21,5.09c7.61-10.29,20.18-7.68,23.69,2.69
		c3.96,11.68,3.89,23.61-1.59,34.7c-4.31,8.72-15.63,14.75-23.3,3.58c-0.12-0.18-0.47-0.17-1.01-0.34
		c-5.23,6.91-11.26,8.15-15.82,3.38c-4.97,4.9-9.52,9.39-13.87,13.67c12.82,3.97,26.7,6.41,41.01,5.76
		c10.53-0.48,20.6-2.69,29.77-8.51c2.21-1.4,5.01-2.61,2.64-6.72c0.47-0.08,0.94-0.15,1.42-0.23c1.58,2.47,3.17,4.93,4.75,7.4
		c-3.68-1.37-3.65-1.33-6.95,0.77c-1.96,1.25-3.96,2.47-6.06,3.44c-16.92,7.86-34.42,7.35-52.07,3.79
		c-5.73-1.16-11.4-2.68-17.39-4.1c0.07,1.07,0.09,1.62,0.15,2.17c1.65,15.31-1.83,28.99-11.22,40.9
		c-4.94,6.27-10.03,12.45-14.51,19.08c-9.06,13.42-12.26,27.9-5.89,43.82c1.23,3.08,2.95,4.81,6,5.62
		c12.9,3.45,26.02,4.8,39.26,5.54c33.54,1.9,66.26-2.38,98.01-14.22c2.98-1.11,5.88-2.5,9.12-3.89c-1.25-2.66-2.13-4.9-3.33-6.93
		C365.42,259.65,364.11,258.43,362.99,257.08z M487.36,285.39c1.19-7.9,2.08-14.81,3.32-21.65c0.49-2.74,1.87-5.29,2.6-7.99
		c0.95-3.48,2.77-7.24,2.24-10.51c-1.2-7.39,0.58-13.36,4.3-19.46c1.67-2.74,2.66-6.93,2.05-10.05c-1.09-5.64-0.37-10.38,2.34-15.18
		c1.29-2.28,2.66-4.94,2.73-7.47c0.22-7.22,1.63-13.41,7.3-18.31c1.58-1.37,1.29-5.2,1.86-7.89c-1.82-0.42-3.62-0.96-5.46-1.2
		c-1.19-0.16-2.42,0.14-3.64,0.17c-13.21,0.35-26.34-0.03-39.38-2.94c-4.92-1.1-10.18-0.8-15.26-0.62
		c-8.48,0.31-17.32,2.93-25.35,1.16c-12.18-2.68-24.21-0.27-36.27-1.59c-8.11-0.89-12.89,7.83-10.25,16.16
		c1.64,5.16,1.77,10.25,0.28,15.63c-0.97,3.47-1.85,7.82-0.73,10.94c3.25,9.03,1.68,18.22,1.98,27.32c0.12,3.53-1.63,7.1-2.31,10.7
		c-0.83,4.42-1.86,8.87-2.01,13.34c-0.19,5.53,0.49,11.08,0.66,16.63c0.08,2.71-0.34,5.45-0.17,8.16c0.2,3.21,2.07,4.77,5.14,4.81
		c8.08,0.09,16.15,0.44,24.23,0.31c10.78-0.17,21.56-1.43,32.22,1.55c1.76,0.49,3.77,0.05,5.65-0.03
		c8.36-0.37,16.71-0.75,25.07-1.14C476,285.96,481.49,285.68,487.36,285.39z M299.37,328.6c0.07-0.38,0.14-0.75,0.21-1.13
		c-1.72-0.72-3.52-1.29-5.16-2.2c-8.04-4.44-8.73-15.17-1.19-20.31c4.96-3.38,10.61-4.3,15.75-0.98c3.26,2.1,5.64,5.73,8.28,8.54
		c4.32-8.71,11.21-11.67,19.1-7.21c2.35,1.33,4.08,1.21,6.31,0.09c8.51-4.3,17.14-4.65,25.81-0.43c0.77,0.38,1.68,0.45,3.26,0.86
		c0.54-8.96,1.06-17.41,1.63-26.86c-31.4,12.14-62.49,19.43-93.96,17.51c-1.5,5.19-2.14,9.54-3.95,13.22
		c-3.58,7.27-6.89,7.17-11.17,0.44c-1.44-2.26-3.14-4.63-6.91-3.1c1.2,1.8,2.22,3.25,3.16,4.77c2.24,3.64,1.62,7.43-1.98,9.02
		c-7.54,3.33-15.3,4.82-23.2,1.18c-5.6-2.58-6.56-7.03-2.54-11.93c1.55-1.89,3.25-3.63,4.88-5.44c-0.19-0.4-0.37-0.79-0.56-1.19
		c-2.99,0.79-5.96,1.7-8.98,2.34c-3.33,0.71-5.66-0.69-5.91-4.46c-0.22-3.42-0.45-6.99,0.23-10.28c0.58-2.78-0.26-3.27-2.29-3.54
		c-2.42,8.26-1.21,19.33,4.88,28.77c3.67,5.68,4.73,11.34,4.44,17.71c-0.13,2.78,0.75,3.96,3.37,4.75
		c15.34,4.62,30.61,3.92,46.01,0.27c5.79-1.37,5.4-2.51,4.53-7.7c-6.71-0.81-13.68-0.9-19.65-5.45
		C275.52,329.89,287.44,329.31,299.37,328.6z M489.52,284.63c6.66,1.05,12.48,2.53,18.35,2.75c7.58,0.29,9.07-2.15,8.1-8.54
		c-0.54-3.58,0.16-6.5,3.06-8.69c3.41-2.56,3.79-6.27,3.54-10.36c-0.18-2.83-1.18-3.64-3.83-3.37c-3.06,0.31-6.32,0.59-9.22-0.23
		c-2.15-0.61-4.6-2.6-5.59-4.68c-1.35-2.82-0.27-5.69,2.52-7.74c3.88-2.85,7.58-6,11.23-9.18c3.6-3.14,7.13-5.91,12.07-0.92
		c0.14-3.17,0.48-5.45,0.28-7.66c-0.69-7.6,0.38-14.48,5.42-20.44c1.61-1.9,3.38-4.99,3.03-7.17c-1.08-6.82-1.49-14.14-9.64-17.12
		c-4.22-1.54-7.86-5.09-7.04-11.23c0.15-1.1-1.52-2.46-1.94-3.11c-1.76,3.75-2.63,7.61-4.89,9.94c-3.37,3.48-5.51,7.3-5.3,12.04
		c0.23,5.28-2.12,9.24-4.15,13.63c-1.39,3.01-2.58,7.06-1.82,10.05c1.52,5.93,0.15,10.43-2.67,15.38
		c-1.93,3.39-3.76,7.77-3.45,11.51c0.59,7.11,0.86,13.68-3.58,19.61c-0.61,0.81-0.62,2.16-0.79,3.29
		c-0.75,4.79-1.42,9.59-2.19,14.37C490.64,279.26,490.09,281.73,489.52,284.63z M246.97,180.91c-0.97,0.27-1.4,0.27-1.71,0.49
		c-12.83,9.07-25.48,18.45-35.96,30.58c-9.69,11.21-18.05,23.32-19.2,39.31c-0.56,7.83-0.41,15.53,4.21,22.24
		c3.28,4.77,6.77,5.8,11.57,3.45c5.66-2.77,7.41-6.08,6.33-11.78c-0.29-1.54-0.51-3.13-0.5-4.69c0.05-12.39,4.04-23.3,11.25-32.9
		c4.8-6.39,9.88-12.55,14.71-18.91C243.7,200.75,246.63,191.58,246.97,180.91z M383.6,307.07c1.33,2.47,2.82,4.54,3.63,6.88
		c2.22,6.43,6.7,7.38,12.49,7.36c12.16-0.04,24.32,0.56,36.48,1.05c14.99,0.6,29.98,1.3,44.97,2.09c2.77,0.15,4.01-0.57,3.75-3.77
		c-0.2-2.56-0.11-5.2,0.24-7.75c0.45-3.25-0.85-4-3.59-3.88c-3.78,0.17-7.57,0.04-11.36,0.04c-7.22,0-7.22,0-9.35-7.58
		c-0.79,1.3-1.69,2.09-1.66,2.86c0.13,3.7-1.84,4.2-4.67,4.05c-3.37-0.18-6.79,0.21-10.13-0.17c-3.47-0.4-5.54,1.16-7.24,4.1
		c-1.5,2.59-3.25,5.01-5.1,7.83c-0.87-1.08-1.41-1.45-1.5-1.91c-1.67-9.25-7.45-11.38-15.31-10.3c-4.53,0.62-8.32-0.27-8.45-6.41
		c0-0.09-0.47-0.18-0.72-0.26c-2.42,6.35-2.41,6.24-9.63,5.82C392.36,306.87,388.23,307.07,383.6,307.07z M220.11,282.35
		c-0.22,0.57-0.44,1.14-0.67,1.72c3.81,1.69,7.51,3.84,11.46,5c15.21,4.44,30.83,5.61,46.5,5.32c14.01-0.27,28.26,0.17,41.96-2.4
		c17.14-3.21,33.83-9.14,50.7-13.96c1.55-0.44,3.95-0.67,2.7-3.51c-0.97-2.23-1.6-4.99-5.22-3.24c-4.15,2.01-8.56,3.45-12.9,4.97
		c-23.77,8.29-48.22,12.42-73.18,12.26c-14-0.09-28-1.41-41.97-2.65C232.99,285.27,226.57,283.55,220.11,282.35z M224.32,290.96
		c0,2.81-0.15,6.33,0.04,9.83c0.19,3.41,2.1,3.86,4.84,2.76c2.12-0.86,4.33-1.83,6.54-1.96c1.32-0.07,3.04,1.12,3.92,2.31
		c0.37,0.5-0.8,2.58-1.6,3.68c-0.8,1.11-2.09,1.81-3,2.85c-4.13,4.73-3.16,8.71,2.73,10.46c5.72,1.7,11.5,1.47,17.08-0.78
		c5.34-2.16,5.69-3.68,2.74-8.87c-1.15-2.02-4.09-4.61-1.12-6.47c1.62-1.01,4.91,0.63,7.29,1.54c0.95,0.36,1.45,1.98,2.2,2.99
		c1.05,1.4,2.15,2.77,3.21,4.12c5.91-4.6,7.75-9.86,6.28-15.9C258.54,295.35,241.88,293.21,224.32,290.96z M236.97,342.24
		c1.31,3.97,2.17,7.04,3.34,9.98c2.54,6.38,5.53,12.43,11.19,16.47c5.14,3.67,12.43,4.6,15.91,1.26
		c7.79-7.49,10.67-17.37,11.74-28.79C265.13,344.19,251.56,345.57,236.97,342.24z M467.78,342.11c-1.32-4.26-2.11-7.57-3.38-10.65
		c-0.58-1.41-2.01-2.48-3.2-3.53c-1.08-0.95-2.33-2.29-3.56-2.36c-9.31-0.55-18.63-0.93-27.95-1.17c-4.5-0.12-9.44-2.23-12.71,3.84
		c-0.77,1.44-2.61,2.52-1.68,4.26c0.63,1.18,2.35,2.1,3.71,2.36c5.04,0.97,10.12,1.64,15.2,2.38
		C444.88,338.81,455.54,340.34,467.78,342.11z M286.48,121.97c-4.99-1.34-5.86-0.97-5.63,3.93c0.32,6.83,1.07,13.67,2.12,20.42
		c0.69,4.5,3.64,7.31,7.97,8.04c4.22,0.71,7.74-0.9,10.41-4.37c3.99-5.17,5.89-11.28,6.19-17.85c0.07-1.56-0.87-3.69-2.01-4.7
		c-4.89-4.32-10.93-5-17.64-5.85c3.57,4.94,3.23,9.76,1.59,14.46c-0.5,1.42-2.35,2.31-3.57,3.45c-0.94-1.26-2.48-2.41-2.72-3.8
		C282.33,130.72,282.19,125.73,286.48,121.97z M546.87,274.65c0.88-3.67,2.8-4.22,5.3-3.86c2.23,0.32,4.46,0.58,6.69,0.87
		c0.04-0.71,0.08-1.43,0.13-2.14c-5.6-6.82-11.52-2.89-17.78,1.43c-0.12-2.84-0.11-4.81-0.3-6.77c-0.69-7.27-1.13-14.59-2.27-21.78
		c-0.79-5.02-3.14-5.84-8.25-3.25c6.56,9.92,5.11,21.05,5.21,32.42c-3.48-1.46-5.78-2.68-8.21-3.32c-0.97-0.25-2.23,0.78-3.36,1.22
		c0.6,1.16,0.96,2.66,1.87,3.37c1.01,0.79,2.63,0.65,3.79,1.29c1.83,1.01,4.03,1.94,5.14,3.61c2.32,3.46,5.28,4.75,9.01,4.58
		c3.38-0.15,6.5-0.06,8.05,4.06c0.25,0.65,1.72,0.79,2.62,1.16c0.23-0.99,0.98-2.42,0.61-2.9c-1.59-2.12-3.38-4.11-5.35-5.83
		c-0.94-0.82-2.42-0.93-3.66-1.36c1.04-1,1.95-1.38,2.59-1.09c2.55,1.16,4.96,2.66,7.53,3.75c1.32,0.56,2.87,0.5,4.31,0.72
		c-0.34-1.53-0.28-3.36-1.08-4.55C556.92,272.5,552.32,271.87,546.87,274.65z M372.59,233.25c-0.06-0.47-0.13-0.94-0.19-1.41
		c-7.34-4.54-7.53-4.53-13.23,1.94c-3.14,3.56-6.24,7.16-9.32,10.79c-4.64,5.48-9.37,9.7-17.05,5.48c-2.38-1.31-5.89-0.86-8.76-0.39
		c-1.44,0.23-2.6,2.32-3.89,3.57c1.29,0.79,2.51,2.02,3.89,2.26c2.24,0.4,4.59,0.02,6.88,0.22c1.3,0.11,2.56,0.71,3.83,1.09
		c-0.06,0.37-0.12,0.74-0.19,1.11c-0.83-0.04-1.67-0.22-2.47-0.1c-1.91,0.29-4.02,0.28-5.63,1.21c-2.04,1.17-5.08,3.36-3.12,5.9
		c2.26,2.94,3.97-0.98,5.8-2.22c1.31-0.89,2.61-1.8,3.91-2.7c0.23,0.4,0.46,0.8,0.69,1.2c-1.35,1.31-3.35,2.39-3.87,4
		c-0.66,2.04-0.11,4.52-0.08,6.81c1.46-1.13,3.37-1.95,4.27-3.45c1.6-2.66,3.38-4.06,6.44-4.38c2.65-0.28,5.43-1.17,7.72-2.58
		c2.57-1.59,4.81-2.42,7.54-0.84c0.82,0.47,1.79,1.05,2.63,0.96c1.16-0.12,2.26-0.83,3.39-1.29c-0.7-1.36-1.19-3.67-2.13-3.9
		c-2.14-0.52-4.5,0.04-6.77,0.04c-1.35,0-3.43,0.23-3.86-0.51c-0.59-1-0.42-3.25,0.3-4.26c4.12-5.83,8.31-11.64,12.93-17
		c1.05-1.22,3.91-0.69,5.94-0.96C369.65,233.62,371.12,233.44,372.59,233.25z M487.06,288.38c-10.02,0-19.29-0.07-28.55,0.07
		c-1.5,0.02-3.12,0.7-4.47,1.48c-4.66,2.68-8.98,7.97-14.59,0.52c-0.22,0.38-0.43,0.75-0.65,1.13c0.28,2.54,0.56,5.08,0.85,7.73
		c14.92,0.66,29.44,1.35,43.98,1.84c0.87,0.03,2.42-1.44,2.56-2.4C486.74,295.14,486.84,291.45,487.06,288.38z M267.33,123.64
		c-2.68,0.83-5.65,1.63-8.53,2.7c-0.69,0.25-1.52,1.37-1.55,2.12c-0.33,7.78,3.77,20.15,11.13,24.49c3.04,1.79,6.04,1.05,8.68-1.13
		c2.53-2.09,4.5-4.3,2.94-8.33c-0.89-2.3-0.96-5.05-1.04-7.62c-0.15-4.94-0.04-9.89-0.04-15.46c-2.63,0.76-4.45,1.29-5.18,1.5
		c0.78,4.8,1.79,8.87,1.94,12.99c0.06,1.64-1.78,3.35-2.75,5.03c-1.49-1.41-3.87-2.56-4.29-4.27
		C267.67,131.9,267.71,127.87,267.33,123.64z M425.28,289.18c-0.66,0.58-1.48,1.1-2.05,1.85c-2.23,2.92-4.75,3.04-7.34,0.79
		c-3.42-2.97-7.42-3.83-11.63-3.93c-6.27-0.16-12.55-0.32-18.82-0.17c-0.83,0.02-1.98,1.7-2.34,2.84c-0.41,1.29-0.04,2.84-0.12,4.27
		c-0.12,2.14,0.6,3.03,2.76,3.09c12.52,0.35,25.04,0.87,37.56,1.25c1.1,0.03,2.96-0.26,3.19-0.91
		C427.57,295.19,429.24,291.8,425.28,289.18z M316.03,319.11c-1.94,1.91-4.2,4.27-6.59,6.46c-3.4,3.11-6.69,6.13-4.8,11.73
		c0.44,1.3,0,2.91,0.36,4.26c0.32,1.22,0.98,2.98,1.85,3.27c3.51,1.15,7.15,1.85,10.77,2.61c0.17,0.04,0.58-0.89,0.78-1.41
		c1.93-5.04,3.93-10.05,5.7-15.15c0.32-0.94,0.08-2.57-0.52-3.31C321.09,324.53,318.37,321.71,316.03,319.11z M515.09,254.93
		c1.55-0.27,3.29-0.49,5-0.87c7.81-1.74,11.38-8.77,8.44-16.55c-1.84-4.87-4.04-5.61-7.98-2.53c-3.26,2.55-6.5,5.14-9.59,7.91
		c-2.42,2.17-6.55,3.56-4.84,8.27C507.69,255.49,511.69,254.28,515.09,254.93z M404.88,332.38c0.19-0.39,0.38-0.78,0.57-1.17
		c-0.82-0.75-1.62-1.51-2.46-2.24c-1.37-1.21-2.71-2.48-4.16-3.57c-1.27-0.95-2.62-1.83-4.04-2.48c-1.99-0.91-5-0.92-5.98-2.46
		c-4.79-7.55-9.98-15.04-7.95-25.26c0.73-3.7,1.06-8.08-3.45-10.34c-0.79-0.4-1.05-1.99-1.48-2.89c-0.92,8.07-1.9,16.15-2.69,24.25
		c-0.08,0.83,0.75,2.05,1.49,2.63c6.17,4.83,10.71,10.86,12.98,18.74c0.29,1.01,1.03,2.51,1.74,2.63
		C394.57,331.1,399.73,331.69,404.88,332.38z M420.29,368.9c0.04-0.31,0.24-1.58,0.35-2.85c0.4-4.95-0.91-5.9-5.23-4.22
		c-1.4,0.54-3.5,0.99-4.55,0.27c-3.5-2.4-4.83-1.02-5.48,2.67c-0.28,1.57-0.68,3.11-1.12,5.05c-1.07-0.82-1.99-1.58-2.95-2.26
		c-3.22-2.27-6.87-3.43-10.22-1.22c-1.89,1.24-3.76,4.12-3.82,6.32c-0.04,1.52,2.94,4.32,4.73,4.46c3.59,0.3,7.4-0.36,10.89-1.46
		C408.5,373.87,413.9,371.42,420.29,368.9z M301.64,325.91c3-1.02,5.42-1.49,7.53-2.63c3.38-1.82,5.17-4.98,4.95-9.08
		c-0.21-3.93-2.27-7.3-5.6-8.13c-4-1-8.58-1.44-12.46-0.35c-6.7,1.88-8.14,11.5-2.61,16.05
		C295.87,323.76,299.08,324.66,301.64,325.91z M510.17,303.82c-8.16,1.97-15.53,3.75-22.96,5.54c0,5.05,0,9.55,0,14.81
		c7.06-1.87,13.64-3.57,20.18-5.4c0.56-0.16,1.19-1.14,1.28-1.82C509.22,312.88,509.62,308.8,510.17,303.82z M329.67,327.18
		c5.98-0.01,11.16-4.91,11.22-10.62c0.06-6.06-4.71-10.99-10.64-10.98c-6.43,0.01-11.56,4.75-11.45,10.58
		C318.91,322.05,323.99,327.19,329.67,327.18z M465.75,370.54c-0.36,0.3-0.5,0.48-0.55,0.45c-0.58-0.29-1.2-0.55-1.72-0.94
		c-3.48-2.68-7.19-3.04-11.05-1.14c-2.71,1.34-4.7,3.81-3.57,6.78c0.72,1.89,3.51,4.21,5.21,4.08c4.01-0.32,7.96-1.9,11.88-3.15
		c3.82-1.21,7.5-3.31,11.38-3.78c4.02-0.49,3.76-3.19,3.63-5.71c-0.16-3.24-2.61-2.87-4.85-2.66c-2.82,0.27-5.67,0.25-8.49,0.51
		c-0.96,0.09-2.23,0.35-2.73,1.05c-0.41,0.57,0.08,1.9,0.27,2.88C465.28,369.5,465.57,370.06,465.75,370.54z M307.11,124.04
		c0.7-8.87-4.47-17.89-11.32-18.64c-5.59-0.61-12.58,6.24-13.55,12.76C290.6,120.13,298.91,122.1,307.11,124.04z M368.2,236.15
		c-3.74-2.34-5.42,0.94-7.65,3.06c-2.11,2-1.06,3.45-0.02,5.51c4.4,8.71,8.55,17.55,12.83,26.33c0.61,1.25,1.41,2.4,2.12,3.6
		c0.48-0.16,0.96-0.32,1.45-0.48c-0.47-6.48-1.05-12.95-1.37-19.44c-0.12-2.41-1.09-3.42-3.12-4.27c-6.38-2.66-9.98-6.21-4.32-13.31
		C368.25,236.98,368.17,236.61,368.2,236.15z M258.08,124.25c7.27-2.2,14.27-3.93,20.98-6.51c3.37-1.3,3.02-5.99-0.21-7.79
		C268.89,104.4,260.52,109.58,258.08,124.25z M488.13,300.73c6.72-1.46,12.75-2.71,18.75-4.1c4.7-1.1,4.98-1.71,3.91-6.88
		c-6-0.78-11.96-1.67-17.95-2.25c-1.13-0.11-3.23,0.8-3.39,1.57C488.75,292.65,488.57,296.35,488.13,300.73z M318.52,371.07
		c7.12,1.23,9.97-1.04,10.18-7.59c0.1-3.15-0.16-6.3-0.11-9.45c0.04-2.36-0.82-3.41-3.09-3.33c-2.1,0.08-4.53-0.7-4.94,2.71
		C319.88,359.21,319.22,365.03,318.52,371.07z M432.06,315.53c6.86-7.53,7.87-13.86,3.32-22.31c-1.95,1.04-4.81,1.55-5.79,3.27
		C425.7,303.31,428.4,309.5,432.06,315.53z M524.89,264.93c3.17,1,5.88,1.85,8.98,2.82c-0.56-7.26-1.08-14.01-1.6-20.75
		c-1.98,1.79-2.65,4.06-4.08,4.92c-3.98,2.41-4.65,5.61-3.34,9.87C525.13,262.69,524.89,263.76,524.89,264.93z M380.67,231.64
		c-0.54-0.37-1.08-0.75-1.62-1.12c-2.3,1.84-4.73,3.52-6.88,5.55c-6.8,6.41-6.18,9.68,2.31,12.84c0.2,0.07,0.49-0.15,1.05-0.33
		C377.21,243.04,378.94,237.34,380.67,231.64z M469.96,363.19c0.3,0.34,0.61,0.68,0.91,1.02c1.53-1.26,4.14-2.31,4.4-3.82
		c0.78-4.53,0.65-9.24,0.9-14.38c-2.66,0.2-4.43,0.34-6.21,0.47C469.96,352.41,469.96,357.8,469.96,363.19z M392.78,304.71
		c0,0.08,0,0.17,0,0.25c2.83,0,5.67,0.14,8.48-0.1c0.68-0.06,1.77-1.37,1.77-2.09c0-0.76-1.05-2.13-1.72-2.18
		c-5.37-0.45-10.75-0.74-16.14-0.82c-0.73-0.01-2.16,1.53-2.07,2.15c0.15,1.02,1.2,2.56,2.02,2.67
		C387.63,304.94,390.22,304.71,392.78,304.71z M464.44,306.44c6.23,0.31,12.52,0.72,18.81,0.83c0.84,0.01,1.7-1.47,2.55-2.26
		c-0.81-0.66-1.6-1.84-2.45-1.9c-5.37-0.36-10.75-0.39-16.12-0.7C464.43,302.26,463.52,303.37,464.44,306.44z M510.68,299.1
		c-0.31-0.29-0.62-0.57-0.93-0.86c-6.68,1.44-13.39,2.78-20.03,4.42c-0.99,0.25-1.67,1.95-2.49,2.98c0.3,0.36,0.6,0.72,0.91,1.08
		c6.92-1.53,13.85-2.98,20.72-4.7C509.64,301.84,510.08,300.11,510.68,299.1z M328.15,329.27c-0.44-0.13-0.88-0.27-1.32-0.4
		c-1.88,6.34-3.76,12.68-5.82,19.62c2.94,0,4.85,0,7.14,0C328.15,341.93,328.15,335.6,328.15,329.27z M409.43,344.33
		c0,4.67-0.19,9.1,0.15,13.48c0.07,0.95,1.97,2.08,3.2,2.41c0.46,0.12,2.01-1.77,2.02-2.76c0.04-3.29-0.46-6.58-0.62-9.88
		C413.98,343.67,412.16,343.04,409.43,344.33z M439.8,302.22c0.92,1.67,1.53,3.92,2.28,3.97c4.41,0.31,8.86,0.19,13.28-0.01
		c0.54-0.02,1.43-1.35,1.42-2.05c-0.01-0.65-1.01-1.81-1.6-1.83C450.39,302.15,445.59,302.22,439.8,302.22z M463.66,325.4
		c-0.26,0.57-0.52,1.14-0.79,1.71c1.48,0.86,2.89,2.2,4.46,2.47c3.42,0.59,6.93,0.6,10.4,0.9c2.71,0.24,3.63-1.07,3.18-4.02
		C475.11,326.1,469.38,325.75,463.66,325.4z M424.86,301.59c-4.98,0-10,0-15.03,0c-0.55,2.69-0.03,4.21,2.89,4.09
		c3.08-0.13,6.19-0.04,9.27,0.18C424.51,306.04,425.5,305.03,424.86,301.59z M316.61,350.53c-2.65-0.87-4.96-1.62-8.06-2.64
		c1.28,5.53,2.38,10.27,3.47,15c0.31-0.01,0.62-0.01,0.93-0.02C314.13,358.87,315.32,354.87,316.61,350.53z M417.14,323.9
		c-5.78-0.28-11.03-0.54-16.29-0.79c-0.19,0.49-0.39,0.98-0.58,1.47c1.53,0.88,2.99,2.33,4.6,2.54
		C411.41,327.97,415.39,326.94,417.14,323.9z M475.05,339.42c0.86-6.9-0.57-8.41-6.71-7.07
		C468.81,341.64,469.51,340.77,475.05,339.42z M406.94,329.18c0.47,3.04,0.85,5.5,1.29,8.36c1.93-0.38,3.42-0.68,5.02-1
		c-0.11-1.53-0.17-2.66-0.28-3.77c-0.13-1.22-0.32-2.43-0.48-3.59C410.65,329.18,409.21,329.18,406.94,329.18z M271.09,124.53
		c-2.62,5.51-1.74,10.63,2.01,12.83C274.08,132.9,274.17,128.79,271.09,124.53z M287.04,124.62c-2.9,4.74-2.94,9.01-0.16,12.26
		C288.62,132.87,289.45,129.13,287.04,124.62z M428.85,287.52c-0.29,0.46-0.58,0.92-0.87,1.38c1.08,1.01,2.1,2.76,3.25,2.86
		c1.94,0.16,3.95-0.72,5.94-1.16c-0.09-0.36-0.18-0.72-0.26-1.08C434.22,288.85,431.54,288.19,428.85,287.52z M302.23,330.88
		c-0.53,0.03-1.05,0.06-1.58,0.08c0.23,3.95,0.46,7.89,0.69,11.84c0.48-0.03,0.95-0.06,1.43-0.1
		C302.59,338.76,302.41,334.82,302.23,330.88z M414.94,288.29c4.92,3.69,5.7,3.53,7.86-1.22
		C420.26,287.47,417.96,287.83,414.94,288.29z"/>
	<path class="st0" d="M244.76,277.94c-5.06,3.27-13.15,2.12-16.25-1.67c-2.9-3.55-2.58-9.07,0.72-13.88
		c3.54-5.14,8.19-7.2,14.09-5.99c0.51,0.11,1.03,0.32,1.48,0.61c0.3,0.19,0.48,0.6,1.4,1.84c-1.85-0.34-2.87-0.51-3.88-0.71
		c-6.09-1.19-12.77,3.97-13.6,10.48c-0.68,5.35,2.15,8.68,8.09,9.27C239.16,278.13,241.54,277.94,244.76,277.94z"/>
	<path class="st0" d="M305.16,97.81c-10.71-5.67-11.28-5.48-9.45-13.69C306.42,89.71,308.46,91.15,305.16,97.81z M297.39,87.53
		c0.04,3.83,0.45,4.28,6.2,7.09C304.27,91.18,303.57,90.36,297.39,87.53z"/>
	<path class="st0" d="M238.86,266.71c1.4-1.23,2.65-2.32,3.9-3.41c0.26,0.24,0.52,0.47,0.78,0.71c-0.83,1.46-1.66,2.91-2.49,4.37
		c-0.31,0.39-0.63,0.78-0.94,1.17c1.73,0.99,3.45,1.98,5.18,2.97c-0.35,0.45-0.7,0.91-1.05,1.36c-1.57-1.09-3.14-2.17-5.65-3.91
		c-0.63,1.25-1.37,2.73-2.11,4.21c-0.42-0.29-0.85-0.58-1.27-0.87c0.55-1.45,1.1-2.91,1.65-4.36c0.5-0.44,1-0.88,1.5-1.32
		c-1.86-0.77-3.71-1.55-5.57-2.32c0.44-0.55,0.89-1.1,1.33-1.65C235.63,264.63,237.14,265.6,238.86,266.71z"/>
	<path class="st0" d="M264.78,213.71c0.23-3.02,0.46-6.04,0.68-9.05c0.64,0.05,1.27,0.09,1.91,0.14c-0.22,3.02-0.44,6.04-0.65,9.06
		C266.07,213.81,265.43,213.76,264.78,213.71z"/>
	<path class="st0" d="M351.89,209.8c-0.52-2.72-1.05-5.45-1.57-8.17c0.55-0.13,1.1-0.26,1.64-0.39c0.59,2.72,1.18,5.45,1.77,8.17
		C353.12,209.54,352.5,209.67,351.89,209.8z"/>
	<path class="st0" d="M474.94,227.9c-1.68,7.58-2.69,13.92-4.5,19.99c-4.82,16.22-15.34,25.47-31.23,27.91
		c-13.02,2-20.62-4.74-20.73-18.69c-0.02-1.88,0.28-3.56-2.16-4.39c-0.87-0.29-1.54-2.72-1.54-4.18c0.01-9.26,0.06-9.21-8.24-11.86
		c-2.53-0.81-4.96-1.99-7.44-3c0-0.42,0-0.84,0-1.26c1.53-0.31,3.06-0.63,4.6-0.94c1.57-0.33,3.14-0.66,5.5-1.15
		c-2.03-1.63-3.65-2.62-4.89-4c-1.63-1.83-3.04-3.91-4.41-5.98c-1.26-1.9-2.34-3.92-3.74-6.3c-2.61,4.59-2.47,4.9,2.46,7.65
		c-1.12,1.05-2.25,2.13-3.66,3.45c-1.99-2.5-3.38-5.52-2.59-9.08c1.19-5.41,5.86-5.63,10.31-6.83c-6.08-12.27-1.53-20.72,8.83-27.06
		c-1.06-1.95-2-3.68-2.94-5.41c3.51,0.58,4.45,5.68,9.58,3.34c3.71-1.69,6.32-2.61,5.54-7.99c0.48,0.19,0.96,0.37,1.44,0.56
		c0.39,1.72,0.77,3.43,1.23,5.46c4.31,0.8,8.88,3.32,12.96-2.31c0.17,0.48,0.33,0.97,0.5,1.45c-0.81,1.15-1.61,2.29-2.4,3.41
		c2.47,3.28,4.94,6.56,7.59,10.08c2.14-1.18,5.37-1.94,6.8-4.07c1.09-1.63-0.09-4.98-0.29-8.11c3.13,2.01,2.27,7.82,8.43,6.74
		c4.7-0.83,5.94-3.67,7.78-7.1c0.33,0.27,0.65,0.54,0.98,0.81c-0.48,1.94-0.96,3.88-1.36,5.48c4.47,5.77,8.93,2.66,13.4-0.47
		c0.09,0.41,0.17,0.81,0.26,1.22c-1.58,1.52-3.17,3.03-5.09,4.86c6.89,6.3,6.04,13.77,3.28,21.64c3.81,0.94,7.48,1.57,10.97,2.77
		c2.88,0.99,5.58,2.91,5.47,6.62c-0.12,3.97-2.46,6.6-5.33,8.61c-0.36-0.27-0.71-0.54-1.07-0.8c0.89-1.2,1.82-2.38,2.66-3.61
		c2.69-3.94,1.99-7.36-2.38-8.62c-4.23-1.22-8.73-2-13.1-1.91c-6.14,0.12-7.98,3.08-7.12,9.6c0.07,0.51,0.01,1.04,0.01,1.19
		c-5.58-0.69-10.99-0.98-16.22-2.15c-3.06-0.68-6.26-2.22-8.64-4.33c-2.6-2.31-4.5-3.15-7.19-0.63c-0.97,0.91-2.26,1.43-4.05,2.52
		c2.58,0.65,4.53,1.15,6.47,1.64c-0.01,0.43-0.02,0.85-0.03,1.28c-1.01,0.1-2.05,0.45-3.02,0.27c-7.64-1.42-14.8-3.96-21.26-8.85
		c-2.47-1.87-5.86-3-8.91-3.21c-4.02-0.28-6.48,3.62-4.46,7.29c1.8,3.26,4.72,6.31,7.83,8.16c5.7,3.39,12.16,3.46,18.58,2.48
		c1.69-0.26,3.41-0.38,5.2,0.03c-4.33,2.83-9.17,2.54-13.98,2.49c-4.68-0.04-9.35-0.01-14.01,0.87
		C429,241.21,452,241.82,474.94,227.9z M425.7,180.54c-6.76,0.58-13.12,2.61-18.47,7.42c-5.29,4.76-6.53,13.82-2.71,19.89
		c0.53,0.84,1.54,1.45,2.45,1.89c3.49,1.66,7.05,3.14,10.53,4.81c3.18,1.52,6.23,3.33,9.44,4.76c2.59,1.16,11.02-2.3,12.19-4.94
		c0.33-0.74,0.16-1.91-0.13-2.75c-1.78-5.23-1.55-10.49,1.61-14.74c3.37-4.53,1.22-7.43-1.35-10.68
		C435.74,181.72,430.9,180.84,425.7,180.54z M465.95,223.63c1.65-7.22,2.92-8.58,8.22-10.51c1.06-0.38,2.22-1.21,2.81-2.18
		c4.77-7.94,2.25-17.21-5.73-21.5c-8.63-4.63-20.73-2.13-27.12,5.61c-6.93,8.39-4.5,20.95,5.3,24.84
		C454.59,221.94,460.3,222.41,465.95,223.63z M421.78,266.64c2.65-1.69,4.3-2.91,6.09-3.84c5.37-2.79,21.41-2.62,26.55,0.72
		c2.88,1.87,4.55,1.54,6.29-1.27c1.18-1.92,2.76-3.57,3.83-5.54c3.92-7.24,6.16-15,6.55-23.74c-4.84,1.88-9.17,3.39-13.35,5.29
		c-1.11,0.5-2.38,2.13-2.47,3.35c-0.31,3.97-0.12,7.98-0.12,12.42c-3.97,0.35-7.57,0.68-11.18,0.98c-4.29,0.36-6.15-1.19-6.83-5.84
		c-0.38-2.57-0.56-5.17-0.83-7.75c-0.46-0.01-0.93-0.02-1.39-0.03c-0.18,2.82-0.6,5.65-0.47,8.45c0.19,3.96-1.45,5.52-4.99,5.26
		c-2.89-0.21-5.79-0.4-9.32-0.65C420.69,258.6,421.18,262.2,421.78,266.64z M423.41,268.68c6.58,7.7,26.25,6.1,31.61-2.28
		c-6.01-4.51-12-3.84-18.59,1.03c0.46-2.1,0.67-3.03,0.9-4.08C431.72,262.54,427.4,264.65,423.41,268.68z M416.99,239.88
		c0,3.36-0.08,6.34,0.06,9.32c0.03,0.65,0.74,1.71,1.27,1.81c4.51,0.9,9.04,1.62,14.12,2.49c0-4.24,0.13-7.25-0.08-10.23
		c-0.06-0.82-1.05-2.15-1.73-2.23C426.26,240.51,421.87,240.26,416.99,239.88z M452.7,239.8c-1.82,0.16-3.16,0.24-4.48,0.42
		s-2.63,0.59-3.96,0.66c-5.48,0.27-5.89,0.65-5.18,6.51c0.3,2.42,0.18,5.59,3.69,5.55c3.28-0.03,6.56-0.42,9.93-0.66
		C452.7,247.86,452.7,244.06,452.7,239.8z"/>
	<path class="st0" d="M398.09,278.08c-4.56-0.02-8.42-2.93-9.15-6.88c-0.65-3.54,2.03-7.87,6.05-9.68c0.85-0.38,1.77-0.65,2.68-0.81
		c6.78-1.22,11.71,0.97,11.95,5.27C409.94,271.61,403.74,278.11,398.09,278.08z M401.74,261.8c-2.8,0.93-5.5,1.26-7.5,2.69
		c-1.53,1.09-3.13,3.71-2.94,5.43c0.21,1.98,2.01,4.33,3.74,5.44c3.58,2.29,8.45,0.17,10.74-4.53c0.9-1.85,1.59-4.59,0.93-6.29
		C406.16,263.14,403.48,262.68,401.74,261.8z"/>
	<path class="st0" d="M480.87,246c4.7-0.01,9.1,4.13,9.04,8.52c-0.06,4.43-4.18,8.74-8.41,8.81c-4.66,0.07-9.22-4.08-9.21-8.4
		C472.29,250,476.12,246.02,480.87,246z M480.96,260.75c3.95,0.04,6.75-2.64,6.65-6.35c-0.09-3.32-3.28-6.54-6.42-6.49
		c-3.42,0.06-6.51,2.97-6.6,6.22C474.49,258,477.09,260.71,480.96,260.75z"/>
	<path class="st0" d="M403.52,179.22c-0.07,3.9-4.03,7.36-8.19,7.17c-4.48-0.2-8.5-3.64-8.38-7.15c0.14-4.12,4-7.43,8.58-7.36
		C399.98,171.94,403.59,175.26,403.52,179.22z M395.44,184.1c3.13-0.08,5.61-1.26,6-4.91c0.3-2.8-2.59-5.01-6.3-5
		c-3.05,0.01-5.71,0.82-5.91,4.75C389.07,181.93,391.81,184.11,395.44,184.1z"/>
	<path class="st0" d="M393.37,249.49c-1.18-1.75-3.38-3.6-3.23-5.22c0.14-1.5,2.79-3.83,4.31-3.8s4.1,2.44,4.19,3.95
		c0.1,1.61-2.17,3.38-3.4,5.09C394.62,249.51,394,249.5,393.37,249.49z"/>
	<path class="st0" d="M472.47,271.13c1.97,2.62,4.44,4.75,4.09,5.69c-0.66,1.79-2.89,3.89-4.58,4.01c-1.4,0.09-2.95-2.49-4.44-3.88
		C468.92,275.32,470.3,273.7,472.47,271.13z"/>
	<path class="st0" d="M494.88,189.25c-2.34-0.3-4.76-1.32-4.8-5c-0.04-3.22,1.74-5.19,4.64-5.41c3.05-0.23,5.23,1.51,5.73,4.82
		C500.87,186.41,498.26,189.15,494.88,189.25z M495.38,179.25c-1.48,2.4-2.83,3.63-2.83,4.87c0,1.08,1.53,2.15,2.39,3.22
		c1.08-1.01,2.83-1.88,3.05-3.06C498.18,183.18,496.75,181.74,495.38,179.25z"/>
	<path class="st0" d="M397.39,196.2c-2.58,1.77-4.17,3.71-5.61,3.6c-1.42-0.11-2.69-2.31-4.03-3.6c1.38-1.41,2.64-3.72,4.17-3.95
		C393.23,192.06,394.86,194.26,397.39,196.2z"/>
	<path class="st0" d="M524.3,199.36c-0.67,2.7-0.97,5.33-1.96,7.63c-1.88,4.39-6.36,4.61-8.98,0.64c-2.7-4.07-2.52-12.28,0.35-16.31
		c2.36-3.3,6.65-2.87,8.59,1.14C523.33,194.58,523.66,197.07,524.3,199.36z M513.54,200.38c0.05,0.63-0.24,2.28,0.36,3.41
		c0.89,1.67,2.4,2.97,3.64,4.43c1.17-1.31,2.64-2.46,3.42-4c0.66-1.28,0.81-3.05,0.69-4.56c-0.27-3.23,0.49-7.98-3.92-7.98
		C513.53,191.69,513.62,196.11,513.54,200.38z"/>
	<path class="st0" d="M517.95,231.84c-2.11-2.85-4.07-4.36-4.39-6.19c-0.49-2.82,1.83-4.85,4.2-4.33c1.79,0.39,4.11,2.55,4.46,4.31
		C522.5,226.98,520.06,228.94,517.95,231.84z"/>
	<path class="st0" d="M504.97,269.48c-2.79-0.09-4.68-1.96-4.14-4.55c0.39-1.85,2.71-3.25,4.17-4.85c1.48,1.62,3.89,3.06,4.22,4.91
		C509.65,267.42,507.83,269.47,504.97,269.48z M505.09,268.6c0.98-1.92,2.01-3.02,1.85-3.87c-0.16-0.87-1.47-1.51-2.28-2.24
		c-0.58,0.81-1.64,1.64-1.6,2.42C503.09,265.88,504.03,266.8,505.09,268.6z"/>
	<path class="st0" d="M509.58,273.33c1.21,1.93,3.39,3.89,3.34,5.77c-0.04,1.54-2.6,3.95-4.32,4.25c-2.32,0.41-4.59-1.62-4.02-4.51
		c0.39-1.99,2.07-3.68,3.18-5.51C508.37,273.33,508.97,273.33,509.58,273.33z M508.53,282.66c1.17-1.71,2.41-2.76,2.26-3.49
		c-0.22-1.08-1.42-1.93-2.2-2.87c-0.71,0.88-1.88,1.7-1.99,2.65C506.49,279.83,507.53,280.86,508.53,282.66z"/>
	<path class="st0" d="M305.65,318.46c-1.19-1.77-3.14-3.43-3.39-5.34c-0.36-2.73,1.68-4.45,4.37-4.42c2.71,0.03,4.49,1.78,4.39,4.55
		C310.93,315.85,309.38,317.71,305.65,318.46z M306.71,316.38c1-1.61,2-2.54,2.01-3.46c0-0.68-1.42-2-2.01-1.89
		c-0.9,0.18-2.13,1.26-2.26,2.12C304.34,313.89,305.58,314.85,306.71,316.38z"/>
	<path class="st0" d="M330.89,319.65c-1.79-3.05-3.85-5.04-3.55-6.45c0.35-1.62,2.89-3.84,4.32-3.72c1.42,0.12,3.59,2.76,3.68,4.41
		C335.43,315.34,333.11,316.95,330.89,319.65z"/>
	<path class="st0" d="M424.22,188.24c6.34-0.04,11.64,5.05,11.62,11.15c-0.02,6.11-5.15,11.36-11.05,11.3
		c-6.43-0.06-11.74-5.14-11.64-11.13C413.26,193.39,418.26,188.28,424.22,188.24z M425.04,190.22c-5.12-0.14-9.48,3.83-9.7,8.8
		c-0.22,5.04,3.95,9.58,8.87,9.66c5.1,0.08,9.5-4.07,9.58-9.01C433.88,194.84,429.72,190.35,425.04,190.22z"/>
	<path class="st0" d="M461.72,215.86c-6.19,0.01-11.85-5.13-12.01-10.91c-0.17-6.09,5.53-12.16,11.37-12.11
		c5.86,0.05,11.8,5.68,11.85,11.23C472.98,210,467.42,215.84,461.72,215.86z M461,213.63c5.49-0.06,9.58-4.04,9.58-9.33
		c0-5.17-4.14-9.27-9.26-9.16c-5.22,0.11-9.51,4.25-9.41,9.08C452.01,209.48,456.08,213.69,461,213.63z"/>
	<path class="st0" d="M423.41,207.89c-2.51-2.85-4.76-4.47-5.66-6.7c-0.86-2.13,2.68-5.06,5.46-5.03c2.75,0.04,6.4,3.01,5.58,4.98
		C427.9,203.33,425.84,204.97,423.41,207.89z M423.1,205.14c1.6-1.84,2.55-2.93,3.49-4.02c-1.19-0.9-2.33-2.41-3.59-2.53
		c-1.01-0.09-2.16,1.49-3.25,2.33C420.67,202.07,421.58,203.22,423.1,205.14z"/>
	<path class="st0" d="M461.17,209.05c-2.87-0.37-5.25-1.49-5.14-4.88c0.11-3.28,2.49-4.71,5.27-4.62c2.75,0.09,5.18,1.61,5.09,4.85
		C466.29,207.59,464,208.93,461.17,209.05z M460.86,200.35c-1.29,1.75-2.11,2.86-2.93,3.97c1.19,0.94,2.31,2.38,3.61,2.61
		c0.67,0.12,2.37-1.93,2.35-2.97C463.86,202.92,462.27,201.93,460.86,200.35z"/>
</g>
<g class="st1">
	<path class="st2" d="M274.24,455.59c0-0.06,0.05-0.17,0.14-0.33c0.09-0.16,0.19-0.23,0.28-0.23s0.14,0.13,0.14,0.38
		c0,1.31,0.03,2.16,0.09,2.53c0.31,1.5,0.62,2.47,0.94,2.91c0.31,0.44,0.53,0.94,0.66,1.5c0.12,0.56,0.23,0.88,0.33,0.94
		c0.09,0.06,0.33,0.09,0.7,0.09c0.75,0,1.39,0.08,1.92,0.23c0.53,0.16,1,0.25,1.41,0.28c0.41,0.03,0.72,0.11,0.94,0.23
		c0.22,0.13,0.39,0.2,0.52,0.23c0.12,0.03,0.27,0.06,0.42,0.09c0.16,0.03,0.73,0.05,1.73,0.05c1,0,1.53,0.02,1.59,0.05
		c0.06,0.03,0.06,0.02,0-0.05c-0.06-0.06-0.06-0.09,0-0.09c0.06,0,0.16,0,0.28,0c0.12,0,0.62-0.01,1.5-0.05
		c0.87-0.03,1.5-0.05,1.88-0.05s0.7,0,0.98,0s0.62-0.06,1.03-0.19c0.41-0.12,0.8-0.19,1.17-0.19c0.69,0,0.84,0.13,0.47,0.38
		c-0.19,0.19-0.66,0.41-1.41,0.66c-0.19,0-0.38,0.02-0.56,0.05c-0.19,0.03-0.45,0.09-0.8,0.19c-0.34,0.09-0.56,0.17-0.66,0.23
		c-0.09,0.06-0.53,0.09-1.31,0.09c-0.78,0-1.2,0.01-1.27,0.05c-0.06,0.03-0.34,0.08-0.84,0.14h-0.94l-0.47,0.09l-0.84,0.28h-0.38
		c-0.06-0.19-0.14-0.23-0.23-0.14s-0.28,0.01-0.56-0.23c-0.28-0.25-0.52-0.34-0.7-0.28c-0.19,0.06-0.41,0.06-0.66,0
		c-0.25-0.06-0.52-0.14-0.8-0.23s-0.63-0.22-1.03-0.38c-0.41-0.16-0.72-0.25-0.94-0.28c-0.22-0.03-0.45-0.06-0.7-0.09
		c-0.25-0.03-0.53-0.06-0.84-0.09c-0.31-0.03-0.55-0.11-0.7-0.23c-0.16-0.12-0.41-0.16-0.75-0.09c-0.34,0.06-0.66,0.09-0.94,0.09
		s-0.44-0.05-0.47-0.14c-0.03-0.09-0.11-0.06-0.23,0.09c-0.13,0.16-0.5,0.23-1.12,0.23c-0.63,0-1.11-0.08-1.45-0.23
		c-0.34-0.16-0.52-0.31-0.52-0.47c0-0.16,0.09-0.33,0.28-0.52c0.75-0.38,1.78-0.44,3.09-0.19c0.44,0.13,0.66,0.02,0.66-0.33
		c0-0.34-0.11-0.76-0.33-1.27c-0.22-0.5-0.33-0.78-0.33-0.84c0-0.06-0.03-0.19-0.09-0.38c-0.38-0.5-0.66-1.56-0.84-3.19
		c0-0.5,0.09-0.83,0.28-0.98C274.15,455.76,274.24,455.65,274.24,455.59z M276.12,450.06c0.69-0.06,1.06,0.09,1.12,0.47
		c0,0.06,0.01,0.31,0.05,0.75c0.03,0.44-0.08,0.66-0.33,0.66c-0.19,0-0.28,0.06-0.28,0.19c0,0.13,0.09,0.19,0.28,0.19
		s0.17,0.09-0.05,0.28c-0.22,0.19-0.41,0.2-0.56,0.05c-0.16-0.16-0.23-0.41-0.23-0.75c0-0.34-0.02-0.59-0.05-0.75
		c-0.03-0.16-0.05-0.38-0.05-0.66S276.06,450.06,276.12,450.06z M284.27,449.96c-0.13-0.44-0.53-0.94-1.22-1.5
		c-0.69-0.56-0.81-0.89-0.38-0.98c0.44-0.09,0.72-0.08,0.84,0.05c0.12,0.13,0.31,0.22,0.56,0.28c0.69,0.5,1.03,1.25,1.03,2.25
		c0,0.69-0.03,1.14-0.09,1.36c-0.06,0.22-0.2,0.44-0.42,0.66c-0.22,0.22-0.39,0.33-0.52,0.33v0.09v0.38c0,0.13-0.03,0.23-0.09,0.33
		c-0.06,0.09-0.09,0.17-0.09,0.23c0,0.06,0.12,0.09,0.38,0.09c0.25,0,0.42-0.03,0.52-0.09c0.09-0.06,0.27-0.19,0.52-0.38l0.66-0.09
		c0-0.06,0.06-0.09,0.19-0.09c0.12,0,0.22,0.02,0.28,0.05c0.06,0.03,0.23,0.11,0.52,0.23c0.28,0.13,0.53,0.36,0.75,0.7
		c0.22,0.34,0.23,0.7,0.05,1.08s-0.25,0.62-0.19,0.75c0.06,0.13,0.05,0.23-0.05,0.33s-0.19,0.34-0.28,0.75
		c-0.09,0.41-0.2,0.77-0.33,1.08c-0.13,0.31,0,0.53,0.38,0.66c0.81,0.56,1.23,0.84,1.27,0.84c0.03,0,0.17,0.13,0.42,0.38
		c0.25,0.25,0.36,0.5,0.33,0.75c-0.03,0.25-0.2,0.36-0.52,0.33c-0.31-0.03-0.83-0.23-1.55-0.61c-0.72-0.38-1.11-0.56-1.17-0.56
		c-0.06,0-0.14,0.03-0.23,0.09c-0.09,0.06-0.2,0.28-0.33,0.66l-0.38,0.38l-0.09,0.19c-0.06,0.25-0.17,0.39-0.33,0.42
		c-0.16,0.03-0.25,0.09-0.28,0.19c-0.03,0.09-0.19,0.22-0.47,0.38c-0.28,0.16-0.48,0.23-0.61,0.23c-0.13,0-0.27,0-0.42,0
		c-0.16,0-0.27-0.03-0.33-0.09v-0.19l-0.28,0.19c-0.25,0.31-0.45,0.38-0.61,0.19c-0.16-0.19-0.27-0.28-0.33-0.28
		c-0.06,0-0.19-0.08-0.38-0.23c-0.19-0.16-0.28-0.27-0.28-0.33c0-0.06-0.13-0.28-0.38-0.66c-0.25-0.38-0.31-0.66-0.19-0.84
		c0.12-0.19,0.19-0.41,0.19-0.66c0-0.25,0.16-0.55,0.47-0.89c0.31-0.34,0.59-0.5,0.84-0.47c0.25,0.03,0.53,0.02,0.84-0.05
		c0.31-0.06,0.83-0.08,1.55-0.05c0.72,0.03,1.16,0.05,1.31,0.05c0.16,0,0.25-0.2,0.28-0.61c0.03-0.41,0.14-0.64,0.33-0.7
		c0.56-0.75,0.69-1.47,0.38-2.16c-0.06-0.12-0.22-0.19-0.47-0.19c-0.25,0-0.61,0.13-1.08,0.38c-0.47,0.25-0.77,0.41-0.89,0.47
		l-0.09,0.28c-0.38,0.44-0.67,0.64-0.89,0.61c-0.22-0.03-0.33-0.01-0.33,0.05c-0.19,0.06-0.39,0.11-0.61,0.14
		c-0.22,0.03-0.2,0.2,0.05,0.52h-0.09c-0.44,0-0.72-0.03-0.84-0.09c-0.25-0.44-0.06-1.02,0.56-1.73c0.62-0.72,1.06-1.3,1.31-1.73
		c0.25-0.44,0.44-0.73,0.56-0.89c0.12-0.16,0.2-0.36,0.23-0.61c0.03-0.25,0.12-0.55,0.28-0.89
		C284.2,450.32,284.27,450.09,284.27,449.96z M284.37,459.38c0.06-0.22,0.08-0.34,0.05-0.38c-0.03-0.03-0.23-0.11-0.61-0.23
		c-0.38-0.12-0.72-0.19-1.03-0.19c-0.31,0-0.5,0-0.56,0c-0.06,0-0.16,0.09-0.28,0.28c-0.56,0-0.78,0.28-0.66,0.84
		c0,0.31,0.11,0.66,0.33,1.03c0.22,0.38,0.53,0.58,0.94,0.61c0.41,0.03,0.7-0.05,0.89-0.23s0.28-0.3,0.28-0.33
		c0-0.03,0.11-0.14,0.33-0.33c0.22-0.19,0.31-0.36,0.28-0.52C284.29,459.79,284.31,459.6,284.37,459.38z M282.02,461.87h-0.09
		c0,0.06,0.03,0.09,0.09,0.09V461.87z M283.15,461.68l-0.19-0.19l0.19,0.47V461.68z M284.93,454.18v-0.09l-0.28,0.09
		C284.65,454.31,284.74,454.31,284.93,454.18z"/>
	<path class="st2" d="M307.92,463.04c0.38-0.22,0.56-0.47,0.56-0.75s-0.09-0.45-0.28-0.52c-0.19-0.06-0.47-0.28-0.84-0.66
		c-0.31,0-0.5-0.03-0.56-0.09c-0.06,0-0.25-0.16-0.56-0.47c-0.31-0.31-0.5-0.52-0.56-0.61c-0.06-0.09,0-0.27,0.19-0.52
		c0.19-0.25,0.41-0.44,0.66-0.56c0.25-0.12,0.47-0.22,0.66-0.28c0.19-0.06,0.62-0.16,1.31-0.28c0.69-0.12,1.09-0.3,1.22-0.52
		c0.12-0.22,0.17-0.44,0.14-0.66c-0.03-0.22-0.14-0.33-0.33-0.33s-0.53,0.03-1.03,0.09c0-0.06-0.17,0-0.52,0.19
		c-0.34,0.19-0.53,0.28-0.56,0.28c-0.03,0-0.08,0.03-0.14,0.09c-0.06,0.06-0.25,0.09-0.56,0.09c-0.81-0.12-1.22-0.59-1.22-1.41
		c0-0.31-0.19-0.94-0.56-1.88s-0.56-1.47-0.56-1.59c0-0.12-0.02-0.27-0.05-0.42c-0.03-0.16-0.06-0.33-0.09-0.52
		c-0.03-0.19-0.09-0.39-0.19-0.61c-0.09-0.22-0.16-0.61-0.19-1.17c-0.03-0.56-0.06-1.02-0.09-1.36c-0.03-0.34,0.03-0.58,0.19-0.7
		c0.16-0.12,0.36-0.17,0.61-0.14c0.25,0.03,0.41,0.23,0.47,0.61c0.06,0.38,0.38,0.48,0.94,0.33c0.56-0.16,0.95-0.25,1.17-0.28
		c0.22-0.03,0.55-0.14,0.98-0.33c0.75-0.19,1.53-0.28,2.34-0.28c0.69-0.06,1.66-0.08,2.91-0.05c1.25,0.03,2.26,0.17,3.05,0.42
		c0.78,0.25,1.33,0.38,1.64,0.38c0.31,0,0.47,0.03,0.47,0.09c0,0.06,0.06,0.16,0.19,0.28c0.12,0.13,0.19,0.28,0.19,0.47
		s-0.09,0.39-0.28,0.61c-0.19,0.22-0.31,0.33-0.38,0.33c0,0.13-0.03,0.23-0.09,0.33c-0.06,0.09-0.19,0.17-0.38,0.23l-0.84,0.84
		c-0.44,0.38-0.74,0.69-0.89,0.94c-0.16,0.25-0.44,0.61-0.84,1.08c-0.41,0.47-0.64,0.86-0.7,1.17c-0.06,0.44-0.5,0.66-1.31,0.66
		l-0.28,0.09l-0.66,0.19c0.06,0.13,0.03,0.19-0.09,0.19h-0.38c-0.19,0.06-0.41,0.53-0.66,1.41c0,0.19,0.11,0.31,0.33,0.38
		c0.22,0.06,0.83,0.03,1.83-0.09c1-0.12,1.56-0.12,1.69,0c0.12,0.13,0.22,0.19,0.28,0.19c0.06,0,0.16,0.06,0.28,0.19v0.56
		c0,0.25-0.09,0.47-0.28,0.66l-0.47,0.38l-0.94,0.84h-0.38l-0.28,0.47h-0.28l-0.19,0.09c-0.44,0.38-0.75,0.62-0.94,0.75l-0.28,0.28
		l-0.38,0.56c0.19,0.13,0.91,0.19,2.16,0.19c1.25,0,1.98-0.03,2.2-0.09c0.22-0.06,0.55-0.09,0.98-0.09c1.25,0,1.84,0.41,1.78,1.22
		c0,0.13-0.02,0.22-0.05,0.28c-0.03,0.06-0.8,0.09-2.3,0.09l-2.06-0.19c-0.31,0-0.5,0-0.56,0l-1.03,0.19h-0.84l-0.38,0.19h-0.09
		l-1.12,0.09c-0.5,0-1.02,0.09-1.55,0.28c-0.53,0.19-1.05,0.28-1.55,0.28h-0.19l-0.19,0.19h-0.19c-0.06,0.12-0.17,0.19-0.33,0.19
		c-0.16,0-0.23,0.03-0.23,0.09c0,0.06-0.03,0.09-0.09,0.09c-0.81,0.06-1.39-0.09-1.73-0.47c-0.34-0.38-0.33-0.59,0.05-0.66
		c0.31-0.06,0.56-0.09,0.75-0.09s0.56-0.12,1.12-0.38c0.56-0.25,0.89-0.38,0.98-0.38s0.23-0.06,0.42-0.19
		C307.26,463.43,307.54,463.26,307.92,463.04z M309.04,449.68l-0.47-0.38h-0.56c-0.44,0-0.95,0.09-1.55,0.28
		c-0.59,0.19-0.92,0.36-0.98,0.52c-0.06,0.16-0.09,0.42-0.09,0.8c0.06,0.81,0.31,1.22,0.75,1.22c2,0,3.19-0.25,3.56-0.75
		C309.82,451.06,309.61,450.49,309.04,449.68z M308.72,454.79c0.22-0.16,0.34-0.25,0.38-0.28c0.03-0.03,0.17-0.16,0.42-0.38
		c0.25-0.22,0.36-0.48,0.33-0.8c-0.03-0.31-0.09-0.5-0.19-0.56c-0.09-0.06-0.64,0.02-1.64,0.23c-1,0.22-1.66,0.45-1.97,0.7
		l0.09,0.66c0.06,0.38,0.12,0.62,0.19,0.75c0,0.62,0.16,0.94,0.47,0.94c0.06,0,0.28-0.09,0.66-0.28s0.59-0.34,0.66-0.47
		c0.25,0,0.36-0.05,0.33-0.14C308.4,455.07,308.5,454.95,308.72,454.79z M309.23,459.34c-0.13,0.13-0.27,0.19-0.42,0.19
		c-0.16,0-0.42,0.03-0.8,0.09c-0.38,0.06-0.59,0.13-0.66,0.19c-0.06,0.06,0.12,0.28,0.56,0.66c0.44,0.38,0.76,0.66,0.98,0.84
		c0.22,0.19,0.38,0.3,0.47,0.33c0.09,0.03,0.17,0.05,0.23,0.05c0.06,0,0.11-0.01,0.14-0.05c0.03-0.03,0.03-0.12,0-0.28
		c-0.03-0.16-0.02-0.34,0.05-0.56c0.06-0.22,0.09-0.45,0.09-0.7c0-0.25-0.03-0.44-0.09-0.56L309.23,459.34z M316.59,449.77
		c-0.16-0.19-0.31-0.31-0.47-0.38c-0.16-0.06-0.83-0.22-2.02-0.47l-1.41-0.19c-1.12,0-1.81,0.03-2.06,0.09
		c-0.25,0.06-0.36,0.19-0.33,0.38c0.03,0.19,0.05,0.3,0.05,0.33c0,0.03,0.03,0.14,0.09,0.33l0.56,0.94l0.09,0.56
		c0.62,0,1.12-0.08,1.5-0.23c0.38-0.16,0.7-0.14,0.98,0.05s0.42,0.38,0.42,0.56l-0.56,0.75l-0.09,0.09l-1.22,0.94
		c-0.5,0.56-0.74,0.88-0.7,0.94c0.03,0.06,0.14,0.08,0.33,0.05c0.19-0.03,0.36-0.06,0.52-0.09c0.16-0.03,0.28-0.12,0.38-0.28
		c0.09-0.16,0.27-0.23,0.52-0.23l0.66-0.19c0.06,0,0.12-0.11,0.19-0.33c0.06-0.22,0.2-0.41,0.42-0.56c0.22-0.16,0.39-0.33,0.52-0.52
		c0.12-0.19,0.47-0.61,1.03-1.27S316.75,449.96,316.59,449.77z M312.89,459.15h-0.38c-0.25,0-0.39-0.01-0.42-0.05
		c-0.03-0.03-0.14-0.03-0.33,0c-0.19,0.03-0.34,0.08-0.47,0.14c-0.13,0.06-0.19,0.3-0.19,0.7c0,0.41,0.16,0.61,0.47,0.61
		c0.12,0,0.19-0.03,0.19-0.09c0-0.06,0.23-0.27,0.7-0.61C312.93,459.51,313.07,459.28,312.89,459.15z"/>
	<path class="st2" d="M335.5,451.84l0.09-1.03v-0.94c0.12-0.69,0.09-1.22-0.09-1.59s-0.42-0.7-0.7-0.98s-0.22-0.5,0.19-0.66
		c0.41-0.16,0.75-0.12,1.03,0.09c0.28,0.22,0.47,0.41,0.56,0.56c0.09,0.16,0.14,0.74,0.14,1.73v1.59v0.47
		c0,0.25-0.05,0.47-0.14,0.66s-0.14,0.47-0.14,0.84l-0.56,3c0,0.25,0,0.41,0,0.47c0,0.06-0.02,0.2-0.05,0.42
		c-0.03,0.22-0.03,0.38,0,0.47c0.03,0.09,0.14,0.06,0.33-0.09c0.19-0.16,0.38-0.23,0.56-0.23s0.34-0.08,0.47-0.23
		c0.12-0.16,0.34-0.27,0.66-0.33c0.81-0.12,1.19-0.56,1.12-1.31c-0.06-0.75-0.41-1.37-1.03-1.88c-0.25-0.25-0.41-0.41-0.47-0.47
		c-0.06-0.06,0.05-0.17,0.33-0.33c0.28-0.16,0.8-0.01,1.55,0.42c0.19,0.25,0.34,0.41,0.47,0.47c0.12,0.06,0.3,0.47,0.52,1.22
		c0.22,0.75,0.17,1.47-0.14,2.16c-0.31,0.69-0.56,1.14-0.75,1.36c-0.19,0.22-0.28,0.41-0.28,0.56c0,0.16-0.05,0.3-0.14,0.42
		c-0.09,0.13-0.2,0.33-0.33,0.61c-0.13,0.28-0.28,0.45-0.47,0.52c-0.56,0.62-0.84,1.12-0.84,1.5c0,0.06,0.08,0.09,0.23,0.09
		c0.16,0,0.28,0.02,0.38,0.05c0.09,0.03,0.25-0.06,0.47-0.28c0.22-0.22,0.73-0.14,1.55,0.23c0.81,0.38,1.22,0.75,1.22,1.12
		c0,0.13-0.13,0.31-0.38,0.56v-0.28c-0.13,0.19-0.41,0.19-0.84,0c-0.63-0.12-1.25-0.19-1.88-0.19c-1.31-0.38-2.33-0.23-3.05,0.42
		c-0.72,0.66-1.19,1.05-1.41,1.17c-0.22,0.13-0.48,0.19-0.8,0.19c-0.69,0.06-1.03-0.12-1.03-0.56c0-0.25,0.2-0.38,0.61-0.38
		c0.41,0,0.83-0.22,1.27-0.66c0.44-0.44,0.5-0.8,0.19-1.08c-0.31-0.28-0.42-0.58-0.33-0.89c0.09-0.31,0.12-0.58,0.09-0.8
		c-0.03-0.22-0.13-0.33-0.28-0.33c-0.16,0-0.3,0.06-0.42,0.19c-0.13,0.13-0.25,0.19-0.38,0.19l-0.75,0.09
		c-0.13,0.13-0.41,0.19-0.84,0.19c-0.44-0.12-0.72-0.19-0.84-0.19l-0.38-0.09c-0.63-0.25-0.92-0.56-0.89-0.94
		c0.03-0.38,0.23-0.56,0.61-0.56c0.06,0,0.19,0.13,0.38,0.38l0.28,0.19h0.75c0.69-0.06,1.41-0.27,2.16-0.61
		c0.75-0.34,1.12-0.53,1.12-0.56c0-0.03,0.03-0.14,0.09-0.33c0.06-0.19,0.17-0.58,0.33-1.17c0.16-0.59,0.28-1.2,0.38-1.83
		c0.09-0.62,0.16-1.14,0.19-1.55c0.03-0.41,0.05-0.64,0.05-0.7L335.5,451.84z M331.56,459.62l-0.38-0.09
		c-0.13,0-0.19,0.03-0.19,0.09h0.38H331.56z M337.94,458.02l0.28-0.56c0-0.19-0.27-0.14-0.8,0.14c-0.53,0.28-0.86,0.39-0.98,0.33
		v0.09l-0.09,0.28c-0.19,0.06-0.38,0.11-0.56,0.14c-0.19,0.03-0.39,0.23-0.61,0.61c-0.22,0.38-0.36,0.77-0.42,1.17
		c-0.06,0.41-0.05,0.64,0.05,0.7c0.09,0.06,0.25,0.09,0.47,0.09c0.22,0,0.52-0.16,0.89-0.47c0.38-0.31,0.67-0.66,0.89-1.03
		c0.22-0.38,0.42-0.67,0.61-0.89C337.84,458.42,337.94,458.21,337.94,458.02z M343.84,464.96l-0.47-0.94c0-0.06-0.16-0.38-0.47-0.94
		c-0.5-1.19-0.58-2.05-0.23-2.58c0.34-0.53,1.12-0.94,2.34-1.22s1.88-0.52,1.97-0.7s0.05-0.44-0.14-0.75l-0.47-0.66
		c-0.13-0.25-0.23-0.41-0.33-0.47c-0.09-0.06-0.17-0.17-0.23-0.33c-0.06-0.16-0.2-0.28-0.42-0.38c-0.22-0.09-0.33-0.23-0.33-0.42
		s0.09-0.38,0.28-0.56s0.28-0.33,0.28-0.42s0.09-0.36,0.28-0.8c0.87-1.31,1.31-2.22,1.31-2.72c0-0.25-0.09-0.38-0.28-0.38
		c-0.69,0.06-1.56,0.44-2.62,1.12c-1.06,0.69-1.91,1.03-2.53,1.03l-0.66-0.28c-0.31,0-0.47-0.12-0.47-0.38
		c0-0.25,0.05-0.44,0.14-0.56c0.09-0.12,0.39-0.2,0.89-0.23c0.5-0.03,0.95-0.16,1.36-0.38c0.41-0.22,0.69-0.33,0.84-0.33
		c0.16,0,0.27-0.03,0.33-0.09c0.44-0.44,1.09-0.78,1.97-1.03c0.25,0,0.39-0.01,0.42-0.05c0.03-0.03,0.14-0.08,0.33-0.14
		c0.19-0.06,0.47-0.06,0.84,0c0.38,0.06,0.56,0.16,0.56,0.28c0,0.13,0.06,0.23,0.19,0.33c0.12,0.09,0.14,0.45,0.05,1.08
		c-0.09,0.62-0.3,1.22-0.61,1.78c-0.31,0.56-0.58,1.03-0.8,1.41c-0.22,0.38-0.36,0.59-0.42,0.66c-0.06,0.06-0.09,0.23-0.09,0.52
		s0.16,0.56,0.47,0.84c0.31,0.28,0.55,0.64,0.7,1.08c0.16,0.44,0.42,0.75,0.8,0.94c0.19,0.06,0.81,0.06,1.88,0
		c0.38,0,0.59,0.22,0.66,0.66c0,0.13-0.02,0.27-0.05,0.42c-0.03,0.16-0.45,0.23-1.27,0.23c-0.81,0-1.22,0.16-1.22,0.47
		c0,0.94-0.05,1.5-0.14,1.69s-0.11,0.28-0.05,0.28l-0.09,1.03c-0.13,0.25-0.23,0.45-0.33,0.61c-0.09,0.16-0.14,0.27-0.14,0.33v0.56
		l-0.38,0.56v0.47c0,0.81-0.5,1.25-1.5,1.31c-0.19,0-0.33-0.08-0.42-0.23c-0.09-0.16-0.19-0.23-0.28-0.23s-0.14-0.03-0.14-0.09
		h-0.09l-0.56-0.66C344.06,465.27,343.84,465.02,343.84,464.96z M347.22,460.18c-0.25-0.38-0.75-0.38-1.5,0
		c-0.06,0-0.16,0.06-0.28,0.19h-0.09l-0.56,0.09c-0.38,0.19-0.7,0.39-0.98,0.61c-0.28,0.22-0.34,0.45-0.19,0.7
		c0.16,0.25,0.25,0.55,0.28,0.89c0.03,0.34,0.08,0.55,0.14,0.61c0.06,0.06,0.09,0.13,0.09,0.19c-0.13,0-0.09,0.16,0.09,0.47
		l0.56,0.66c0.19,0.38,0.41,0.56,0.66,0.56c0.5,0.44,0.97,0,1.41-1.31C347.47,461.77,347.59,460.56,347.22,460.18z"/>
	<path class="st2" d="M360.92,453.01c0.25-0.34,0.45-0.67,0.61-0.98c0.16-0.31,0.28-0.55,0.38-0.7c0.09-0.16,0.14-0.47,0.14-0.94
		s-0.06-0.89-0.19-1.27c-0.13-0.38-0.16-0.64-0.09-0.8c0.06-0.16,0.16-0.23,0.28-0.23c0.44,0,0.87,0.34,1.31,1.03
		c0.12,0.31,0.11,0.83-0.05,1.55c-0.16,0.72-0.34,1.22-0.56,1.5c-0.22,0.28-0.33,0.44-0.33,0.47c0,0.03-0.19,0.34-0.56,0.94
		c-0.38,0.59-0.5,0.94-0.38,1.03c0.12,0.09,0.16,0.74,0.09,1.92c-0.06,1.19-0.13,2.12-0.19,2.81c-0.06,0.69-0.09,1.49-0.09,2.39
		c0,0.91-0.03,1.56-0.09,1.97c-0.06,0.41-0.09,0.64-0.09,0.7c0,0.06-0.16,0.09-0.47,0.09h-0.28c-0.19-0.38-0.3-0.73-0.33-1.08
		c-0.03-0.34-0.03-0.69,0-1.03c0.03-0.34,0.09-0.7,0.19-1.08s0.17-0.67,0.23-0.89c0.06-0.22,0.09-0.45,0.09-0.7
		c0-0.25,0.01-0.59,0.05-1.03c0.03-0.44,0.03-0.67,0-0.7c-0.03-0.03-0.05-0.34-0.05-0.94c0-0.59-0.03-0.94-0.09-1.03
		c-0.06-0.09-0.2-0.09-0.42,0c-0.22,0.09-0.38,0.2-0.47,0.33c-0.09,0.13-0.36,0.42-0.8,0.89c-0.44,0.47-0.74,0.81-0.89,1.03
		c-0.16,0.22-0.36,0.41-0.61,0.56c-0.25,0.16-0.45,0.17-0.61,0.05c-0.16-0.12-0.08-0.34,0.23-0.66c0.31-0.31,0.62-0.7,0.94-1.17
		c0.31-0.47,0.67-0.84,1.08-1.12c0.41-0.28,0.61-0.61,0.61-0.98c0-0.12,0.06-0.22,0.19-0.28c0.12-0.06,0.3-0.27,0.52-0.61
		C360.44,453.7,360.67,453.35,360.92,453.01z M371.89,458.87c0.5,0.56,0.83,0.84,0.98,0.84c0.16,0,0.27,0.02,0.33,0.05
		c0.06,0.03,0.17,0.06,0.33,0.09c0.16,0.03,0.42,0.14,0.8,0.33s1.36,0.38,2.95,0.56s2.61,0.47,3.05,0.84
		c0.06,0.06,0.25,0.2,0.56,0.42c0.31,0.22,0.42,0.36,0.33,0.42c-0.09,0.06-0.36,0.09-0.8,0.09c-0.44,0-0.77,0-0.98,0
		c-0.22,0-0.45,0-0.7,0l-0.19-0.19h-0.38c-0.13,0-0.28-0.03-0.47-0.09c-0.19-0.06-0.47-0.09-0.84-0.09s-0.66-0.05-0.84-0.14
		s-0.42-0.14-0.7-0.14s-0.48,0-0.61,0c-0.13,0-0.22-0.03-0.28-0.09c-0.06-0.06-0.19-0.16-0.38-0.28c-0.19-0.12-0.36-0.19-0.52-0.19
		c-0.16,0-0.47-0.12-0.94-0.38c-0.47-0.25-0.77-0.31-0.89-0.19c-0.13,0.13-0.19,0.81-0.19,2.06v1.88l-0.09,0.84
		c-0.38,1-0.97,1.72-1.78,2.16c0,0.12-0.05,0.23-0.14,0.33s-0.27,0.14-0.52,0.14h-0.09c0,0.12-0.09,0.25-0.28,0.38
		c-0.19,0.12-0.39,0.22-0.61,0.28c-0.22,0.06-0.67,0.03-1.36-0.09l-0.28-0.19l-0.47-0.66c-0.31-0.56-0.47-1.16-0.47-1.78l0.09-0.38
		c0.12,0,0.34,0.31,0.66,0.94c0.31,0.62,0.62,1.09,0.94,1.41l0.56-0.19c0.44-0.13,0.87-0.39,1.31-0.8c0.44-0.41,0.72-0.74,0.84-0.98
		c0.12-0.25,0.23-0.47,0.33-0.66s0.17-0.36,0.23-0.52c0.06-0.16,0.09-0.92,0.09-2.3c0-1.37-0.03-2.06-0.09-2.06
		c-0.06,0-0.19-0.03-0.38-0.09c-0.25-0.25-0.38-0.47-0.38-0.66c0.12-0.06,0.16-0.12,0.09-0.19c-0.06-0.06-0.09-0.03-0.09,0.09
		l-0.56,0.66h-0.09v0.19c0,0.13-0.05,0.25-0.14,0.38c-0.09,0.13-0.17,0.22-0.23,0.28c-0.06,0.06-0.17,0.27-0.33,0.61
		c-0.16,0.34-0.28,0.55-0.38,0.61c-0.09,0.06-0.14,0.14-0.14,0.23s-0.13,0.34-0.38,0.75c-0.25,0.41-0.45,0.78-0.61,1.12
		c-0.16,0.34-0.3,0.36-0.42,0.05c0-0.06-0.06-0.06-0.19,0c-0.13,0.06-0.2,0.08-0.23,0.05c-0.03-0.03-0.08-0.12-0.14-0.28
		c-0.06-0.16-0.06-0.27,0-0.33c0.06-0.06,0.17-0.19,0.33-0.38c0.16-0.19,0.45-0.84,0.89-1.97c0.94-1.56,1.28-2.5,1.03-2.81
		l-0.19-0.19c-0.13,0.31-0.28,0.56-0.47,0.75s-0.38,0.41-0.56,0.66c-0.19,0.25-0.36,0.42-0.52,0.52c-0.16,0.09-0.33,0.27-0.52,0.52
		c-0.19,0.25-0.42,0.55-0.7,0.89c-0.28,0.34-0.53,0.66-0.75,0.94c-0.22,0.28-0.45,0.45-0.7,0.52c-0.38,0.19-0.56,0.08-0.56-0.33
		c0-0.41,0.09-0.72,0.28-0.94c0.19-0.22,0.36-0.47,0.52-0.75c0.16-0.28,0.36-0.61,0.61-0.98c0.25-0.38,0.44-0.81,0.56-1.31
		c0-0.06-0.06-0.09-0.19-0.09c-0.69,0.31-1.09,0.19-1.22-0.38c-0.06-0.12,0.03-0.34,0.28-0.66c0.25-0.31,0.76-0.64,1.55-0.98
		c0.78-0.34,1.17-0.67,1.17-0.98v-0.19c-0.38-0.19-0.63-0.28-0.75-0.28c-0.38,0-0.66-0.16-0.84-0.47c-0.19-0.81-0.3-1.51-0.33-2.11
		c-0.03-0.59-0.16-1.06-0.38-1.41c-0.22-0.34-0.2-0.61,0.05-0.8c0.25-0.19,0.53-0.19,0.84,0c0.31,0.19,0.58,0.22,0.8,0.09
		c0.22-0.12,0.38-0.19,0.47-0.19s0.2-0.11,0.33-0.33c0.12-0.22,0.27-0.33,0.42-0.33c0.16,0,0.38-0.16,0.66-0.47
		c0.28-0.31,0.62-0.69,1.03-1.12c0.41-0.44,0.61-0.75,0.61-0.94c0-0.12-0.14-0.16-0.42-0.09c-0.28,0.06-0.48,0.16-0.61,0.28
		c-0.13,0.13-0.36,0.19-0.7,0.19c-0.34,0-0.56,0.03-0.66,0.09c-0.09,0.06-0.3,0.19-0.61,0.38h-0.56c0.06-0.44,0.22-0.86,0.47-1.27
		c0.25-0.41,0.42-0.91,0.52-1.5c0.09-0.59,0.17-0.89,0.23-0.89c0.06,0,0.16,0,0.28,0c0.12,0,0.3-0.03,0.52-0.09
		c0.22-0.06,0.39,0,0.52,0.19c0.12,0.19,0.12,0.44,0,0.75c-0.13,0.31-0.16,0.52-0.09,0.61c0.06,0.09,0.47,0.09,1.22,0
		s1.22-0.11,1.41-0.05c0.44,0.13,0.62,0.44,0.56,0.94c-0.06,0.5-0.25,0.78-0.56,0.84c-0.13,0.13-0.22,0.19-0.28,0.19l-1.12,1.5
		c0,0.06,0.5,0.08,1.5,0.05c1-0.03,1.84,0.05,2.53,0.23c1.31,0.31,1.97,0.72,1.97,1.22c-0.06,0.31-0.16,0.44-0.28,0.38
		c0,0.06-0.09,0.09-0.28,0.09h-0.09h-0.09c-0.13,0-0.22,0.03-0.28,0.09c-0.06,0.06-0.33,0.23-0.8,0.52s-0.97,0.58-1.5,0.89
		c-0.53,0.31-0.88,0.64-1.03,0.98c-0.16,0.34-0.52,0.58-1.08,0.7c-0.56,0.13-0.84,0.31-0.84,0.56c0,0.13-0.08,0.2-0.23,0.23
		c-0.16,0.03-0.33,0.17-0.52,0.42c-0.19,0.25-0.27,0.44-0.23,0.56c0.03,0.13,0.25,0.3,0.66,0.52c0.41,0.22,0.61,0.34,0.61,0.38
		c0,0.03,0.03,0.05,0.09,0.05c0.06,0,0.27,0.08,0.61,0.23c0.34,0.16,0.61,0.23,0.8,0.23s0.38-0.17,0.56-0.52
		c0.19-0.34,0.38-0.55,0.56-0.61c0.19-0.06,0.3-0.28,0.33-0.66c0.03-0.38,0.16-0.64,0.38-0.8c0.22-0.16,0.45-0.23,0.7-0.23
		c0.44,0,0.69,0.23,0.75,0.7c0.06,0.47-0.13,0.77-0.56,0.89c-0.38,0.13-0.97,0.75-1.78,1.88L371.89,458.87z M367.49,453.34
		c0.94-0.94,1.12-1.56,0.56-1.88h-0.19h-0.09h-0.28l-0.38,0.28c-0.31,0.19-0.47,0.3-0.47,0.33c0,0.03-0.03,0.05-0.09,0.05
		l-0.19,0.28c-0.19,0.13-0.28,0.56-0.28,1.31c0,0.44,0.19,0.56,0.56,0.38c0.12-0.12,0.22-0.2,0.28-0.23
		C366.99,453.82,367.17,453.65,367.49,453.34z M366.64,464.02v0.28V464.02z M367.16,455.59c0.09-0.06,0.11-0.16,0.05-0.28
		c-0.06-0.12-0.19-0.09-0.38,0.09s-0.19,0.28,0,0.28C366.96,455.68,367.07,455.65,367.16,455.59z M372.64,450.71
		c-0.19,0-0.36-0.03-0.52-0.09c-0.16-0.06-0.33-0.06-0.52,0c-0.19,0.06-0.45,0.11-0.8,0.14c-0.34,0.03-0.55,0.05-0.61,0.05
		c-0.06,0-0.17,0.02-0.33,0.05c-0.16,0.03-0.23,0.31-0.23,0.84c0,0.53-0.02,0.91-0.05,1.12c-0.03,0.22,0.05,0.33,0.23,0.33
		s0.69-0.19,1.5-0.56C373.14,451.4,373.58,450.77,372.64,450.71z"/>
	<path class="st2" d="M388.98,457.84l-0.09,0.19c-0.19-0.12-0.52,0.06-0.98,0.56c-0.47,0.5-0.89,0.75-1.27,0.75
		s-0.58-0.16-0.61-0.47c-0.03-0.31,0.05-0.59,0.23-0.84l0.38-0.47c0-0.31,0.12-0.47,0.38-0.47c0.12,0,0.19-0.03,0.19-0.09
		c0-0.06-0.03-0.11-0.09-0.14c-0.06-0.03-0.09-0.25-0.09-0.66c0-0.41-0.05-0.7-0.14-0.89s-0.13-0.38-0.09-0.56
		c0.03-0.19,0.05-0.38,0.05-0.56s-0.02-0.41-0.05-0.66c-0.03-0.25-0.16-0.55-0.38-0.89c-0.22-0.34-0.33-0.56-0.33-0.66
		s-0.03-0.14-0.09-0.14v-0.09c-0.25,0.06-0.58-0.12-0.98-0.56c-0.41-0.44-0.45-0.72-0.14-0.84h0.09l0.56,0.19
		c0.31,0,0.61,0.09,0.89,0.28s0.56,0.28,0.84,0.28s0.53-0.05,0.75-0.14c0.22-0.09,0.48-0.17,0.8-0.23c0.31-0.06,0.53-0.09,0.66-0.09
		c0.12,0,0.59-0.01,1.41-0.05c0.81-0.03,1.31,0,1.5,0.09s0.39,0.31,0.61,0.66c0.22,0.34,0.44,0.52,0.66,0.52
		c0.22,0,0.33-0.09,0.33-0.28c0-0.06,0.08-0.14,0.23-0.23c0.16-0.09,0.23-0.16,0.23-0.19c0-0.03,0.19-0.25,0.56-0.66
		c0.38-0.41,0.66-0.78,0.84-1.12c0.19-0.34,0.31-0.58,0.38-0.7c0.06-0.12,0.09-0.31,0.09-0.56c0-0.94,0.19-1.47,0.56-1.59
		c0.38-0.12,0.66-0.05,0.84,0.23s0.28,0.75,0.28,1.41s0.01,0.98,0.05,0.98c0.03,0,0.05-0.03,0.05-0.09
		c0.31,0.06,0.42,0.14,0.33,0.23s-0.08,0.14,0.05,0.14c0.12,0,0.28,0.09,0.47,0.28s0.39,0.38,0.61,0.56
		c0.22,0.19,0.3,0.34,0.23,0.47c-0.06,0.13-0.06,0.19,0,0.19c0.37,0,0.78,0.16,1.22,0.47c0.44,0.31,0.75,0.52,0.94,0.61
		s0.28,0.17,0.28,0.23c0,0.06,0.08,0.11,0.23,0.14c0.16,0.03,0.36,0.13,0.61,0.28c0.25,0.16,0.45,0.28,0.61,0.38s0.3,0.2,0.42,0.33
		c0.12,0.13,0.42,0.25,0.89,0.38c0.47,0.13,0.94,0.33,1.41,0.61s0.78,0.38,0.94,0.28s0.25-0.09,0.28,0s0.27,0.14,0.7,0.14
		s0.75,0.02,0.94,0.05c0.19,0.03,0.38,0.05,0.56,0.05s0.41,0.14,0.66,0.42s0.34,0.45,0.28,0.52c-0.06,0.06-0.19,0.11-0.38,0.14
		c-0.19,0.03-0.5,0.02-0.94-0.05c-1.06-0.12-1.59-0.12-1.59,0c-0.06,0-0.17,0.05-0.33,0.14s-0.3,0.06-0.42-0.09
		c-0.12-0.16-0.23-0.2-0.33-0.14c-0.09,0.06-0.17,0.02-0.23-0.14c-0.06-0.16-0.09-0.19-0.09-0.09s-0.03,0.14-0.09,0.14l-0.47,0.19
		h-0.19c-0.25-0.19-0.45-0.28-0.61-0.28s-0.38-0.12-0.66-0.38c-0.28-0.25-0.55-0.38-0.8-0.38c-0.12-0.06-0.19-0.19-0.19-0.38
		c-0.31,0.06-0.67-0.08-1.08-0.42c-0.41-0.34-0.73-0.62-0.98-0.84c-0.25-0.22-0.45-0.41-0.61-0.56c-0.16-0.16-0.27-0.23-0.33-0.23
		s-0.27-0.14-0.61-0.42c-0.34-0.28-0.59-0.48-0.75-0.61c-0.16-0.12-0.39-0.31-0.7-0.56l-0.47-0.47h-0.56h-0.38l-0.19,0.28
		c-0.06,0.13-0.23,0.41-0.52,0.84c-0.28,0.44-0.42,0.7-0.42,0.8s-0.03,0.22-0.09,0.38c-0.06,0.16-0.09,0.27-0.09,0.33l-0.09,0.19
		c0,0.13-0.05,0.23-0.14,0.33s-0.05,0.19,0.14,0.28s0.53,0.13,1.03,0.09c0.5-0.03,0.76-0.09,0.8-0.19c0.03-0.09,0.16-0.17,0.38-0.23
		c0.22-0.06,0.36-0.09,0.42-0.09c0.06,0,0.19,0,0.38,0s0.45-0.06,0.8-0.19c0.34-0.12,0.59-0.16,0.75-0.09
		c0.16,0.06,0.34,0.09,0.56,0.09s0.38,0.13,0.47,0.38c0.09,0.25,0,0.56-0.28,0.94s-0.45,0.5-0.52,0.38v0.19l-0.37,0.09l-0.09,0.19
		h-0.09c0,0.06-0.02,0.09-0.05,0.09c-0.03,0-0.13,0.08-0.28,0.23c-0.16,0.16-0.23,0.17-0.23,0.05l-0.09,0.19
		c0,0.06-0.05,0.16-0.14,0.28c-0.09,0.13-0.14,0.33-0.14,0.61s0.16,0.55,0.47,0.8l0.38-0.09c0.87-0.56,1.55-0.84,2.02-0.84
		s0.7,0.28,0.7,0.84c0,0.25-0.03,0.42-0.09,0.52s-0.36,0.17-0.89,0.23c-0.53,0.06-0.89,0.13-1.08,0.19l-0.47,0.19l-0.47,0.09
		c-0.19,0.13-0.33,0.45-0.42,0.98c-0.09,0.53-0.09,0.84,0,0.94s0.23,0.14,0.42,0.14s0.28,0.02,0.28,0.05c0,0.03,0.05,0.03,0.14,0
		c0.09-0.03,0.14-0.03,0.14,0c0,0.03-0.03,0.11-0.09,0.23v0.09c0.06,0,0.16-0.06,0.28-0.19c0.12-0.12,0.62-0.22,1.5-0.28
		c0.88-0.06,1.39-0.06,1.55,0c0.16,0.06,0.33,0.05,0.52-0.05s0.41,0.05,0.66,0.42s0.19,0.74-0.19,1.08
		c-0.38,0.34-0.77,0.67-1.17,0.98c-0.41,0.31-0.73,0.56-0.98,0.75s-0.47,0.36-0.66,0.52c-0.19,0.16-0.25,0.28-0.19,0.38
		s0.25,0.3,0.56,0.61s0.28,0.56-0.09,0.75c-0.25,0.06-0.61,0.09-1.08,0.09s-0.78,0.05-0.94,0.14c-0.16,0.09-0.33,0.14-0.52,0.14
		s-0.41,0.06-0.66,0.19c-0.25,0.12-0.47,0.19-0.66,0.19s-0.31,0.03-0.38,0.09c-0.06,0.06-0.5,0.09-1.31,0.09
		c-0.38,0-0.67-0.31-0.89-0.94c-0.22-0.62-0.3-1.03-0.23-1.22c0.06-0.19,0.08-0.31,0.05-0.38c-0.03-0.06-0.05-0.16-0.05-0.28
		c0-0.12-0.11-0.38-0.33-0.75c-0.22-0.38-0.39-0.62-0.52-0.75c-0.13-0.12-0.09-0.28,0.09-0.47s0.41-0.28,0.66-0.28
		c0.25,0,0.45-0.06,0.61-0.19c0.16-0.12,0.3-0.14,0.42-0.05c0.12,0.09,0.19,0.06,0.19-0.09c0-0.16,0.12-0.2,0.38-0.14
		c0.25,0.06,0.53-0.16,0.84-0.66c0.06-0.06,0.11-0.25,0.14-0.56c0.03-0.31,0.05-0.53,0.05-0.66l-0.56,0.19
		c-0.13,0.06-0.31,0.09-0.56,0.09l-0.66,0.19c-0.13,0.06-0.38,0.16-0.75,0.28c-0.38,0.13-0.59,0.19-0.66,0.19
		c-0.44,0.13-0.78,0-1.03-0.38c-0.13-0.38-0.09-0.59,0.09-0.66c0.19,0,0.31-0.09,0.38-0.28c0.06-0.19,0.33-0.48,0.8-0.89
		c0.47-0.41,0.7-0.67,0.7-0.8c0-0.25,0.14-0.38,0.42-0.38s0.45-0.06,0.52-0.19c0.06-0.12,0.19-0.3,0.38-0.52
		c0.19-0.22,0.31-0.48,0.38-0.8l0.47-0.28l-0.09-0.09c-0.25-0.12-0.63-0.19-1.12-0.19c-0.44,0-1,0-1.69,0l-0.19,0.38
		c-0.31,0.25-0.56,0.64-0.75,1.17c-0.19,0.53-0.45,1.11-0.8,1.73c-0.34,0.62-0.55,1.02-0.61,1.17c-0.06,0.16-0.17,0.34-0.33,0.56
		c-0.16,0.22-0.47,0.64-0.94,1.27c-0.47,0.62-0.74,0.94-0.8,0.94c0.06,0.19-0.2,0.42-0.8,0.7c-0.59,0.28-1.06,0.42-1.41,0.42
		c-0.34,0-0.58-0.12-0.7-0.38l-0.19-1.12l0.19-0.09c0.12,0,0.23,0.08,0.33,0.23c0.09,0.16,0.17,0.23,0.23,0.23
		c0.06,0,0.3-0.08,0.7-0.23c0.41-0.16,0.69-0.31,0.84-0.47c0.16-0.16,0.42-0.44,0.8-0.84c0.38-0.41,0.61-0.86,0.7-1.36
		c0.09-0.5,0.3-0.84,0.61-1.03c0.31-0.19,0.48-0.44,0.52-0.75c0.03-0.31,0.14-0.53,0.33-0.66c0.19-0.12,0.28-0.25,0.28-0.38
		l0.56-1.31l0.28-1.12h-0.19c-0.06,0.19-0.19,0.28-0.38,0.28h-0.09c0,0.06-0.13,0.09-0.38,0.09c-0.25,0-0.38,0.19-0.38,0.56
		l-0.56,0.47l-0.66,0.56c-0.06,0.25-0.23,0.44-0.52,0.56c-0.28,0.13-0.42,0.23-0.42,0.33s-0.06,0.23-0.19,0.42L388.98,457.84z
		 M391.51,452.31l-0.09-0.47h-1.22c-0.81,0-1.23,0.03-1.27,0.09c-0.03,0.06-0.23,0.09-0.61,0.09c-0.75,0.06-0.97,0.38-0.66,0.94
		c0.06,0.25,0.11,0.5,0.14,0.75c0.03,0.25,0.06,0.45,0.09,0.61c0.03,0.16,0.05,0.47,0.05,0.94s0.08,0.8,0.23,0.98
		c0.16,0.19,0.38,0.19,0.66,0s0.66-0.62,1.12-1.31c0.47-0.69,0.76-1.03,0.89-1.03c0.06,0,0.09-0.01,0.09-0.05
		c0-0.03,0.16-0.23,0.47-0.61C391.72,452.87,391.76,452.56,391.51,452.31z M401.4,462.57c0.09-0.16,0.09-0.27,0-0.33
		c-0.09-0.06-0.25-0.12-0.47-0.19c-0.22-0.06-0.33-0.06-0.33,0c0,0.06-0.25,0.09-0.75,0.09c-0.5,0-0.84,0.03-1.03,0.09
		c-0.19,0.06-0.44,0.17-0.75,0.33c-0.31,0.16-0.69,0.23-1.12,0.23c-0.75,0-1,0.34-0.75,1.03c0,0.13,0.03,0.38,0.09,0.75
		c0.06,0.81,0.25,1.16,0.56,1.03c0.06-0.06,0.17-0.16,0.33-0.28c0.16-0.13,0.33-0.19,0.52-0.19s0.41-0.09,0.66-0.28
		c0.25-0.19,0.41-0.28,0.47-0.28c0.31,0,0.69-0.25,1.12-0.75c0.44-0.5,0.73-0.78,0.89-0.84c0.16-0.06,0.27-0.11,0.33-0.14
		C401.22,462.82,401.3,462.73,401.4,462.57z M396.19,458.59c0.06,0.19,0.3,0.16,0.7-0.09c0.41-0.25,0.61-0.48,0.61-0.7
		c0-0.22-0.19-0.23-0.56-0.05C396.38,458.18,396.13,458.46,396.19,458.59z M400.51,461.59l-0.09-0.09
		c-0.06-0.06-0.08-0.05-0.05,0.05S400.44,461.65,400.51,461.59z M402.33,461.21c0.03,0.06,0.05,0.06,0.05,0
		c0-0.06-0.02-0.11-0.05-0.14c-0.03-0.03-0.05-0.03-0.05,0C402.29,461.1,402.3,461.15,402.33,461.21z M407.72,455.17
		c0-0.09-0.03-0.14-0.09-0.14s-0.19,0-0.38,0c-0.12,0.06-0.22,0.19-0.28,0.38c0.06,0,0.2-0.01,0.42-0.05
		C407.62,455.32,407.72,455.26,407.72,455.17z"/>
	<path class="st2" d="M419.56,458.68l0.38-0.38c0-0.25,0.14-0.41,0.42-0.47c0.28-0.06,0.48-0.16,0.61-0.28
		c0.12-0.12,0.22-0.27,0.28-0.42c0.06-0.16,0.08-0.27,0.05-0.33c-0.03-0.06-0.17-0.09-0.42-0.09c-0.25,0-0.42-0.01-0.52-0.05
		c-0.09-0.03-0.25,0-0.47,0.09c-0.22,0.09-0.44,0.22-0.66,0.38c-0.22,0.16-0.36,0.27-0.42,0.33c-0.06,0-0.16,0.05-0.28,0.14
		c-0.13,0.09-0.3,0.14-0.52,0.14c-0.22,0-0.49-0.09-0.8-0.28c-0.44-0.06-0.6-0.19-0.47-0.38c0.12-0.19,0.59-0.47,1.41-0.84
		c0.81-0.38,1.25-0.69,1.31-0.94c0.06-0.19,0.14-0.3,0.23-0.33c0.09-0.03,0.2-0.27,0.33-0.7c0.12-0.44,0.19-0.76,0.19-0.98
		c0-0.22-0.25-0.27-0.75-0.14c-0.06,0-0.27-0.08-0.61-0.23c-0.34-0.16-0.52-0.3-0.52-0.42c0-0.12,0.08-0.25,0.23-0.38
		c0.15-0.12,0.33-0.19,0.52-0.19s0.36-0.01,0.52-0.05c0.15-0.03,0.36-0.05,0.61-0.05c0.5-0.06,0.81-0.41,0.94-1.03
		c0-0.12,0.01-0.27,0.05-0.42c0.03-0.16,0.03-0.27,0-0.33c-0.03-0.06-0.02-0.14,0.05-0.23c0.06-0.09,0.08-0.19,0.05-0.28
		c-0.03-0.09-0.06-0.25-0.09-0.47c-0.03-0.22-0.02-0.39,0.05-0.52c0.06-0.12-0.02-0.41-0.23-0.84c-0.22-0.44-0.31-0.73-0.28-0.89
		c0.03-0.16,0.05-0.27,0.05-0.33c0-0.06,0-0.12,0-0.19c0-0.25,0.17-0.25,0.52,0c0.34,0.25,0.55,0.91,0.61,1.97c0,0.31,0,0.66,0,1.03
		v0.38c-0.06,0-0.09,0.06-0.09,0.19c0,0.13,0.01,0.2,0.05,0.23c0.03,0.03,0.05,0.23,0.05,0.61s0.12,0.59,0.38,0.66
		c0.12,0.25,0.58,0.3,1.36,0.14c0.78-0.16,1.33-0.17,1.64-0.05c0.06,0.19,0.09,0.34,0.09,0.47c0,0.44-0.5,0.67-1.5,0.7
		c-1,0.03-1.53,0.05-1.59,0.05h-0.38h-0.09c-0.06,0-0.09,0.08-0.09,0.23c0,0.16-0.09,0.42-0.28,0.8s-0.28,0.72-0.28,1.03v0.56h0.19
		c1.25,0,2.06-0.19,2.44-0.56c0.12-0.19,0.25-0.31,0.38-0.38c0.12-0.06,0.25-0.16,0.38-0.28c0.12-0.12,0.39-0.2,0.8-0.23
		c0.41-0.03,0.75,0.05,1.03,0.23s0.48,0.38,0.61,0.56c0.12,0.19,0.28,0.27,0.47,0.23c0.19-0.03,0.31-0.12,0.38-0.28
		c0.06-0.16,0.26-0.34,0.61-0.56c0.34-0.22,0.42-0.45,0.23-0.7c-0.19-0.25-0.28-0.42-0.28-0.52s-0.02-0.14-0.05-0.14
		c-0.03,0-0.11-0.11-0.23-0.33c-0.13-0.22-0.02-0.38,0.33-0.47c0.34-0.09,0.64,0,0.89,0.28c0.25,0.28,0.56,0.42,0.94,0.42
		c0.87,0,1.61-0.19,2.2-0.56c0.59-0.38,0.98-0.47,1.17-0.28c0,0.06,0.05,0.09,0.14,0.09s0.26,0.03,0.52,0.09
		c0.44,0.44,0.47,1.06,0.09,1.88c-0.06,0.25-0.09,0.41-0.09,0.47c0,0.5,0.25,0.84,0.75,1.03c0.31,0,0.56,0.09,0.75,0.28
		c0.75,0.38,1.12,0.91,1.12,1.59c0,0.13,0.12,0.19,0.38,0.19l-0.38,0.47c-0.06,0.06-0.06,0.13,0,0.19c0,0.38-0.22,0.78-0.66,1.22
		c-0.44,0.44-0.75,0.74-0.94,0.89c-0.19,0.16-0.31,0.23-0.38,0.23c-0.06,0-0.16,0.02-0.28,0.05c-0.13,0.03-0.3,0.09-0.52,0.19
		c-0.22,0.09-0.49,0.17-0.8,0.23c-0.5,0.13-1.12-0.03-1.88-0.47c-0.75-0.44-1.12-0.59-1.12-0.47c0,0.19-0.02,0.33-0.05,0.42
		c-0.03,0.09-0.06,0.7-0.09,1.83c-0.03,1.12-0.06,1.72-0.09,1.78c-0.03,0.06-0.05,0.2-0.05,0.42c0,0.22,0.01,0.38,0.05,0.47
		c0.03,0.09,0.05,0.44,0.05,1.03c0,0.59-0.02,1-0.05,1.22c-0.03,0.22-0.09,0.64-0.19,1.27c-0.09,0.62-0.16,1.02-0.19,1.17
		c-0.03,0.16-0.05,0.34-0.05,0.56c0,0.22-0.02,0.38-0.05,0.47c-0.03,0.09-0.02,0.2,0.05,0.33c0.06,0.12,0.08,0.22,0.05,0.28
		c-0.03,0.06-0.08,0.08-0.14,0.05c-0.06-0.03-0.09-0.08-0.09-0.14c-0.19-0.44-0.23-0.77-0.14-0.98c0.09-0.22,0.14-0.41,0.14-0.56
		c0-0.16,0-1.14,0-2.95s-0.05-3-0.14-3.56s-0.08-0.92,0.05-1.08c0.12-0.16,0.12-0.28,0-0.38c-0.13-0.09-0.19-0.33-0.19-0.7
		s0.05-0.64,0.14-0.8c0.09-0.16,0.09-0.33,0-0.52s-0.14-0.58-0.14-1.17c0-0.59,0-0.94,0-1.03s-0.03-0.3-0.09-0.61
		c-0.06-0.31-0.11-0.61-0.14-0.89c-0.03-0.28-0.14-0.44-0.33-0.47c-0.19-0.03-0.38,0.09-0.56,0.38s-0.39,0.55-0.61,0.8
		c-0.22,0.25-0.41,0.52-0.56,0.8c-0.16,0.28-0.31,0.45-0.47,0.52c-0.16,0.06-0.23,0.11-0.23,0.14c0,0.03-0.06,0.05-0.19,0.05v0.28
		c-0.06,0.06-0.09,0.62-0.09,1.69c0,1.06-0.06,1.77-0.19,2.11c-0.13,0.34-0.19,0.61-0.19,0.8s-0.16,0.41-0.47,0.66
		c-0.31,0.25-0.6,0.38-0.84,0.38c0,0.06-0.13,0.09-0.38,0.09c-0.25,0-0.56-0.14-0.94-0.42s-0.56-0.67-0.56-1.17
		c0-0.5,0.23-1.09,0.7-1.78c0.47-0.69,0.67-1.11,0.61-1.27c-0.06-0.16-0.27-0.23-0.61-0.23c-0.34,0-0.58,0-0.7,0
		c-0.38,0-0.46-0.2-0.23-0.61c0.22-0.41,0.41-0.62,0.56-0.66c0.15-0.03,0.52-0.05,1.08-0.05h1.03c0.31-0.44,0.7-0.83,1.17-1.17
		c0.47-0.34,0.7-0.67,0.7-0.98c0-0.19-0.2-0.28-0.61-0.28c-0.41,0-0.8,0.09-1.17,0.28l-0.56,0.38c0,0.06-0.03,0.09-0.09,0.09h-0.09
		c-0.13,0.06-0.31,0.25-0.56,0.56c-0.25,0.31-0.5,0.53-0.75,0.66c-1.06,0.81-1.56,1.34-1.5,1.59v1.31c0.19,0.94,0.33,1.77,0.42,2.48
		c0.09,0.72,0.05,1.2-0.14,1.45c-0.19,0.25-0.31,0.31-0.38,0.19c-0.44-0.38-0.69-0.91-0.75-1.59c0-0.06-0.05-0.2-0.14-0.42
		c-0.09-0.22-0.09-0.39,0-0.52c0.09-0.12,0.09-0.23,0-0.33s-0.09-0.22,0-0.38c0.09-0.16-0.05-0.45-0.42-0.89
		c-0.06-0.06-0.19-0.05-0.38,0.05s-0.41,0.11-0.66,0.05c0,0.06-0.19,0.41-0.56,1.03l-0.38,0.56c-0.19,0.13-0.28,0.16-0.28,0.09
		h-0.09v0.09c-0.06,0-0.17,0.13-0.33,0.38c-0.16,0.25-0.39,0.5-0.7,0.75l-0.28,0.47c0,0.06-0.08,0.13-0.23,0.19
		c-0.16,0.06-0.25,0.09-0.28,0.09c-0.03,0-0.08-0.03-0.14-0.09c-0.31-0.5-0.06-1.09,0.75-1.78c0.31-0.12,0.5-0.3,0.56-0.52
		c0.06-0.22,0.22-0.42,0.47-0.61c0.25-0.19,0.44-0.36,0.56-0.52c0.12-0.16,0.26-0.3,0.42-0.42c0.15-0.12,0.28-0.3,0.38-0.52
		c0.09-0.22,0.2-0.33,0.33-0.33c0.12,0,0.23-0.05,0.33-0.14S419.56,458.87,419.56,458.68z M420.59,446.31l0.09,0.09
		c0,0.13-0.03,0.19-0.09,0.19C420.52,446.59,420.52,446.49,420.59,446.31z M420.78,462.62l0.19-0.38
		C420.78,462.24,420.71,462.37,420.78,462.62z M421.62,450.71l-0.28,0.09L421.62,450.71z M421.71,451.74
		c-0.06,0-0.08,0.02-0.05,0.05C421.7,451.82,421.71,451.81,421.71,451.74z M424.71,460.46l-0.38,0.28c-0.25,0.13-0.42,0.3-0.52,0.52
		c-0.09,0.22-0.16,0.5-0.19,0.84c-0.03,0.34-0.03,0.55,0,0.61c0.03,0.06,0.06,0.09,0.09,0.09c0.03,0,0.08-0.01,0.14-0.05
		c0.06-0.03,0.22-0.14,0.47-0.33c0.25-0.19,0.38-0.42,0.38-0.7s0.03-0.42,0.09-0.42c0.31-0.19,0.36-0.33,0.14-0.42
		C424.73,460.79,424.65,460.65,424.71,460.46z M428.93,452.31c0,0.06,0.01,0.09,0.05,0.09C429.01,452.4,428.99,452.37,428.93,452.31
		z M429.49,471.9c-0.31,0-0.44-0.03-0.38-0.09c0.06-0.06,0.14-0.09,0.23-0.09s0.15,0.03,0.19,0.09
		C429.57,471.87,429.55,471.9,429.49,471.9z M432.92,454.6c-0.09-0.16-0.14-0.34-0.14-0.56c0-0.22-0.02-0.42-0.05-0.61
		c-0.03-0.19-0.19-0.19-0.47,0s-0.61,0.3-0.98,0.33c-0.38,0.03-0.6,0.08-0.66,0.14h-0.28c-0.06,0.19-0.09,0.19-0.09,0l-0.09,1.12
		c0,0.44,0.08,0.74,0.23,0.89c0.15,0.16,0.23,0.42,0.23,0.8c0.5,2.12,1.37,3.13,2.62,3c0.38-0.06,0.66-0.09,0.84-0.09
		s0.34-0.16,0.47-0.47c1.06-0.94,1.41-1.69,1.03-2.25c-0.25-0.12-0.61-0.28-1.08-0.47s-0.83-0.42-1.08-0.7
		c-0.25-0.28-0.38-0.5-0.38-0.66C433.06,454.92,433.01,454.76,432.92,454.6z"/>
	<path class="st2" d="M446.25,458.63c0.09-0.22,0.09-0.36,0-0.42c-0.09-0.06-0.14-0.39-0.14-0.98c0-0.59-0.06-1-0.19-1.22
		c-0.12-0.22-0.12-0.39,0-0.52c0.12-0.12,0.28-0.17,0.47-0.14c0.19,0.03,0.38,0.08,0.56,0.14c0.25,0.38,0.38,1.12,0.38,2.25
		c0,0.44,0.19,0.25,0.56-0.56c0.19-0.31,0.31-0.48,0.38-0.52c0.06-0.03,0.2-0.23,0.42-0.61s0.39-0.56,0.52-0.56s0.22,0,0.28,0
		s0.06,0.2,0,0.61c-0.06,0.41-0.25,0.81-0.56,1.22c-0.31,0.41-0.48,0.7-0.52,0.89s-0.12,0.38-0.28,0.56s-0.23,0.33-0.23,0.42
		s-0.05,0.2-0.14,0.33c-0.09,0.13-0.14,0.25-0.14,0.38c0,0.19-0.06,0.39-0.19,0.61c-0.12,0.22-0.19,0.41-0.19,0.56
		c0,0.16-0.09,0.36-0.28,0.61c-0.19,0.25-0.28,0.47-0.28,0.66l-0.28,0.56v0.28c0,0.25-0.05,0.41-0.14,0.47
		c-0.09,0.06-0.2,0.22-0.33,0.47c-0.12,0.25-0.34,0.56-0.66,0.94s-0.52,0.55-0.61,0.52c-0.09-0.03-0.22-0.08-0.38-0.14
		c-0.16-0.06-0.28-0.2-0.38-0.42s-0.09-0.39,0-0.52c0.09-0.12,0.19-0.28,0.28-0.47s0.31-0.48,0.66-0.89
		c0.34-0.41,0.52-0.69,0.52-0.84c0-0.16,0.06-0.25,0.19-0.28c0.12-0.03,0.19-0.14,0.19-0.33s0.05-0.39,0.14-0.61
		c0.09-0.22,0.16-0.62,0.19-1.22C446.09,459.26,446.15,458.85,446.25,458.63z M444.51,456.34h0.28c0,0.13-0.06,0.19-0.19,0.19h-0.09
		V456.34z M447.09,449.73c-0.28-0.22-0.42-0.38-0.42-0.47s0.14-0.19,0.42-0.28s0.44-0.09,0.47,0s0.12,0.17,0.28,0.23
		c0.16,0.06,0.33,0.16,0.52,0.28l0.28,0.38v0.75c0,0.5-0.09,0.83-0.28,0.98c-0.19,0.16-0.33,0.19-0.42,0.09s-0.14-0.39-0.14-0.89
		c0-0.5-0.05-0.75-0.14-0.75S447.37,449.95,447.09,449.73z M448.17,450.52c-0.06-0.12-0.12-0.14-0.19-0.05s0,0.14,0.19,0.14V450.52z
		 M466.36,463.93c0.19,0,0.25,0.13,0.19,0.38c-0.06,0.25-0.11,0.38-0.14,0.38s-0.34,0-0.94,0s-1.19,0-1.78,0s-1.14-0.03-1.64-0.09
		c-0.5-0.06-0.91-0.09-1.22-0.09l-1.5-0.56c-0.25,0.25-0.56,0.13-0.94-0.38c-0.06-0.12-0.14-0.22-0.23-0.28
		c-0.09-0.06-0.23-0.14-0.42-0.23s-0.33-0.17-0.42-0.23c-0.09-0.06-0.3-0.22-0.61-0.47c-0.31-0.25-0.61-0.27-0.89-0.05
		c-0.28,0.22-0.42,0.3-0.42,0.23v0.09c0,0.06-0.17,0.27-0.52,0.61c-0.34,0.34-0.73,0.61-1.17,0.8s-0.73,0.3-0.89,0.33
		c-0.16,0.03-0.3,0.05-0.42,0.05l-0.56,0.09c-0.06,0-0.06-0.03,0-0.09l-0.38,0.28c0,0.13-0.22,0.19-0.66,0.19
		c-1.12,0-1.78-0.34-1.97-1.03c0-0.06,0.08-0.09,0.23-0.09s0.36,0.06,0.61,0.19c0.25,0.13,0.61,0.16,1.08,0.09
		c0.47-0.06,0.81-0.16,1.03-0.28c0.22-0.12,0.41-0.19,0.56-0.19s0.39-0.17,0.7-0.52c0.31-0.34,0.59-0.52,0.84-0.52
		c0.12,0,0.28-0.19,0.47-0.56c0.62-0.75,0.66-1.22,0.09-1.41c-0.06,0-0.14-0.06-0.23-0.19c-0.09-0.12-0.23-0.2-0.42-0.23
		c-0.19-0.03-0.31-0.11-0.38-0.23c-0.06-0.12-0.2-0.25-0.42-0.38c-0.22-0.12-0.33-0.3-0.33-0.52c0-0.22-0.09-0.33-0.28-0.33
		c-0.62-0.19-1.14-0.53-1.55-1.03c-0.41-0.5-0.48-0.75-0.23-0.75c0.12,0,0.3,0.03,0.52,0.09c0.22,0.06,0.52,0.03,0.89-0.09
		c0.19,0,0.34-0.23,0.47-0.7s0.23-0.72,0.33-0.75c0.09-0.03,0.16-0.16,0.19-0.38c0.03-0.22,0.12-0.44,0.28-0.66
		c0.16-0.22,0.14-0.41-0.05-0.56c-0.19-0.16-0.22-0.33-0.09-0.52s0.19-0.48,0.19-0.89c0-0.41,0.05-0.69,0.14-0.84
		c0.09-0.16,0.12-0.38,0.09-0.66s-0.03-0.5,0-0.66c0.03-0.16,0.11-0.14,0.23,0.05h0.09c0.19,0,0.31,0.25,0.38,0.75
		c0.06,0.5,0.11,0.84,0.14,1.03s0,0.36-0.09,0.52c-0.09,0.16-0.06,0.27,0.09,0.33c0.16,0.06,0.34-0.01,0.56-0.23
		c0.22-0.22,0.44-0.23,0.66-0.05s0.33,0.13,0.33-0.19c0-0.06,0.02-0.11,0.05-0.14c0.03-0.03,0.11-0.05,0.23-0.05h0.38
		c0,0.13-0.17,0.38-0.52,0.75s-0.58,0.66-0.7,0.84l-0.09-0.28c0.19-0.44,0.09-0.44-0.28,0c-0.12,0.19-0.25,0.34-0.38,0.47
		c0.25-0.12,0.39-0.14,0.42-0.05s-0.05,0.27-0.23,0.52c-0.31,0.5-0.31,0.78,0,0.84c0.19,0,0.47,0,0.84,0s0.72-0.09,1.03-0.28
		s0.58-0.19,0.8,0s0.39,0.28,0.52,0.28l0.28,0.56c0,0.25,0.02,0.42,0.05,0.52s0.03,0.39,0,0.89c-0.03,0.5-0.25,1.2-0.66,2.11
		c-0.41,0.91-0.55,1.44-0.42,1.59c0.12,0.16,0.3,0.27,0.52,0.33c0.22,0.06,0.33,0.13,0.33,0.19c0,0.06,0.08,0.09,0.23,0.09
		s0.25,0.05,0.28,0.14s0.45,0.3,1.27,0.61c0.81,0.31,1.52,0.52,2.11,0.61s1.03,0.2,1.31,0.33c0.28,0.13,0.64,0.22,1.08,0.28
		c0.44,0.06,0.7,0.09,0.8,0.09s0.27,0.02,0.52,0.05c0.25,0.03,0.39,0.06,0.42,0.09C466.15,463.92,466.23,463.93,466.36,463.93z
		 M452.48,458.4c0.06,0,0.09-0.05,0.09-0.14s-0.03-0.14-0.09-0.14s-0.09,0.05-0.09,0.14S452.42,458.4,452.48,458.4z M452.67,448.56
		c0-0.31,0.06-0.5,0.19-0.56c0.12-0.06,0.22-0.09,0.28-0.09s0.44,0.03,1.12,0.09c0.69,0.06,1.08,0.11,1.17,0.14
		c0.09,0.03,0.31,0.08,0.66,0.14c0.34,0.06,0.59,0.06,0.75,0c0.16-0.06,0.34-0.03,0.56,0.09c0.22,0.13,0.33,0.23,0.33,0.33
		s-0.11,0.28-0.33,0.56s-0.31,0.42-0.28,0.42s0.09-0.06,0.19-0.19c0.09-0.12,0.23-0.12,0.42,0l-0.28,0.19
		c-0.06,0.19-0.17,0.28-0.33,0.28s-0.25-0.01-0.28-0.05c-0.03-0.03-0.08-0.05-0.14-0.05s-0.2-0.09-0.42-0.28s-0.62-0.28-1.22-0.28
		s-0.92-0.06-0.98-0.19C453.14,448.93,452.67,448.74,452.67,448.56z M456.79,456.48c-0.19-0.28-0.41-0.31-0.66-0.09
		c-0.25,0.22-0.44,0.31-0.56,0.28c-0.12-0.03-0.31-0.05-0.56-0.05h-0.66l-0.19,0.09c0,0.13-0.09,0.28-0.28,0.47
		c-0.44,0.44-0.47,0.88-0.09,1.31c0.19,0.31,0.28,0.53,0.28,0.66c0,0.13,0.09,0.22,0.28,0.28c0.19,0.06,0.44,0.16,0.75,0.28
		l0.28,0.19c0-0.12,0.12-0.12,0.38,0c0.38,0,0.56-0.12,0.56-0.38c0-0.12,0.08-0.44,0.23-0.94c0.16-0.5,0.2-0.76,0.14-0.8
		c-0.06-0.03-0.03-0.11,0.09-0.23C456.98,457.12,456.98,456.76,456.79,456.48z M456.51,455.96c0-0.06-0.03-0.09-0.09-0.09
		s-0.09,0.03-0.09,0.09C456.32,456.02,456.39,456.02,456.51,455.96z"/>
	<path class="st2" d="M487.38,456.06c-0.06,0.38-0.13,0.56-0.19,0.56c-0.06,0-0.14,0.11-0.23,0.33c-0.09,0.22-0.45,0.67-1.08,1.36
		c-0.62,0.69-0.94,1.09-0.94,1.22l0.09,0.28h0.19c1,0,1.51,0.09,1.55,0.28c0.03,0.19,0.01,0.47-0.05,0.84c-1,0-1.78,0.06-2.34,0.19
		l-0.56,0.19h-0.38c-0.06,0-0.09,0.02-0.09,0.05c0,0.03-0.06,0.05-0.19,0.05c-0.62,0-1,0.38-1.12,1.12
		c-0.06,0.44-0.13,1.12-0.19,2.06c-0.06,0.94-0.25,1.41-0.56,1.41c-0.13,0-0.3-0.11-0.52-0.33c-0.22-0.22-0.33-0.38-0.33-0.47
		s-0.02-0.19-0.05-0.28c-0.03-0.09-0.03-0.52,0-1.27c0.03-0.75,0.11-1.55,0.23-2.39c0.12-0.84,0.23-1.41,0.33-1.69
		s0.17-0.48,0.23-0.61c0.06-0.12,0.11-0.23,0.14-0.33c0.03-0.09,0.09-0.39,0.19-0.89c0.09-0.5,0.14-0.83,0.14-0.98
		c0-0.16,0.01-0.61,0.05-1.36c0.03-0.75,0.01-1.12-0.05-1.12c-0.38,0-0.66,0.28-0.84,0.84c-0.06,0.19-0.16,0.38-0.28,0.56
		c-0.13,0.19-0.23,0.38-0.33,0.56s-0.25,0.39-0.47,0.61c-0.22,0.22-0.36,0.39-0.42,0.52c-0.06,0.13-0.17,0.28-0.33,0.47
		c-0.16,0.19-0.39,0.45-0.7,0.8c-0.31,0.34-0.5,0.52-0.56,0.52c0.06,0.25-0.02,0.39-0.23,0.42c-0.22,0.03-0.33,0.08-0.33,0.14
		c0,0.06-0.09,0.22-0.28,0.47l-0.28,0.19c-0.44,0.25-0.75,0.25-0.94,0c-0.44-0.12-0.31-0.75,0.38-1.88
		c0.12-0.12,0.28-0.27,0.47-0.42c0.19-0.16,0.28-0.27,0.28-0.33c0-0.25,0.2-0.34,0.61-0.28c0.41,0.06,0.7-0.03,0.89-0.28
		c0-0.12,0.16-0.44,0.47-0.94c0.31-0.5,0.5-0.81,0.56-0.94c0.06-0.12,0.16-0.19,0.28-0.19c0.12,0,0.28-0.19,0.47-0.56
		s0.3-0.59,0.33-0.66c0.03-0.06,0.05-0.2,0.05-0.42c0-0.22,0.06-0.34,0.19-0.38c0.12-0.03,0.19-0.06,0.19-0.09
		c0-0.03,0.09-0.22,0.28-0.56c0.19-0.34,0.33-0.55,0.42-0.61c0.09-0.06,0.2-0.3,0.33-0.7c0.12-0.41,0.17-0.64,0.14-0.7
		c-0.03-0.06-0.47-0.09-1.31-0.09s-1.39,0.03-1.64,0.09c-0.25,0.06-1.28,0.13-3.09,0.19c-0.56,0-1-0.19-1.31-0.56
		c-0.31-0.38-0.16-0.62,0.47-0.75c0.12-0.12,0.44-0.12,0.94,0c0.5,0.13,0.95,0.16,1.36,0.09c0.41-0.06,1.31-0.16,2.72-0.28
		c1.41-0.12,2.25-0.22,2.53-0.28c0.28-0.06,0.45-0.5,0.52-1.31c0.38-1.19,0.47-2.05,0.28-2.58c-0.19-0.53-0.23-0.81-0.14-0.84
		c0.09-0.03,0.3-0.05,0.61-0.05c0.31,0,0.53,0.08,0.66,0.23c0.12,0.16,0.19,0.61,0.19,1.36s-0.08,1.39-0.23,1.92
		c-0.16,0.53-0.11,0.88,0.14,1.03c0.25,0.16,1.06,0.08,2.44-0.23h0.28c0.19,0,0.72-0.09,1.59-0.28c0.88-0.19,1.56-0.34,2.06-0.47
		c1.12-0.31,1.91-0.06,2.34,0.75c0.19,0.13,0.22,0.25,0.09,0.38c-0.13,0.13-0.69,0.22-1.69,0.28c-1,0.06-1.64,0.13-1.92,0.19
		c-0.28,0.06-0.62,0.11-1.03,0.14c-0.41,0.03-0.7,0.06-0.89,0.09c-0.19,0.03-0.42,0.05-0.7,0.05s-0.64,0.09-1.08,0.28
		c-0.19,0.13-0.56,0.19-1.12,0.19c-0.25,0-0.59,0-1.03,0c-0.13,0-0.34,0.23-0.66,0.7c-0.31,0.47-0.47,0.8-0.47,0.98
		s0.08,0.27,0.23,0.23c0.16-0.03,0.34-0.05,0.56-0.05c0.22,0,0.67-0.01,1.36-0.05c0.69-0.03,1.05-0.08,1.08-0.14
		c0.03-0.06,0.25-0.06,0.66,0c0.41,0.06,0.73,0.13,0.98,0.19l0.47,0.09c0.06,0,0.09,0.06,0.09,0.19c-0.19,0.13-0.19,0.25,0,0.38
		c0.19,0.38,0.34,0.66,0.47,0.84c0.19,0.19,0.3,1.91,0.33,5.16c0.03,3.25,0.09,5.17,0.19,5.77c0.09,0.59,0.14,1.36,0.14,2.3v1.41
		l-0.28,0.19c-0.19,0.25-0.44,0.31-0.75,0.19c-0.31-0.13-0.58-0.33-0.8-0.61c-0.22-0.28-0.33-0.45-0.33-0.52
		c0-0.06-0.08-0.14-0.23-0.23c-0.16-0.09-0.31-0.28-0.47-0.56c-0.16-0.28-0.31-0.5-0.47-0.66c-0.16-0.16-0.39-0.69-0.7-1.59
		c-0.31-0.91-0.47-1.5-0.47-1.78s0.03-0.42,0.09-0.42c0.25,0,0.59,0.47,1.03,1.41c0.06,0.38,0.23,0.74,0.52,1.08
		c0.28,0.34,0.42,0.55,0.42,0.61c0,0.06,0.11,0.17,0.33,0.33c0.22,0.16,0.34,0.23,0.38,0.23c0.03,0,0.09-0.05,0.19-0.14
		s0.14-1.37,0.14-3.84c0-2.47-0.02-3.72-0.05-3.75c-0.03-0.03-0.03-0.12,0-0.28c0.03-0.16,0-0.27-0.09-0.33
		c-0.09-0.06-0.14-0.22-0.14-0.47v-0.75H487.38z M483.16,457.18l-0.28,0.19l-0.09,0.38c-0.13,0.06-0.25,0.25-0.38,0.56
		c-0.06,0.81-0.05,1.27,0.05,1.36s0.48-0.17,1.17-0.8c0.69-0.62,1.03-0.97,1.03-1.03c0-0.06,0.03-0.09,0.09-0.09
		c0.19,0,0.28-0.12,0.28-0.38l0.28-0.75h-0.28v-0.09h-0.28c-0.25,0-0.38,0.02-0.38,0.05c0,0.03,0,0.03,0,0
		c0-0.03-0.06,0.03-0.19,0.19c-0.13,0.16-0.25,0.23-0.38,0.23L483.16,457.18z M487,453.06c-0.13,0-0.61-0.01-1.45-0.05
		c-0.84-0.03-1.3-0.03-1.36,0c-0.06,0.03-0.19,0.05-0.38,0.05c-0.62,0.06-0.94,0.56-0.94,1.5c0,0.5,0.05,0.78,0.14,0.84
		c0.09,0.06,0.45,0.03,1.08-0.09c0.62-0.12,1.23-0.19,1.83-0.19c0.59,0,1.03,0.05,1.31,0.14s0.44,0.09,0.47,0
		c0.03-0.09-0.03-0.47-0.19-1.12C487.36,453.48,487.19,453.12,487,453.06z"/>
	<path class="st2" d="M500.75,452.68c0.03-0.12,0.05-0.22,0.05-0.28c0-0.06,0.03-0.14,0.09-0.23c0.06-0.09,0.33,0.06,0.8,0.47
		c0.47,0.41,0.8,0.61,0.98,0.61s0.48-0.03,0.89-0.09c0.41-0.06,0.81-0.09,1.22-0.09c0.41,0,0.62-0.03,0.66-0.09
		c0.03-0.06,0.25-0.09,0.66-0.09c0.41,0,0.7,0.03,0.89,0.09c0.19,0.06,0.47,0.06,0.84,0c0.38-0.06,0.67-0.01,0.89,0.14
		c0.22,0.16,0.33,0.3,0.33,0.42c0,0.13,0.01,0.22,0.05,0.28c0.03,0.06,0.03,0.17,0,0.33c-0.03,0.16-0.08,0.27-0.14,0.33
		c-0.31,0.31-0.5,0.47-0.56,0.47l-0.47,0.66c-0.13,0.44-0.17,0.67-0.14,0.7c0.03,0.03-0.11,0.2-0.42,0.52l0.19,0.28
		c0.19,0.44,0.12,0.75-0.19,0.94c-0.94,0.44-1.56,0.62-1.88,0.56l-0.75,0.47h-0.19v0.19l-0.28,0.28c-0.19,0.13-0.28,0.44-0.28,0.94
		c0,0.06-0.08,0.09-0.23,0.09c-0.16,0-0.33-0.03-0.52-0.09c-0.19-0.06-0.31-0.27-0.38-0.61c-0.06-0.34-0.14-0.59-0.23-0.75
		c-0.09-0.16-0.14-0.3-0.14-0.42c0-0.12,0.05-0.22,0.14-0.28c0.09-0.06,0.08-0.23-0.05-0.52c-0.13-0.28-0.19-0.48-0.19-0.61
		c0-0.12-0.05-0.28-0.14-0.47s-0.11-0.44-0.05-0.75c0.06-0.31,0.01-0.56-0.14-0.75c-0.16-0.19-0.31-0.47-0.47-0.84
		c-0.16-0.38-0.34-0.73-0.56-1.08C500.81,453.04,500.72,452.81,500.75,452.68z M503.52,458.12l0.66-0.19h0.09
		c0-0.25,0.17-0.41,0.52-0.47c0.34-0.06,0.67-0.28,0.98-0.66l0.38-0.28c0.25,0,0.41-0.14,0.47-0.42c0.06-0.28,0.12-0.48,0.19-0.61
		c0.62-0.5,0.87-0.88,0.75-1.12c0-0.19-0.45-0.31-1.36-0.38c-0.91-0.06-1.38-0.06-1.41,0c-0.03,0.06-0.34,0.09-0.94,0.09
		c-0.59,0-0.89,0.11-0.89,0.33c0,0.22,0.06,0.45,0.19,0.7l-0.38,0.47l0.19,0.09c0.06,0.13,0.12,0.34,0.19,0.66
		c0,0.25,0.06,0.5,0.19,0.75l0.19,0.38V458.12z M503.05,457.93c-0.06-0.12-0.09-0.12-0.09,0l0.09,0.09V457.93z M516.88,448.98
		c0.03-0.03,0.11-0.08,0.23-0.14c0.12-0.06,0.53-0.06,1.22,0c0.69,0.06,1.11,0.11,1.27,0.14c0.16,0.03,0.34,0.14,0.56,0.33
		c0.22,0.19,0.22,0.41,0,0.66c-0.22,0.25-0.52,0.44-0.89,0.56c-0.06,0-0.39,0.25-0.98,0.75c-0.59,0.5-0.94,0.84-1.03,1.03
		s-0.02,0.38,0.23,0.56c0.56,0.44,0.5,0.75-0.19,0.94c-0.25,0.06-0.47,0.09-0.66,0.09s-0.3-0.01-0.33-0.05
		c-0.03-0.03-0.13,0-0.28,0.09c-0.16,0.09-0.45,0.23-0.89,0.42l-1.22,0.19h-0.09h-0.09h-0.19c-0.13,0.13-0.22,0.16-0.28,0.09
		c-0.06-0.06-0.3-0.03-0.7,0.09c-0.41,0.13-0.61,0.22-0.61,0.28c0,0.06-0.08,0.17-0.23,0.33c-0.16,0.16-0.25,0.42-0.28,0.8
		c-0.03,0.38-0.06,0.67-0.09,0.89c-0.03,0.22-0.08,0.45-0.14,0.7c-0.06,0.25-0.14,0.61-0.23,1.08s-0.16,0.8-0.19,0.98
		c-0.03,0.19-0.13,0.48-0.28,0.89c-0.16,0.41-0.25,0.81-0.28,1.22c-0.03,0.41-0.08,0.66-0.14,0.75c-0.06,0.09-0.09,0.19-0.09,0.28
		s-0.03,0.14-0.09,0.14c-0.06,0-0.09,0.11-0.09,0.33c0,0.22-0.13,0.72-0.38,1.5c-0.25,0.78-0.38,1.22-0.38,1.31
		s-0.03,0.17-0.09,0.23v0.28l-0.47,0.56c-0.13,0.38-0.19,0.62-0.19,0.75c0,0.44-0.34,1.09-1.03,1.97c-0.31,0.44-0.61,0.56-0.89,0.38
		s-0.3-0.31-0.05-0.38c0.12,0,0.26-0.16,0.42-0.47c0.16-0.31,0.33-0.67,0.52-1.08c0.19-0.41,0.31-0.75,0.38-1.03
		c0.06-0.28,0.11-0.5,0.14-0.66c0.03-0.16,0.09-0.36,0.19-0.61c0.09-0.25,0.19-0.53,0.28-0.84s0.23-0.7,0.42-1.17
		s0.31-1.06,0.38-1.78c0.06-0.72,0.19-1.28,0.38-1.69c0.19-0.41,0.3-0.73,0.33-0.98c0.03-0.25,0.11-0.52,0.23-0.8
		c0.12-0.28,0.2-0.69,0.23-1.22c0.03-0.53,0.14-0.98,0.33-1.36l0.19-0.28l-0.19-0.19c-0.13,0-0.13-0.09,0-0.28
		c0.19-0.44,0.33-1.14,0.42-2.11c0.09-0.97,0.17-1.67,0.23-2.11c0.06-0.44-0.09-0.94-0.47-1.5s-0.5-0.84-0.38-0.84
		c0.38-0.19,0.76-0.23,1.17-0.14c0.41,0.09,0.94,0.14,1.59,0.14s1.03-0.01,1.12-0.05c0.09-0.03,0.2-0.03,0.33,0
		c0.12,0.03,0.25,0,0.38-0.09c0.12-0.09,0.25-0.11,0.38-0.05c0.12,0.06,0.31,0.09,0.56,0.09c0.25,0,0.47,0.02,0.66,0.05
		C516.74,449.01,516.85,449.01,516.88,448.98z M517.49,450.06c0-0.12-0.19-0.19-0.56-0.19l-0.38-0.19l-0.38,0.19
		c-0.31,0-0.56,0-0.75,0s-0.64,0.03-1.36,0.09c-0.72,0.06-1.12,0.22-1.22,0.47c-0.09,0.25-0.17,0.53-0.23,0.84
		c-0.06,0.31-0.13,0.74-0.19,1.27c-0.06,0.53-0.03,0.86,0.09,0.98c0.12,0.13,0.34,0.06,0.66-0.19l0.56-0.28l0.19-0.38
		c0.31-0.12,0.59-0.27,0.84-0.42c0.25-0.16,0.55-0.33,0.89-0.52c0.34-0.19,0.7-0.47,1.08-0.84l0.38-0.38
		C517.36,450.52,517.49,450.37,517.49,450.06z M513.92,465.06c-0.13-0.12-0.19-1.05-0.19-2.77c0-1.72,0.03-2.81,0.09-3.28
		c0.06-0.47,0.06-0.8,0-0.98c-0.06-0.19-0.06-0.39,0-0.61c0.06-0.22,0.08-0.58,0.05-1.08c-0.03-0.5,0.05-0.91,0.23-1.22l0.38,0.38
		c0.31,0.13,0.47,0.33,0.47,0.61s-0.06,0.42-0.19,0.42v0.19c0.19,0,0.28,0.36,0.28,1.08c0,0.72,0.05,1.14,0.14,1.27
		c0.09,0.13,0.34,0.08,0.75-0.14c0.41-0.22,0.7-0.34,0.89-0.38c0.19-0.03,0.33-0.08,0.42-0.14c0.09-0.06,0.25-0.14,0.47-0.23
		c0.22-0.09,0.41-0.19,0.56-0.28c0.16-0.09,0.36-0.17,0.61-0.23c0.25-0.06,0.39-0.03,0.42,0.09c0.03,0.13,0.11,0.19,0.23,0.19
		c0.19,0,0.28,0.13,0.28,0.38c-0.19,0.5-0.53,0.75-1.03,0.75c-0.19,0-0.36,0.05-0.52,0.14c-0.16,0.09-0.25,0.14-0.28,0.14
		c-0.03,0-0.05,0.03-0.05,0.09c0,0.06-0.03,0.09-0.09,0.09c-0.06,0-0.25,0.06-0.56,0.19l-0.47,0.09l-0.47,0.09
		c-0.13,0.13-0.22,0.16-0.28,0.09c-0.06-0.06-0.2,0.02-0.42,0.23c-0.22,0.22-0.33,0.31-0.33,0.28c0-0.03-0.09,0.03-0.28,0.19
		c-0.19,0.16-0.28,0.42-0.28,0.8s-0.05,0.67-0.14,0.89c-0.09,0.22-0.14,0.39-0.14,0.52c0,0.13,0,0.33,0,0.61s0.08,0.48,0.23,0.61
		c0.16,0.13,0.17,0.19,0.05,0.19l0.38,0.28c0.38,0.06,0.94,0.09,1.69,0.09s1.25-0.03,1.5-0.09c0.25-0.06,0.42-0.09,0.52-0.09
		s0.19-0.03,0.28-0.09c0.09-0.06,0.17-0.03,0.23,0.09h0.19c0-0.25,0.16-0.39,0.47-0.42c0.31-0.03,0.58-0.09,0.8-0.19
		c0.22-0.09,0.42-0.14,0.61-0.14s0.39-0.06,0.61-0.19c0.22-0.12,0.42-0.27,0.61-0.42c0.19-0.16,0.28-0.25,0.28-0.28
		c0-0.03,0.06-0.05,0.19-0.05c0.12,0,0.2-0.25,0.23-0.75c0.03-0.5,0.11-0.81,0.23-0.94c0.12-0.12,0.12-0.39,0-0.8
		c-0.13-0.41-0.19-0.67-0.19-0.8c0-0.12-0.02-0.19-0.05-0.19c-0.03,0-0.08-0.05-0.14-0.14c-0.06-0.09-0.06-0.22,0-0.38
		c0.06-0.16,0.12-0.23,0.19-0.23c0.38,0,0.59,0.22,0.66,0.66c0,0.06,0.09,0.16,0.28,0.28c0.25,0.19,0.39,0.59,0.42,1.22
		c0.03,0.62,0.11,1.12,0.23,1.5c0.12,0.38,0.12,0.69,0,0.94c-0.13,0.25-0.53,0.53-1.22,0.84l-0.94,0.56v0.09l-0.47,0.19
		c-0.06,0-0.25,0.03-0.56,0.09c-0.31,0.06-0.81,0.2-1.5,0.42c-0.69,0.22-1.19,0.34-1.5,0.38c-0.31,0.03-0.94,0.05-1.88,0.05
		s-1.53,0-1.78,0c-0.56-0.06-0.91-0.25-1.03-0.56C514.11,465.12,514.05,465.06,513.92,465.06z M514.11,461.68
		c-0.13,0-0.19,0.03-0.19,0.09c0,0.06,0.06,0.09,0.19,0.09V461.68z M514.49,453.76c0-0.03-0.02-0.05-0.05-0.05
		c-0.03,0-0.05,0.03-0.05,0.09C514.46,453.81,514.49,453.79,514.49,453.76z"/>
</g>
</svg>
