<?xml version="1.0" encoding="utf-8"?>
<!-- Generator: Adobe Illustrator 19.0.0, SVG Export Plug-In . SVG Version: 6.00 Build 0)  -->
<svg version="1.1" id="图层_1" xmlns="http://www.w3.org/2000/svg" xmlns:xlink="http://www.w3.org/1999/xlink" x="0px" y="0px"
	 viewBox="0 0 100 100" style="enable-background:new 0 0 100 100;" xml:space="preserve">
<style type="text/css">
	.st0{fill:#FF8C00;}
	.st1{fill:#23B6FF;}
	.st2{fill:#78A53C;}
	.st3{fill:#006837;}
</style>
<g>
	<g id="XMLID_5_">
		<path class="st0" d="M16.7,70.3l4.2-1.7l15.5-20.9c0,0-0.1,0,13,1.4s25-32,44.5-44.8C76.8,2.5,66.1,8.8,53.7,20.1
			C38.6,33.7,25.9,53.7,16.7,70.3z"/>
	</g>
	<g id="XMLID_3_">
		<path class="st1" d="M74.2,34.8c-0.8,1-1.2,1.7-1.2,1.7v34.6c0,0.4-0.2,4.4-1.2,8.5c-0.6,2.6-2.5,6.5-4.9,9
			c-4.2,4.2-8.8,5.8-8.8,5.8l-1,0.3c0,0,3.1-0.1,8.7-3.5c4.1-2.4,6.3-6.7,7-8.2c1.4-3,2.1-6.4,2.2-7.7c0.3-2.5,0.4-4.9,0.4-5
			c0,0,0-24.4,0-33.6c0-0.9,0.4-3.8,0.4-3.8C75.9,33.1,74.6,34.2,74.2,34.8z"/>
	</g>
	<g id="XMLID_2_">
		<path class="st2" d="M46.3,89.9c0,0-5.3,0.3-10.3,0.1c-1.5-0.1-4.8-0.4-6.6-0.8c-7.4-1.8-11.1-6.1-12.1-7.7
			c-0.4-0.6-1.1-2.4-1-5.2V36.1c0,0-0.2-2.9-1.1-4c-1-1.3-3-1.9-4.3-2.1C8.5,29.6,6,30.2,6,30.2s1.1,1.2,1.7,2.9
			c0.5,1.4,0.6,3.2,0.6,4.7l0,10.2c0,0,0.1,28.3,0.1,29.6c0.1,2.6,1.7,6.2,3.1,7.7c1.9,2,4.8,4.5,8.2,5.2c3.4,0.7,4.9,1.2,11.2,1.7
			C37.4,92.6,46.3,89.9,46.3,89.9z"/>
	</g>
	<g id="XMLID_1_">
		<path class="st3" d="M59.4,92.2c0.3-0.2,3.2-1.8,5.6-4.2c2.1-2.1,4-6.2,4.5-7.8c1.4-4.8,1.3-9.1,1.3-9.1V38.8
			c-3,4.6-7.4,10.2-11.6,13.3c0,9.9,0,19.9,0,20.5c0,0.5,0,6-1.4,10c-0.7,1.9-2.3,5.4-6,7.8c-5.2,3.3-12.7,4.4-14.6,4.5
			c-3.4,0.2-7.5-0.4-7.5-0.4s2.7,0.8,5.1,1.1c0.9,0.1,3.3,0.4,6.1,0.4c1.8,0,5.8-0.2,9.4-1C52.3,94.6,56.2,93.7,59.4,92.2z"/>
	</g>
</g>
</svg>
